<?xml version="1.0" encoding="utf-8"?>
<!-- Generator: Adobe Illustrator 15.0.0, SVG Export Plug-In . SVG Version: 6.00 Build 0)  -->
<!DOCTYPE svg PUBLIC "-//W3C//DTD SVG 1.1//EN" "http://www.w3.org/Graphics/SVG/1.1/DTD/svg11.dtd">
<svg version="1.1" id="Layer_1" xmlns="http://www.w3.org/2000/svg" xmlns:xlink="http://www.w3.org/1999/xlink" x="0px" y="0px"
	 width="103.702px" height="44.335px" viewBox="0.705 0.42 103.702 44.335" enable-background="new 0.705 0.42 103.702 44.335"
	 xml:space="preserve">
<g id="Layer_2">
</g>
<g id="Layer_1_1_">
	<g>
		<path fill="#33FF00" d="M78.062,29.279c0,0-2.162,0.617-2.59,0.617c-0.188,0-0.361-0.096-0.195-0.948
			c0.555-2.849,3.648-8.022,4.248-11.108c0.535-2.753-0.748-4.699-3.644-4.699c-3.038,0-6.481,2.089-7.788,2.943
			c-0.189-1.708-1.421-2.943-3.51-2.943c-2.518,0-5.791,1.71-7.504,2.706c0.05-1.234-0.26-2.326-0.26-2.326
			c-6.979,0-9.907,0.902-9.907,0.902l-0.233,0.712c0,0,1.405,1.566,1.082,3.228c-0.159,0.82-0.938,2.646-1.881,4.903
			c-2.074-1.456-4.372-2.707-6.754-3.716c2.479-13.244,2.671-14.715,2.498-16.756c-0.19-1.709-0.573-2.184-0.573-2.184
			s-1.482-0.19-3.57-0.19c-2.943,0-6.34,0.38-8.645,0.76l-0.129,0.664c0.286,0.237,0.363,0.57,0.253,1.14
			c-0.064,0.332-0.104,0.285-0.122,0.38c-2.431,4.937-4.459,9.019-6.923,13.148C9.55,17.128,1.917,24.152,0.838,29.707
			C0.035,33.837,2.955,36.4,6.896,36.4c6.74,0,12.641-7.644,17.661-16.376c1.643,0.095,3.495,0.331,5.32,0.712l-1.319,6.788
			c-0.747,3.845-0.111,7.166,4.589,7.166c2.136,0,5.018-0.664,7.556-1.991l-0.633-2.611c-0.407,0.144-0.948,0.237-1.186,0.237
			c-0.901,0-1.318-1.52-0.512-6.645c1.906,1.186,3.861,2.848,5.17,4.413c0,0,0.202-0.108,0.516-0.302
			c-0.855,2.256-1.631,4.583-2.025,6.613h1.188c1.992,0,5.628-0.141,7.617-0.854c0.84-4.318,3.787-10.443,5.294-14.287
			c0.795-0.428,1.716-0.76,2.236-0.76c0.428,0,0.608,0.284,0.489,0.901c-0.359,1.852-3.76,8.592-4.617,13.006
			c-0.139,0.712-0.268,1.377-0.227,1.899c1.852,0,6.465-0.047,8.653-0.809c1.218-6.266,3.707-11.012,4.849-14.192
			c0.756-0.475,1.723-0.807,2.293-0.807c0.428,0,0.664,0.237,0.518,0.997c-0.396,2.04-3.516,7.831-4.143,11.061
			c-0.592,3.037,1,4.129,3.278,4.129c2.802,0,6.959-1.613,8.992-3.037L78.062,29.279z M16.814,24.201
			c-3.618,4.938-6.497,8.021-8.87,8.021c-1.614,0-2.011-1.377-1.734-2.802c0.637-3.274,5.146-8.401,13.495-9.351
			C18.83,21.4,17.85,22.777,16.814,24.201z M30.994,14.992l-0.406,2.089c-1.379-0.237-2.766-0.428-4.124-0.522
			c1.344-2.516,2.64-5.031,3.87-7.452c1.239-2.469,1.526-3.702,1.526-3.702c0.104-0.047,0.484-0.047,0.569,0
			C32.496,7.019,31.833,10.673,30.994,14.992z"/>
		<path fill="#33FF00" d="M99.579,13.094c-1.992,0-4.058,0.854-6.167,2.184c-0.016-1.14-0.258-1.852-0.258-1.852
			c-6.788,0-9.812,0.902-9.812,0.902l-0.233,0.712c0,0,1.535,0.902,0.806,4.651c-1.062,5.459-7.144,17.942-8.103,22.879
			c-0.305,1.565-0.045,2.185-0.045,2.185c2.924-0.144,6.612-0.808,8.594-1.472c0.766-3.94,1.721-6.408,2.928-9.446
			c1.618,0.712,3.062,0.854,4.105,0.854c7.073,0,11.404-6.407,12.688-13.005C105.316,15.325,102.855,13.094,99.579,13.094z
			 M95.721,20.736c-0.636,3.274-2.98,9.968-5.734,9.968c-0.332,0-0.883-0.095-1.329-0.238c1.581-3.985,3.153-7.927,4.231-12.008
			c0.824-0.333,1.525-0.522,2-0.522C95.98,17.936,96.055,19.027,95.721,20.736z"/>
	</g>
</g>
</svg>
