<?xml version="1.0" encoding="utf-8"?>
<!-- Generator: Adobe Illustrator 15.0.0, SVG Export Plug-In . SVG Version: 6.00 Build 0)  -->
<!DOCTYPE svg PUBLIC "-//W3C//DTD SVG 1.1//EN" "http://www.w3.org/Graphics/SVG/1.1/DTD/svg11.dtd">
<svg version="1.1" id="Layer_1" xmlns="http://www.w3.org/2000/svg" xmlns:xlink="http://www.w3.org/1999/xlink" x="0px" y="0px"
	 width="288px" height="205px" viewBox="0 0 288 205" enable-background="new 0 0 288 205" xml:space="preserve">
<g>
	<polygon fill="#FFFFFF" points="61.625,112.78 45.922,120.888 56.147,103.504 61.625,78.085 67.104,103.504 77.329,120.888 	"/>
	<path fill="#FFFFFF" d="M105.456,96.08l-18.763,16.63h8.755l2.06-2.158h8.435l-0.381,2.158h8.754l0.136-16.63H105.456
		L105.456,96.08z M101.105,107.09l5.582-5.416l-0.504,5.416H101.105L101.105,107.09z"/>
	<polygon fill="#FFFFFF" points="117.968,96.08 115.427,100.571 122.943,100.571 116.074,112.71 124.788,112.71 131.657,100.571 
		139.333,100.571 141.874,96.08 	"/>
	<path fill="#FFFFFF" d="M153.107,95.515c-3.079,0.067-5.888,0.548-8.43,1.438c-2.541,0.89-4.698,1.993-6.47,3.311
		c-1.771,1.319-3.086,2.734-3.942,4.248c-0.856,1.515-1.132,2.916-0.821,4.208c0.309,1.293,1.26,2.365,2.854,3.221
		c1.596,0.854,3.951,1.283,7.07,1.283c2.317,0,4.491-0.247,6.518-0.744c2.026-0.496,3.852-1.157,5.475-1.978
		c1.623-0.818,3.023-1.763,4.194-2.82c1.174-1.062,2.08-2.158,2.72-3.285c0.54-1.096,0.791-2.173,0.751-3.234
		c-0.038-1.062-0.413-2.011-1.126-2.849c-0.712-0.839-1.787-1.515-3.229-2.028C157.225,95.772,155.372,95.515,153.107,95.515
		L153.107,95.515z M150.918,99.878c0.559,0,1.089,0.078,1.588,0.231c0.5,0.152,0.876,0.405,1.131,0.756s0.373,0.8,0.357,1.347
		c-0.018,0.549-0.244,1.206-0.678,1.978c-0.882,1.555-1.971,2.764-3.269,3.618c-1.296,0.855-2.744,1.283-4.343,1.283
		c-1.519,0-2.51-0.394-2.97-1.182c-0.461-0.786-0.251-1.958,0.629-3.515c0.861-1.521,1.983-2.655,3.364-3.4
		C148.108,100.25,149.506,99.878,150.918,99.878L150.918,99.878z"/>
	<polygon fill="#FFFFFF" points="177.013,96.08 166.538,96.08 157.129,112.71 165.124,112.71 168.813,106.19 170.403,102.392 
		169.002,112.71 175.238,112.71 185.451,102.573 182.765,106.19 179.075,112.71 187.032,112.71 196.442,96.08 186.006,96.08 
		175.729,106.19 	"/>
	<polygon fill="#FFFFFF" points="200.639,96.08 191.228,112.71 199.903,112.71 209.312,96.08 	"/>
	<path fill="#FFFFFF" d="M226.968,102.392h8.034c0.257-0.546,0.428-1.213,0.514-2.001c0.086-0.786-0.142-1.539-0.679-2.258
		c-0.54-0.72-1.513-1.335-2.914-1.849c-1.402-0.512-3.478-0.77-6.222-0.77c-1.759,0-3.522,0.176-5.293,0.526
		c-1.77,0.351-3.45,0.894-5.04,1.63c-1.589,0.734-3.054,1.677-4.396,2.822c-1.341,1.146-2.461,2.514-3.362,4.105
		c-1.471,2.601-1.478,4.637-0.019,6.107c1.462,1.473,4.274,2.241,8.448,2.31c1.808,0.051,3.598-0.094,5.364-0.436
		c1.766-0.342,3.42-0.83,4.964-1.462c1.545-0.633,2.916-1.374,4.114-2.22c1.199-0.847,2.123-1.751,2.771-2.708h-8.435
		c-0.469,0.548-0.972,0.996-1.502,1.35c-0.532,0.35-1.068,0.626-1.61,0.833c-0.542,0.204-1.076,0.346-1.601,0.425
		c-0.523,0.073-0.996,0.113-1.424,0.113c-1.119,0-1.91-0.229-2.374-0.682c-0.464-0.454-0.68-1.021-0.652-1.705
		c0.025-0.686,0.274-1.429,0.743-2.233c0.47-0.805,1.076-1.549,1.822-2.231c0.749-0.686,1.582-1.254,2.506-1.708
		c0.922-0.454,1.877-0.682,2.862-0.682c0.212,0,0.519,0.004,0.913,0.015c0.395,0.008,0.783,0.089,1.163,0.244
		c0.379,0.154,0.701,0.42,0.968,0.796C226.9,101.101,227.011,101.658,226.968,102.392L226.968,102.392z"/>
</g>
</svg>
