<?xml version="1.0" encoding="utf-8"?>
<!-- Generator: Adobe Illustrator 15.0.0, SVG Export Plug-In . SVG Version: 6.00 Build 0)  -->
<!DOCTYPE svg PUBLIC "-//W3C//DTD SVG 1.1//EN" "http://www.w3.org/Graphics/SVG/1.1/DTD/svg11.dtd">
<svg version="1.1" id="Layer_1" xmlns="http://www.w3.org/2000/svg" xmlns:xlink="http://www.w3.org/1999/xlink" x="0px" y="0px"
	 width="288px" height="205px" viewBox="0 0 288 205" enable-background="new 0 0 288 205" xml:space="preserve">
<g>
	<polygon fill-rule="evenodd" clip-rule="evenodd" fill="#FFFFFF" points="37.695,116.803 17.24,127.361 30.559,104.719 
		37.695,71.611 44.83,104.719 58.149,127.361 37.695,116.803 	"/>
	<path fill-rule="evenodd" clip-rule="evenodd" fill="#FFFFFF" d="M94.786,95.05l-24.44,21.66h11.403l2.683-2.81h10.986l-0.495,2.81
		h11.403l0.176-21.66H94.786L94.786,95.05z M89.12,109.39l7.271-7.054l-0.658,7.054H89.12L89.12,109.39z"/>
	<polygon fill-rule="evenodd" clip-rule="evenodd" fill="#FFFFFF" points="111.083,95.05 107.774,100.899 117.563,100.899 
		108.617,116.71 119.967,116.71 128.914,100.899 138.912,100.899 142.221,95.05 111.083,95.05 	"/>
	<path fill-rule="evenodd" clip-rule="evenodd" fill="#FFFFFF" d="M156.852,94.313c-4.008,0.089-7.666,0.714-10.979,1.872
		c-3.311,1.159-6.12,2.597-8.427,4.312c-2.308,1.718-4.019,3.562-5.135,5.532c-1.116,1.973-1.474,3.799-1.071,5.483
		c0.402,1.682,1.642,3.079,3.719,4.193s5.146,1.672,9.208,1.672c3.021,0,5.849-0.322,8.49-0.97c2.639-0.646,5.016-1.504,7.131-2.574
		c2.115-1.068,3.938-2.296,5.465-3.676c1.529-1.382,2.709-2.809,3.541-4.278c0.703-1.427,1.029-2.83,0.977-4.212
		c-0.051-1.383-0.539-2.618-1.467-3.71c-0.928-1.093-2.33-1.973-4.207-2.642C162.217,94.648,159.803,94.313,156.852,94.313
		L156.852,94.313z M154,99.996c0.73,0,1.42,0.101,2.07,0.302c0.65,0.199,1.141,0.529,1.473,0.985
		c0.332,0.457,0.486,1.042,0.465,1.754c-0.021,0.715-0.316,1.571-0.883,2.574c-1.148,2.027-2.566,3.601-4.256,4.715
		s-3.576,1.671-5.658,1.671c-1.979,0-3.268-0.513-3.868-1.539c-0.601-1.024-0.327-2.551,0.82-4.578
		c1.122-1.983,2.583-3.459,4.381-4.429C150.342,100.481,152.162,99.996,154,99.996L154,99.996z"/>
	<polygon fill-rule="evenodd" clip-rule="evenodd" fill="#FFFFFF" points="187.99,95.05 174.348,95.05 162.092,116.71 
		172.506,116.71 177.311,108.219 179.381,103.272 177.557,116.71 185.68,116.71 198.982,103.507 195.482,108.219 190.678,116.71 
		201.041,116.71 213.297,95.05 199.705,95.05 186.318,108.219 187.99,95.05 	"/>
	<polygon fill-rule="evenodd" clip-rule="evenodd" fill="#FFFFFF" points="218.764,95.05 206.506,116.71 217.807,116.71 
		230.062,95.05 218.764,95.05 	"/>
	<path fill-rule="evenodd" clip-rule="evenodd" fill="#FFFFFF" d="M253.059,103.272h10.465c0.334-0.712,0.557-1.581,0.668-2.608
		c0.113-1.023-0.184-2.005-0.885-2.94c-0.703-0.937-1.969-1.738-3.795-2.407c-1.826-0.668-4.527-1.003-8.102-1.003
		c-2.291,0-4.59,0.229-6.896,0.686s-4.494,1.165-6.564,2.123s-3.979,2.184-5.725,3.677c-1.748,1.493-3.207,3.275-4.381,5.349
		c-1.916,3.387-1.924,6.038-0.023,7.954c1.902,1.917,5.568,2.92,11.002,3.008c2.357,0.067,4.688-0.121,6.988-0.567
		s4.455-1.081,6.467-1.906c2.012-0.822,3.797-1.787,5.357-2.891c1.562-1.102,2.766-2.278,3.611-3.526H250.26
		c-0.611,0.715-1.266,1.298-1.957,1.757c-0.693,0.456-1.393,0.817-2.098,1.086c-0.707,0.266-1.402,0.451-2.084,0.552
		c-0.682,0.098-1.299,0.149-1.855,0.149c-1.457,0-2.488-0.297-3.092-0.888c-0.604-0.59-0.887-1.33-0.85-2.22
		c0.035-0.893,0.357-1.862,0.969-2.91c0.609-1.047,1.4-2.017,2.373-2.906c0.975-0.893,2.061-1.633,3.264-2.224
		c1.201-0.591,2.443-0.887,3.729-0.887c0.277,0,0.674,0.005,1.188,0.018c0.516,0.011,1.02,0.116,1.514,0.317
		s0.914,0.547,1.262,1.037S253.113,102.315,253.059,103.272L253.059,103.272z"/>
</g>
</svg>
