<?xml version="1.0" encoding="utf-8"?>
<!-- Generator: Adobe Illustrator 15.0.0, SVG Export Plug-In . SVG Version: 6.00 Build 0)  -->
<!DOCTYPE svg PUBLIC "-//W3C//DTD SVG 1.1//EN" "http://www.w3.org/Graphics/SVG/1.1/DTD/svg11.dtd">
<svg version="1.1" id="Layer_1" xmlns="http://www.w3.org/2000/svg" xmlns:xlink="http://www.w3.org/1999/xlink" x="0px" y="0px"
	 width="288px" height="205px" viewBox="0 0 288 205" enable-background="new 0 0 288 205" xml:space="preserve">
<g>
	<path fill="#FFFFFF" d="M227.058,113.201c0.298,0.3,0.447,0.661,0.447,1.084c0,0.431-0.149,0.793-0.447,1.094
		c-0.296,0.302-0.659,0.451-1.085,0.451c-0.425,0-0.79-0.149-1.086-0.451c-0.296-0.301-0.442-0.663-0.442-1.094
		c0-0.423,0.146-0.784,0.446-1.084c0.301-0.301,0.658-0.452,1.082-0.452C226.398,112.749,226.755,112.9,227.058,113.201
		L227.058,113.201z M227.234,113.029L227.234,113.029c-0.348-0.348-0.769-0.52-1.262-0.52c-0.49,0-0.908,0.172-1.256,0.52
		s-0.522,0.766-0.522,1.256c0,0.494,0.173,0.918,0.517,1.267c0.347,0.352,0.768,0.522,1.262,0.522c0.493,0,0.914-0.171,1.262-0.522
		c0.348-0.351,0.525-0.772,0.525-1.267C227.76,113.794,227.582,113.374,227.234,113.029L227.234,113.029z M226.238,114.203
		c0.134-0.055,0.204-0.156,0.204-0.306c0-0.143-0.047-0.238-0.132-0.286c-0.088-0.051-0.224-0.073-0.416-0.073h-0.297v0.709h0.312
		C226.058,114.247,226.163,114.232,226.238,114.203L226.238,114.203L226.238,114.203z M225.253,115.262L225.253,115.262h0.345
		v-0.771h0.272c0.184,0,0.312,0.019,0.387,0.061c0.121,0.073,0.185,0.224,0.185,0.449v0.156l0.006,0.062
		c0.002,0.013,0.002,0.017,0.004,0.023c0,0.006,0.003,0.013,0.004,0.021h0.325l-0.015-0.027c-0.011-0.017-0.013-0.048-0.015-0.098
		c-0.007-0.054-0.007-0.103-0.007-0.148v-0.143c0-0.1-0.037-0.201-0.107-0.304c-0.072-0.104-0.184-0.166-0.337-0.192
		c0.12-0.019,0.217-0.048,0.283-0.097c0.13-0.081,0.193-0.211,0.193-0.385c0-0.245-0.101-0.412-0.304-0.494
		c-0.113-0.047-0.29-0.07-0.531-0.07h-0.688V115.262z"/>
</g>
<g>
	<path fill="#FFFFFF" d="M125.434,121.511c-6.512-4.002-15.35-4.695-29.604-0.938c-15.2,3.412-20.26,5.587-26.918,1.215
		c-2.559-2.151-3.472-5.622-2.787-10.604c1.585-8.119,5.874-15.942,13.494-24.62c4.258-4.519,8.198-8.391,13.406-9.949
		c3.99-0.972,3.62,2.021,3.138,2.438c-0.509,0.01-1.366,0.087-2.025,0.5c-0.539,0.393-2.014,1.672-2.09,3.393
		c-0.119,2.644,2.748,2.091,3.986,0.643c1.331-1.63,3.301-4.767,1.751-7.664c-0.647-1.045-1.77-1.751-3.165-2.002
		c-4.768-0.271-9.211,1.903-13.309,4.293c-8.973,5.934-16.142,14.153-20.2,23.153c-2.339,5.423-4.46,13.213-1.281,19.534
		c2.451,4.396,7.546,6.725,13.62,6.23c4.268-0.414,9.419-1.732,12.885-2.527c3.471-0.792,21.215-6.604,27.044,3.509
		c0,0,1.939-3.585,6.787-3.659c3.982-0.345,9.729,1.104,13.914,4.03C132.687,126.479,128.733,123.54,125.434,121.511z"/>
	<path fill="#FFFFFF" d="M125.701,113.77c0.732-0.243,1.419-0.627,2.018-1.004c4.588-3.089,8.284-7.937,11.271-12.044h-1.9
		c-0.027,0.026-4.702,6.43-7.742,7.836c-0.003,0-0.554,0.246-0.876,0.041c-0.392-0.319-0.236-1.04,0.007-1.504
		c0.017-0.03,11.727-19.429,11.727-19.429h-5.529c0,0-0.6,0.967-0.653,1.038c-0.037-0.034-0.127-0.178-0.185-0.243
		c-1.812-2.39-4.829-1.576-8.136,0.909v5.721c1.337-1.642,3.035-3.642,3.569-4.088c2.569-2.148,3.594-1.213,3.681-0.546
		c-2.206,3.776-4.779,8.041-7.25,11.985V113.77L125.701,113.77z M97.64,87.58c-0.921-0.574-2.098-0.682-3.433-0.396v2.641
		c0.781-0.337,1.731-0.429,2.335,0.023c0.462,0.518,0.639,1.185,0.639,1.916c0,0.99-0.322,2.103-0.688,3.147l0,0
		c-0.007,0.017-1.07,2.346-1.07,2.346c-0.152,0.112-0.393,0.055-0.673-0.012l-0.475-0.074l-0.067-0.021v1.84l0.081,0.024
		c0.012,0.013,0.019,0.029,0.019,0.053c0,0.045-0.024,0.113-0.093,0.251l0,0l-0.008,0.021v3.295c0.277-0.434,0.55-0.87,0.822-1.303
		c0,0,1.259-1.966,1.32-2.064c0.78-0.132,1.714-0.348,2.773-0.637c-0.015,0.03-4.046,6.489-3.632,9.688
		c0.125,0.977,0.029,4.554,3.688,5.635c4.873,0.776,8.766-2.819,12.203-6.02c0,0,0.583-0.543,0.912-0.844
		c-0.082,0.319-0.189,0.738-0.189,0.738c-1.427,4.732,0.494,5.729,1.699,6.096c3.638,0.996,7.982-4.026,7.995-4.03
		c-0.109,1.584-0.44,2.9,1.318,3.944c0.876,0.302,1.759,0.207,2.585-0.067v-11.328l-0.629,0.999
		c0.005-0.007-0.836,1.199-0.836,1.199c-1.174,1.717-2.355,3.176-4.286,4.201c-0.27,0.074-0.729,0.104-1.028-0.103
		c-0.359-0.229-0.503-0.602-0.468-1.012c0.121-1.302,1.522-5.316,5.848-10.874l0,0c0.321-0.424,0.827-1.06,1.399-1.762v-5.722
		c-2.953,2.219-6.138,5.771-8.896,9.572c-2.244,3.094-5.111,6.585-8.08,9.109c0,0.002-4.396,3.845-6.277,1.078
		c-0.687-1.156-0.477-2.842-0.088-3.96c2.187-5.942,5.958-11.321,10.249-14.569c1.213-0.893,2.531-1.154,3.179-0.778
		c0.626,0.36,0.725,1.231,0.331,1.82c-0.997-0.037-1.8,0.255-2.452,0.896c-1.28,1.287-1.724,2.524-1.32,3.682
		c1.982,2.674,5.931-2.631,5.738-5.855c-0.069-1.163-0.716-2.26-1.685-2.794c-1.444-0.83-3.647-0.607-5.075,0.047
		c-1.906,0.687-4.929,3.076-6.694,4.933c-2.215,2.337-6.027,4.93-7.218,4.643C97.805,96.194,101.019,89.935,97.64,87.58z
		 M94.206,87.183c-1.591,0.34-3.403,1.238-5.272,2.584v6.011l0.254-0.35c0.02-0.021,0.073-0.038,0.092-0.033
		c0.005,0.001,0.013,0.016,0.017,0.036c1.147,2.108,3.284,3.097,4.91,3.558v-1.839c-1.463-0.445-2.56-1.377-2.903-2.494
		c-0.478-2.199,1.491-3.909,2.36-4.543c0.165-0.109,0.349-0.206,0.543-0.29V87.183L94.206,87.183z M88.934,109.167
		c0.42-0.417,0.798-0.819,1.125-1.184l0.346-0.354c1.471-1.494,2.676-3.24,3.802-4.996v-3.295c-0.016,0.038-0.046,0.112-0.062,0.148
		c-0.006,0.013-2.411,3.735-2.411,3.735c-0.814,1.04-1.742,2.226-2.8,3.263V109.167z M88.934,89.768
		c-2.225,1.601-4.527,3.833-6.623,6.503c-4.892,6.102-7.002,13.19-4.703,16.47c3.004,3.393,8.265-0.531,11.326-3.573v-2.682
		c-0.828,0.813-1.736,1.534-2.731,2.025c-0.671,0.209-1.601,0.342-2.072-0.226c-1.003-1.137-0.484-2.721-0.066-3.995l0.153-0.461
		c1.149-2.981,2.94-5.611,4.716-8.052L88.934,89.768L88.934,89.768z"/>
	<path fill="#FFFFFF" d="M174.864,77.252c0.129-0.063,0.257-0.126,0.387-0.187c1.643-0.79,3.169-0.973,4.484-0.496
		c0,0.001-2.244,1.179-4.871,3.433v2.337c1.831-1.794,3.867-3.27,5.97-4.297c0.109,0.386,0.108,0.621,0.076,0.959l0,0
		c-0.505,5.499-3.415,9.629-6.046,12.134v2.346c2.113-1.704,3.771-4.074,5.226-6.316c1.354-2.742,2.557-5.454,2.557-8.472
		c0-0.367-0.019-0.843-0.055-1.219c2.118-1.062,6.446,0.827,6.446,0.827c3.392,1.061,10.604,6.323,13.031,7.335
		c1.191-1.319,3.14-3.291,4.236-4.295l-1.587-0.927c-2.546-1.475-5.236-2.885-7.884-4.262c-6.011-3.122-10.908-2.037-13.394-1.181
		c-0.981,0.336-1.877,0.623-1.877,0.623c-1.736-1.811-4.52-1.749-6.7-1.305V77.252L174.864,77.252z M166.408,101.983
		c-0.535-1.1-1.801-1.799-3.148-1.732c-4.383,0.392-8.665,3.824-10.919,8.741c-1.18,2.536-1.822,4.621-2.248,7.938
		c1.367-1.492,4.143-3.937,7.296-5.288c0,0,0.431-3.175,2.615-6.027c0.83-1.171,2.49-3.056,4.354-2.561
		c1.621,0.523,1.047,4.819-1.11,8.956c-1.602,3.062-4.046,6.099-6.521,8.205c-2.188,1.769-5.426,3.905-8.258,2.252
		c-1.781-0.998-2.692-3.099-2.502-5.817c0.853-7.706,4.536-14.263,9.798-21.728c5.348-6.838,11.222-13.827,19.101-17.67V74.29
		c-0.141,0.028-0.277,0.058-0.412,0.089c-8.035,2.192-15.492,7.542-23.486,16.83c-5.882,7.285-9.525,13.566-11.467,19.773
		c-0.581,1.616-1.004,3.528-1.094,5.477v1.496c0.124,2.585,0.917,5.117,2.795,6.99c3.109,3.096,7.234,2.423,10.145,1.315
		c6.308-2.963,11.973-9.335,14.797-16.68C166.818,107.415,167.584,104.331,166.408,101.983L166.408,101.983z M174.864,80.002v2.337
		c-2.163,2.118-4.038,4.681-5.396,7.472c-1.7,3.828,0.202,4.302,1.324,4.08c0.73-0.168,2.341-1.109,4.072-2.757v2.347
		c-1.278,1.032-2.725,1.821-4.395,2.191c-0.959,0.053-2.146-0.036-2.819-1.196c-1.289-2.225-0.004-4.747,0.904-6.605
		C170.195,84.531,172.664,81.89,174.864,80.002z"/>
	<path fill="#FFFFFF" d="M225.062,80.157c-4.003,2.163-8.152,3.578-13.175,3.086c-1.397,1.481-2.752,3.027-4.001,4.62
		c7.052,1.701,14.525-2.099,18.693-5.716c4.398-3.64,6.653-8.229,6.653-8.229S229.932,77.526,225.062,80.157z"/>
	<path fill="#FFFFFF" d="M149.399,87.656h-5.253l-2.964,4.78h5.251L149.399,87.656z"/>
	<path fill="#FFFFFF" d="M211.861,121.992c-0.564,0.362-1.355,0.052-1.059-0.791c0.736-2.121,3.677-6.517,3.677-6.517l8.185-13.869
		h-5.612c-0.263,0.462-0.831,1.41-0.831,1.41c-0.26-0.41-1.038-1.32-1.356-1.512c-1.37-0.821-3.378-0.43-4.765,0.319
		c-0.718,0.399-1.413,0.846-2.086,1.331v5.623c1.297-1.566,2.745-3.042,4.399-4.301c0.706-0.489,1.481-0.897,2.296-0.577
		c0.191,0.165,0.406,0.457,0.406,0.75c0,0.092-0.084,0.328-0.136,0.414c-1.176,1.806-2.301,3.705-3.392,5.541
		c-1.145,1.935-2.312,3.906-3.574,5.824V127c0.695-0.224,1.352-0.604,2.063-0.972c4.589-2.373,10.08-10.352,11.507-12.545h-1.868
		C217.684,116.329,215.106,120.171,211.861,121.992L211.861,121.992z M208.014,97.139c3.613-3.86,6.232-7.177,6.768-8.184
		c0,0-0.875,0.167-1.912,0.197c-1.327,1.766-3.022,3.743-4.857,5.725v2.262H208.014z M208.014,86.203
		c1.45-1.765,2.91-3.385,4.325-4.731l1.204-1.103c1.852-1.719,3.768-3.494,5.266-3.776c0.156-0.026,0.36-0.012,0.537,0.348
		c0.066,1.343-0.455,2.328-1.06,3.47l-0.838,1.646c0,0,1.191-0.217,1.976-0.464c0.908-1.634,1.919-3.464,1.545-5.649
		c-0.123-0.69-0.65-1.221-1.354-1.353c-2.271-0.406-4.747,1.193-6.735,2.482l-0.085,0.052c-1.633,1.218-3.226,2.523-4.78,3.917
		V86.203L208.014,86.203z M208.014,102.364c-4.974,3.582-8.75,9.273-11.804,13.827c0,0-3.647,5.748-5.674,6.182
		c-1.582,0.112-1.42-1.909-1.35-2.388c0.607-3.412,2.033-6.663,3.459-9.607c2.91-1.915,6.233-4.438,9.253-7.19
		c2.202-2.005,4.285-4.097,6.115-6.051v-2.261c-5.119,5.529-11.317,11.084-13.617,12.144c1.128-2.583,7.266-13.089,13.617-20.816
		v-5.162c-8.189,7.337-15.31,17.132-21.663,29.764c-0.548,0.401-2.662,0.866-3.023,0.641c0.747-1.454,1.688-3.433,2.154-5.571
		c0.084-0.602,0.157-1.224,0.157-1.834c0-1.306-0.331-2.554-1.562-3.398c-1.006-0.479-2.176-0.472-3.199-0.249v2.585
		c0.635-0.358,1.469-0.465,2.102-0.255c0.668,0.437,0.847,1.197,0.847,2.012c0,0.502-0.069,1.022-0.132,1.502
		c0,0-0.01,0.086-0.012,0.109c-0.477,1.685-1.205,3.351-2.105,4.831l0,0c-0.046,0.027-0.32-0.028-0.7-0.184v4.621
		c0.535-0.825,1.046-1.654,1.534-2.468c0.12-0.012,1.763-0.042,3.008-0.363c0.018,0.012,0.023,0.016,0.052,0.028
		c-0.074,0.216-0.71,2.06-0.71,2.06c-1.911,5.329-2.799,8.958-0.993,11.109c2.582,3.036,6.852-0.106,10.326-4.261
		c-0.746,4.979,1.956,5.764,4.021,5.385c2.367-0.616,5.006-3.024,6.229-4.261c-0.391,1.45-0.279,4.03,1.872,4.292
		c0.657,0.115,1.239,0.04,1.796-0.139v-11.36c-1.094,1.663-2.261,3.286-3.546,4.813l0,0c-0.004,0-0.541,0.45-0.541,0.45
		c-0.769,0.665-1.564,1.355-2.515,1.002c-0.267-0.091-0.453-0.412-0.499-0.686c-0.043-1.866,0.848-3.614,1.705-5.309l0.218-0.428
		c1.507-2.401,3.162-5.057,5.178-7.492v-5.624H208.014z M180.878,100.392c-0.449,0.099-0.872,0.239-1.24,0.4
		c-0.119,0.047-0.239,0.097-0.36,0.147v3.213c0.417-0.41,0.888-0.754,1.354-1.014c0.077-0.059,0.162-0.111,0.246-0.164V100.392
		L180.878,100.392z M179.277,117.968c0.559-0.776,1.093-1.563,1.601-2.354v-4.62c-0.451-0.187-1.055-0.519-1.601-1.018v2.129
		c0.49,0.279,0.954,0.494,1.348,0.655c-0.32,0.678-0.784,1.499-1.348,2.371V117.968z M179.277,100.94
		c-1.36,0.579-2.634,1.354-3.822,2.262v6.234c0.185-0.243,0.365-0.475,0.539-0.695c0,0.002,0,0.002,0,0.007
		c0.716,1.583,2.071,2.663,3.283,3.356v-2.129c-0.563-0.519-1.062-1.22-1.262-2.131c-0.324-1.493,0.329-2.767,1.262-3.692V100.94
		L179.277,100.94z M175.455,122.503c1.403-1.386,2.669-2.933,3.822-4.535v-2.837c-1.046,1.631-2.431,3.434-3.822,4.779V122.503z
		 M175.455,103.202c-3.378,2.576-6.073,6.202-8.179,9.347c-1.568,2.753-3.129,5.714-3.565,9.096c-0.304,2.66,0.317,4.37,1.901,5.228
		c1.628,0.777,3.674-0.038,4.484-0.426c1.991-1.002,3.764-2.367,5.358-3.943v-2.591c-1.821,1.76-3.656,2.732-4.774,1.5l0,0
		c-0.287-0.42-0.385-0.89-0.394-1.383c-0.05-2.769,2.842-7.534,5.169-10.593L175.455,103.202L175.455,103.202z"/>
</g>
</svg>
