<?xml version="1.0" encoding="utf-8"?>
<!-- Generator: Adobe Illustrator 15.0.0, SVG Export Plug-In . SVG Version: 6.00 Build 0)  -->
<!DOCTYPE svg PUBLIC "-//W3C//DTD SVG 1.1//EN" "http://www.w3.org/Graphics/SVG/1.1/DTD/svg11.dtd">
<svg version="1.1" id="Layer_1" xmlns="http://www.w3.org/2000/svg" xmlns:xlink="http://www.w3.org/1999/xlink" x="0px" y="0px"
	 width="288px" height="205px" viewBox="0 0 288 205" enable-background="new 0 0 288 205" xml:space="preserve">
<g>
	<path fill="#FFFFFF" d="M254.184,117.207c0.397,0.4,0.597,0.881,0.597,1.445c0,0.574-0.199,1.057-0.597,1.459
		c-0.396,0.402-0.879,0.602-1.447,0.602c-0.566,0-1.053-0.199-1.449-0.602c-0.393-0.402-0.589-0.885-0.589-1.459
		c0-0.564,0.196-1.045,0.596-1.445c0.4-0.4,0.877-0.604,1.442-0.604C253.304,116.604,253.78,116.807,254.184,117.207
		L254.184,117.207z M254.42,116.979L254.42,116.979c-0.464-0.463-1.025-0.693-1.684-0.693c-0.652,0-1.21,0.23-1.673,0.693
		s-0.697,1.021-0.697,1.674c0,0.66,0.23,1.225,0.689,1.689c0.462,0.469,1.024,0.697,1.681,0.697c0.658,0,1.22-0.229,1.684-0.697
		c0.464-0.467,0.699-1.029,0.699-1.689C255.119,117.998,254.884,117.439,254.42,116.979L254.42,116.979z M253.092,118.543
		c0.178-0.072,0.271-0.207,0.271-0.406c0-0.191-0.062-0.318-0.176-0.383c-0.116-0.066-0.299-0.098-0.554-0.098h-0.395v0.945h0.415
		C252.85,118.602,252.99,118.582,253.092,118.543L253.092,118.543L253.092,118.543z M251.777,119.955L251.777,119.955h0.461v-1.029
		h0.361c0.246,0,0.418,0.025,0.517,0.08c0.162,0.1,0.246,0.299,0.246,0.602v0.207l0.008,0.082c0.002,0.016,0.004,0.023,0.005,0.031
		s0.003,0.018,0.005,0.027h0.434l-0.019-0.035c-0.015-0.023-0.017-0.064-0.02-0.133c-0.008-0.07-0.008-0.135-0.008-0.197V119.4
		c0-0.133-0.051-0.268-0.144-0.404c-0.095-0.141-0.246-0.223-0.449-0.258c0.16-0.025,0.288-0.064,0.377-0.127
		c0.173-0.109,0.258-0.283,0.258-0.514c0-0.328-0.135-0.549-0.404-0.66c-0.152-0.061-0.388-0.094-0.71-0.094h-0.918V119.955z"/>
</g>
<g>
	<path fill="#FFFFFF" d="M118.666,128.289c-8.684-5.338-20.47-6.262-39.479-1.25c-20.27,4.549-27.017,7.449-35.895,1.619
		c-3.413-2.869-4.63-7.498-3.717-14.141c2.114-10.828,7.833-21.26,17.995-32.832c5.677-6.026,10.932-11.189,17.877-13.267
		c5.321-1.296,4.827,2.694,4.184,3.251c-0.678,0.012-1.822,0.115-2.701,0.666c-0.719,0.524-2.685,2.23-2.786,4.524
		c-0.159,3.525,3.664,2.788,5.316,0.858c1.775-2.174,4.401-6.357,2.335-10.222c-0.864-1.393-2.361-2.334-4.222-2.669
		c-6.356-0.362-12.282,2.537-17.747,5.725c-11.965,7.913-21.525,18.874-26.937,30.875c-3.119,7.232-5.948,17.621-1.708,26.05
		c3.268,5.863,10.061,8.967,18.162,8.307c5.691-0.551,12.56-2.309,17.183-3.369c4.627-1.057,28.29-8.807,36.064,4.678
		c0,0,2.585-4.779,9.05-4.879c5.31-0.459,12.974,1.473,18.554,5.375C128.337,134.912,123.066,130.994,118.666,128.289z"/>
	<path fill="#FFFFFF" d="M119.022,117.967c0.977-0.326,1.893-0.838,2.692-1.34c6.117-4.119,11.046-10.584,15.029-16.061h-2.535
		c-0.036,0.035-6.271,8.573-10.324,10.448c-0.004,0-0.739,0.33-1.168,0.057c-0.522-0.428-0.316-1.387,0.009-2.006
		c0.022-0.041,15.637-25.91,15.637-25.91h-7.373c0,0-0.8,1.29-0.872,1.385c-0.049-0.046-0.169-0.237-0.246-0.324
		c-2.415-3.187-6.439-2.103-10.849,1.212v7.629c1.784-2.19,4.048-4.856,4.76-5.452c3.426-2.865,4.793-1.617,4.909-0.727
		c-2.942,5.035-6.374,10.723-9.669,15.982V117.967z M81.602,83.041c-1.228-0.765-2.798-0.909-4.578-0.529v3.521
		c1.042-0.449,2.309-0.571,3.114,0.032c0.616,0.69,0.852,1.58,0.852,2.555c0,1.32-0.43,2.804-0.918,4.197l0,0
		c-0.01,0.023-1.428,3.128-1.428,3.128c-0.203,0.15-0.523,0.073-0.897-0.016l-0.633-0.099l-0.09-0.027v2.453l0.108,0.031
		c0.015,0.018,0.025,0.039,0.025,0.072c0,0.059-0.033,0.151-0.124,0.334l0,0l-0.01,0.029v4.393c0.37-0.578,0.733-1.16,1.096-1.736
		c0,0,1.679-2.622,1.762-2.753c1.04-0.177,2.285-0.464,3.697-0.85c-0.019,0.041-5.395,8.653-4.843,12.92
		c0.167,1.301,0.039,6.072,4.917,7.512c6.499,1.035,11.691-3.758,16.274-8.027c0,0,0.778-0.723,1.216-1.125
		c-0.109,0.426-0.252,0.984-0.252,0.984c-1.903,6.311,0.659,7.639,2.266,8.129c4.851,1.328,10.645-5.369,10.662-5.373
		c-0.147,2.111-0.588,3.867,1.757,5.258c1.168,0.404,2.346,0.277,3.447-0.088v-15.107l-0.839,1.332c0.007-0.01-1.114,1.6-1.114,1.6
		c-1.565,2.289-3.141,4.234-5.716,5.602c-0.359,0.098-0.971,0.137-1.371-0.137c-0.479-0.305-0.671-0.803-0.624-1.35
		c0.161-1.736,2.03-7.088,7.798-14.5l0,0c0.428-0.565,1.104-1.413,1.866-2.35v-7.629c-3.938,2.958-8.185,7.696-11.862,12.764
		c-2.993,4.127-6.816,8.782-10.774,12.149c0,0.002-5.863,5.127-8.372,1.436c-0.915-1.541-0.635-3.789-0.117-5.279
		c2.916-7.925,7.945-15.097,13.667-19.43c1.617-1.189,3.376-1.538,4.239-1.038c0.835,0.481,0.966,1.643,0.441,2.428
		c-1.329-0.049-2.4,0.34-3.269,1.196c-1.708,1.716-2.299,3.366-1.762,4.91c2.645,3.565,7.91-3.509,7.653-7.809
		c-0.092-1.552-0.954-3.014-2.246-3.726c-1.926-1.107-4.864-0.81-6.769,0.062c-2.542,0.916-6.572,4.102-8.926,6.578
		c-2.954,3.117-8.038,6.574-9.625,6.192C81.822,94.529,86.107,86.181,81.602,83.041z M77.023,82.511
		c-2.121,0.453-4.539,1.652-7.032,3.446v8.015l0.339-0.466c0.027-0.029,0.098-0.051,0.123-0.044c0.006,0.001,0.017,0.02,0.022,0.048
		c1.53,2.812,4.38,4.129,6.548,4.745v-2.453c-1.951-0.593-3.413-1.836-3.872-3.326c-0.637-2.932,1.988-5.214,3.148-6.058
		c0.22-0.146,0.465-0.275,0.724-0.387V82.511L77.023,82.511z M69.991,111.828c0.561-0.557,1.065-1.092,1.5-1.578l0.462-0.471
		c1.961-1.994,3.568-4.322,5.07-6.664v-4.393c-0.021,0.05-0.061,0.149-0.082,0.198c-0.009,0.016-3.216,4.982-3.216,4.982
		c-1.086,1.387-2.322,2.967-3.734,4.35V111.828z M69.991,85.958c-2.965,2.135-6.036,5.111-8.832,8.672
		c-6.522,8.136-9.337,17.591-6.272,21.964c4.007,4.523,11.022-0.709,15.104-4.766v-3.576c-1.104,1.084-2.314,2.045-3.641,2.701
		c-0.895,0.277-2.135,0.455-2.764-0.301c-1.337-1.516-0.646-3.629-0.088-5.328l0.204-0.615c1.533-3.975,3.921-7.483,6.288-10.737
		V85.958z"/>
	<path fill="#FFFFFF" d="M184.582,69.268c0.172-0.084,0.345-0.167,0.518-0.248c2.19-1.054,4.224-1.297,5.978-0.662
		c0,0.001-2.992,1.572-6.495,4.578v3.116c2.44-2.392,5.156-4.36,7.961-5.73c0.146,0.514,0.143,0.828,0.1,1.278l0,0
		c-0.672,7.334-4.552,12.841-8.061,16.181v3.129c2.817-2.273,5.029-5.434,6.967-8.424c1.808-3.657,3.41-7.273,3.41-11.297
		c0-0.49-0.024-1.123-0.072-1.626c2.825-1.415,8.597,1.103,8.597,1.103c4.522,1.415,14.139,8.433,17.377,9.782
		c1.588-1.759,4.187-4.388,5.65-5.727l-2.117-1.236c-3.396-1.966-6.983-3.847-10.515-5.683c-8.015-4.164-14.545-2.716-17.858-1.575
		c-1.309,0.448-2.504,0.831-2.504,0.831c-2.317-2.414-6.027-2.332-8.935-1.74V69.268z M173.306,102.248
		c-0.713-1.466-2.402-2.399-4.198-2.311c-5.845,0.523-11.555,5.1-14.56,11.659c-1.575,3.381-2.431,6.16-2.999,10.584
		c1.823-1.99,5.524-5.25,9.729-7.051c0,0,0.576-4.234,3.488-8.039c1.107-1.561,3.322-4.074,5.804-3.414
		c2.164,0.697,1.398,6.426-1.479,11.943c-2.135,4.082-5.395,8.131-8.696,10.941c-2.917,2.359-7.236,5.207-11.012,3.004
		c-2.376-1.332-3.591-4.133-3.337-7.76c1.138-10.275,6.048-19.018,13.066-28.973c7.13-9.117,14.964-18.439,25.47-23.563v-3.95
		c-0.188,0.038-0.369,0.077-0.549,0.119c-10.715,2.923-20.66,10.057-31.319,22.443c-7.845,9.715-12.703,18.092-15.292,26.368
		c-0.774,2.156-1.339,4.705-1.458,7.303v1.996c0.165,3.447,1.222,6.824,3.727,9.322c4.146,4.127,9.646,3.23,13.528,1.754
		c8.412-3.951,15.964-12.449,19.733-22.242C173.853,109.49,174.873,105.379,173.306,102.248L173.306,102.248z M184.582,72.936v3.116
		c-2.884,2.825-5.384,6.241-7.195,9.964c-2.267,5.104,0.269,5.736,1.766,5.44c0.974-0.223,3.121-1.48,5.43-3.676v3.129
		c-1.705,1.377-3.635,2.429-5.861,2.923c-1.278,0.07-2.86-0.049-3.759-1.596c-1.718-2.966-0.005-6.33,1.205-8.808
		C178.358,78.975,181.649,75.453,184.582,72.936z"/>
	<path fill="#FFFFFF" d="M251.522,73.143c-5.338,2.884-10.872,4.77-17.569,4.115c-1.864,1.975-3.669,4.036-5.335,6.161
		c9.404,2.268,19.37-2.799,24.929-7.622c5.864-4.854,8.872-10.975,8.872-10.975S258.018,69.635,251.522,73.143z"/>
	<path fill="#FFFFFF" d="M150.625,83.143h-7.005l-3.953,6.374h7.002L150.625,83.143z"/>
	<path fill="#FFFFFF" d="M233.921,128.93c-0.754,0.484-1.809,0.07-1.413-1.055c0.982-2.828,4.903-8.689,4.903-8.689l10.913-18.495
		h-7.483c-0.351,0.615-1.108,1.881-1.108,1.881c-0.346-0.547-1.384-1.761-1.808-2.017c-1.829-1.095-4.506-0.573-6.355,0.426
		c-0.957,0.532-1.884,1.128-2.782,1.775v7.498c1.73-2.088,3.661-4.057,5.867-5.734c0.943-0.654,1.976-1.197,3.062-0.771
		c0.255,0.221,0.541,0.611,0.541,1c0,0.123-0.111,0.439-0.18,0.553c-1.569,2.408-3.068,4.941-4.523,7.389
		c-1.528,2.58-3.085,5.209-4.767,7.766v15.15c0.928-0.297,1.802-0.803,2.752-1.295c6.119-3.164,13.442-13.803,15.346-16.729h-2.493
		C241.684,121.379,238.247,126.502,233.921,128.93L233.921,128.93z M228.787,95.787c4.821-5.148,8.312-9.57,9.026-10.912
		c0,0-1.166,0.222-2.55,0.262c-1.771,2.355-4.031,4.993-6.477,7.634V95.787L228.787,95.787z M228.787,81.205
		c1.935-2.353,3.882-4.514,5.77-6.31l1.605-1.469c2.469-2.293,5.026-4.661,7.022-5.037c0.208-0.035,0.48-0.015,0.716,0.464
		c0.088,1.791-0.607,3.104-1.413,4.627l-1.118,2.195c0,0,1.59-0.29,2.635-0.62c1.211-2.178,2.558-4.619,2.061-7.533
		c-0.165-0.921-0.868-1.628-1.807-1.803c-3.029-0.542-6.331,1.591-8.983,3.309l-0.112,0.07c-2.178,1.624-4.302,3.365-6.375,5.223
		V81.205z M228.787,102.756c-6.631,4.777-11.666,12.367-15.739,18.439c0,0-4.865,7.664-7.568,8.242
		c-2.108,0.152-1.892-2.545-1.798-3.184c0.81-4.549,2.712-8.885,4.613-12.811c3.881-2.553,8.312-5.918,12.339-9.588
		c2.936-2.674,5.714-5.463,8.153-8.069V92.77c-6.825,7.374-15.09,14.781-18.157,16.193c1.505-3.443,9.689-17.454,18.157-27.758
		v-6.884c-10.92,9.784-20.415,22.846-28.887,39.691c-0.731,0.535-3.55,1.156-4.032,0.854c0.996-1.938,2.25-4.576,2.872-7.428
		c0.114-0.803,0.21-1.633,0.21-2.447c0-1.742-0.441-3.406-2.082-4.532c-1.341-0.638-2.9-0.629-4.265-0.332v3.446
		c0.844-0.477,1.957-0.619,2.802-0.338c0.891,0.582,1.128,1.596,1.128,2.682c0,0.67-0.091,1.363-0.175,2.002
		c0,0-0.014,0.115-0.016,0.146c-0.635,2.246-1.607,4.469-2.807,6.443l0,0c-0.062,0.037-0.428-0.037-0.933-0.244v6.162
		c0.713-1.102,1.393-2.205,2.044-3.291c0.161-0.016,2.352-0.057,4.011-0.484c0.023,0.014,0.033,0.021,0.07,0.037
		c-0.1,0.287-0.947,2.746-0.947,2.746c-2.55,7.107-3.732,11.947-1.325,14.814c3.444,4.051,9.137-0.141,13.77-5.682
		c-0.995,6.639,2.61,7.686,5.363,7.182c3.156-0.822,6.676-4.033,8.306-5.682c-0.521,1.934-0.373,5.375,2.496,5.723
		c0.878,0.154,1.654,0.053,2.396-0.184v-15.15c-1.459,2.219-3.014,4.383-4.729,6.42l0,0c-0.004,0-0.722,0.6-0.722,0.6
		c-1.024,0.887-2.086,1.807-3.352,1.336c-0.357-0.121-0.604-0.549-0.666-0.914c-0.057-2.488,1.13-4.82,2.275-7.078l0.29-0.572
		c2.009-3.203,4.215-6.744,6.903-9.992V102.756z M192.604,100.126c-0.602,0.132-1.165,0.319-1.656,0.533
		c-0.16,0.062-0.319,0.129-0.479,0.197v4.284c0.554-0.547,1.182-1.004,1.804-1.352c0.104-0.078,0.216-0.148,0.331-0.217V100.126
		L192.604,100.126z M190.469,123.564c0.745-1.035,1.455-2.086,2.135-3.139v-6.162c-0.604-0.25-1.409-0.691-2.135-1.357v2.838
		c0.651,0.373,1.272,0.66,1.796,0.875c-0.426,0.902-1.047,1.998-1.796,3.162V123.564z M190.469,100.857
		c-1.814,0.772-3.513,1.807-5.098,3.016v8.312c0.245-0.322,0.486-0.631,0.719-0.924c0,0.002,0,0.002,0,0.006
		c0.953,2.113,2.761,3.553,4.379,4.477v-2.838c-0.753-0.691-1.418-1.627-1.683-2.842c-0.433-1.992,0.438-3.689,1.683-4.924V100.857
		L190.469,100.857z M185.371,129.611c1.87-1.848,3.558-3.91,5.098-6.047v-3.783c-1.397,2.174-3.242,4.578-5.098,6.373V129.611z
		 M185.371,103.873c-4.506,3.436-8.099,8.271-10.906,12.465c-2.093,3.67-4.172,7.619-4.755,12.129
		c-0.406,3.547,0.422,5.828,2.535,6.971c2.171,1.037,4.899-0.051,5.982-0.568c2.654-1.336,5.017-3.156,7.144-5.258v-3.457
		c-2.43,2.348-4.876,3.646-6.367,2.002l0,0c-0.384-0.559-0.514-1.186-0.526-1.844c-0.066-3.693,3.791-10.047,6.894-14.127V103.873z"
		/>
</g>
</svg>
