<?xml version="1.0" encoding="utf-8"?>
<!-- Generator: Adobe Illustrator 15.0.0, SVG Export Plug-In . SVG Version: 6.00 Build 0)  -->
<!DOCTYPE svg PUBLIC "-//W3C//DTD SVG 1.1//EN" "http://www.w3.org/Graphics/SVG/1.1/DTD/svg11.dtd">
<svg version="1.1" id="Layer_1" xmlns="http://www.w3.org/2000/svg" xmlns:xlink="http://www.w3.org/1999/xlink" x="0px" y="0px"
	 width="288px" height="205px" viewBox="0 0 288 205" enable-background="new 0 0 288 205" xml:space="preserve">
<path fill="#FFFFFF" d="M57.775,100.342c-8.496,0.633-19.362,2.21-19.273,5.187c0.092,3.111,8.101,9.093,18.616,12.987
	C57.606,112.146,57.729,105.395,57.775,100.342z M26.676,68.266c-2.798,0.083-4.908-1.139-4.959-2.847
	c-0.038-1.249,2.696-5.149,4.363-5.78c1.14-0.431,6.69-2.538,15.942-2.813c3.429-0.103,9.252,0.319,14.168,1.048
	c28.619,4.241,58.663,26.064,59.238,45.42c0.392,13.168-10.985,25.522-33.195,26.183c-5.849,0.173-11.293-0.548-16.244-1.846
	c-0.107,3.232,0.134,4.942-4.451,5.08c-2.805,0.084-3.896-4.459-4.309-8.154c-13.408-5.949-21.486-15.613-21.601-19.427
	c-0.168-5.68,10.159-10.417,22.237-12.292c0.17-4.701,0.966-16.674,3.447-16.748c0.998-0.029,3.064,2.284,3.845,5.824
	c0.708,3.216,0.782,9.08,0.79,10.125l0.911-0.033c16.948-0.503,27.105,4.796,27.291,11.071c0.146,4.866-4.162,7.357-6.421,7.424
	c-2.26,0.067-4.907-1.218-4.929-1.918c-0.04-1.339,4.822-1.654,4.758-3.818c-0.097-3.265-13.571-4.696-21.873-4.748
	c-0.012,2.814-0.048,6.21,0.02,8.493c0.065,2.194,0.201,7.86,0.269,12.587c3.767,0.797,7.646,1.227,11.45,1.114
	c8.95-0.265,29.396-3.529,28.938-18.887c-0.638-21.457-43.063-41.169-65.787-40.494c-8.951,0.266-14.322,1.226-14.296,2.104
	c0.017,0.586,4.358,0.812,4.394,1.97C30.706,68.061,28.207,68.221,26.676,68.266z"/>
<path fill-rule="evenodd" clip-rule="evenodd" fill="#FFFFFF" d="M121.91,91.715c1.461-0.044,3.559,3.465,3.623,5.658
	c0.065,2.193,0.59,13.654,0.744,16.957c0.152,3.303,0.044,6.466-0.171,7.93c-0.215,1.463-0.747,2.186-3.259,2.26
	s-3.682-1.421-3.896-3.634c-0.213-2.212-0.399-8.489-0.29-11.636c0.109-3.144,0.258-9.161,0.668-12.929
	C119.739,92.555,120.749,91.749,121.91,91.715z"/>
<path fill-rule="evenodd" clip-rule="evenodd" fill="#FFFFFF" d="M136.454,65.965c-0.418-1.041-1.816-3.145-6.808-2.997
	c-10.876,0.324-19.243,8.38-19.055,14.728c0.062,2.062,1.057,3.87,2.52,5.351c-0.381,1.037-0.42,1.731-0.407,2.127
	c0.032,1.103,1.691,4.015,2.966,3.977c1.078-0.032,1.813-1.042,2.852-2.677c1.772,0.685,3.54,1.032,4.942,0.991
	c10.226-0.304,19.504-9.887,19.322-16.018C142.702,68.624,140.873,65.896,136.454,65.965z M121.018,81.195
	c1.259-1.777,7.787-10.518,14.515-10.718c1.975-0.059,2.496,1.163,2.535,2.513c0.063,2.102-3.745,8.244-12.318,8.5
	C123.869,81.546,122.285,81.404,121.018,81.195z M115.697,78.295c-0.155-0.257-0.301-0.666-0.32-1.304
	c-0.042-1.404,2.383-6.786,8.483-7.228c-1.554,1.065-3.126,2.431-4.682,4.179C117.716,75.587,116.553,77.033,115.697,78.295z"/>
<path fill-rule="evenodd" clip-rule="evenodd" fill="#FFFFFF" d="M148.438,91.126c5.986-0.178,13.487,0.599,13.545,2.513
	c0.032,1.12-0.554,3.459-3.748,3.782c-3.769,0.382-22.774,1.189-22.705,3.535c0.036,1.241,5.749,1.516,10.987,1.833
	c5.381,0.326,14.026,0.529,14.284,9.24c0.203,6.874-2.398,8.329-3.568,8.878c-1.487,0.695-6.483,2.595-10.312,2.707
	c-11.544,0.343-16.304-6.29-16.403-9.66c-0.089-2.993,2.991-5.65,8.169-5.805c5.178-0.153,13.195,1.714,13.261,3.845
	c0.05,1.728-3.486,2.613-5.051,2.659c-7.065,0.211-6.719-2.661-10.792-2.539c-2.319,0.069-5.574,4.996,6.051,4.65
	c10.355-0.306,13.493-3.721,13.438-5.553c-0.071-2.428-7.503-3.61-11.802-3.835c-4.299-0.222-10.75-0.193-12.95-1.585
	c-2.201-1.392-1.892-4.541-1.13-7.146C131.306,93.2,142.451,91.304,148.438,91.126z"/>
<path fill-rule="evenodd" clip-rule="evenodd" fill="#FFFFFF" d="M168.886,93.38c4.046-0.12,12.526,18.226,13.956,18.182
	c1.43-0.041,0.367-4.286-0.536-8.971c-2.043-10.602-5.228-16.067-2.234-16.156c2.211-0.065,9.466,6.953,9.868,20.544
	c0.189,6.31-0.699,14.568-6.419,14.738c-5.421,0.161-11.597-16.955-13-16.914c-0.755,0.023-0.818,10.604-1.021,13.795
	c-0.203,3.19-1.312,4.898-3.093,4.951c-2.695,0.079-3.88-2.504-4.031-7.601C162.225,110.853,163.897,93.528,168.886,93.38z"/>
<path fill="#FFFFFF" d="M210.021,103.305c1.916-0.056,3.608-0.376,3.438,2.112c-0.169,2.488-0.272,3.49-2.269,3.549l-10.238,0.305
	c-0.339,1.138-1.215,4.072-1.608,5.31c-0.493,1.554,1.062,1.211,3.07,0.638c2.006-0.571,7.456-1.598,9.693-1.665
	c2.239-0.065,3.912,3.502,2.625,4.728c-1.286,1.227-8.213,7.072-15.439,7.287c-3.102,0.092-7.313-2.616-7.456-7.47
	c-0.077-2.57,0.955-6.02,1.943-8.698c-0.241-0.151-0.425-0.504-0.566-1.276c-0.322-1.745-1.107-3.665,1.798-3.994
	c0.232-0.025,0.526-0.054,0.867-0.081l2.398-4.943c-0.973-0.143-1.815-0.357-2.462-0.667c-1.766-0.843-3.141-3.011-3.171-3.981
	c-0.062-2.131,15.556-3.404,19.171-3.512c3.884-0.115,4.985,0.634,6.227,2.406c1.239,1.771,1.709,3.026,1.724,3.512
	c0.014,0.485-0.436,1.686-5.129,1.825c-2.4,0.071-6.282,0.477-10.006,0.613l-1.622,4.322
	C206.632,103.444,210.021,103.305,210.021,103.305z"/>
<path fill-rule="evenodd" clip-rule="evenodd" fill="#FFFFFF" d="M220.605,118.072c-4.193,8.272-7.017,17.04-6.82,23.639
	c0.221,7.434,4.787,10.208,6.175,10.167c1.387-0.042,1.456-2.243,1.706-3.882c1.412-9.285,3.846-17.512,6.621-24.426
	c1.1,0.276,2.188,0.405,3.197,0.376c8.502-0.254,18.358-10.414,18.036-21.231c-0.169-5.711-2.353-9.763-6.014-9.654
	c-5.353,0.159-13.051,8.252-19.232,18.414c-0.552-4.124,2.698-10.472,5.471-14.909c1.946-3.117,1.605-6.822,0.796-6.798
	c-1.134,0.033-12.102,9.32-11.725,22.059C218.891,114.302,219.535,116.378,220.605,118.072z M231.951,115.499
	c5.121-10.012,10.399-15.72,12.257-15.774C247.428,99.629,244.702,114.188,231.951,115.499z"/>
</svg>
