<?xml version="1.0" encoding="utf-8"?>
<!-- Generator: Adobe Illustrator 15.0.0, SVG Export Plug-In . SVG Version: 6.00 Build 0)  -->
<!DOCTYPE svg PUBLIC "-//W3C//DTD SVG 1.1//EN" "http://www.w3.org/Graphics/SVG/1.1/DTD/svg11.dtd">
<svg version="1.1" id="Layer_1" xmlns="http://www.w3.org/2000/svg" xmlns:xlink="http://www.w3.org/1999/xlink" x="0px" y="0px"
	 width="288px" height="205px" viewBox="0 0 288 205" enable-background="new 0 0 288 205" xml:space="preserve">
<path fill="#FFFFFF" d="M81.137,101.543c-5.946,0.443-13.551,1.547-13.489,3.631c0.064,2.178,5.67,6.363,13.029,9.089
	C81.019,109.805,81.105,105.079,81.137,101.543z M59.371,79.093c-1.958,0.058-3.435-0.797-3.471-1.993
	c-0.026-0.875,1.887-3.604,3.054-4.045c0.798-0.302,4.682-1.776,11.158-1.969c2.4-0.072,6.475,0.223,9.916,0.733
	c20.03,2.968,41.058,18.242,41.461,31.79c0.274,9.216-7.689,17.863-23.233,18.324c-4.094,0.123-7.904-0.383-11.369-1.291
	c-0.075,2.262,0.094,3.459-3.115,3.555c-1.963,0.06-2.727-3.12-3.016-5.707c-9.384-4.163-15.038-10.928-15.119-13.596
	c-0.117-3.976,7.111-7.292,15.564-8.604c0.119-3.291,0.676-11.67,2.413-11.722c0.698-0.02,2.145,1.599,2.691,4.077
	c0.495,2.25,0.547,6.355,0.552,7.086l0.638-0.023c11.862-0.352,18.971,3.356,19.101,7.749c0.102,3.406-2.913,5.148-4.494,5.196
	c-1.582,0.047-3.435-0.853-3.45-1.343c-0.028-0.937,3.375-1.156,3.33-2.672c-0.068-2.285-9.499-3.287-15.309-3.323
	c-0.009,1.97-0.034,4.347,0.014,5.944c0.046,1.535,0.141,5.502,0.188,8.811c2.637,0.557,5.352,0.857,8.014,0.779
	c6.264-0.187,20.574-2.471,20.254-13.219c-0.447-15.019-30.14-28.815-46.044-28.342c-6.265,0.186-10.024,0.858-10.006,1.473
	c0.012,0.41,3.05,0.568,3.075,1.378C62.191,78.95,60.442,79.062,59.371,79.093z"/>
<path fill="#FFFFFF" d="M126.025,95.505c1.022-0.031,2.491,2.425,2.536,3.96c0.045,1.535,0.413,9.557,0.521,11.868
	c0.106,2.312,0.031,4.526-0.12,5.55c-0.15,1.024-0.523,1.53-2.281,1.582c-1.758,0.052-2.577-0.994-2.727-2.543
	c-0.149-1.549-0.279-5.941-0.203-8.145c0.076-2.201,0.18-6.412,0.467-9.049C124.506,96.093,125.212,95.529,126.025,95.505z"/>
<path fill="#FFFFFF" d="M136.205,77.482c-0.292-0.729-1.271-2.201-4.765-2.098c-7.612,0.227-13.468,5.865-13.336,10.308
	c0.043,1.443,0.74,2.709,1.764,3.745c-0.267,0.726-0.294,1.211-0.285,1.489c0.022,0.772,1.184,2.81,2.076,2.784
	c0.755-0.022,1.269-0.729,1.996-1.874c1.24,0.479,2.478,0.722,3.459,0.693c7.157-0.212,13.651-6.92,13.523-11.211
	C140.578,79.344,139.297,77.434,136.205,77.482z M125.401,88.142c0.881-1.244,5.45-7.362,10.159-7.501
	c1.382-0.042,1.747,0.814,1.774,1.759c0.044,1.471-2.621,5.77-8.621,5.949C127.396,88.388,126.288,88.288,125.401,88.142z
	 M121.677,86.112c-0.108-0.18-0.21-0.466-0.224-0.913c-0.029-0.983,1.668-4.75,5.938-5.059c-1.088,0.745-2.188,1.701-3.277,2.924
	C123.09,84.217,122.276,85.229,121.677,86.112z"/>
<path fill="#FFFFFF" d="M144.592,95.093c4.189-0.125,9.439,0.419,9.48,1.759c0.023,0.784-0.387,2.421-2.623,2.647
	c-2.639,0.267-15.94,0.832-15.892,2.474c0.025,0.869,4.024,1.061,7.69,1.283c3.766,0.229,9.816,0.37,9.996,6.467
	c0.143,4.811-1.678,5.829-2.496,6.214c-1.041,0.485-4.537,1.815-7.218,1.895c-8.08,0.24-11.411-4.402-11.48-6.761
	c-0.062-2.096,2.093-3.954,5.718-4.063c3.624-0.106,9.234,1.2,9.281,2.691c0.035,1.21-2.439,1.829-3.536,1.86
	c-4.944,0.148-4.702-1.861-7.553-1.776c-1.623,0.049-3.901,3.496,4.235,3.255c7.248-0.215,9.443-2.604,9.405-3.887
	c-0.05-1.699-5.251-2.526-8.26-2.685c-3.009-0.155-7.524-0.134-9.064-1.108s-1.324-3.179-0.791-5.002
	C132.602,96.544,140.402,95.217,144.592,95.093z"/>
<path fill="#FFFFFF" d="M158.903,96.67c2.832-0.084,8.768,12.755,9.769,12.726c1-0.029,0.256-3.001-0.375-6.279
	c-1.43-7.42-3.66-11.246-1.564-11.308c1.548-0.045,6.625,4.866,6.906,14.378c0.133,4.417-0.488,10.197-4.492,10.316
	c-3.795,0.112-8.117-11.867-9.098-11.839c-0.529,0.017-0.573,7.422-0.715,9.655c-0.143,2.232-0.919,3.428-2.165,3.465
	c-1.887,0.056-2.716-1.752-2.821-5.319C154.241,108.9,155.412,96.774,158.903,96.67z"/>
<path fill="#FFFFFF" d="M187.694,103.617c1.341-0.039,2.524-0.264,2.405,1.479c-0.117,1.74-0.189,2.441-1.588,2.482l-7.165,0.215
	c-0.237,0.796-0.851,2.85-1.126,3.716c-0.344,1.087,0.744,0.848,2.149,0.446c1.403-0.398,5.218-1.118,6.784-1.164
	c1.566-0.047,2.738,2.451,1.838,3.309c-0.901,0.858-5.749,4.949-10.807,5.1c-2.171,0.064-5.118-1.83-5.219-5.228
	c-0.054-1.8,0.668-4.214,1.359-6.089c-0.168-0.105-0.297-0.353-0.396-0.893c-0.225-1.221-0.774-2.564,1.259-2.795
	c0.162-0.018,0.368-0.038,0.606-0.057l1.679-3.46c-0.681-0.1-1.271-0.25-1.724-0.467c-1.235-0.59-2.198-2.107-2.219-2.787
	c-0.044-1.491,10.888-2.382,13.417-2.458c2.719-0.081,3.489,0.443,4.359,1.684c0.867,1.24,1.195,2.118,1.205,2.458
	c0.011,0.339-0.305,1.18-3.589,1.277c-1.681,0.049-4.396,0.334-7.003,0.429l-1.136,3.025
	C185.322,103.714,187.694,103.617,187.694,103.617z"/>
<path fill="#FFFFFF" d="M195.102,113.952c-2.935,5.79-4.911,11.926-4.773,16.545c0.154,5.202,3.352,7.145,4.322,7.116
	c0.971-0.029,1.02-1.57,1.193-2.717c0.988-6.499,2.692-12.257,4.635-17.096c0.77,0.192,1.531,0.283,2.238,0.262
	c5.95-0.178,12.848-7.287,12.622-14.859c-0.117-3.997-1.646-6.833-4.209-6.756c-3.747,0.111-9.134,5.775-13.46,12.887
	c-0.387-2.885,1.889-7.329,3.829-10.434c1.362-2.181,1.123-4.774,0.558-4.758c-0.795,0.023-8.471,6.523-8.207,15.44
	C193.902,111.313,194.354,112.767,195.102,113.952z M203.043,112.151c3.584-7.008,7.277-11.002,8.578-11.04
	C213.875,101.044,211.967,111.233,203.043,112.151z"/>
</svg>
