<?xml version="1.0" encoding="utf-8"?>
<!-- Generator: Adobe Illustrator 15.0.0, SVG Export Plug-In . SVG Version: 6.00 Build 0)  -->
<!DOCTYPE svg PUBLIC "-//W3C//DTD SVG 1.1//EN" "http://www.w3.org/Graphics/SVG/1.1/DTD/svg11.dtd">
<svg version="1.1" id="Layer_1" xmlns="http://www.w3.org/2000/svg" xmlns:xlink="http://www.w3.org/1999/xlink" x="0px" y="0px"
	 width="288px" height="205px" viewBox="0 0 288 205" enable-background="new 0 0 288 205" xml:space="preserve">
<g>
	<path fill-rule="evenodd" clip-rule="evenodd" fill="#FFFFFF" d="M62.93,80.131c-0.047,0-0.01-0.062-4.282,0.373
		c-1.226,0.125-2.489,0.419-3.63,0.698c-1.142,0.279-2.163,0.591-3.258,1.023c-1.143,0.452-1.128,0.493-3.164,1.629
		c-0.384,0.215-0.779,0.467-1.165,0.791c-0.227,0.193-1.161,1.03-1.953,1.955c-0.328,0.382-0.639,0.817-0.932,1.303
		c-0.268,0.446-0.498,0.917-0.697,1.442c-0.173,0.455-0.356,0.917-0.42,1.442c-0.076,0.648,0,1.351,0,2.049
		c0.187,0.885,0.187,0.885,0.512,1.955c0.093,0.186,0.188,0.372,0.28,0.604c0,0.093,0,0.186-0.047,0.326
		c-0.046,0-0.093,0.046-0.186,0.093c-0.791,0-1.582,0-2.374,0.046c-1.862,0.187-1.862,0.187-3.77,0.513
		c-2.467,0.698-2.467,0.698-3.398,1.023c-0.931,0.467-0.931,0.467-1.21,0.513c-1.442,0.791-1.675,0.977-1.86,1.023
		c-1.351,0.932-1.396,1.023-1.724,1.21c-0.372,0.326-0.743,0.651-1.162,0.978c-0.512,0.512-1.024,1.024-1.536,1.536
		c0,0.046,0,0.093-0.047,0.186c-0.278,0.325-0.558,0.653-0.884,1.025c-0.838,1.351-0.838,1.351-1.537,2.65
		c-0.185,0.512-0.371,1.025-0.604,1.537c-0.325,1.257-0.325,1.257-0.512,2.279c0,0.653,0,1.351-0.046,2.05
		c-0.188,0.419-0.188,0.419-0.466,0.744c-5.817,2.233-6.329,2.372-9.634,3.583c-4.049,1.351-4.049,1.351-7.121,2.279
		c-0.186,0.141-0.371,0.279-0.558,0.422c-0.047,0.14-0.14,0.325-0.233,0.511c0,0.325,0,0.65,0,1.022
		c0.187,0.561,0.187,0.561,0.325,0.793c0.653,0.325,0.653,0.325,0.979,0.418c0.232,0,0.513,0,0.791,0
		c0.232-0.046,0.465-0.093,0.698-0.14c6.282-2.047,7.214-2.418,9.215-3.072c2.28-0.883,4.562-1.769,6.888-2.651
		c0.187,0,0.373,0,0.604,0c0.933,0.837,0.933,0.837,1.117,1.069c0.094,0.046,0.187,0.093,0.325,0.185
		c0.095,0.097,0.188,0.235,0.327,0.376c0.047,0,0.093,0,0.186,0.046c0.14,0.093,0.279,0.232,0.42,0.371
		c0.697,0.372,1.396,0.744,2.14,1.115c0.745,0.189,1.49,0.422,2.28,0.653c1.024,0.187,1.024,0.187,2.653,0.372
		c0.978,0,1.955,0,2.932,0c1.583-0.186,1.583-0.186,3.491-0.511c1.163-0.325,2.327-0.653,3.49-1.025
		c0.885-0.325,1.769-0.65,2.652-1.021c0.886-0.376,1.77-0.793,2.653-1.212c1.351-0.746,2.745-1.489,4.142-2.232
		c0.187,0,0.187,0,0.373,0.139c0.465,0.837,0.465,0.837,0.604,1.208c0.372,0.468,0.745,0.933,1.117,1.443
		c0.187,0.187,0.419,0.375,0.651,0.561c0.745,0.419,0.745,0.419,1.21,0.604c0.232,0.048,0.466,0.094,0.745,0.141
		c1.209,0,1.209,0,2.56-0.141c0.838-0.231,1.675-0.464,2.56-0.699c1.954-0.79,1.954-0.79,2.233-0.836
		c1.024-0.512,2.096-1.023,3.165-1.536c0.559-0.372,0.932-0.512,2.282-1.305c0.277-0.14,0.557-0.278,0.836-0.418
		c0.187,0,0.187,0,0.513,0.186c0.278,0.376,0.559,0.747,0.837,1.118c0.512,0.512,0.512,0.512,0.745,0.837
		c0.326,0.186,0.698,0.374,1.07,0.606c0.931,0.325,0.931,0.325,1.723,0.512c1.768,0.046,1.768,0.046,2.746,0
		c0.558-0.093,1.163-0.232,1.769-0.372c2.233-0.651,2.233-0.651,3.489-1.118c0.233,0,0.467,0,0.699,0
		c0.231,0.325,0.465,0.653,0.744,0.979c0.279,0.279,0.559,0.558,0.837,0.837c0.326,0.14,0.653,0.324,0.979,0.511
		c0.604,0.189,0.604,0.189,1.023,0.235c0.978,0,1.954,0,2.979-0.046c1.722-0.376,1.722-0.376,2.886-0.7
		c0.466-0.14,0.93-0.325,1.396-0.512c2.048-1.024,2.28-1.211,3.398-1.814c0.419,0,0.419,0,0.604,0.093
		c0.559,0.65,0.559,0.65,0.652,0.885c0.743,0.744,0.743,0.744,1.115,1.023c0.188,0.046,0.699,0.417,1.444,0.746
		c0.372,0.09,0.744,0.186,1.117,0.279c0.465,0,0.93,0,1.396,0c0.837-0.189,0.837-0.189,1.861-0.515c1.35-0.79,1.35-0.79,2.327-1.486
		c0.326-0.282,0.698-0.607,1.07-0.933c0.093,0,0.233,0,0.372,0c0.094,0.046,0.187,0.093,0.327,0.186
		c0.231,0.325,0.511,0.65,0.79,0.979c0.978,0.884,0.978,0.884,1.49,1.255c0.512,0.139,1.022,0.325,1.535,0.515
		c0.745,0,1.536,0,2.326,0.046c0.42-0.046,0.839-0.093,1.258-0.14c2.419-0.699,2.419-0.699,3.863-1.211c0.139,0,0.279,0,0.418,0
		c0.42,0.279,0.604,0.325,1.209,0.696c0.467,0.141,0.933,0.329,1.443,0.515c0.559,0.047,1.117,0.14,1.676,0.232
		c1.024,0,1.024,0,2.328-0.139c0.744-0.235,1.488-0.468,2.233-0.7c1.349-0.697,2.28-1.301,2.467-1.349
		c0.511-0.374,1.023-0.745,1.536-1.116c0.046-0.094,0.139-0.187,0.232-0.279c0.046,0,0.14-0.047,0.231-0.094
		c0.094-0.093,0.187-0.185,0.279-0.328c0.095-0.046,0.187-0.092,0.327-0.186c0.372-0.418,2.094-2.047,3.816-3.862
		c0.279-0.372,0.279-0.372,1.256-1.304c0.047-0.093,0.094-0.187,0.186-0.325c0.232-0.232,0.467-0.465,0.746-0.697
		c0.092-0.14,0.186-0.279,0.279-0.418c7.352-8.006,7.352-8.006,8.609-9.309c0.094-0.047,0.186-0.093,0.326-0.188
		c1.023-1.022,1.488-1.396,1.768-1.722c0.096-0.046,0.188-0.093,0.326-0.187c0.373-0.418,0.373-0.418,1.723-1.535
		c0.047,0,0.092,0,0.186-0.047c0.045-0.046,0.092-0.14,0.186-0.232c1.77-1.256,1.955-1.304,2.467-1.676
		c1.445-0.745,1.445-0.745,2.373-1.116c1.443-0.047,1.443-0.047,1.723,0c0.188,0.14,0.373,0.278,0.604,0.419
		c0.096,0.186,0.236,0.372,0.375,0.558c0,0.187,0,0.373,0,0.605c-0.047,0.139-0.139,0.279-0.232,0.419
		c-1.025,0.838-1.213,1.07-1.537,1.257c-0.092,0.093-0.184,0.186-0.279,0.326c-0.047,0-0.141,0.046-0.232,0.093
		c-1.209,1.116-2.467,2.233-3.725,3.397c-3.256,3.258-3.721,3.816-4.141,4.188c-0.42,0.558-1.211,1.443-1.535,1.722
		c0,0.046-0.047,0.14-0.094,0.232c-0.141,0.093-0.279,0.232-0.42,0.371c-0.139,0.279-0.371,0.466-0.559,0.793
		c-0.232,0.187-0.232,0.187-1.441,1.723c0,0.046,0,0.094-0.047,0.186c-0.139,0.14-0.279,0.325-0.467,0.512
		c-0.51,0.743-1.021,1.536-1.582,2.326c-0.465,0.839-0.93,1.722-1.395,2.607c-0.094,0.232-0.188,0.511-0.326,0.79
		c-0.141,0.606-0.328,1.211-0.512,1.861c0,0.421,0,0.886,0,1.35c0.045,0.233,0.139,0.466,0.232,0.698
		c0.373,0.468,0.373,0.468,0.65,0.652c0.279,0.047,0.605,0.141,0.932,0.233c0.324,0,0.652,0,0.979,0
		c0.279-0.047,0.605-0.093,0.93-0.141c1.955-0.699,1.955-0.699,2.652-1.024c0.746-0.465,0.932-0.511,2.096-1.301
		c0.188-0.186,0.371-0.233,0.465-0.375c0.186-0.093,0.373-0.232,0.559-0.371c1.676-1.49,1.676-1.49,1.908-1.629
		c0.652-0.698,1.303-1.397,2-2.095c0.838-1.021,1.676-2.047,2.562-3.072c0.092-0.232,0.51-0.697,0.744-1.114
		c0.092-0.141,0.23-0.279,0.369-0.422c0-0.044,0-0.093,0.049-0.187c0.092-0.139,0.232-0.278,0.371-0.417
		c1.631-2.466,1.676-2.651,2.467-3.863c0.049,0,0.141-0.046,0.234-0.093c0.139,0,0.277,0,0.418,0.047
		c0.047,0.093,0.139,0.186,0.232,0.278c0.186,0.093,0.373,0.187,0.605,0.325c0.232,0.047,0.512,0.094,0.791,0.187
		c0.652,0,1.35,0,2.047,0c0.885-0.093,1.768-0.187,2.699-0.325c0.652-0.094,1.35-0.232,2.049-0.372c0.232,0,0.512,0.047,0.791,0.093
		c0.279,0.186,0.559,0.372,0.84,0.604c0.186,0.281,0.369,0.561,0.557,0.886c0.094,0.417,0.186,0.836,0.326,1.304
		c0,0.696,0,1.44,0,2.187c-0.049,0.14-0.141,0.326-0.232,0.511c-0.234,0.232-0.234,0.232-0.559,0.419
		c-3.258,0.653-3.258,0.653-6.236,1.35c-2.469,0.7-2.469,0.7-4.514,1.351c-1.072,0.465-2.143,0.929-3.26,1.396
		c-1.676,0.883-1.955,1.115-2.373,1.348c-0.512,0.422-0.512,0.422-0.979,0.979c-0.092,0.187-0.23,0.372-0.371,0.604
		c-0.094,0.375-0.186,0.746-0.326,1.118c0,0.604,0,1.211,0,1.861c0.141,0.419,0.279,0.836,0.418,1.304
		c0.279,0.418,0.559,0.837,0.885,1.301c0.186,0.189,0.373,0.375,0.559,0.607c0.232,0.093,0.232,0.093,1.025,0.743
		c0.418,0.187,1.07,0.606,2.604,1.305c0.795,0.232,1.584,0.464,2.422,0.696c1.164,0.14,1.164,0.14,2.189,0.14
		c0.508-0.046,1.021-0.094,1.533-0.14c1.49-0.371,1.49-0.371,2.514-0.696c0.559-0.279,1.023-0.419,1.676-0.79
		c0.092-0.047,0.232-0.096,0.371-0.144c1.582-1.021,1.582-1.021,2.375-1.625c0.092-0.14,0.371-0.281,1.488-1.305
		c0.604-0.746,0.604-0.746,0.979-1.071c0.139-0.279,0.559-0.743,1.395-1.955c0.234-0.417,0.512-0.882,0.793-1.35
		c0.324-0.836,0.65-1.675,1.023-2.558c0.324-1.537,0.324-1.537,0.512-2.095c0.047-0.046,0.094-0.093,0.139-0.139
		c0.838-0.187,0.838-0.187,2.281-0.375c0.791,0,1.629-0.047,2.467-0.093c1.629,0.093,1.629,0.093,2.232,0.186
		c0.094,0.05,0.188,0.096,0.326,0.188c0,0.14,0,0.325,0.049,0.512c-0.141,0.371-0.328,0.743-0.514,1.117
		c-0.045,0.232-0.092,0.512-0.186,0.79c0,0.372,0,0.743,0,1.165c0.186,0.79,0.186,0.79,0.371,1.254
		c0.234,0.372,0.42,0.561,0.514,0.793c0.326,0.325,0.326,0.325,0.977,0.744c0.373,0.139,0.744,0.325,1.164,0.514
		c0.277,0.044,0.559,0.09,0.885,0.186c0.371,0,0.744,0,1.117,0c0.65-0.096,1.303-0.235,1.953-0.374
		c0.326-0.093,0.65-0.187,1.025-0.325c2.045-1.022,2.279-1.208,2.465-1.256c0.42-0.374,0.65-0.467,2.141-1.722
		c0-0.049,0.047-0.096,0.094-0.142c0.139-0.046,0.281-0.094,0.42-0.187c0.092,0,0.232,0,0.373,0.047
		c0.045,0.046,0.139,0.14,0.23,0.232c0.141,0.328,0.328,0.654,0.514,1.025c0.371,0.418,0.371,0.418,0.604,0.793
		c0.328,0.186,0.42,0.325,1.256,0.789c0.186,0.047,0.373,0.094,0.605,0.187c0.281,0,0.605,0,0.932,0.046
		c0.373-0.046,0.744-0.093,1.117-0.139c0.324-0.094,0.652-0.232,1.023-0.373c0.418-0.231,0.885-0.467,1.35-0.745
		c0.42-0.279,0.887-0.604,1.35-0.929c0.279-0.233,0.607-0.512,0.93-0.793c0.141,0,0.281,0,0.467,0.046
		c0.094,0.093,0.186,0.189,0.279,0.328c0.326,0.696,0.699,1.208,0.746,1.394c0.277,0.282,0.557,0.561,0.883,0.886
		c0.141,0.093,0.279,0.187,0.465,0.279c1.023,0.325,1.023,0.325,1.629,0.417c0.232,0,0.467,0,0.744,0
		c1.023-0.185,1.023-0.185,1.816-0.417c0.514-0.232,1.023-0.512,1.535-0.79c0.373-0.282,0.746-0.561,1.162-0.84
		c0.561-0.51,1.117-1.021,1.723-1.535c0.141,0,0.326,0,0.514,0.046c0.279,0.653,0.279,0.653,0.65,1.257
		c0.188,0.279,0.42,0.558,0.652,0.839c0.047,0,0.139,0,0.232,0.048c0.139,0.093,0.281,0.231,0.42,0.371
		c0.418,0.187,0.836,0.372,1.301,0.604c0.467,0.092,0.932,0.186,1.445,0.325c0.93,0.092,0.93,0.092,2.139,0.092
		c1.443-0.185,1.443-0.185,2.979-0.51c0.326-0.094,0.652-0.232,1.025-0.373c0.232,0,0.463,0,0.699-0.046
		c0.557,0.14,0.557,0.14,1.486,0.512c0.654,0.092,1.305,0.186,2.004,0.325c0.789,0,1.582,0,2.371,0
		c0.561-0.093,1.164-0.186,1.77-0.325c0.465-0.14,0.977-0.325,1.49-0.512c0.605-0.325,1.209-0.653,1.814-0.979
		c0.373-0.278,0.744-0.558,1.162-0.836c0.652-0.654,1.352-1.305,2.051-1.955c0.834-1.071,1.674-2.189,2.51-3.305
		c0.932-1.443,0.932-1.443,1.26-2.047c0.139-0.093,0.277-0.187,0.416-0.279c0.234,0,0.234,0,1.164,0.325
		c0.699,0.465,0.699,0.465,0.838,0.65c0.047,0.187,0.047,0.187,0.047,1.212c-0.139,0.51-0.139,0.51-1.164,2.884
		c-0.045,0.232-0.092,0.468-0.184,0.699c0,0.186,0,0.418,0,0.651c0.045,0.185,0.092,0.371,0.184,0.604
		c0.141,0.235,0.279,0.468,0.422,0.699c0.975,1.164,0.975,1.164,1.486,1.676c0.281,0.187,0.605,0.419,0.932,0.651
		c0.232,0.093,0.467,0.186,0.697,0.277c0.467,0,0.932,0,1.445,0c2.371-0.696,2.371-0.696,3.254-1.021
		c0.514-0.232,1.025-0.468,1.537-0.7c1.584-0.789,3.166-1.628,4.75-2.465c4.279-2.373,5.023-2.84,5.396-2.979
		c1.256-0.697,1.256-0.697,2.699-1.395c0.373-0.142,0.744-0.281,1.117-0.421c0.277,0,0.559,0,0.883,0
		c0.143,0.14,0.281,0.279,0.465,0.465c0,0.328,0,0.653,0,1.025c-0.092,0.371-0.184,0.743-0.277,1.118c0,0.092,0,0.186,0.047,0.278
		c0.047,0,0.139,0,0.23,0.047c0.143-0.093,0.281-0.233,0.467-0.372c0.373-0.561,0.373-0.561,1.07-2.001
		c0.094-0.375,0.186-0.793,0.326-1.211c0-0.511,0-1.024,0-1.536c-0.094-0.325-0.232-0.65-0.371-1.025
		c-0.141-0.186-0.281-0.371-0.42-0.558c-0.139-0.139-0.324-0.279-0.512-0.418c-0.232-0.046-0.514-0.14-0.791-0.232
		c-0.465,0-0.932,0-1.443,0c-0.418,0.093-0.885,0.187-1.35,0.325c-0.467,0.14-0.932,0.325-1.396,0.512
		c-2.791,1.396-2.791,1.396-2.979,1.442c-1.953,1.118-2.467,1.49-3.816,2.233c-2.467,1.49-2.467,1.49-3.676,2.329
		c-0.885,0.512-1.816,1.022-2.746,1.534c-0.373,0.142-0.744,0.327-1.164,0.514c-0.326,0.047-0.652,0.139-1.023,0.231
		c-0.324,0-0.652,0-0.979,0c-0.139-0.046-0.277-0.093-0.463-0.185c-0.047-0.047-0.143-0.141-0.234-0.233
		c-0.047-0.14-0.094-0.281-0.186-0.468c0-0.139,0-0.278,0-0.417c0.092-0.325,0.186-0.651,0.324-0.977
		c0.096-0.188,0.234-0.374,0.373-0.561c0.65-1.536,0.65-1.536,1.025-2.651c0-0.418,0-0.839,0-1.304
		c-0.139-0.279-0.281-0.558-0.42-0.837c-0.232-0.185-0.465-0.42-0.744-0.652c-0.281-0.141-0.559-0.279-0.838-0.418
		c-0.791-0.232-0.791-0.232-1.211-0.419c-0.416-0.278-0.416-0.278-0.604-0.325c-0.42-0.374-0.652-0.468-0.744-0.606
		c-0.42-0.232-0.84-0.512-1.307-0.79c-0.184-0.047-0.416-0.093-0.65-0.187c-0.232,0-0.463,0-0.697,0
		c-0.186,0.047-0.373,0.094-0.605,0.187c-0.605,0.418-0.605,0.418-1.07,0.883c-0.186,0.374-0.373,0.746-0.605,1.118
		c-0.092,0.417-0.092,0.417-0.092,1.21c0.186,0.512,0.373,0.744,0.467,1.023c0,0.186,0,0.371,0,0.604
		c-0.793,1.443-0.793,1.443-1.211,2.05c-1.117,1.255-1.117,1.255-2.141,2.233c-0.42,0.325-0.84,0.651-1.307,0.977
		c-0.184,0.046-0.695,0.42-1.953,1.07c-0.885,0.373-0.885,0.373-2.002,0.697c-0.324,0.047-0.65,0.096-1.021,0.189
		c-0.232,0-0.467,0-0.746,0c-0.047,0-0.139-0.046-0.232-0.094c0-0.096,0.047-0.235,0.094-0.374c0.23-0.14,0.326-0.279,0.604-0.419
		c1.072-0.929,1.072-0.929,2.281-2.093c0.188-0.325,0.42-0.512,0.605-0.84c0.047-0.046,0.141-0.093,0.232-0.187
		c0.279-0.417,0.561-0.882,0.885-1.347c0.232-0.653,0.51-1.304,0.791-1.957c0-0.419,0-0.883,0-1.348
		c-0.371-1.025-0.371-1.025-0.699-1.722c-0.277-0.372-0.605-0.793-0.93-1.211c-0.465-0.372-0.465-0.372-0.838-0.558
		c-0.186-0.047-0.371-0.094-0.561-0.14c-0.51,0-1.023,0-1.533,0.046c-0.465,0.094-0.977,0.232-1.49,0.372
		c-0.838,0.325-0.838,0.325-1.861,0.837c-0.746,0.467-0.838,0.606-1.35,0.932c-0.418,0.418-0.697,0.604-1.582,1.582
		c-0.234,0.326-0.512,0.651-0.791,1.022c-0.047,0.187-0.42,0.701-0.932,1.723c-0.141,0.514-0.326,1.025-0.514,1.536
		c-0.045,0.325-0.092,0.653-0.139,1.024c0,0.558,0,1.115,0.047,1.723c0.092,0.278,0.188,0.558,0.279,0.836c0,0.141,0,0.325,0,0.512
		c-0.092,0.097-0.188,0.235-0.279,0.375c-0.186,0.093-0.371,0.186-0.604,0.279c-0.605,0.092-0.605,0.092-1.908,0.092
		c-0.281-0.046-0.559-0.092-0.84-0.186c-0.742-0.372-0.742-0.372-1.162-0.699c-0.232-0.466-0.232-0.466-0.418-0.698
		c-0.049-0.185-0.096-0.371-0.188-0.604c-0.047-1.63-0.047-1.63,0-2.469c0.139-0.512,0.281-1.068,0.467-1.629
		c0-0.14,0-0.278,0-0.418c-0.047-0.093-0.094-0.232-0.186-0.372c-0.281-0.186-0.281-0.186-1.305-0.558
		c-0.885-0.046-0.885-0.046-1.303,0c-0.092,0.047-0.186,0.093-0.326,0.186c-0.141,0.14-0.279,0.279-0.418,0.465
		c-0.326,0.697-0.514,0.93-0.652,1.305c-0.932,1.301-0.932,1.301-1.07,1.582c-0.232,0.187-0.42,0.512-1.582,1.58
		c-0.232,0.142-0.465,0.281-0.744,0.468c-0.373,0.139-0.746,0.325-1.164,0.511c-0.279,0.046-0.607,0.094-0.932,0.14
		c-0.279,0-0.559,0-0.885,0c-0.186-0.046-0.371-0.094-0.605-0.14c-0.324-0.186-0.324-0.186-0.791-0.604
		c-0.092-0.185-0.184-0.42-0.279-0.652c0-0.419,0-0.837,0-1.302c0.141-0.515,0.326-1.024,0.514-1.536
		c0.371-0.653,0.371-0.653,0.604-1.258c0-0.418,0-0.418-0.092-0.604c-0.141-0.093-0.324-0.186-0.512-0.279
		c-0.234-0.049-0.514-0.093-0.791-0.188c-0.328,0-0.652,0-1.023,0c-0.141,0.046-0.328,0.095-0.514,0.188
		c-0.186,0.14-0.373,0.279-0.559,0.465c-0.232,0.418-0.465,0.837-0.742,1.255c-0.887,1.118-0.887,1.118-2.189,2.515
		c-0.326,0.232-0.418,0.372-1.023,0.79c-0.791,0.422-0.791,0.422-1.537,0.7c-0.416,0-0.836,0-1.303,0
		c-0.186-0.047-0.42-0.094-0.65-0.187c-0.232-0.14-0.465-0.281-0.699-0.421c-0.186-0.231-0.371-0.464-0.557-0.743
		c0-0.278,0-0.604,0-0.929c0.604-1.118,0.604-1.118,1.303-2.236c0.045-0.232,0.139-0.465,0.23-0.744c0-0.278,0-0.606,0-0.932
		c-0.047-0.232-0.139-0.465-0.23-0.697c-0.42-0.418-0.838-0.839-1.256-1.257c-0.189-0.094-0.42-0.187-0.652-0.325
		c-0.467-0.14-0.979-0.279-1.49-0.419c-0.65,0-1.303,0-1.953,0c-0.559,0.093-1.164,0.187-1.771,0.325
		c-0.51,0.14-1.021,0.325-1.533,0.512c-0.697,0.325-1.396,0.652-2.141,1.025c-0.932,0.604-1.908,1.21-2.887,1.814
		c-0.092,0-0.234,0.046-0.373,0.093c-3.211,0-6.467,0-9.727,0.047c-0.092-0.047-0.186-0.094-0.279-0.14
		c-0.186-0.418-0.186-0.418-0.514-1.583c-0.23-0.511-0.463-1.071-0.695-1.629c-0.326-0.511-0.699-0.93-0.744-1.118
		c-1.35-1.301-1.35-1.301-1.492-1.535c0-0.185,0-0.185,0.094-0.325c0.838-0.419,2.469-1.07,3.818-1.768
		c0.232-0.188,0.604-0.326,1.115-0.699c0.326-0.14,0.326-0.14,1.863-1.164c0.139-0.093,0.277-0.232,0.416-0.372
		c0.047,0,0.096,0,0.189-0.046c0.977-0.838,1.953-1.675,2.932-2.513c0.605-0.699,1.256-1.397,1.906-2.096
		c0.652-0.93,0.652-0.93,0.793-1.022c0.232-0.42,0.51-0.885,0.791-1.351c0.277-0.604,0.557-1.21,0.885-1.861
		c0.139-0.605,0.277-1.21,0.416-1.815c0-0.512,0-1.07,0-1.629c-0.092-0.419-0.23-0.838-0.369-1.256
		c-0.188-0.326-0.375-0.652-0.559-1.024c-1.072-0.885-1.072-0.885-1.676-1.256c-0.838-0.326-0.838-0.326-1.537-0.513
		c-0.42-0.047-0.838-0.092-1.303-0.14c-1.676,0.093-1.676,0.093-2.699,0.232c-0.793,0.232-1.629,0.466-2.469,0.699
		c-0.791,0.279-1.58,0.559-2.418,0.837c-2.979,1.396-2.979,1.396-5.633,2.745c-0.836,0.466-1.721,0.933-2.605,1.442
		c-4.562,2.841-4.562,2.841-4.887,2.979c-0.23,0-0.465,0-0.697,0c-0.141-0.046-0.279-0.139-0.418-0.232
		c-0.281-0.279-0.605-0.56-0.934-0.884c-0.371-0.14-0.789-0.326-1.209-0.513c-0.652-0.14-0.652-0.14-2.094-0.233
		c-0.605,0.094-1.256,0.187-1.908,0.327c-0.42,0.139-0.883,0.325-1.35,0.511c-1.303,0.698-1.303,0.698-3.398,2.001
		c-0.094,0.141-1.023,0.792-1.162,0.979c-0.049,0-0.141,0.047-0.234,0.093c-0.092,0.094-0.184,0.232-0.324,0.372
		c-0.045,0-0.096,0-0.188,0.047c-0.232,0.279-1.162,1.023-1.953,1.815c-0.42,0.324-3.307,3.211-4.143,4.142
		c-0.232,0.233-0.465,0.466-0.746,0.698c-0.045,0.094-0.094,0.187-0.186,0.326c-0.279,0.232-0.559,0.512-0.838,0.791
		c0,0.046-0.047,0.14-0.094,0.232c-0.277,0.279-0.557,0.559-0.883,0.838c0,0.046,0,0.093-0.049,0.187
		c-0.51,0.465-0.51,0.465-1.395,1.442c-0.047,0.093-0.092,0.186-0.186,0.325c-0.186,0.186-0.418,0.374-0.652,0.606
		c-0.559,0.651-1.117,1.302-1.674,1.954c-0.188,0.187-0.373,0.372-0.605,0.558c-0.047,0.093-0.094,0.187-0.188,0.325
		c-1.068,1.165-1.86,1.908-3.024,3.213c-0.094,0.046-0.187,0.093-0.327,0.186c-0.231,0.232-0.465,0.465-0.697,0.746
		c-0.092,0.046-0.187,0.093-0.325,0.187c-0.093,0.139-0.232,0.278-0.372,0.418c-1.164,0.882-1.164,0.882-1.258,1.022
		c-0.046,0-0.093,0-0.186,0.046c-0.419,0.374-0.419,0.374-1.723,1.211c-0.418,0.232-0.838,0.465-1.256,0.7
		c-0.372,0.139-0.792,0.325-1.21,0.512c-0.372,0.046-0.745,0.139-1.117,0.231c-0.465,0-0.931,0-1.442,0
		c-0.419-0.14-0.419-0.14-0.698-0.325c-0.093-0.232-0.093-0.232-0.093-0.561c0.186-0.187,0.418-0.371,0.651-0.604
		c0.651-0.465,1.304-0.929,1.954-1.396c0.698-0.65,1.396-1.348,2.142-2.047c0-0.047,0.047-0.14,0.093-0.232
		c0.093-0.047,0.187-0.141,0.279-0.232c0.093-0.232,0.513-0.793,1.117-1.955c0.046-0.185,0.093-0.371,0.139-0.606
		c0-0.465,0-0.929,0-1.44c-0.046-0.232-0.093-0.468-0.139-0.7c-0.093-0.279-0.232-0.604-0.372-0.929c-0.42-0.7-0.42-0.7-0.838-1.211
		c-0.232-0.232-0.513-0.465-0.792-0.697c-0.232-0.093-0.511-0.232-0.791-0.373c-0.279-0.047-0.558-0.093-0.838-0.187
		c-0.232,0-0.512,0-0.791,0c-0.372,0.048-0.743,0.094-1.117,0.187c-0.325,0.093-0.697,0.186-1.07,0.326
		c-0.465,0.232-0.931,0.465-1.396,0.697c-0.326,0.232-0.651,0.465-1.023,0.697c-0.419,0.421-0.65,0.561-1.583,1.583
		c-0.884,1.164-0.884,1.164-1.022,1.257c-0.42,0.79-0.42,0.79-0.606,1.025c-0.651,1.629-0.651,1.629-0.837,2.233
		c-0.047,0.371-0.093,0.742-0.187,1.118c0,0.65,0,0.65,0.094,1.44c0.187,0.514,0.371,1.071,0.604,1.629c0,0.186,0,0.418-0.046,0.653
		c-0.233,0.232-0.233,0.232-0.746,0.511c-0.511,0.093-1.069,0.186-1.628,0.325c-1.024,0-1.024,0-1.629-0.093
		c-0.279-0.093-0.559-0.186-0.838-0.324c-0.233-0.141-0.466-0.326-0.745-0.512c-0.185-0.329-0.185-0.329-0.418-0.979
		c0-0.325-0.047-0.65-0.093-0.978c0.046-0.279,0.093-0.558,0.186-0.837c0.373-0.697,0.373-0.697,0.837-1.351
		c1.258-1.068,1.258-1.068,1.489-1.348c0.187-0.049,0.187-0.049,0.374-0.235c0.093-0.186,0.185-0.371,0.278-0.558
		c0-0.139,0-0.278,0-0.418c-0.094-0.232-0.186-0.465-0.325-0.7c-0.513-0.464-0.513-0.464-1.164-0.883
		c-0.14-0.046-0.326-0.092-0.512-0.185c-0.141,0-0.326,0-0.513,0c-0.14,0.046-0.324,0.093-0.512,0.185
		c-0.418,0.373-0.884,0.79-1.35,1.212c0,0.046,0,0.093-0.047,0.186c-0.512,0.558-0.65,0.836-0.791,0.93
		c-0.464,0.792-0.931,1.629-1.396,2.468c-0.139,0.094-0.371,0.512-1.21,1.534c-0.93,0.839-0.93,0.839-1.861,1.535
		c-0.744,0.328-0.744,0.328-1.35,0.515c-1.303,0.046-1.303,0.046-1.815,0c-0.512-0.187-0.512-0.187-0.837-0.374
		c-0.513-0.512-0.513-0.512-0.744-0.651c-0.095-0.186-0.187-0.418-0.327-0.65c0-0.187,0-0.374,0-0.606
		c0.048-0.141,0.094-0.279,0.188-0.466c1.07-0.883,1.908-1.722,2.42-2.14c0.697-0.746,1.396-1.49,2.141-2.279
		c0.186-0.329,0.419-0.514,0.558-0.793c0.28-0.232,0.513-0.604,0.699-0.744c0.372-0.56,0.791-1.025,2.187-2.979
		c1.629-2.561,1.629-2.561,2.141-3.49c0-0.094,0-0.187,0.047-0.28c0.094-0.186,0.233-0.418,0.373-0.651
		c0.186-0.604,0.372-1.257,0.604-1.908c0.047-1.024,0.047-1.024,0-1.535c-0.093-0.325-0.093-0.325-0.372-0.745
		c-0.279-0.279-0.279-0.279-0.605-0.466c-0.186-0.046-0.372-0.093-0.604-0.186c-0.233,0-0.513,0-0.792,0
		c-0.325,0.046-0.65,0.093-1.022,0.186c-0.28,0.094-0.606,0.187-0.932,0.327c-1.442,0.697-1.676,0.884-1.861,0.931
		c-0.604,0.464-0.838,0.558-0.932,0.697c-0.14,0.093-0.325,0.187-0.512,0.325c-1.954,1.77-1.954,1.77-2.979,2.793
		c-0.513,0.605-1.023,1.257-1.583,1.908c-0.092,0.232-0.79,1.163-1.722,2.698c-0.698,1.443-1.023,2.329-1.396,3.025
		c-0.046,0-0.092,0.048-0.186,0.094c-0.837,0-2.047-0.094-5.025-0.094c-1.723,0.187-1.723,0.187-3.491,0.512
		c-0.512,0.14-1.07,0.328-1.629,0.514c-0.373,0.141-0.745,0.325-1.117,0.512c-0.931,0.604-0.931,0.604-1.442,1.025
		c-0.279,0.278-0.559,0.604-0.884,0.929c-0.373,0.558-0.373,0.558-0.791,1.443c-0.095,0.325-0.188,0.65-0.326,1.021
		c-0.094,0.189-0.233,0.375-0.373,0.608c-0.233,0.092-0.465,0.232-0.698,0.371c-0.512,0.139-1.023,0.325-1.535,0.512
		c-0.512,0.046-1.07,0.139-1.629,0.232c-0.466,0-0.932,0-1.442,0c-0.279-0.048-0.559-0.094-0.838-0.141
		c-0.233-0.092-0.512-0.232-0.792-0.371c-0.186-0.14-0.419-0.279-0.651-0.465c-0.14-0.232-0.326-0.464-0.511-0.747
		c0-0.277,0-0.557-0.049-0.883c0.049-0.139,0.141-0.325,0.233-0.51c1.258-0.887,1.351-1.025,1.908-1.397
		c0.605-0.511,0.931-0.697,1.117-0.933c0.978-0.789,0.978-0.789,1.908-1.676c0.093-0.046,0.187-0.093,0.28-0.139
		c0.232-0.278,0.512-0.558,0.791-0.836c0.093-0.047,0.186-0.093,0.325-0.187c1.071-1.118,2.187-2.282,3.304-3.444
		c1.024-1.21,1.024-1.21,1.164-1.304c0.14-0.279,0.56-0.744,0.651-0.978c0.093-0.046,0.093-0.046,0.931-1.303
		c0.187-0.465,0.372-0.931,0.605-1.442c0.046-0.931,0.046-0.931,0-1.443c-0.186-0.512-0.186-0.512-0.373-0.791
		c-0.186-0.139-0.371-0.279-0.604-0.465c-0.14-0.046-0.325-0.095-0.512-0.187c-0.559,0-1.116,0-1.722,0
		c-0.652,0.141-1.304,0.325-1.955,0.513c-0.745,0.325-1.489,0.65-2.234,1.022c-0.791,0.513-1.629,1.07-2.467,1.629
		c-0.465,0.42-0.744,0.559-0.931,0.792c-0.093,0.047-0.186,0.092-0.325,0.187c-0.372,0.418-2.047,2.001-3.212,3.257
		c-0.139,0.234-0.418,0.467-0.558,0.745c-0.14,0.093-0.14,0.093-1.35,1.814c-0.047,0.187-0.047,0.187-1.024,1.862
		c-0.14,0.465-0.14,0.465-0.651,1.536c-0.094,0.093-0.233,0.186-0.373,0.326c-0.093,0-0.231,0-0.372,0
		c-0.743-0.233-1.488-0.466-2.28-0.698c-0.931-0.186-1.862-0.374-2.839-0.606c-3.397-0.046-3.397-0.046-4.235,0
		c-1.722,0.374-1.722,0.374-2.839,0.699c-0.279,0.094-0.558,0.187-0.838,0.326c-0.419,0.231-0.838,0.464-1.303,0.696
		c-0.326,0.279-0.326,0.279-0.512,0.328c-0.512,0.465-1.024,0.977-1.583,1.486c-0.371,0.515-0.791,1.026-1.21,1.537
		c-0.232,0.139-0.466,0.325-0.698,0.512c-1.21,0.652-2.467,1.303-3.723,1.957c-0.466,0.139-1.117,0.512-2.001,0.836
		c-0.326,0.186-0.326,0.186-3.212,1.211c-0.605,0.139-1.21,0.325-1.814,0.512c-0.838,0.139-1.676,0.278-2.561,0.418
		c-0.838,0-1.675,0-2.559,0c-0.605-0.093-1.21-0.186-1.862-0.325c-0.513-0.232-1.069-0.466-1.628-0.697
		c-0.606-0.421-0.606-0.421-1.258-1.025c-0.046-0.232-0.046-0.232-0.418-0.836c0-0.187-0.048-0.374-0.094-0.561
		c0.094-0.279,0.094-0.279,0.279-0.512c0.141-0.093,0.279-0.185,0.465-0.325c3.398-1.535,4.282-1.861,4.607-2.047
		c1.629-0.654,2.375-1.025,2.839-1.164c2.095-0.977,2.979-1.305,3.305-1.49c0.093,0,0.187,0,0.279-0.047
		c1.071-0.464,2.142-0.976,3.211-1.489c0.094,0,0.188,0,0.279-0.046c5.632-2.559,5.632-2.559,6.284-2.932
		c0.931-0.42,1.86-0.885,2.839-1.35c6.143-3.165,6.562-3.444,7.911-4.096c4.887-2.746,4.887-2.746,5.399-2.979
		c2.327-1.489,2.885-1.907,3.583-2.327c2.048-1.535,2.141-1.675,2.467-1.86c0.093-0.094,0.186-0.232,0.325-0.373
		c0.048,0,0.094,0,0.187-0.046c0.978-0.978,0.978-0.978,2.001-2.188c0.233-0.419,0.466-0.838,0.698-1.303
		c0.047-0.187,0.093-0.374,0.14-0.605c0-0.325,0-0.651,0-1.023c-0.047-0.14-0.093-0.326-0.14-0.513
		c-0.14-0.233-0.325-0.512-0.512-0.791c-0.419-0.372-0.783-0.854-1.257-1.21c-0.466-0.35-1.045-0.652-1.629-0.931
		c-0.398-0.189-0.721-0.402-2.792-1.024c-0.726-0.218-1.476-0.395-2.234-0.512c-2.55-0.396-2.558-0.367-3.909-0.418
		C65.118,80.137,64.047,80.131,62.93,80.131L62.93,80.131z M65.816,83.203c-0.046,0-0.006,0.006-2.979,0.372
		c-0.797,0.1-1.638,0.293-2.468,0.512c-0.754,0.2-1.508,0.413-2.233,0.698c-0.581,0.229-0.582,0.22-1.442,0.604
		c-0.912,0.408-1.779,0.913-2.652,1.442c-0.431,0.263-0.878,0.508-1.258,0.839c-1.113,0.976-1.988,1.967-2.187,2.187
		c-0.225,0.251-0.417,0.578-0.604,0.931c-0.188,0.352-0.327,0.745-0.513,1.117c-0.047,0.187-0.093,0.373-0.141,0.606
		c0,0.559,0,1.163,0,1.768c0.048,0.233,0.094,0.466,0.141,0.698c0.14,0.325,0.326,0.651,0.513,1.024
		c0.231,0.279,0.511,0.559,0.79,0.884c0.652,0.466,0.652,0.466,1.583,0.979c0.791,0.278,1.629,0.559,2.467,0.837
		c0.512,0,1.023,0,1.535,0c0.326-0.094,0.651-0.187,1.024-0.327c0.744-0.371,0.744-0.371,1.21-0.51
		c3.397-1.724,3.816-2.003,4.515-2.328c0.232-0.186,0.93-0.512,1.163-0.697c0.373-0.141,1.629-0.931,2.42-1.351
		c0.233-0.187,0.419-0.232,1.861-1.21c0.606-0.325,2.358-1.486,2.746-1.768c0.136-0.1,0.407-0.242,2.28-1.955
		c0.317-0.29,0.595-0.675,0.838-1.07c0.132-0.214,0.26-0.486,0.326-0.792c0.078-0.364,0.034-0.746,0-1.116
		c-0.014-0.147-0.068-0.301-0.186-0.419c-0.119-0.119-0.056-0.148-0.233-0.327c-0.311-0.31-0.435-0.426-1.07-0.744
		c-0.395-0.196-0.863-0.39-1.351-0.512c-0.637-0.159-1.337-0.277-2.047-0.325C68.518,83.158,67.166,83.203,65.816,83.203
		L65.816,83.203z M185.703,84.227c0,0.047,0,0.047-1.395,0.373c-0.84,0.325-1.676,0.651-2.562,1.023
		c-2.699,1.396-2.791,1.489-3.49,1.815c-0.23,0.187-0.605,0.326-1.115,0.697c-2.096,1.21-2.375,1.443-3.537,2.143
		c-0.559,0.418-0.744,0.464-1.07,0.743c-0.697,0.419-0.791,0.559-2.096,1.396c-0.139,0.187-0.465,0.373-0.65,0.605
		c-0.047,0-0.092,0-0.139,0c0,0.047-0.049,0.14-0.094,0.232c-0.047,0-0.096,0-0.141,0.046c-0.094,0.187-0.186,0.42-0.279,0.652
		c-0.092,0.604-0.184,1.21-0.326,1.814c-0.512,1.676-0.512,1.676-1.023,2.979c0,0.139,0,0.325,0,0.512
		c0.094,0.093,0.094,0.093,0.326,0.093c0.234-0.14,0.465-0.279,0.697-0.419c0.559-0.186,1.117-0.372,1.676-0.56
		c2.002-0.045,2.002-0.045,2.793,0c0.65,0.141,1.305,0.327,1.955,0.513c0.418,0.187,0.838,0.373,1.303,0.605
		c0.373,0,0.791,0,1.209,0c0.141-0.047,0.328-0.093,0.512-0.14c0.281-0.14,0.605-0.325,0.932-0.512
		c0.699-0.467,1.396-0.977,2.143-1.489c1.068-0.93,1.395-1.117,1.627-1.396c0.373-0.326,0.746-0.698,1.166-1.07
		c0.092-0.046,0.186-0.093,0.324-0.187c0.42-0.559,1.35-1.535,2.188-2.56c0.186-0.372,0.465-0.698,1.535-2.653
		c0.139-0.466,0.326-0.93,0.514-1.442c0.045-0.232,0.092-0.512,0.139-0.791c0-0.559,0-1.117,0-1.675
		c-0.047-0.14-0.094-0.28-0.139-0.419c-0.188-0.187-0.375-0.373-0.605-0.605c-0.234-0.047-0.512-0.14-0.793-0.232
		C186.773,84.32,186.262,84.273,185.703,84.227L185.703,84.227z M119.384,94.467c0,0.046,0,0.046-0.699,0.325
		c-0.093,0.093-0.187,0.186-0.325,0.279c0,0.186,0,0.372,0,0.605c1.35,1.349,1.35,1.349,2.047,2.14
		c0.326,0.513,0.652,1.024,0.979,1.583c0,0.046,0,0.14,0.046,0.233c0.047,0.045,0.14,0.139,0.233,0.232c0.231,0,0.511,0,0.79,0
		c0.094-0.047,0.233-0.141,0.373-0.232c0.093-0.188,0.186-0.373,0.325-0.605c0-0.187,0-0.373,0-0.559
		c-0.093-0.373-0.186-0.745-0.325-1.117c-0.232-0.42-0.465-0.838-0.698-1.257c-0.233-0.326-0.513-0.651-0.792-0.978
		c-0.511-0.372-0.511-0.372-0.931-0.559C120.082,94.559,119.756,94.513,119.384,94.467L119.384,94.467z M110.355,96.606
		c-0.187,0.187-0.559,0.325-0.885,0.559c-0.093,0.14-0.279,0.187-0.744,0.699c-0.046,0-0.094,0-0.187,0.046
		c-0.791,0.931-0.791,0.931-1.022,1.117c-0.141,0.279-0.374,0.465-0.561,0.791c-0.046,0-0.093,0.047-0.185,0.093
		c-1.025,1.582-1.258,2.049-1.443,2.234c-0.373,0.837-0.792,1.676-1.21,2.559c-0.14,0.653-0.326,1.304-0.512,1.955
		c0,0.327,0,0.652,0,1.024c0.046,0.047,0.093,0.093,0.139,0.186c0.093,0,0.187,0,0.325,0c0.141-0.093,0.28-0.186,0.466-0.278
		c0-0.047,0-0.093,0.047-0.139c0.093-0.048,0.233-0.141,0.372-0.233c1.117-1.117,1.117-1.117,1.676-1.768
		c0.187-0.329,0.419-0.515,0.606-0.841c0.279-0.277,0.464-0.604,0.884-1.07c1.022-1.44,1.069-1.58,1.442-2.047
		c0.279-0.512,0.279-0.512,0.604-0.931c0.326-0.605,0.651-1.21,0.978-1.861c0.093-0.278,0.187-0.605,0.325-0.932
		c0-0.279,0-0.558,0-0.838c0-0.046-0.046-0.139-0.093-0.232C111.052,96.699,110.728,96.653,110.355,96.606L110.355,96.606z
		 M85.129,96.793c0,0.046,0,0.046-0.464,0.093c-0.466,0.233-0.932,0.466-1.444,0.699c-0.325,0.279-0.511,0.325-1.907,1.349
		c-0.232,0.279-0.745,0.699-0.978,0.978c-0.14,0.046-0.326,0.326-0.792,0.744c-0.884,1.07-0.884,1.07-0.977,1.305
		c-0.047,0-0.093,0.046-0.187,0.093c-0.931,1.536-0.931,1.536-1.117,1.723c-0.278,0.604-0.278,0.604-0.697,1.301
		c-0.141,0.468-0.233,0.56-0.513,1.351c0,0.324,0,0.699,0,1.071c0.047,0.046,0.094,0.093,0.14,0.186c0.14,0,0.278,0,0.466-0.047
		c0.884-0.65,1.07-0.886,1.396-1.071c0.325-0.279,0.651-0.604,0.978-0.93c0.093-0.046,0.186-0.092,0.325-0.185
		c0.698-0.7,0.744-0.841,1.023-1.025c0.699-0.698,0.745-0.837,1.024-1.025c0.232-0.232,0.466-0.465,0.697-0.697
		c0-0.046,0-0.093,0.048-0.186c0.279-0.232,0.465-0.512,0.604-0.558c1.257-1.537,1.443-1.863,1.722-2.142
		c0.792-1.211,0.792-1.211,1.164-1.954c0.046-0.652,0.046-0.652,0-0.839C85.549,96.932,85.549,96.932,85.129,96.793L85.129,96.793z
		 M164.109,97.444c-0.42,0.325-0.887,0.698-1.35,1.07c0,0.047,0,0.093-0.045,0.14c-0.514,0.373-0.748,0.652-0.979,0.745
		c-0.467,0.512-1.443,1.35-1.629,1.582c-0.561,0.465-0.979,0.932-1.258,1.118c-0.188,0.278-1.768,1.861-2.047,2.047
		c-0.186,0.279-0.42,0.464-1.77,2.001c-0.279,0.232-0.467,0.558-0.977,1.025c-0.094,0.231-0.094,0.231-0.324,0.464
		c-0.049,0-0.096,0-0.143,0.047c0,0.047,0,0.14-0.047,0.232c-0.232,0.232-0.232,0.232-0.371,0.278
		c-0.42,0.654-0.605,0.793-0.652,0.979c-0.51,0.558-0.65,0.836-0.93,1.115c0,0.093-0.047,0.186-0.094,0.278
		c-0.279,0.421-0.559,0.84-0.883,1.304c-0.141,0.419-0.326,0.7-0.42,1.025c0,0.232,0,0.464,0,0.743
		c0.047,0.047,0.094,0.094,0.139,0.186c0.885-0.046,0.885-0.046,1.164-0.139c1.07-0.697,1.07-0.697,3.025-2.187
		c1.768-1.769,2.049-1.955,2.234-2.233c0.277-0.279,0.605-0.561,0.932-0.886c1.859-2.233,2-2.326,2.188-2.652
		c0.277-0.277,0.277-0.277,1.303-1.675c0.65-1.071,1.35-2.188,2.045-3.305c0.328-0.652,0.654-1.35,0.979-2.048
		c0.047-0.232,0.139-0.466,0.234-0.698c0-0.139,0-0.279,0-0.466C164.34,97.537,164.248,97.49,164.109,97.444L164.109,97.444z
		 M45.012,98.374c0,0.049-2.142,0.42-3.397,0.746c-0.604,0.232-1.21,0.465-1.815,0.698c-0.419,0.186-0.884,0.419-1.349,0.651
		c-0.792,0.512-1.583,1.023-2.374,1.536c-0.652,0.558-1.303,1.162-1.955,1.77c-0.28,0.325-0.559,0.65-0.838,0.976
		c-0.372,0.606-0.372,0.606-0.651,0.885c-0.093,0.279-0.326,0.604-1.024,2.233c-0.139,0.697-0.139,0.697-0.139,1.305
		c0.093,0.186,0.093,0.186,0.279,0.325c0.372,0,0.372,0,0.838-0.093c0.093-0.094,0.65-0.232,1.954-0.747
		c0.094-0.093,5.119-2.141,5.212-2.232c0.652-0.279,0.932-0.325,3.305-1.351c0.279-0.187,3.863-1.723,4.374-2.001
		c0.141-0.047,0.327-0.093,0.514-0.14c0.651-0.372,1.442-0.697,1.535-0.79c0.838-0.325,1.535-0.699,1.955-0.838
		c0.14-0.094,0.325-0.232,0.511-0.373c0.048-0.651,0.048-0.651,0-0.838c-0.371-0.231-0.744-0.464-1.115-0.697
		c-0.792-0.326-0.792-0.326-1.862-0.651c-0.513-0.094-1.023-0.187-1.537-0.279C46.641,98.469,45.85,98.423,45.012,98.374
		L45.012,98.374z M242.482,104.61c0,0.048,0,0.048-1.443,0.558c-1.164,0.887-1.211,0.979-1.535,1.212
		c-0.746,0.886-0.746,0.886-1.115,1.489c-0.096,0.232-0.189,0.465-0.328,0.697c-0.092,0.375-0.186,0.746-0.277,1.165
		c0,0.325,0,0.696,0,1.07c0.047,0.187,0.092,0.373,0.186,0.605c0.139,0.231,0.279,0.464,0.465,0.742c0.186,0,0.371,0,0.559-0.046
		c0.326-0.278,0.652-0.558,1.025-0.836c0.883-0.933,1.162-1.118,1.348-1.397c0.139-0.139,0.277-0.278,0.467-0.418
		c0.324-0.418,0.65-0.886,1.023-1.351c0.139-0.325,0.324-0.649,0.51-1.022c0.049-0.188,0.096-0.374,0.141-0.606
		c0-0.325,0-0.696,0-1.069c-0.045-0.139-0.092-0.281-0.188-0.467C243.088,104.797,243.088,104.797,242.482,104.61L242.482,104.61z
		 M128.972,104.89c0,0.047-0.56,0.232-1.584,0.793c-0.278,0.232-0.559,0.465-0.837,0.697c-0.325,0.418-0.699,0.839-1.071,1.304
		c-0.187,0.418-0.372,0.604-0.513,1.022c-0.092,0.093-0.092,0.093-0.371,1.118c0,0.465,0,0.978,0,1.489
		c0.093,0.232,0.232,0.512,0.371,0.79c0.049,0.046,0.095,0.093,0.188,0.187c0.325,0,0.65,0,0.977-0.048
		c0.373-0.231,0.792-0.464,1.211-0.742c1.676-1.259,2.001-1.443,2.514-1.862c0.231-0.231,0.465-0.464,0.697-0.696
		c0.279-0.422,0.559-0.84,0.884-1.258c0.047-0.14,0.094-0.279,0.188-0.465c0.045-0.885,0.045-0.885,0-1.304
		c-0.42-0.558-0.42-0.558-0.652-0.747c-0.186-0.046-0.373-0.092-0.558-0.185C129.949,104.983,129.482,104.937,128.972,104.89
		L128.972,104.89z M200.969,106.844c0,0.048,0,0.048-1.303,0.375c-1.441,0.697-1.861,0.976-2.049,1.022
		c-1.068,0.839-1.068,0.839-2,1.722c-0.186,0.326-0.373,0.465-0.467,0.7c-0.045,0-0.092,0.046-0.186,0.093
		c-0.141,0.419-0.141,0.419-0.512,1.115c0,0.419,0,0.839,0,1.258c0.141,0.186,0.279,0.418,0.467,0.65
		c0.139,0.046,0.277,0.093,0.463,0.139c0.559,0,1.117,0,1.721,0c0.234-0.046,0.467-0.093,0.701-0.139
		c0.512-0.232,1.023-0.465,1.535-0.696c0.186-0.187,0.605-0.373,1.676-1.166c0-0.046,0-0.092,0.047-0.139
		c0.232-0.187,0.463-0.371,0.744-0.604c0.232-0.325,0.605-0.7,1.303-1.63c0.139-0.371,0.326-0.79,0.512-1.211
		c0-0.14,0-0.278,0-0.465c-0.139-0.371-0.139-0.371-0.373-0.696c-0.186-0.047-0.416-0.143-0.652-0.235
		C202.086,106.938,201.525,106.892,200.969,106.844L200.969,106.844z M96.812,108.381c0,0.046,0,0.046-2.328,0.374
		c-0.372,0.094-0.744,0.232-1.116,0.372c-0.465,0.232-0.932,0.465-1.443,0.743c-0.325,0.279-0.65,0.558-0.977,0.886
		c-0.187,0.325-0.373,0.651-0.605,1.022c-0.093,0.371-0.093,0.371-0.093,1.211c0.046,0.186,0.093,0.371,0.187,0.604
		c0.279,0.419,0.325,0.608,0.512,0.793c0.326,0.14,0.651,0.325,0.977,0.512c0.279,0.046,0.56,0.093,0.884,0.186
		c0.42,0,0.838,0,1.258,0c0.512-0.093,1.071-0.186,1.629-0.324c0.512-0.233,1.069-0.466,1.628-0.701
		c0.373-0.278,0.745-0.558,1.164-0.836c0.233-0.325,0.233-0.325,0.373-0.418c0.093-0.232,0.185-0.468,0.278-0.746
		c0.094-2.141,0.094-2.141,0.047-3.352c-0.232-0.187-0.232-0.187-0.513-0.279C98.068,108.427,97.463,108.427,96.812,108.381
		L96.812,108.381z M63.861,109.174c0,0.046,0,0.046-0.604,0.093c-0.513,0.14-1.023,0.325-1.536,0.511
		c-0.697,0.512-0.697,0.512-0.931,0.604c-0.513,0.514-0.513,0.514-0.931,1.071c-0.047,0.139-0.14,0.325-0.232,0.512
		c0,0.42,0,0.839,0.046,1.257c0.372,0.558,0.372,0.558,0.745,0.979c0.512,0.324,0.512,0.324,0.931,0.51
		c0.232,0.048,0.465,0.094,0.697,0.14c0.604,0,1.258,0,1.908,0c0.838-0.14,0.838-0.14,1.722-0.418
		c0.095-0.093,0.42-0.14,1.118-0.515c0.14-0.046,0.278-0.093,0.419-0.139c2.14-1.208,2.327-1.395,2.978-1.769
		c0.466-0.372,0.466-0.372,0.699-0.697c0-0.558,0-0.558-0.094-0.789c-0.466-0.189-0.931-0.375-1.443-0.607
		c-1.21-0.325-1.21-0.325-3.164-0.697C65.443,109.22,64.653,109.22,63.861,109.174L63.861,109.174z M175.51,112.149
		c0,0.047-0.928,0.187-5.35,1.211c-1.07,0.326-2.189,0.651-3.307,1.025c-1.629,0.697-1.629,0.697-2.232,1.022
		c-0.281,0.186-0.559,0.372-0.838,0.558c-0.141,0.143-0.279,0.328-0.42,0.515c-0.045,0.093-0.092,0.231-0.141,0.371
		c0,0.418,0,0.883,0.049,1.351c0.186,0.696,0.186,0.696,0.512,1.443c0.094,0.187,0.232,0.371,0.371,0.604
		c0.42,0.418,0.42,0.418,0.652,0.744c0.232,0.047,0.232,0.047,1.07,0.514c0.605,0,1.209,0,1.814,0.047
		c0.188-0.047,0.373-0.094,0.605-0.14c0.279-0.14,0.607-0.282,0.932-0.421c1.629-1.209,1.721-1.348,2.002-1.487
		c0.463-0.515,0.975-1.024,1.488-1.582c0.746-1.072,1.49-2.144,2.279-3.213c0.143-0.371,0.328-0.606,0.979-1.954
		c0-0.14,0-0.279,0-0.467C175.836,112.242,175.697,112.196,175.51,112.149L175.51,112.149z"/>
</g>
</svg>
