<?xml version="1.0" encoding="utf-8"?>
<!-- Generator: Adobe Illustrator 15.0.0, SVG Export Plug-In . SVG Version: 6.00 Build 0)  -->
<!DOCTYPE svg PUBLIC "-//W3C//DTD SVG 1.1//EN" "http://www.w3.org/Graphics/SVG/1.1/DTD/svg11.dtd">
<svg version="1.1" id="Layer_1" xmlns="http://www.w3.org/2000/svg" xmlns:xlink="http://www.w3.org/1999/xlink" x="0px" y="0px"
	 width="288px" height="205px" viewBox="0 0 288 205" enable-background="new 0 0 288 205" xml:space="preserve">
<g>
	<path fill="#FFFFFF" d="M120.407,97.816c0.326,0.513,0.652,1.024,0.979,1.583c0,0.046,0,0.14,0.046,0.233
		c0.047,0.045,0.14,0.139,0.233,0.232c0.231,0,0.511,0,0.79,0c0.094-0.047,0.233-0.141,0.373-0.232
		c0.093-0.188,0.186-0.373,0.325-0.605c0-0.187,0-0.373,0-0.559c-0.093-0.373-0.186-0.745-0.325-1.117
		c-0.232-0.42-0.465-0.838-0.698-1.257c-0.233-0.326-0.513-0.651-0.792-0.978c-0.511-0.372-0.511-0.372-0.931-0.559
		c-0.325,0.002-0.651-0.044-1.023-0.09c0,0.046,0,0.046-0.699,0.325c-0.093,0.093-0.187,0.186-0.325,0.279c0,0.186,0,0.372,0,0.605
		C119.71,97.025,119.71,97.025,120.407,97.816z"/>
	<path fill="#FFFFFF" d="M283.107,105.117c-0.141-0.186-0.28-0.371-0.42-0.559c-0.139-0.139-0.324-0.279-0.512-0.418
		c-0.232-0.046-0.514-0.14-0.791-0.231c-0.465,0-0.932,0-1.443,0c-0.418,0.093-0.885,0.187-1.35,0.325
		c-0.467,0.14-0.932,0.324-1.396,0.512c-2.79,1.396-2.79,1.396-2.979,1.441c-1.953,1.119-2.467,1.49-3.816,2.233
		c-2.467,1.49-2.467,1.49-3.676,2.329c-0.885,0.512-1.815,1.021-2.746,1.534c-0.373,0.142-0.744,0.327-1.164,0.514
		c-0.325,0.047-0.651,0.14-1.022,0.231c-0.324,0-0.651,0-0.979,0c-0.139-0.047-0.276-0.094-0.463-0.186
		c-0.047-0.047-0.143-0.141-0.233-0.232c-0.048-0.141-0.095-0.281-0.187-0.469c0-0.139,0-0.277,0-0.416
		c0.092-0.326,0.187-0.651,0.324-0.978c0.096-0.188,0.234-0.374,0.373-0.562c0.65-1.535,0.65-1.535,1.025-2.65
		c0-0.418,0-0.839,0-1.305c-0.14-0.278-0.281-0.558-0.42-0.836c-0.232-0.186-0.465-0.42-0.744-0.652
		c-0.281-0.141-0.56-0.279-0.838-0.418c-0.791-0.232-0.791-0.232-1.211-0.419c-0.416-0.278-0.416-0.278-0.604-0.325
		c-0.42-0.374-0.652-0.468-0.744-0.606c-0.42-0.232-0.84-0.512-1.307-0.79c-0.185-0.047-0.416-0.093-0.65-0.187
		c-0.231,0-0.463,0-0.696,0c-0.187,0.047-0.373,0.094-0.605,0.187c-0.605,0.418-0.605,0.418-1.07,0.882
		c-0.186,0.375-0.373,0.746-0.605,1.119c-0.092,0.416-0.092,0.416-0.092,1.209c0.187,0.513,0.373,0.744,0.467,1.023
		c0,0.186,0,0.371,0,0.604c-0.793,1.443-0.793,1.443-1.211,2.051c-1.116,1.255-1.116,1.255-2.141,2.232
		c-0.42,0.325-0.84,0.651-1.307,0.978c-0.184,0.046-0.695,0.42-1.953,1.069c-0.885,0.373-0.885,0.373-2.002,0.697
		c-0.324,0.047-0.65,0.096-1.021,0.189c-0.231,0-0.467,0-0.746,0c-0.047,0-0.139-0.047-0.231-0.094c0-0.097,0.047-0.235,0.094-0.375
		c0.23-0.14,0.326-0.278,0.604-0.418c1.072-0.93,1.072-0.93,2.281-2.094c0.188-0.324,0.42-0.512,0.604-0.84
		c0.047-0.046,0.142-0.093,0.231-0.188c0.279-0.416,0.562-0.881,0.886-1.347c0.231-0.653,0.51-1.304,0.791-1.957
		c0-0.419,0-0.883,0-1.348c-0.371-1.024-0.371-1.024-0.699-1.722c-0.276-0.373-0.604-0.793-0.931-1.211
		c-0.465-0.372-0.465-0.372-0.838-0.558c-0.186-0.047-0.371-0.094-0.561-0.14c-0.51,0-1.023,0-1.533,0.046
		c-0.465,0.094-0.977,0.232-1.49,0.372c-0.838,0.325-0.838,0.325-1.86,0.837c-0.746,0.467-0.838,0.605-1.351,0.932
		c-0.418,0.418-0.696,0.604-1.582,1.582c-0.233,0.326-0.512,0.651-0.791,1.022c-0.047,0.187-0.42,0.7-0.932,1.723
		c-0.141,0.515-0.326,1.025-0.514,1.536c-0.045,0.325-0.092,0.652-0.139,1.023c0,0.559,0,1.115,0.047,1.724
		c0.092,0.278,0.188,0.558,0.278,0.836c0,0.142,0,0.325,0,0.512c-0.092,0.097-0.188,0.235-0.278,0.375
		c-0.187,0.093-0.371,0.187-0.604,0.279c-0.604,0.092-0.604,0.092-1.908,0.092c-0.28-0.046-0.559-0.092-0.84-0.186
		c-0.741-0.372-0.741-0.372-1.162-0.699c-0.231-0.466-0.231-0.466-0.418-0.698c-0.049-0.185-0.096-0.371-0.188-0.604
		c-0.047-1.631-0.047-1.631,0-2.469c0.14-0.513,0.281-1.068,0.468-1.629c0-0.141,0-0.279,0-0.418
		c-0.047-0.094-0.095-0.232-0.187-0.373c-0.281-0.186-0.281-0.186-1.305-0.558c-0.885-0.046-0.885-0.046-1.303,0
		c-0.092,0.047-0.186,0.093-0.326,0.187c-0.141,0.14-0.279,0.278-0.418,0.465c-0.326,0.697-0.514,0.93-0.652,1.305
		c-0.932,1.301-0.932,1.301-1.07,1.582c-0.231,0.188-0.42,0.512-1.582,1.58c-0.231,0.142-0.465,0.281-0.743,0.468
		c-0.373,0.14-0.746,0.325-1.164,0.511c-0.279,0.047-0.606,0.094-0.933,0.141c-0.278,0-0.559,0-0.885,0
		c-0.186-0.047-0.371-0.094-0.604-0.141c-0.324-0.186-0.324-0.186-0.791-0.604c-0.093-0.186-0.185-0.42-0.279-0.652
		c0-0.419,0-0.837,0-1.302c0.142-0.515,0.326-1.024,0.515-1.536c0.371-0.652,0.371-0.652,0.604-1.258c0-0.418,0-0.418-0.092-0.604
		c-0.141-0.094-0.324-0.187-0.512-0.279c-0.234-0.049-0.515-0.094-0.791-0.188c-0.328,0-0.652,0-1.023,0
		c-0.141,0.046-0.328,0.095-0.514,0.188c-0.187,0.14-0.373,0.279-0.56,0.465c-0.231,0.418-0.465,0.837-0.741,1.255
		c-0.888,1.118-0.888,1.118-2.189,2.515c-0.326,0.232-0.418,0.372-1.023,0.79c-0.791,0.423-0.791,0.423-1.537,0.7
		c-0.416,0-0.836,0-1.303,0c-0.186-0.047-0.42-0.094-0.65-0.188c-0.231-0.14-0.465-0.28-0.699-0.42
		c-0.186-0.231-0.37-0.465-0.557-0.744c0-0.277,0-0.604,0-0.928c0.604-1.119,0.604-1.119,1.303-2.236
		c0.045-0.232,0.14-0.465,0.23-0.744c0-0.278,0-0.605,0-0.932c-0.047-0.232-0.139-0.465-0.23-0.697
		c-0.42-0.418-0.838-0.84-1.256-1.258c-0.188-0.094-0.42-0.187-0.651-0.324c-0.468-0.141-0.979-0.279-1.49-0.419
		c-0.649,0-1.303,0-1.953,0c-0.559,0.093-1.164,0.187-1.771,0.325c-0.51,0.14-1.021,0.324-1.533,0.512
		c-0.697,0.324-1.396,0.652-2.141,1.025c-0.933,0.604-1.908,1.209-2.888,1.813c-0.092,0-0.233,0.046-0.373,0.093
		c-3.211,0-6.467,0-9.727,0.047c-0.093-0.047-0.187-0.094-0.279-0.14c-0.187-0.418-0.187-0.418-0.514-1.583
		c-0.23-0.512-0.464-1.071-0.695-1.629c-0.326-0.512-0.698-0.93-0.744-1.118c-1.35-1.301-1.35-1.301-1.491-1.535
		c0-0.185,0-0.185,0.094-0.325c0.838-0.419,2.469-1.07,3.817-1.768c0.232-0.188,0.604-0.326,1.115-0.699
		c0.326-0.14,0.326-0.14,1.863-1.164c0.139-0.093,0.276-0.232,0.416-0.372c0.047,0,0.096,0,0.188-0.046
		c0.977-0.838,1.953-1.675,2.932-2.513c0.605-0.699,1.257-1.397,1.906-2.096c0.652-0.93,0.652-0.93,0.793-1.022
		c0.232-0.42,0.51-0.885,0.791-1.351c0.277-0.604,0.558-1.21,0.885-1.861c0.14-0.605,0.277-1.21,0.416-1.815c0-0.512,0-1.07,0-1.629
		c-0.092-0.419-0.229-0.838-0.368-1.256c-0.188-0.326-0.375-0.652-0.56-1.024c-1.072-0.885-1.072-0.885-1.676-1.256
		c-0.838-0.326-0.838-0.326-1.537-0.513c-0.42-0.047-0.838-0.092-1.303-0.14c-1.676,0.093-1.676,0.093-2.699,0.232
		c-0.793,0.232-1.629,0.466-2.469,0.699c-0.791,0.279-1.58,0.559-2.418,0.837c-2.979,1.396-2.979,1.396-5.633,2.745
		c-0.836,0.466-1.721,0.933-2.605,1.442c-4.562,2.841-4.562,2.841-4.887,2.979c-0.23,0-0.465,0-0.697,0
		c-0.141-0.046-0.279-0.139-0.418-0.232c-0.281-0.279-0.605-0.56-0.934-0.884c-0.371-0.14-0.789-0.326-1.209-0.513
		c-0.652-0.14-0.652-0.14-2.094-0.233c-0.605,0.094-1.256,0.187-1.908,0.327c-0.42,0.139-0.883,0.325-1.351,0.511
		c-1.303,0.698-1.303,0.698-3.397,2.001c-0.094,0.141-1.023,0.792-1.162,0.979c-0.049,0-0.141,0.047-0.234,0.093
		c-0.092,0.094-0.184,0.232-0.324,0.372c-0.045,0-0.096,0-0.188,0.047c-0.232,0.279-1.162,1.023-1.953,1.815
		c-0.42,0.324-3.307,3.211-4.143,4.142c-0.232,0.233-0.465,0.466-0.746,0.698c-0.045,0.094-0.094,0.187-0.187,0.326
		c-0.278,0.232-0.559,0.512-0.838,0.791c0,0.046-0.047,0.14-0.094,0.232c-0.277,0.279-0.558,0.559-0.884,0.838
		c0,0.046,0,0.093-0.049,0.187c-0.51,0.465-0.51,0.465-1.395,1.442c-0.047,0.093-0.092,0.186-0.186,0.325
		c-0.187,0.186-0.418,0.373-0.652,0.605c-0.559,0.65-1.117,1.303-1.674,1.954c-0.188,0.187-0.373,0.372-0.605,0.558
		c-0.047,0.094-0.094,0.188-0.188,0.325c-1.068,1.165-1.86,1.908-3.024,3.213c-0.094,0.046-0.187,0.093-0.327,0.187
		c-0.231,0.232-0.465,0.465-0.697,0.746c-0.092,0.046-0.187,0.093-0.325,0.187c-0.093,0.14-0.232,0.278-0.372,0.418
		c-1.164,0.882-1.164,0.882-1.258,1.022c-0.046,0-0.093,0-0.186,0.046c-0.419,0.374-0.419,0.374-1.723,1.211
		c-0.418,0.231-0.838,0.465-1.256,0.7c-0.372,0.139-0.792,0.324-1.21,0.512c-0.372,0.046-0.745,0.139-1.117,0.23
		c-0.465,0-0.931,0-1.442,0c-0.419-0.14-0.419-0.14-0.698-0.324c-0.093-0.232-0.093-0.232-0.093-0.562
		c0.186-0.187,0.418-0.37,0.651-0.604c0.651-0.466,1.304-0.929,1.954-1.396c0.698-0.649,1.396-1.348,2.142-2.047
		c0-0.047,0.047-0.14,0.093-0.231c0.093-0.047,0.187-0.142,0.279-0.232c0.093-0.232,0.513-0.793,1.117-1.955
		c0.046-0.186,0.093-0.371,0.139-0.605c0-0.465,0-0.93,0-1.44c-0.046-0.231-0.093-0.468-0.139-0.7
		c-0.093-0.279-0.232-0.604-0.372-0.929c-0.42-0.7-0.42-0.7-0.838-1.211c-0.232-0.232-0.513-0.465-0.792-0.697
		c-0.232-0.093-0.511-0.232-0.791-0.373c-0.279-0.047-0.558-0.093-0.838-0.187c-0.232,0-0.512,0-0.791,0
		c-0.372,0.048-0.743,0.094-1.117,0.187c-0.325,0.093-0.697,0.186-1.07,0.326c-0.465,0.232-0.931,0.465-1.396,0.697
		c-0.326,0.232-0.651,0.465-1.023,0.697c-0.419,0.422-0.65,0.562-1.583,1.584c-0.884,1.164-0.884,1.164-1.022,1.256
		c-0.42,0.791-0.42,0.791-0.606,1.025c-0.651,1.629-0.651,1.629-0.837,2.233c-0.047,0.37-0.093,0.741-0.187,1.118
		c0,0.649,0,0.649,0.094,1.439c0.187,0.514,0.371,1.071,0.604,1.629c0,0.186,0,0.418-0.046,0.653
		c-0.233,0.231-0.233,0.231-0.746,0.511c-0.511,0.094-1.069,0.186-1.628,0.325c-1.024,0-1.024,0-1.629-0.093
		c-0.279-0.094-0.559-0.187-0.838-0.324c-0.233-0.141-0.466-0.326-0.745-0.512c-0.185-0.329-0.185-0.329-0.418-0.979
		c0-0.325-0.047-0.649-0.093-0.978c0.046-0.279,0.093-0.559,0.186-0.838c0.373-0.696,0.373-0.696,0.837-1.351
		c1.258-1.067,1.258-1.067,1.489-1.348c0.187-0.05,0.187-0.05,0.374-0.235c0.093-0.186,0.185-0.371,0.278-0.558
		c0-0.14,0-0.278,0-0.418c-0.094-0.232-0.186-0.466-0.325-0.7c-0.513-0.464-0.513-0.464-1.164-0.883
		c-0.14-0.047-0.326-0.092-0.512-0.186c-0.141,0-0.326,0-0.513,0c-0.14,0.047-0.324,0.094-0.512,0.186
		c-0.418,0.373-0.884,0.79-1.35,1.212c0,0.046,0,0.093-0.047,0.187c-0.512,0.558-0.65,0.836-0.791,0.93
		c-0.464,0.791-0.931,1.629-1.396,2.468c-0.139,0.094-0.371,0.512-1.21,1.534c-0.93,0.839-0.93,0.839-1.861,1.535
		c-0.744,0.328-0.744,0.328-1.35,0.515c-1.303,0.046-1.303,0.046-1.815,0c-0.512-0.187-0.512-0.187-0.837-0.374
		c-0.513-0.512-0.513-0.512-0.744-0.65c-0.095-0.187-0.187-0.419-0.327-0.65c0-0.188,0-0.374,0-0.606
		c0.048-0.141,0.094-0.278,0.188-0.466c1.07-0.883,1.908-1.723,2.42-2.141c0.697-0.746,1.396-1.489,2.141-2.278
		c0.186-0.329,0.419-0.515,0.558-0.793c0.28-0.231,0.513-0.604,0.699-0.744c0.372-0.56,0.791-1.024,2.187-2.979
		c1.629-2.561,1.629-2.561,2.141-3.49c0-0.094,0-0.188,0.047-0.28c0.094-0.186,0.233-0.418,0.373-0.651
		c0.186-0.604,0.372-1.257,0.604-1.908c0.047-1.024,0.047-1.024,0-1.535c-0.093-0.325-0.093-0.325-0.372-0.745
		c-0.279-0.279-0.279-0.279-0.605-0.466c-0.186-0.046-0.372-0.093-0.604-0.186c-0.233,0-0.513,0-0.792,0
		c-0.325,0.046-0.65,0.093-1.022,0.186c-0.28,0.094-0.606,0.187-0.932,0.327c-1.442,0.697-1.676,0.884-1.861,0.931
		c-0.604,0.464-0.838,0.558-0.932,0.697c-0.14,0.093-0.325,0.187-0.512,0.325c-1.954,1.77-1.954,1.77-2.979,2.793
		c-0.513,0.605-1.023,1.257-1.583,1.908c-0.092,0.232-0.79,1.163-1.722,2.698c-0.698,1.442-1.023,2.329-1.396,3.024
		c-0.046,0-0.092,0.049-0.186,0.095c-0.837,0-2.047-0.095-5.025-0.095c-1.723,0.188-1.723,0.188-3.491,0.513
		c-0.512,0.14-1.07,0.328-1.629,0.514c-0.373,0.142-0.745,0.325-1.117,0.513c-0.931,0.604-0.931,0.604-1.442,1.024
		c-0.279,0.278-0.559,0.604-0.884,0.929c-0.373,0.559-0.373,0.559-0.791,1.443c-0.095,0.325-0.188,0.65-0.326,1.021
		c-0.094,0.188-0.233,0.375-0.373,0.607c-0.233,0.092-0.465,0.232-0.698,0.371c-0.512,0.139-1.023,0.325-1.535,0.512
		c-0.512,0.047-1.07,0.139-1.629,0.232c-0.466,0-0.932,0-1.442,0c-0.279-0.048-0.559-0.094-0.838-0.141
		c-0.233-0.092-0.512-0.232-0.792-0.371c-0.186-0.141-0.419-0.279-0.651-0.465c-0.14-0.232-0.326-0.465-0.511-0.748
		c0-0.276,0-0.557-0.049-0.883c0.049-0.139,0.141-0.324,0.233-0.51c1.258-0.887,1.351-1.025,1.908-1.396
		c0.605-0.512,0.931-0.697,1.117-0.934c0.978-0.789,0.978-0.789,1.908-1.676c0.093-0.046,0.187-0.093,0.28-0.139
		c0.232-0.278,0.512-0.559,0.791-0.836c0.093-0.047,0.186-0.094,0.325-0.188c1.071-1.118,2.187-2.281,3.304-3.444
		c1.024-1.21,1.024-1.21,1.164-1.304c0.14-0.279,0.56-0.744,0.651-0.978c0.093-0.046,0.093-0.046,0.931-1.303
		c0.187-0.465,0.372-0.931,0.605-1.442c0.046-0.931,0.046-0.931,0-1.443c-0.186-0.512-0.186-0.512-0.373-0.791
		c-0.186-0.139-0.371-0.279-0.604-0.465c-0.14-0.046-0.325-0.095-0.512-0.187c-0.559,0-1.116,0-1.722,0
		c-0.652,0.141-1.304,0.325-1.955,0.513c-0.745,0.325-1.489,0.65-2.234,1.022c-0.791,0.513-1.629,1.07-2.467,1.629
		c-0.465,0.42-0.744,0.559-0.931,0.792c-0.093,0.047-0.186,0.092-0.325,0.187c-0.372,0.418-2.047,2.001-3.212,3.257
		c-0.139,0.234-0.418,0.467-0.558,0.745c-0.14,0.093-0.14,0.093-1.35,1.813c-0.047,0.188-0.047,0.188-1.024,1.862
		c-0.14,0.466-0.14,0.466-0.651,1.536c-0.094,0.094-0.233,0.186-0.373,0.326c-0.093,0-0.231,0-0.372,0
		c-0.743-0.232-1.488-0.466-2.28-0.698c-0.931-0.187-1.862-0.374-2.839-0.606c-3.397-0.045-3.397-0.045-4.235,0
		c-1.722,0.375-1.722,0.375-2.839,0.699c-0.279,0.094-0.558,0.188-0.838,0.326c-0.419,0.231-0.838,0.465-1.303,0.696
		c-0.326,0.278-0.326,0.278-0.512,0.328c-0.512,0.465-1.024,0.977-1.583,1.485c-0.371,0.516-0.791,1.026-1.21,1.537
		c-0.232,0.139-0.466,0.325-0.698,0.512c-1.21,0.652-2.467,1.304-3.723,1.957c-0.466,0.14-1.117,0.513-2.001,0.836
		c-0.326,0.187-0.326,0.187-3.212,1.212c-0.605,0.139-1.21,0.325-1.814,0.512c-0.838,0.14-1.676,0.278-2.561,0.418
		c-0.838,0-1.675,0-2.559,0c-0.605-0.093-1.21-0.187-1.862-0.325c-0.513-0.232-1.069-0.466-1.628-0.697
		c-0.606-0.42-0.606-0.42-1.258-1.024c-0.046-0.231-0.046-0.231-0.418-0.836c0-0.187-0.048-0.374-0.094-0.562
		c0.094-0.279,0.094-0.279,0.279-0.512c0.141-0.093,0.279-0.186,0.465-0.324c3.398-1.535,4.282-1.861,4.607-2.048
		c1.629-0.653,2.375-1.024,2.839-1.164c2.095-0.977,2.979-1.305,3.305-1.489c0.093,0,0.187,0,0.279-0.047
		c1.071-0.465,2.142-0.977,3.211-1.49c0.094,0,0.188,0,0.279-0.045c5.632-2.56,5.632-2.56,6.284-2.933
		c0.931-0.42,1.86-0.885,2.839-1.35c6.143-3.165,6.562-3.444,7.911-4.096c4.887-2.746,4.887-2.746,5.399-2.979
		c2.327-1.489,2.885-1.907,3.583-2.327c2.048-1.535,2.141-1.675,2.467-1.86c0.093-0.094,0.186-0.232,0.325-0.373
		c0.048,0,0.094,0,0.187-0.046c0.978-0.978,0.978-0.978,2.001-2.188c0.233-0.419,0.466-0.838,0.698-1.303
		c0.047-0.187,0.093-0.374,0.14-0.605c0-0.325,0-0.651,0-1.023c-0.047-0.14-0.093-0.326-0.14-0.513
		c-0.14-0.233-0.325-0.512-0.512-0.791c-0.419-0.372-0.783-0.854-1.257-1.21c-0.466-0.35-1.045-0.652-1.629-0.931
		c-0.398-0.189-0.721-0.402-2.792-1.024c-0.726-0.218-1.476-0.395-2.234-0.512c-2.55-0.396-2.558-0.367-3.909-0.418
		c-1.062-0.028-2.133-0.034-3.25-0.034c-0.047,0-0.01-0.062-4.282,0.373c-1.226,0.125-2.489,0.419-3.63,0.698
		c-1.142,0.279-2.163,0.591-3.258,1.023c-1.143,0.452-1.128,0.493-3.164,1.629c-0.384,0.215-0.779,0.467-1.165,0.791
		c-0.227,0.193-1.161,1.03-1.953,1.955c-0.328,0.382-0.639,0.817-0.932,1.303c-0.268,0.446-0.498,0.917-0.697,1.442
		c-0.173,0.455-0.356,0.917-0.42,1.442c-0.076,0.648,0,1.351,0,2.049c0.187,0.885,0.187,0.885,0.512,1.955
		c0.093,0.186,0.188,0.372,0.28,0.604c0,0.093,0,0.186-0.047,0.326c-0.046,0-0.093,0.046-0.186,0.093c-0.791,0-1.582,0-2.374,0.046
		c-1.862,0.187-1.862,0.187-3.771,0.513c-2.467,0.698-2.467,0.698-3.398,1.023c-0.931,0.467-0.931,0.467-1.21,0.513
		c-1.442,0.791-1.675,0.977-1.86,1.023c-1.351,0.932-1.396,1.023-1.724,1.21c-0.372,0.326-0.743,0.651-1.162,0.978
		c-0.512,0.512-1.024,1.024-1.536,1.536c0,0.046,0,0.093-0.047,0.186c-0.278,0.325-0.558,0.653-0.884,1.025
		c-0.838,1.351-0.838,1.351-1.537,2.65c-0.185,0.512-0.371,1.024-0.604,1.537c-0.325,1.256-0.325,1.256-0.512,2.278
		c0,0.653,0,1.351-0.046,2.05c-0.188,0.419-0.188,0.419-0.466,0.744c-5.817,2.232-6.329,2.372-9.634,3.583
		c-4.049,1.351-4.049,1.351-7.121,2.279c-0.186,0.141-0.371,0.278-0.558,0.422c-0.047,0.14-0.14,0.325-0.233,0.511
		c0,0.325,0,0.65,0,1.021c0.187,0.562,0.187,0.562,0.325,0.793c0.653,0.326,0.653,0.326,0.979,0.419c0.232,0,0.513,0,0.791,0
		c0.232-0.046,0.465-0.093,0.698-0.14c6.282-2.048,7.214-2.418,9.215-3.072c2.28-0.883,4.562-1.77,6.888-2.651
		c0.187,0,0.373,0,0.604,0c0.933,0.837,0.933,0.837,1.117,1.069c0.094,0.046,0.187,0.093,0.325,0.185
		c0.095,0.097,0.188,0.235,0.327,0.376c0.047,0,0.093,0,0.186,0.046c0.14,0.093,0.279,0.232,0.42,0.371
		c0.697,0.372,1.396,0.744,2.14,1.115c0.745,0.188,1.49,0.422,2.28,0.653c1.024,0.187,1.024,0.187,2.653,0.371
		c0.978,0,1.955,0,2.932,0c1.583-0.186,1.583-0.186,3.491-0.511c1.163-0.325,2.327-0.653,3.49-1.024
		c0.885-0.325,1.769-0.65,2.652-1.021c0.886-0.376,1.77-0.793,2.653-1.212c1.351-0.746,2.745-1.489,4.142-2.231
		c0.187,0,0.187,0,0.373,0.139c0.465,0.837,0.465,0.837,0.604,1.208c0.372,0.468,0.745,0.933,1.117,1.442
		c0.187,0.188,0.419,0.375,0.651,0.562c0.745,0.419,0.745,0.419,1.21,0.604c0.232,0.047,0.466,0.094,0.745,0.141
		c1.209,0,1.209,0,2.56-0.141c0.838-0.231,1.675-0.465,2.56-0.699c1.954-0.791,1.954-0.791,2.233-0.836
		c1.024-0.513,2.096-1.023,3.165-1.537c0.559-0.371,0.932-0.512,2.282-1.305c0.277-0.14,0.557-0.277,0.836-0.418
		c0.187,0,0.187,0,0.513,0.187c0.278,0.376,0.559,0.747,0.837,1.118c0.512,0.512,0.512,0.512,0.745,0.836
		c0.326,0.187,0.698,0.375,1.07,0.606c0.931,0.325,0.931,0.325,1.723,0.513c1.768,0.045,1.768,0.045,2.746,0
		c0.558-0.094,1.163-0.232,1.769-0.373c2.233-0.65,2.233-0.65,3.489-1.117c0.233,0,0.467,0,0.699,0
		c0.231,0.324,0.465,0.652,0.744,0.979c0.279,0.279,0.559,0.559,0.837,0.838c0.326,0.14,0.653,0.323,0.979,0.51
		c0.604,0.189,0.604,0.189,1.023,0.235c0.978,0,1.954,0,2.979-0.046c1.722-0.376,1.722-0.376,2.886-0.699
		c0.466-0.141,0.93-0.326,1.396-0.513c2.048-1.024,2.28-1.211,3.398-1.813c0.419,0,0.419,0,0.604,0.093
		c0.559,0.649,0.559,0.649,0.652,0.885c0.743,0.744,0.743,0.744,1.115,1.022c0.188,0.047,0.699,0.418,1.444,0.746
		c0.372,0.09,0.744,0.187,1.117,0.279c0.465,0,0.93,0,1.396,0c0.837-0.189,0.837-0.189,1.861-0.515c1.35-0.79,1.35-0.79,2.327-1.486
		c0.326-0.282,0.698-0.606,1.07-0.933c0.093,0,0.233,0,0.372,0c0.094,0.046,0.187,0.093,0.327,0.186
		c0.231,0.325,0.511,0.65,0.79,0.979c0.978,0.885,0.978,0.885,1.49,1.256c0.512,0.139,1.022,0.324,1.535,0.515
		c0.745,0,1.536,0,2.326,0.046c0.42-0.046,0.839-0.093,1.258-0.14c2.419-0.699,2.419-0.699,3.863-1.211c0.139,0,0.279,0,0.418,0
		c0.42,0.278,0.604,0.325,1.209,0.696c0.467,0.141,0.933,0.328,1.443,0.515c0.559,0.047,1.117,0.14,1.676,0.231
		c1.024,0,1.024,0,2.328-0.139c0.744-0.234,1.488-0.468,2.233-0.699c1.349-0.697,2.28-1.302,2.467-1.35
		c0.511-0.374,1.023-0.745,1.536-1.116c0.046-0.094,0.139-0.187,0.232-0.278c0.046,0,0.14-0.047,0.231-0.095
		c0.094-0.093,0.187-0.185,0.279-0.327c0.095-0.047,0.187-0.093,0.327-0.187c0.372-0.418,2.094-2.047,3.816-3.862
		c0.279-0.371,0.279-0.371,1.256-1.304c0.047-0.093,0.094-0.187,0.186-0.325c0.232-0.232,0.467-0.465,0.746-0.697
		c0.092-0.14,0.186-0.278,0.279-0.418c7.352-8.006,7.352-8.006,8.609-9.309c0.094-0.047,0.186-0.093,0.326-0.188
		c1.022-1.022,1.487-1.396,1.768-1.722c0.096-0.046,0.188-0.093,0.326-0.187c0.373-0.418,0.373-0.418,1.723-1.535
		c0.047,0,0.092,0,0.186-0.047c0.045-0.046,0.092-0.14,0.187-0.232c1.771-1.256,1.955-1.304,2.467-1.676
		c1.445-0.745,1.445-0.745,2.373-1.116c1.443-0.047,1.443-0.047,1.724,0c0.188,0.14,0.373,0.278,0.604,0.419
		c0.096,0.186,0.236,0.372,0.375,0.558c0,0.187,0,0.373,0,0.605c-0.047,0.139-0.139,0.279-0.232,0.419
		c-1.024,0.838-1.213,1.07-1.537,1.257c-0.092,0.093-0.184,0.187-0.278,0.326c-0.048,0-0.142,0.046-0.232,0.093
		c-1.209,1.116-2.467,2.233-3.725,3.397c-3.257,3.258-3.722,3.816-4.142,4.188c-0.42,0.558-1.211,1.443-1.535,1.722
		c0,0.046-0.047,0.14-0.094,0.231c-0.141,0.093-0.279,0.232-0.42,0.371c-0.139,0.279-0.371,0.466-0.559,0.793
		c-0.232,0.187-0.232,0.187-1.441,1.724c0,0.045,0,0.094-0.047,0.186c-0.139,0.141-0.279,0.325-0.467,0.512
		c-0.51,0.743-1.021,1.536-1.582,2.326c-0.465,0.839-0.93,1.723-1.395,2.607c-0.095,0.231-0.188,0.511-0.326,0.789
		c-0.141,0.606-0.328,1.212-0.512,1.861c0,0.422,0,0.887,0,1.351c0.045,0.233,0.139,0.466,0.231,0.698
		c0.373,0.468,0.373,0.468,0.649,0.651c0.279,0.047,0.605,0.142,0.933,0.233c0.323,0,0.651,0,0.979,0
		c0.278-0.047,0.604-0.094,0.93-0.141c1.955-0.699,1.955-0.699,2.652-1.024c0.746-0.466,0.932-0.511,2.096-1.302
		c0.188-0.186,0.371-0.232,0.465-0.375c0.186-0.092,0.373-0.231,0.559-0.371c1.676-1.489,1.676-1.489,1.908-1.629
		c0.652-0.697,1.303-1.396,2-2.095c0.838-1.021,1.676-2.047,2.562-3.071c0.092-0.232,0.51-0.697,0.744-1.114
		c0.092-0.142,0.229-0.279,0.368-0.423c0-0.043,0-0.092,0.05-0.187c0.092-0.139,0.231-0.278,0.371-0.417
		c1.631-2.466,1.676-2.65,2.467-3.863c0.049,0,0.141-0.046,0.233-0.093c0.14,0,0.277,0,0.418,0.047
		c0.048,0.093,0.14,0.186,0.232,0.278c0.186,0.093,0.372,0.187,0.604,0.325c0.232,0.047,0.512,0.094,0.791,0.187
		c0.652,0,1.35,0,2.047,0c0.885-0.093,1.769-0.187,2.699-0.325c0.652-0.094,1.35-0.232,2.049-0.372c0.232,0,0.512,0.047,0.791,0.093
		c0.279,0.186,0.559,0.372,0.84,0.604c0.187,0.281,0.369,0.562,0.558,0.887c0.094,0.416,0.187,0.836,0.325,1.304
		c0,0.696,0,1.44,0,2.187c-0.049,0.141-0.141,0.326-0.231,0.512c-0.233,0.231-0.233,0.231-0.56,0.418
		c-3.258,0.654-3.258,0.654-6.235,1.351c-2.469,0.7-2.469,0.7-4.515,1.351c-1.071,0.465-2.143,0.93-3.26,1.396
		c-1.676,0.883-1.955,1.115-2.373,1.348c-0.512,0.422-0.512,0.422-0.979,0.979c-0.092,0.187-0.23,0.372-0.371,0.604
		c-0.094,0.375-0.186,0.745-0.326,1.117c0,0.604,0,1.211,0,1.861c0.141,0.419,0.279,0.836,0.418,1.304
		c0.279,0.418,0.559,0.837,0.885,1.302c0.187,0.188,0.373,0.375,0.56,0.606c0.231,0.093,0.231,0.093,1.024,0.743
		c0.418,0.187,1.07,0.605,2.604,1.305c0.795,0.232,1.584,0.464,2.422,0.696c1.164,0.14,1.164,0.14,2.188,0.14
		c0.509-0.046,1.021-0.094,1.533-0.14c1.49-0.371,1.49-0.371,2.515-0.696c0.559-0.279,1.022-0.419,1.676-0.79
		c0.092-0.047,0.231-0.096,0.371-0.144c1.582-1.021,1.582-1.021,2.375-1.625c0.092-0.141,0.371-0.281,1.487-1.305
		c0.604-0.746,0.604-0.746,0.979-1.072c0.14-0.278,0.56-0.742,1.396-1.954c0.233-0.417,0.512-0.882,0.793-1.351
		c0.324-0.836,0.649-1.675,1.022-2.558c0.324-1.537,0.324-1.537,0.513-2.095c0.047-0.047,0.094-0.094,0.139-0.139
		c0.838-0.188,0.838-0.188,2.281-0.375c0.791,0,1.629-0.048,2.467-0.094c1.629,0.094,1.629,0.094,2.232,0.186
		c0.094,0.051,0.188,0.097,0.325,0.188c0,0.14,0,0.325,0.05,0.513c-0.142,0.37-0.328,0.742-0.515,1.116
		c-0.045,0.232-0.092,0.513-0.187,0.79c0,0.372,0,0.743,0,1.165c0.187,0.79,0.187,0.79,0.371,1.254
		c0.234,0.372,0.42,0.562,0.515,0.793c0.325,0.325,0.325,0.325,0.977,0.744c0.373,0.14,0.744,0.325,1.164,0.515
		c0.277,0.043,0.56,0.09,0.886,0.186c0.371,0,0.744,0,1.116,0c0.65-0.096,1.304-0.235,1.953-0.374
		c0.326-0.093,0.649-0.187,1.024-0.325c2.046-1.021,2.279-1.208,2.466-1.256c0.42-0.374,0.649-0.467,2.141-1.723
		c0-0.049,0.048-0.096,0.095-0.142c0.139-0.046,0.28-0.094,0.42-0.187c0.092,0,0.231,0,0.373,0.047
		c0.045,0.046,0.139,0.14,0.229,0.232c0.142,0.328,0.328,0.653,0.515,1.024c0.371,0.418,0.371,0.418,0.604,0.793
		c0.328,0.187,0.42,0.325,1.256,0.789c0.186,0.047,0.373,0.094,0.605,0.187c0.281,0,0.604,0,0.932,0.047
		c0.373-0.047,0.744-0.094,1.117-0.14c0.324-0.094,0.652-0.231,1.023-0.373c0.418-0.23,0.885-0.467,1.35-0.745
		c0.42-0.279,0.887-0.604,1.35-0.929c0.279-0.233,0.607-0.512,0.93-0.793c0.142,0,0.281,0,0.467,0.046
		c0.095,0.094,0.187,0.189,0.279,0.328c0.326,0.696,0.699,1.208,0.746,1.395c0.277,0.281,0.557,0.561,0.883,0.886
		c0.142,0.093,0.279,0.187,0.465,0.278c1.023,0.325,1.023,0.325,1.629,0.418c0.232,0,0.468,0,0.744,0
		c1.023-0.186,1.023-0.186,1.816-0.418c0.514-0.231,1.023-0.512,1.535-0.789c0.373-0.282,0.746-0.562,1.162-0.84
		c0.561-0.511,1.117-1.021,1.723-1.535c0.141,0,0.326,0,0.514,0.045c0.279,0.653,0.279,0.653,0.65,1.258
		c0.188,0.279,0.42,0.558,0.652,0.839c0.047,0,0.139,0,0.232,0.048c0.139,0.093,0.28,0.23,0.42,0.371
		c0.418,0.188,0.836,0.372,1.301,0.604c0.467,0.092,0.932,0.187,1.445,0.325c0.93,0.093,0.93,0.093,2.139,0.093
		c1.442-0.186,1.442-0.186,2.979-0.511c0.326-0.094,0.652-0.231,1.025-0.373c0.232,0,0.463,0,0.699-0.046
		c0.557,0.141,0.557,0.141,1.485,0.512c0.654,0.092,1.306,0.187,2.004,0.325c0.789,0,1.582,0,2.371,0
		c0.562-0.093,1.164-0.186,1.771-0.325c0.465-0.14,0.977-0.324,1.49-0.512c0.604-0.324,1.209-0.652,1.813-0.979
		c0.373-0.278,0.744-0.559,1.162-0.836c0.651-0.654,1.353-1.306,2.051-1.955c0.834-1.071,1.674-2.189,2.511-3.305
		c0.932-1.443,0.932-1.443,1.26-2.048c0.139-0.093,0.276-0.187,0.416-0.278c0.233,0,0.233,0,1.164,0.324
		c0.698,0.465,0.698,0.465,0.838,0.65c0.047,0.188,0.047,0.188,0.047,1.212c-0.139,0.51-0.139,0.51-1.164,2.884
		c-0.045,0.232-0.092,0.469-0.184,0.699c0,0.186,0,0.418,0,0.65c0.045,0.186,0.092,0.371,0.184,0.604
		c0.141,0.235,0.279,0.468,0.422,0.699c0.975,1.164,0.975,1.164,1.486,1.676c0.281,0.187,0.604,0.419,0.932,0.651
		c0.232,0.093,0.467,0.186,0.697,0.277c0.467,0,0.932,0,1.445,0c2.37-0.697,2.37-0.697,3.254-1.021
		c0.514-0.232,1.024-0.469,1.537-0.7c1.584-0.789,3.165-1.628,4.75-2.465c4.278-2.373,5.022-2.84,5.396-2.979
		c1.256-0.696,1.256-0.696,2.698-1.395c0.373-0.143,0.744-0.281,1.117-0.421c0.277,0,0.56,0,0.883,0
		c0.144,0.14,0.281,0.278,0.466,0.465c0,0.328,0,0.653,0,1.024c-0.093,0.371-0.185,0.744-0.277,1.119c0,0.092,0,0.186,0.047,0.277
		c0.048,0,0.14,0,0.23,0.047c0.143-0.093,0.28-0.232,0.467-0.371c0.373-0.562,0.373-0.562,1.069-2.002
		c0.095-0.375,0.187-0.793,0.326-1.211c0-0.511,0-1.023,0-1.535C283.385,105.816,283.247,105.492,283.107,105.117z M49.339,92.511
		c0.048-0.233,0.094-0.419,0.141-0.606c0.186-0.372,0.325-0.765,0.513-1.117c0.187-0.353,0.379-0.68,0.604-0.931
		c0.199-0.22,1.074-1.211,2.187-2.187c0.38-0.331,0.827-0.576,1.258-0.839c0.873-0.529,1.74-1.034,2.652-1.442
		c0.86-0.384,0.861-0.375,1.442-0.604c0.725-0.285,1.479-0.498,2.233-0.698c0.83-0.219,1.671-0.412,2.468-0.512
		c2.973-0.366,2.933-0.372,2.979-0.372c1.35,0,2.702-0.045,4.048,0.047c0.71,0.048,1.41,0.166,2.047,0.325
		c0.488,0.122,0.956,0.316,1.351,0.512c0.635,0.318,0.759,0.434,1.07,0.744c0.177,0.179,0.114,0.208,0.233,0.327
		c0.118,0.118,0.172,0.272,0.186,0.419c0.034,0.37,0.078,0.752,0,1.116c-0.066,0.306-0.194,0.578-0.326,0.792
		c-0.243,0.395-0.521,0.78-0.838,1.07c-1.873,1.713-2.144,1.855-2.28,1.955c-0.388,0.282-2.14,1.443-2.746,1.768
		c-1.442,0.978-1.628,1.023-1.861,1.21c-0.791,0.42-2.047,1.21-2.42,1.351c-0.233,0.185-0.931,0.511-1.163,0.697
		c-0.699,0.325-1.118,0.604-4.515,2.328c-0.466,0.139-0.466,0.139-1.21,0.51c-0.373,0.14-0.698,0.233-1.024,0.327
		c-0.512,0-1.023,0-1.535,0c-0.838-0.278-1.676-0.559-2.467-0.837c-0.931-0.513-0.931-0.513-1.583-0.979
		c-0.279-0.325-0.559-0.605-0.79-0.884c-0.187-0.373-0.373-0.699-0.513-1.024c-0.047-0.232-0.093-0.465-0.141-0.698
		C49.339,93.674,49.339,93.07,49.339,92.511z M31.609,107.869c0.698-1.629,0.931-1.954,1.024-2.233
		c0.279-0.278,0.279-0.278,0.651-0.885c0.279-0.326,0.558-0.651,0.838-0.976c0.652-0.608,1.303-1.212,1.955-1.771
		c0.791-0.513,1.582-1.024,2.374-1.536c0.465-0.232,0.93-0.465,1.349-0.651c0.605-0.233,1.211-0.466,1.815-0.698
		c1.255-0.326,3.397-0.697,3.397-0.746c0.838,0.049,1.629,0.095,2.421,0.095c0.514,0.092,1.024,0.185,1.537,0.279
		c1.07,0.325,1.07,0.325,1.862,0.651c0.371,0.233,0.744,0.466,1.115,0.697c0.048,0.187,0.048,0.187,0,0.838
		c-0.186,0.141-0.371,0.279-0.511,0.373c-0.42,0.139-1.117,0.513-1.955,0.838c-0.093,0.093-0.884,0.418-1.535,0.79
		c-0.187,0.047-0.373,0.092-0.514,0.14c-0.511,0.278-4.095,1.813-4.374,2.001c-2.373,1.025-2.653,1.072-3.305,1.351
		c-0.093,0.091-5.118,2.14-5.212,2.232c-1.304,0.515-1.861,0.653-1.954,0.747c-0.466,0.093-0.466,0.093-0.838,0.093
		c-0.186-0.14-0.186-0.14-0.279-0.325C31.47,108.566,31.47,108.566,31.609,107.869z M70.191,112.01
		c-0.651,0.374-0.838,0.561-2.978,1.77c-0.141,0.046-0.279,0.093-0.419,0.139c-0.698,0.375-1.023,0.422-1.118,0.516
		c-0.884,0.277-0.884,0.277-1.722,0.418c-0.65,0-1.304,0-1.908,0c-0.232-0.047-0.465-0.093-0.697-0.141
		c-0.419-0.186-0.419-0.186-0.931-0.51c-0.373-0.421-0.373-0.421-0.745-0.979c-0.046-0.418-0.046-0.838-0.046-1.258
		c0.092-0.188,0.185-0.373,0.232-0.512c0.418-0.557,0.418-0.557,0.931-1.071c0.234-0.092,0.234-0.092,0.931-0.604
		c0.513-0.186,1.023-0.37,1.536-0.51c0.604-0.048,0.604-0.048,0.604-0.094c0.792,0.046,1.582,0.046,2.328,0.046
		c1.954,0.372,1.954,0.372,3.164,0.697c0.512,0.231,0.977,0.418,1.443,0.606c0.094,0.231,0.094,0.231,0.094,0.789
		C70.657,111.639,70.657,111.639,70.191,112.01z M76.053,107.5c0-0.372,0-0.747,0-1.07c0.28-0.791,0.372-0.884,0.513-1.352
		c0.419-0.697,0.419-0.697,0.697-1.301c0.186-0.188,0.186-0.188,1.117-1.723c0.094-0.047,0.14-0.093,0.187-0.093
		c0.093-0.235,0.093-0.235,0.977-1.305c0.466-0.418,0.652-0.698,0.792-0.744c0.233-0.279,0.746-0.699,0.978-0.978
		c1.396-1.024,1.582-1.07,1.907-1.349c0.512-0.233,0.978-0.466,1.444-0.699c0.464-0.047,0.464-0.047,0.464-0.093
		c0.42,0.139,0.42,0.139,0.511,0.234c0.046,0.187,0.046,0.187,0,0.839c-0.372,0.743-0.372,0.743-1.164,1.954
		c-0.279,0.279-0.465,0.605-1.722,2.142c-0.139,0.046-0.325,0.326-0.604,0.558c-0.048,0.093-0.048,0.14-0.048,0.186
		c-0.231,0.232-0.465,0.465-0.697,0.696c-0.279,0.188-0.325,0.328-1.024,1.025c-0.279,0.184-0.325,0.325-1.023,1.025
		c-0.139,0.093-0.232,0.139-0.325,0.186c-0.327,0.325-0.653,0.65-0.978,0.93c-0.326,0.185-0.512,0.421-1.396,1.07
		c-0.188,0.047-0.326,0.047-0.466,0.047C76.147,107.593,76.1,107.546,76.053,107.5z M99.14,112.059
		c-0.093,0.278-0.185,0.515-0.278,0.746c-0.14,0.094-0.14,0.094-0.373,0.418c-0.419,0.278-0.791,0.559-1.164,0.836
		c-0.559,0.235-1.116,0.469-1.628,0.701c-0.558,0.139-1.117,0.231-1.629,0.324c-0.42,0-0.838,0-1.258,0
		c-0.324-0.093-0.605-0.141-0.884-0.186c-0.326-0.188-0.651-0.373-0.977-0.513c-0.187-0.185-0.233-0.374-0.512-0.793
		c-0.094-0.233-0.141-0.418-0.187-0.604c0-0.841,0-0.841,0.093-1.212c0.232-0.37,0.418-0.696,0.605-1.021
		c0.327-0.328,0.652-0.607,0.977-0.886c0.511-0.278,0.978-0.511,1.443-0.743c0.372-0.141,0.744-0.277,1.116-0.372
		c2.328-0.328,2.328-0.328,2.328-0.374c0.651,0.046,1.256,0.046,1.862,0.047c0.281,0.092,0.281,0.092,0.513,0.279
		C99.234,109.918,99.234,109.918,99.14,112.059z M103.606,107.684c0-0.373,0-0.697,0-1.024c0.186-0.651,0.372-1.302,0.512-1.955
		c0.418-0.884,0.837-1.722,1.21-2.559c0.185-0.185,0.418-0.652,1.443-2.234c0.092-0.046,0.139-0.093,0.185-0.093
		c0.187-0.326,0.42-0.512,0.561-0.791c0.231-0.186,0.231-0.186,1.022-1.117c0.093-0.046,0.141-0.046,0.187-0.046
		c0.465-0.512,0.651-0.559,0.744-0.699c0.326-0.234,0.698-0.372,0.885-0.559c0.373,0.047,0.697,0.093,1.022,0.093
		c0.047,0.093,0.093,0.186,0.093,0.232c0,0.28,0,0.559,0,0.838c-0.138,0.327-0.232,0.654-0.325,0.932
		c-0.327,0.651-0.652,1.256-0.978,1.861c-0.325,0.419-0.325,0.419-0.604,0.931c-0.373,0.467-0.42,0.607-1.442,2.047
		c-0.42,0.466-0.605,0.793-0.884,1.069c-0.187,0.326-0.419,0.513-0.606,0.842c-0.559,0.65-0.559,0.65-1.676,1.768
		c-0.139,0.092-0.279,0.186-0.372,0.233c-0.047,0.046-0.047,0.092-0.047,0.139c-0.186,0.093-0.325,0.185-0.466,0.278
		c-0.138,0-0.232,0-0.325,0C103.699,107.775,103.652,107.73,103.606,107.684z M126.132,112.242
		c-0.327,0.048-0.652,0.048-0.977,0.048c-0.093-0.095-0.139-0.142-0.188-0.187c-0.139-0.278-0.278-0.559-0.371-0.791
		c0-0.511,0-1.023,0-1.488c0.279-1.025,0.279-1.025,0.371-1.118c0.141-0.418,0.326-0.604,0.513-1.022
		c0.372-0.465,0.746-0.886,1.071-1.304c0.278-0.231,0.559-0.465,0.837-0.696c1.024-0.562,1.584-0.746,1.584-0.793
		c0.51,0.047,0.977,0.092,1.444,0.092c0.185,0.094,0.372,0.14,0.558,0.186c0.232,0.189,0.232,0.189,0.652,0.747
		c0.045,0.419,0.045,0.419,0,1.304c-0.094,0.187-0.141,0.325-0.188,0.465c-0.325,0.418-0.605,0.836-0.884,1.258
		c-0.232,0.232-0.466,0.466-0.697,0.697c-0.513,0.418-0.838,0.603-2.514,1.861C126.924,111.777,126.505,112.011,126.132,112.242z
		 M164.434,98c-0.096,0.232-0.188,0.466-0.234,0.698c-0.325,0.698-0.651,1.396-0.979,2.048c-0.695,1.117-1.396,2.234-2.046,3.305
		c-1.026,1.398-1.026,1.398-1.303,1.676c-0.188,0.325-0.329,0.418-2.188,2.651c-0.326,0.325-0.654,0.606-0.932,0.886
		c-0.186,0.278-0.466,0.465-2.234,2.233c-1.955,1.489-1.955,1.489-3.024,2.187c-0.279,0.094-0.279,0.094-1.164,0.14
		c-0.045-0.093-0.093-0.14-0.14-0.187c0-0.279,0-0.511,0-0.742c0.095-0.326,0.279-0.606,0.42-1.025
		c0.324-0.465,0.604-0.883,0.884-1.305c0.047-0.092,0.094-0.185,0.094-0.277c0.28-0.279,0.42-0.557,0.931-1.115
		c0.047-0.186,0.231-0.324,0.651-0.979c0.14-0.047,0.14-0.047,0.371-0.278c0.047-0.092,0.047-0.185,0.047-0.231
		c0.047-0.048,0.095-0.048,0.144-0.048c0.229-0.233,0.229-0.233,0.324-0.464c0.51-0.467,0.697-0.793,0.977-1.025
		c1.35-1.537,1.584-1.722,1.77-2c0.279-0.187,1.859-1.77,2.047-2.047c0.279-0.186,0.697-0.653,1.258-1.118
		c0.187-0.232,1.162-1.07,1.629-1.582c0.231-0.093,0.466-0.372,0.979-0.745c0.045-0.047,0.045-0.093,0.045-0.14
		c0.464-0.372,0.931-0.745,1.351-1.07c0.139,0.046,0.23,0.093,0.324,0.09C164.434,97.721,164.434,97.861,164.434,98z
		 M175.975,112.757c-0.65,1.349-0.836,1.583-0.979,1.954c-0.789,1.069-1.533,2.141-2.279,3.213
		c-0.513,0.559-1.025,1.067-1.488,1.582c-0.281,0.139-0.373,0.278-2.002,1.487c-0.324,0.139-0.652,0.28-0.932,0.421
		c-0.232,0.046-0.417,0.093-0.605,0.141c-0.604-0.048-1.209-0.048-1.813-0.048c-0.838-0.467-0.838-0.467-1.069-0.514
		c-0.232-0.326-0.232-0.326-0.652-0.744c-0.139-0.233-0.277-0.417-0.371-0.604c-0.326-0.746-0.326-0.746-0.512-1.442
		c-0.049-0.468-0.049-0.933-0.049-1.351c0.049-0.141,0.096-0.278,0.141-0.371c0.141-0.188,0.279-0.373,0.42-0.516
		c0.279-0.186,0.557-0.372,0.838-0.558c0.604-0.325,0.604-0.325,2.232-1.022c1.117-0.374,2.236-0.699,3.307-1.025
		c4.422-1.023,5.35-1.164,5.35-1.211c0.188,0.047,0.326,0.094,0.465,0.142C175.975,112.479,175.975,112.617,175.975,112.757z
		 M179.189,98.837c-0.328,0.187-0.651,0.372-0.933,0.512c-0.184,0.047-0.371,0.093-0.512,0.14c-0.418,0-0.836,0-1.209,0
		c-0.466-0.232-0.886-0.418-1.304-0.605c-0.649-0.186-1.305-0.372-1.955-0.513c-0.791-0.045-0.791-0.045-2.793,0
		c-0.559,0.188-1.116,0.374-1.676,0.56c-0.231,0.14-0.463,0.279-0.697,0.419c-0.231,0-0.231,0-0.325-0.093c0-0.187,0-0.373,0-0.512
		c0.511-1.303,0.511-1.303,1.022-2.979c0.143-0.604,0.234-1.21,0.326-1.814c0.094-0.232,0.186-0.465,0.279-0.652
		c0.045-0.046,0.094-0.046,0.141-0.046c0.045-0.092,0.094-0.185,0.094-0.232c0.047,0,0.093,0,0.14,0
		c0.185-0.232,0.511-0.418,0.649-0.605c1.306-0.837,1.399-0.977,2.097-1.396c0.325-0.279,0.511-0.325,1.069-0.743
		c1.162-0.7,1.441-0.933,3.537-2.143c0.51-0.371,0.885-0.51,1.115-0.697c0.699-0.326,0.791-0.419,3.49-1.815
		c0.886-0.372,1.722-0.698,2.562-1.023c1.395-0.326,1.395-0.326,1.395-0.373c0.559,0.046,1.07,0.093,1.585,0.091
		c0.28,0.092,0.56,0.185,0.793,0.232c0.229,0.232,0.417,0.418,0.604,0.605c0.045,0.139,0.092,0.279,0.14,0.419
		c0,0.558,0,1.116,0,1.675c-0.048,0.279-0.095,0.559-0.14,0.791c-0.188,0.512-0.375,0.976-0.514,1.442
		c-1.07,1.955-1.349,2.281-1.535,2.653c-0.838,1.025-1.768,2.001-2.188,2.56c-0.139,0.094-0.232,0.141-0.324,0.187
		c-0.42,0.372-0.793,0.744-1.166,1.07c-0.232,0.279-0.559,0.466-1.627,1.396C180.585,97.86,179.889,98.37,179.189,98.837z
		 M203.621,108.333c-0.186,0.421-0.373,0.84-0.512,1.211c-0.698,0.931-1.071,1.306-1.303,1.63c-0.281,0.233-0.513,0.417-0.744,0.604
		c-0.047,0.048-0.047,0.094-0.047,0.14c-1.072,0.793-1.49,0.979-1.677,1.166c-0.512,0.231-1.022,0.464-1.534,0.696
		c-0.234,0.046-0.468,0.093-0.701,0.139c-0.604,0-1.162,0-1.722,0c-0.187-0.046-0.323-0.093-0.463-0.139
		c-0.188-0.232-0.326-0.465-0.467-0.65c0-0.419,0-0.839,0-1.258c0.371-0.696,0.371-0.696,0.512-1.115
		c0.095-0.047,0.142-0.093,0.187-0.093c0.094-0.235,0.281-0.374,0.467-0.7c0.932-0.883,0.932-0.883,2-1.722
		c0.188-0.046,0.607-0.325,2.049-1.022c1.303-0.326,1.303-0.326,1.303-0.375c0.557,0.049,1.117,0.094,1.627,0.094
		c0.236,0.092,0.467,0.188,0.652,0.234c0.234,0.325,0.234,0.325,0.373,0.696C203.621,108.055,203.621,108.193,203.621,108.333z
		 M241.367,109.869c-0.186,0.279-0.465,0.464-1.348,1.396c-0.373,0.278-0.699,0.559-1.025,0.836
		c-0.188,0.047-0.373,0.047-0.559,0.047c-0.187-0.278-0.326-0.512-0.466-0.742c-0.094-0.232-0.139-0.418-0.186-0.605
		c0-0.374,0-0.744,0-1.07c0.091-0.418,0.185-0.789,0.276-1.164c0.14-0.232,0.232-0.465,0.328-0.697
		c0.369-0.604,0.369-0.604,1.115-1.489c0.324-0.233,0.371-0.325,1.535-1.212c1.443-0.51,1.443-0.51,1.443-0.559
		c0.605,0.188,0.605,0.188,0.838,0.326c0.096,0.187,0.143,0.328,0.188,0.467c0,0.373,0,0.744,0,1.07
		c-0.045,0.231-0.092,0.418-0.141,0.605c-0.186,0.373-0.371,0.697-0.51,1.021c-0.373,0.465-0.699,0.934-1.023,1.352
		C241.645,109.591,241.506,109.73,241.367,109.869z"/>
</g>
</svg>
