<?xml version="1.0" encoding="utf-8"?>
<!-- Generator: Adobe Illustrator 15.0.0, SVG Export Plug-In . SVG Version: 6.00 Build 0)  -->
<!DOCTYPE svg PUBLIC "-//W3C//DTD SVG 1.1//EN" "http://www.w3.org/Graphics/SVG/1.1/DTD/svg11.dtd">
<svg version="1.1" id="Layer_1" xmlns="http://www.w3.org/2000/svg" xmlns:xlink="http://www.w3.org/1999/xlink" x="0px" y="0px"
	 width="288px" height="205px" viewBox="0 0 288 205" enable-background="new 0 0 288 205" xml:space="preserve">
<g>
	<path fill="#FFFFFF" d="M129.239,78.674v31.1c0,5.409-1.8,9.604-5.396,12.583c-3.598,2.977-8.309,4.465-14.132,4.465
		c-5.89,0-10.638-1.488-14.247-4.465c-3.608-2.978-5.411-7.173-5.411-12.583v-31.1h11.051v31.1c0,2.912,0.75,5.068,2.25,6.47
		c1.5,1.402,3.619,2.104,6.357,2.104c2.716,0,4.808-0.696,6.274-2.086c1.468-1.392,2.202-3.553,2.202-6.486V78.674H129.239z"/>
	<path fill="#FFFFFF" d="M181.703,113.555c0-1.674-0.555-2.966-1.663-3.879c-1.109-0.912-3.098-1.879-5.968-2.9
		c-5.996-1.893-10.44-3.918-13.332-6.08c-2.89-2.162-4.336-5.287-4.336-9.372c0-3.978,1.723-7.194,5.168-9.649
		c3.444-2.456,7.817-3.684,13.121-3.684c5.26,0,9.568,1.353,12.926,4.059c3.357,2.705,4.982,6.188,4.874,10.448l-0.065,0.195
		h-10.693c0-1.891-0.641-3.428-1.924-4.613c-1.281-1.185-3.053-1.776-5.312-1.776c-2.217,0-3.956,0.49-5.216,1.468
		c-1.262,0.978-1.891,2.184-1.891,3.617c0,1.392,0.636,2.505,1.906,3.343c1.271,0.835,3.657,1.884,7.155,3.145
		c5.391,1.607,9.449,3.586,12.176,5.933c2.728,2.348,4.092,5.575,4.092,9.683c0,4.173-1.625,7.437-4.874,9.796
		c-3.249,2.358-7.558,3.536-12.925,3.536c-5.39,0-10.052-1.351-13.985-4.058c-3.934-2.705-5.846-6.602-5.737-11.688l0.064-0.194
		h10.727c0,2.738,0.737,4.692,2.215,5.866c1.477,1.174,3.717,1.762,6.715,1.762c2.282,0,3.982-0.457,5.102-1.371
		C181.143,116.228,181.703,115.032,181.703,113.555z"/>
</g>
<polygon fill="#FFFFFF" points="141.289,122.504 136.425,126.139 138.377,120.389 133.418,116.887 139.489,116.967 141.289,111.165 
	143.09,116.967 149.16,116.887 144.202,120.389 146.154,126.139 "/>
<polygon fill="#FFFFFF" points="206.808,122.504 201.943,126.139 203.896,120.389 198.937,116.887 205.008,116.967 206.808,111.165 
	208.607,116.967 214.68,116.887 209.721,120.389 211.674,126.139 "/>
</svg>
