<?xml version="1.0" encoding="utf-8"?>
<!-- Generator: Adobe Illustrator 15.0.0, SVG Export Plug-In . SVG Version: 6.00 Build 0)  -->
<!DOCTYPE svg PUBLIC "-//W3C//DTD SVG 1.1//EN" "http://www.w3.org/Graphics/SVG/1.1/DTD/svg11.dtd">
<svg version="1.1" id="Layer_1" xmlns="http://www.w3.org/2000/svg" xmlns:xlink="http://www.w3.org/1999/xlink" x="0px" y="0px"
	 width="288px" height="205px" viewBox="0 0 288 205" enable-background="new 0 0 288 205" xml:space="preserve">
<g>
	<path fill="#FFFFFF" d="M127.465,76.854v33.486c0,5.824-1.938,10.342-5.81,13.549c-3.874,3.205-8.946,4.808-15.217,4.808
		c-6.342,0-11.454-1.603-15.339-4.808c-3.885-3.206-5.826-7.724-5.826-13.549V76.854h11.898v33.486c0,3.136,0.808,5.457,2.422,6.967
		c1.615,1.51,3.896,2.265,6.845,2.265c2.925,0,5.177-0.75,6.756-2.246c1.581-1.498,2.371-3.825,2.371-6.984V76.854H127.465z"/>
	<path fill="#FFFFFF" d="M183.954,114.41c0-1.802-0.598-3.193-1.791-4.177c-1.194-0.981-3.335-2.022-6.426-3.122
		c-6.456-2.038-11.241-4.22-14.354-6.547c-3.111-2.328-4.669-5.692-4.669-10.091c0-4.283,1.855-7.746,5.564-10.39
		c3.709-2.645,8.417-3.967,14.128-3.967c5.663,0,10.303,1.456,13.918,4.37c3.614,2.913,5.364,6.663,5.247,11.249l-0.07,0.211
		h-11.514c0-2.036-0.689-3.691-2.071-4.967c-1.38-1.275-3.287-1.913-5.72-1.913c-2.387,0-4.26,0.528-5.616,1.581
		c-1.358,1.053-2.036,2.352-2.036,3.895c0,1.499,0.685,2.698,2.053,3.6c1.369,0.898,3.938,2.028,7.704,3.386
		c5.805,1.731,10.175,3.861,13.11,6.389c2.937,2.527,4.405,6.003,4.405,10.425c0,4.493-1.749,8.007-5.248,10.548
		c-3.498,2.539-8.137,3.808-13.916,3.808c-5.803,0-10.823-1.454-15.059-4.369c-4.235-2.913-6.294-7.108-6.177-12.584l0.069-0.21
		h11.549c0,2.949,0.794,5.053,2.385,6.316c1.59,1.264,4.002,1.897,7.23,1.897c2.457,0,4.288-0.492,5.493-1.477
		C183.351,117.288,183.954,116.001,183.954,114.41z"/>
</g>
<polygon fill="#FFFFFF" points="140.439,124.046 135.202,127.96 137.304,121.769 131.965,117.998 138.501,118.084 140.439,111.837 
	142.379,118.084 148.914,117.998 143.576,121.769 145.678,127.96 "/>
<polygon fill="#FFFFFF" points="210.984,124.046 205.747,127.96 207.849,121.769 202.51,117.998 209.047,118.084 210.984,111.837 
	212.922,118.084 219.461,117.998 214.121,121.769 216.224,127.96 "/>
</svg>
