<?xml version="1.0" encoding="utf-8"?>
<!-- Generator: Adobe Illustrator 15.0.0, SVG Export Plug-In . SVG Version: 6.00 Build 0)  -->
<!DOCTYPE svg PUBLIC "-//W3C//DTD SVG 1.1//EN" "http://www.w3.org/Graphics/SVG/1.1/DTD/svg11.dtd">
<svg version="1.1" id="Layer_1" xmlns="http://www.w3.org/2000/svg" xmlns:xlink="http://www.w3.org/1999/xlink" x="0px" y="0px"
	 width="288px" height="205px" viewBox="0 0 288 205" enable-background="new 0 0 288 205" xml:space="preserve">
<g>
	<path fill="#FFFFFF" d="M114.656,63.711v50.709c0,8.82-2.934,15.661-8.797,20.517c-5.866,4.854-13.547,7.279-23.042,7.279
		c-9.604,0-17.346-2.426-23.229-7.279c-5.883-4.855-8.822-11.696-8.822-20.517V63.711h18.018v50.709
		c0,4.748,1.223,8.263,3.668,10.55c2.445,2.286,5.9,3.428,10.365,3.428c4.429,0,7.839-1.134,10.231-3.4
		c2.393-2.27,3.589-5.794,3.589-10.577V63.711H114.656z"/>
	<path fill="#FFFFFF" d="M200.199,120.584c0-2.728-0.904-4.836-2.711-6.325c-1.809-1.488-5.051-3.064-9.729-4.73
		c-9.779-3.083-17.025-6.388-21.74-9.913c-4.711-3.525-7.068-8.62-7.068-15.281c0-6.485,2.809-11.729,8.426-15.733
		c5.615-4.004,12.746-6.007,21.393-6.007c8.576,0,15.602,2.206,21.076,6.618c5.475,4.411,8.123,10.09,7.947,17.035l-0.107,0.319
		h-17.434c0-3.084-1.045-5.59-3.137-7.521c-2.09-1.932-4.979-2.897-8.664-2.897c-3.613,0-6.449,0.799-8.504,2.394
		c-2.057,1.594-3.082,3.561-3.082,5.898c0,2.269,1.035,4.085,3.107,5.45c2.074,1.362,5.963,3.073,11.666,5.128
		c8.791,2.621,15.408,5.847,19.854,9.675c4.447,3.825,6.672,9.089,6.672,15.786c0,6.803-2.65,12.126-7.947,15.972
		s-12.322,5.766-21.074,5.766c-8.787,0-16.389-2.203-22.803-6.617c-6.414-4.409-9.531-10.762-9.354-19.056l0.105-0.317h17.488
		c0,4.465,1.203,7.652,3.613,9.566c2.408,1.914,6.059,2.873,10.949,2.873c3.721,0,6.492-0.746,8.318-2.235
		C199.285,124.942,200.199,122.993,200.199,120.584z"/>
</g>
<polygon fill="#FFFFFF" points="134.304,135.176 126.373,141.101 129.556,131.727 121.471,126.015 131.37,126.146 134.304,116.688 
	137.241,126.146 147.139,126.015 139.054,131.727 142.237,141.101 "/>
<polygon fill="#FFFFFF" points="241.133,135.176 233.201,141.101 236.385,131.727 228.299,126.015 238.197,126.146 241.133,116.688 
	244.068,126.146 253.969,126.015 245.883,131.727 249.066,141.101 "/>
</svg>
