<?xml version="1.0" encoding="utf-8"?>
<!-- Generator: Adobe Illustrator 15.0.0, SVG Export Plug-In . SVG Version: 6.00 Build 0)  -->
<!DOCTYPE svg PUBLIC "-//W3C//DTD SVG 1.1//EN" "http://www.w3.org/Graphics/SVG/1.1/DTD/svg11.dtd">
<svg version="1.1" id="Layer_1" xmlns="http://www.w3.org/2000/svg" xmlns:xlink="http://www.w3.org/1999/xlink" x="0px" y="0px"
	 width="288px" height="205px" viewBox="0 0 288 205" enable-background="new 0 0 288 205" xml:space="preserve">
<g>
	<path fill="#FFFFFF" d="M31.415,96.734c0-2.357-0.717-3.074-1.691-3.177l-1.64-0.307v-4.714h28.334l3.792,5.021v4.048l-1.588,0.256
		c-0.922,0.103-1.742,1.179-1.742,3.945v16.908l3.331,4.355v3.895H46.786l-1.076-1.18v1.18H31.363l-3.279-4.305v-4.714l1.999-0.308
		c0.974-0.205,1.332-1.64,1.332-3.432V96.734z M38.076,96.734c0-2.408,0.614-3.894,1.69-4.099l1.588-0.256v-2.92H29.006v2.92
		l1.64,0.256c1.025,0.205,1.64,1.691,1.64,4.099v17.728c0,2.356-0.41,3.843-1.64,4.1l-1.64,0.256v2.921h12.399v-2.921l-1.64-0.256
		c-1.281-0.257-1.69-1.743-1.69-4.1v-7.019h8.402v7.019c0,2.356-0.41,3.843-1.742,4.1l-1.588,0.256v2.921h12.348v-2.921
		l-1.588-0.256c-1.28-0.257-1.691-1.743-1.691-4.1V96.734c0-2.408,0.615-3.894,1.691-4.099l1.588-0.256v-2.92H43.148v2.92
		l1.588,0.256c1.127,0.205,1.742,1.691,1.742,4.099v6.2h-8.402V96.734z M54.625,90.33v1.127l-1.332,0.205
		c-1.281,0.206-1.999,2.101-1.999,5.073v8.3c-0.41-0.409-1.127-0.409-1.845,0c0.205,0.666,0.82,1.743,1.538,2.511
		c-0.717,1.69-1.333,4.047-1.691,8.403c-0.308-4.356-0.922-6.713-1.64-8.403c0.717-0.768,1.332-1.845,1.588-2.511
		c-1.179-0.409-2.357-0.409-3.536,0c-1.127-0.409-2.306-0.409-3.433,0c-1.178-0.409-2.357-0.409-3.484,0
		c-1.179-0.409-2.306-0.409-3.536,0c0.307,0.666,0.871,1.743,1.588,2.511c-0.717,1.69-1.281,4.047-1.64,8.403
		c-0.359-4.356-0.922-6.713-1.691-8.403c0.769-0.768,1.332-1.845,1.588-2.511c-0.768-0.409-1.486-0.409-1.896,0v-8.3
		c0-2.972-0.717-4.867-1.998-5.073l-1.332-0.205V90.33h10.606v1.127l-1.332,0.205c-1.281,0.206-1.998,2.101-1.998,5.073v7.121
		h10.196v-7.121c0-2.972-0.666-4.867-1.998-5.073l-1.281-0.205V90.33H54.625z M35.257,104.984c0.307-1.795,0.871-2.819,1.588-3.587
		c-0.717-1.23-1.281-3.074-1.64-6.917c-0.359,3.843-0.922,5.687-1.691,6.917c0.769,0.769,1.332,1.792,1.588,3.587H35.257z
		 M45.556,102.063v-4.458l-1.127,0.153c-1.229,0.154-1.691,1.281-1.691,3.792v0.513H45.556z M42.738,117.946l1.793-0.308
		c0.717-0.154,1.025-1.024,1.025-3.177v-1.845h-2.818V117.946z M49.45,104.984c0.205-1.795,0.82-2.819,1.538-3.587
		c-0.717-1.23-1.333-3.074-1.691-6.917c-0.308,3.843-0.922,5.687-1.64,6.917c0.717,0.769,1.332,1.792,1.588,3.587H49.45z"/>
	<path fill="#FFFFFF" d="M63.335,96.734c0-2.357-0.717-3.074-1.691-3.177l-1.64-0.307v-4.714h14.193l3.792,5.021v4.048L76.4,97.861
		c-0.922,0.103-1.742,1.179-1.742,3.945v16.908l3.331,4.355v3.895H63.284l-3.279-4.305v-4.714l1.999-0.308
		c0.974-0.205,1.332-1.64,1.332-3.432V96.734z M64.206,114.462c0,2.356-0.41,3.843-1.64,4.1l-1.64,0.256v2.921h12.399v-2.921
		l-1.64-0.256c-1.281-0.257-1.69-1.743-1.69-4.1V96.734c0-2.408,0.615-3.894,1.64-4.099l1.64-0.256v-2.92H60.927v2.92l1.64,0.256
		c1.025,0.205,1.64,1.691,1.64,4.099V114.462z M69.074,105.034c-0.512-0.409-1.229-0.409-1.896,0
		c0.307,0.666,0.871,1.743,1.639,2.511c-0.769,1.69-1.332,4.047-1.69,8.403c-0.359-4.356-0.922-6.713-1.691-8.403
		c0.769-0.768,1.332-1.845,1.588-2.511c-0.717-0.409-1.383-0.409-1.896,0v-8.3c0-3.894-1.076-4.867-1.998-5.073l-1.332-0.205V90.33
		h10.605v1.127l-1.332,0.205c-0.922,0.206-1.998,1.179-1.998,5.073V105.034z M67.178,104.984c0.307-1.795,0.871-2.819,1.639-3.587
		c-0.769-1.23-1.332-3.074-1.69-6.917c-0.359,3.843-0.922,5.687-1.691,6.917c0.769,0.769,1.332,1.792,1.588,3.587H67.178z"/>
	<path fill="#FFFFFF" d="M101.916,126.965c-0.41-0.564-0.922-1.076-1.588-1.076c-0.615,0-1.332,0.204-2.306,0.613
		c-1.281,0.514-2.921,0.77-4.304,0.77c-8.095,0-15.115-7.635-15.115-18.036v-8.556c0-7.225,5.124-12.451,11.221-12.451
		c1.896,0,3.228,0.308,4.458,0.82c0.819,0.41,1.64,0.922,2.049,0.922c0.308,0,0.41-0.769,0.41-1.537h4.663l4.304,4.867v14.5
		l2.562,2.817v5.688h-1.793c-0.872,0-1.538,0.512-1.538,1.69v8.968H101.916z M100.277,113.643c0-1.486,0.307-2.664,1.537-2.664
		h1.742v-3.895H93.052v3.895h0.82c1.025,0,1.845,0.769,1.845,2.715c0,4.253-2.408,5.072-4.612,5.072
		c-3.279,0-4.662-4.15-4.662-7.019V98.118c0-2.869,0.615-5.688,3.689-5.688c3.996,0,5.585,7.02,5.636,12.092h5.278V89.305h-3.484
		c0,0.667-0.205,1.64-0.82,1.64c-0.769,0-1.64-0.512-2.459-0.871c-1.281-0.615-2.665-0.974-4.15-0.974
		c-6.712,0-10.606,5.79-10.606,11.58v8.556c0,6.251,3.074,12.81,10.76,12.81c1.64,0,3.228-0.153,4.047-0.512
		c0.82-0.359,1.538-0.718,2.101-0.718c0.564,0,0.923,0.461,1.128,0.923h2.715V113.643z M80.397,101.346
		c0-6.046,3.792-11.324,9.735-11.324c1.537,0,2.818,0.41,3.792,0.872c1.025,0.563,1.947,0.974,3.074,0.974
		c0.769,0,1.486-0.872,1.486-1.64h1.64v13.424H96.69c-0.358-6.404-2.357-12.143-6.558-12.143c-3.894,0-4.611,3.331-4.611,6.609
		v6.917c-0.769-0.409-1.588-0.409-2.459,0c0.255,0.718,0.871,1.743,1.537,2.511c-0.461,2.102-0.769,4.919-0.922,8.403
		c-0.973-3.279-1.742-6.2-2.356-8.403c0.717-0.768,1.281-1.793,1.588-2.511c-0.974-0.409-1.793-0.409-2.51,0V101.346z
		 M83.062,104.984c0.255-1.846,0.871-2.819,1.537-3.587c-0.871-2.049-0.871-4.15-0.461-6.917c-1.486,2.357-2.152,4.918-2.818,6.917
		c0.717,0.769,1.281,1.742,1.588,3.587H83.062z M94.897,104.881c-0.358-7.122-1.332-8.454-2.459-8.454
		c-1.281,0-1.333,1.435-1.333,3.74v14.295c0,1.332,0.718,2.562,1.947,2.562c1.281,0,1.793-1.383,1.793-3.33
		c0-1.28-0.974-1.844-1.845-1.844H92.13v-5.637h3.894L94.897,104.881z"/>
	<path fill="#FFFFFF" d="M111.191,96.734c0-2.357-0.717-3.074-1.691-3.177l-1.64-0.307v-4.714h28.334l3.792,5.021v4.048
		l-1.588,0.256c-0.922,0.103-1.742,1.179-1.742,3.945v16.908l3.331,4.355v3.895h-13.424l-1.076-1.18v1.18H111.14l-3.279-4.305
		v-4.714l1.999-0.308c0.974-0.205,1.332-1.64,1.332-3.432V96.734z M117.852,96.734c0-2.408,0.615-3.894,1.69-4.099l1.589-0.256
		v-2.92h-12.348v2.92l1.639,0.256c1.025,0.205,1.64,1.691,1.64,4.099v17.728c0,2.356-0.41,3.843-1.64,4.1l-1.639,0.256v2.921h12.399
		v-2.921l-1.64-0.256c-1.28-0.257-1.69-1.743-1.69-4.1v-7.019h8.403v7.019c0,2.356-0.41,3.843-1.742,4.1l-1.588,0.256v2.921h12.348
		v-2.921l-1.588-0.256c-1.281-0.257-1.691-1.743-1.691-4.1V96.734c0-2.408,0.615-3.894,1.691-4.099l1.588-0.256v-2.92h-12.348v2.92
		l1.588,0.256c1.127,0.205,1.742,1.691,1.742,4.099v6.2h-8.403V96.734z M134.401,90.33v1.127l-1.332,0.205
		c-1.281,0.206-1.999,2.101-1.999,5.073v8.3c-0.41-0.409-1.127-0.409-1.844,0c0.205,0.666,0.82,1.743,1.537,2.511
		c-0.717,1.69-1.332,4.047-1.691,8.403c-0.307-4.356-0.922-6.713-1.639-8.403c0.717-0.768,1.332-1.845,1.588-2.511
		c-1.178-0.409-2.357-0.409-3.535,0c-1.127-0.409-2.306-0.409-3.433,0c-1.179-0.409-2.357-0.409-3.484,0
		c-1.178-0.409-2.306-0.409-3.535,0c0.307,0.666,0.871,1.743,1.588,2.511c-0.717,1.69-1.281,4.047-1.64,8.403
		c-0.359-4.356-0.922-6.713-1.691-8.403c0.769-0.768,1.332-1.845,1.588-2.511c-0.769-0.409-1.486-0.409-1.896,0v-8.3
		c0-2.972-0.717-4.867-1.998-5.073l-1.332-0.205V90.33h10.606v1.127l-1.332,0.205c-1.281,0.206-1.998,2.101-1.998,5.073v7.121
		h10.196v-7.121c0-2.972-0.666-4.867-1.998-5.073l-1.281-0.205V90.33H134.401z M115.034,104.984
		c0.307-1.795,0.871-2.819,1.588-3.587c-0.717-1.23-1.281-3.074-1.64-6.917c-0.359,3.843-0.922,5.687-1.691,6.917
		c0.769,0.769,1.332,1.792,1.588,3.587H115.034z M125.332,102.063v-4.458l-1.127,0.153c-1.23,0.154-1.691,1.281-1.691,3.792v0.513
		H125.332z M122.514,117.946l1.793-0.308c0.718-0.154,1.025-1.024,1.025-3.177v-1.845h-2.818V117.946z M129.226,104.984
		c0.205-1.795,0.82-2.819,1.537-3.587c-0.717-1.23-1.332-3.074-1.691-6.917c-0.307,3.843-0.922,5.687-1.639,6.917
		c0.717,0.769,1.332,1.792,1.588,3.587H129.226z"/>
	<path fill="#FFFFFF" d="M160.131,88.537l1.435,1.896l0.308-1.896h6.199l1.793,2.357v-2.357h11.682l3.792,5.021v4.048l-1.946,0.256
		c-1.18,0.205-2.357,1.281-2.715,3.382l-4.459,25.722h-5.688l-3.279-4.305l-0.818-3.639l-1.18,7.943h-5.892l-3.33-4.305
		l-5.944-26.489c-0.256-1.332-0.666-2.511-1.689-2.716l-1.896-0.205v-4.714H160.131z M170.787,89.459v2.92l1.589,0.256
		c1.486,0.205,1.538,1.281,1.077,3.638l-2.203,12.451l-4.049-19.266h-4.406l-2.869,19.162l-2.869-12.758
		c-0.512-2.203-0.564-3.074,0.512-3.228l1.641-0.256v-2.92h-11.785v2.92l1.588,0.256c1.076,0.154,1.742,1.64,2.152,3.382
		l5.79,25.721h4.149l2.922-19.317l4.099,19.317h4.15l4.149-23.467c0.615-3.484,1.179-5.431,2.613-5.636l1.588-0.256v-2.92H170.787z
		 M158.286,90.33v1.127l-1.229,0.205c-1.537,0.206-1.69,1.179-0.974,4.407l2.05,8.966c-0.666-0.409-1.281-0.409-1.947,0l2.152,2.511
		c-0.359,2.818-0.41,5.637-0.359,8.403c-0.922-2.767-1.793-5.585-3.125-8.403l1.179-2.511c-0.821-0.409-1.384-0.409-1.794,0
		l-1.895-8.402c-0.719-2.972-1.59-4.765-2.973-4.97l-1.076-0.205V90.33H158.286z M156.186,104.984c0-1.179,0.256-2.409,0.666-3.587
		c-1.229-2.306-2.254-4.611-3.023-6.917c0.154,2.306,0.104,4.611,0,6.917c0.872,1.178,1.64,2.409,2.204,3.587H156.186z
		 M166.434,90.33l3.073,14.705c-0.666-0.409-1.332-0.409-1.998,0l2.152,2.511c-0.257,2.818-0.308,5.637-0.257,8.403
		c-1.076-2.767-1.896-5.585-3.177-8.403l1.077-2.511c-0.871-0.409-1.334-0.409-1.691,0c-0.309-1.588-1.025-4.098-1.588-4.098
		c-0.666,0-1.128,2.613-1.385,4.098c-0.256-0.409-0.818-0.409-1.178,0l2.152-14.705H166.434z M167.509,104.83
		c0.052-1.179,0.205-2.409,0.666-3.587c-1.28-2.306-2.151-4.611-3.022-6.763c0.256,2.152,0.256,4.458,0.205,6.763
		c0.717,1.178,1.485,2.408,1.947,3.587H167.509z M179.755,90.33v1.127l-1.435,0.256c-0.975,0.154-1.896,1.076-2.511,4.919
		l-1.537,8.402c-0.41-0.409-0.974-0.409-1.435,0l1.537-8.402c0.563-3.381,0.102-4.611-1.333-4.868l-1.383-0.205v-1.23H179.755z"/>
	<path fill="#FFFFFF" d="M188.517,96.734c0-2.357-0.718-3.074-1.69-3.177l-1.64-0.307v-4.714h14.192l3.791,5.021v4.048l-1.588,0.256
		c-0.922,0.103-1.742,1.179-1.742,3.945v16.908l3.33,4.355v3.895h-14.705l-3.278-4.305v-4.714l1.998-0.308
		c0.974-0.205,1.332-1.64,1.332-3.432V96.734z M189.388,114.462c0,2.356-0.409,3.843-1.64,4.1l-1.64,0.256v2.921h12.399v-2.921
		l-1.64-0.256c-1.28-0.257-1.69-1.743-1.69-4.1V96.734c0-2.408,0.615-3.894,1.639-4.099l1.641-0.256v-2.92h-12.349v2.92l1.64,0.256
		c1.024,0.205,1.64,1.691,1.64,4.099V114.462z M194.256,105.034c-0.514-0.409-1.23-0.409-1.896,0
		c0.308,0.666,0.871,1.743,1.64,2.511c-0.769,1.69-1.332,4.047-1.69,8.403c-0.359-4.356-0.923-6.713-1.691-8.403
		c0.769-0.768,1.332-1.845,1.588-2.511c-0.717-0.409-1.383-0.409-1.895,0v-8.3c0-3.894-1.076-4.867-1.998-5.073l-1.334-0.205V90.33
		h10.607v1.127l-1.332,0.205c-0.923,0.206-1.998,1.179-1.998,5.073V105.034z M192.359,104.984c0.308-1.795,0.871-2.819,1.64-3.587
		c-0.769-1.23-1.332-3.074-1.69-6.917c-0.359,3.843-0.923,5.687-1.691,6.917c0.769,0.769,1.332,1.792,1.588,3.587H192.359z"/>
	<path fill="#FFFFFF" d="M206.245,96.734c0-2.357-0.717-3.074-1.69-3.177l-1.64-0.307v-4.714h15.831
		c9.326,0,13.886,8.352,13.886,14.295c0,3.331-1.64,5.79-3.792,7.02h3.535l3.945,4.969v3.023c0,6.66-2.305,9.121-6.455,9.121
		c-2.869,0-5.995-1.896-7.84-5.842c-1.536-3.228-1.69-7.84-2.049-8.865h-2.408v5.996l3.535,4.355v4.355h-14.909l-3.279-4.305v-4.714
		l1.998-0.308c0.974-0.205,1.332-1.64,1.332-3.432V96.734z M217.723,107.699c2.357,0,3.176,3.227,3.483,6.199
		c0.718,6.251,2.204,8.198,5.893,8.198c3.022,0,4.97-1.845,4.97-8.967v-2.356h-2.972v2.356c0,1.128-0.204,2.818-0.974,2.818
		c-0.819,0-1.024-1.383-1.281-4.304c-0.256-2.818-0.922-4.766-2.664-6.047v-0.102c1.947-1.076,3.74-3.382,3.74-7.481
		c0-5.277-3.074-8.556-9.633-8.556h-14.447v2.92l1.639,0.256c1.025,0.205,1.64,1.691,1.64,4.099v17.728
		c0,2.356-0.409,3.843-1.64,4.1l-1.639,0.256v2.921h12.654v-2.921l-1.178-0.153c-1.846-0.205-2.408-1.846-2.408-4.202v-6.763
		H217.723z M218.234,90.33c5.328,0,8.812,1.896,8.812,7.686c0,3.689-1.537,5.892-3.688,7.019c-0.411-0.409-1.128-0.409-2.05,0
		c1.179,0.82,1.794,1.436,2.613,2.511c0.615,1.69,0.871,4.047,0.769,8.403c-0.666-4.458-2.409-6.917-4.1-8.403
		c0.462-0.82,0.667-1.64,0.513-2.511c-0.717-0.409-1.435-0.409-2.408,0c-0.922-0.409-1.895-0.409-2.818,0
		c-0.973-0.409-1.998-0.409-2.971,0c-0.975-0.409-1.896-0.409-2.869,0c0.256,0.666,0.922,1.743,1.639,2.511
		c-0.768,1.69-1.332,4.047-1.742,8.403c-0.358-4.356-0.922-6.713-1.588-8.403c0.666-0.768,1.229-1.845,1.486-2.511
		c-0.82-0.409-1.332-0.409-1.793,0v-8.3c0-3.894-1.076-4.867-1.998-5.073l-1.334-0.205V90.33H218.234z M210.037,104.984
		c0.256-1.795,0.871-2.819,1.639-3.587c-0.768-1.23-1.383-3.074-1.742-6.917c-0.256,3.843-0.819,5.687-1.588,6.917
		c0.666,0.769,1.229,1.792,1.486,3.587H210.037z M214.699,93.045c-2.1,0-2.715,1.23-2.715,3.946v6.763h6.25
		c1.896,0,4.457-1.64,4.457-5.278c0-3.433-1.793-5.431-4.559-5.431H214.699z M218.285,93.917c1.691,0,3.484,1.332,3.484,4.56
		c0,2.767-1.793,4.355-3.484,4.355h-5.379v-5.841c0-2.459,0.666-3.074,1.742-3.074H218.285z M218.542,99.142
		c-0.563,0-0.974,0.564-0.974,1.589v1.281h0.871c0.871,0,2.101-0.974,2.101-1.947c0-0.513-0.409-0.923-0.819-0.923H218.542z
		 M221.309,104.984c1.691-1.129,3.126-2.102,4.611-3.587c0-1.538-0.41-3.894-1.844-6.917c1.127,3.586-0.052,5.738-0.974,6.712
		c-0.155,1.332-1.024,2.869-1.999,3.792H221.309z"/>
	<path fill="#FFFFFF" d="M237.146,93.558l-1.64-0.307v-4.714h21.775l3.996,5.226v12.092h-5.379l-3.434-4.509v-1.793
		c0-1.076-0.256-1.691-1.075-1.691c-0.871,0-1.281,0.82-1.229,1.793l0.051,1.281l4.509,5.994v2.306h2.562l3.996,5.33v12.399h-22.492
		l-3.279-4.305v-4.714l1.998-0.308c0.974-0.205,1.332-1.64,1.332-3.432V96.734C238.836,94.377,238.119,93.66,237.146,93.558z
		 M250.57,106.521v-3.638h-5.072v-6.66c0-2.357,0.768-3.587,3.381-3.587c2.408,0,4.458,1.999,4.458,5.841v2.152h3.228V89.459
		h-20.136v2.92l1.64,0.256c1.024,0.205,1.639,1.691,1.639,4.099v17.728c0,2.356-0.409,3.894-1.639,4.1l-1.64,0.256v2.921h20.136
		v-11.58h-3.228v2.511c0,3.177-0.872,5.79-4.458,5.79c-2.613,0-3.381-1.486-3.381-3.535v-8.403H250.57z M255.693,90.33v9.428h-1.435
		v-1.281c0-5.328-3.074-6.712-5.38-6.712c-3.434,0-4.304,2.254-4.304,4.458v7.583h5.124v1.229c-1.179-0.409-2.511-0.358-3.535,0.052
		c-1.076-0.41-2.307-0.461-3.485-0.052c0.308,0.666,0.872,1.743,1.64,2.511c-0.768,1.69-1.332,4.047-1.69,8.403
		c-0.358-4.356-0.923-6.713-1.69-8.403c0.768-0.768,1.332-1.845,1.588-2.511c-0.717-0.409-1.435-0.409-1.896,0v-8.3
		c0-3.894-1.075-4.867-1.998-5.073l-1.333-0.205V90.33H255.693z M242.679,104.984c0.308-1.795,0.872-2.819,1.589-3.587
		c-0.717-1.23-1.281-3.074-1.64-6.917c-0.358,3.843-0.923,5.687-1.69,6.917c0.768,0.769,1.332,1.792,1.588,3.587H242.679z
		 M250.16,115.231c0,0.819,0.205,1.587,0.717,1.587c0.615,0,1.588-1.229,1.588-4.252v-0.819h-2.305V115.231z"/>
</g>
</svg>
