<?xml version="1.0" encoding="utf-8"?>
<!-- Generator: Adobe Illustrator 15.0.0, SVG Export Plug-In . SVG Version: 6.00 Build 0)  -->
<!DOCTYPE svg PUBLIC "-//W3C//DTD SVG 1.1//EN" "http://www.w3.org/Graphics/SVG/1.1/DTD/svg11.dtd">
<svg version="1.1" id="Layer_1" xmlns="http://www.w3.org/2000/svg" xmlns:xlink="http://www.w3.org/1999/xlink" x="0px" y="0px"
	 width="288px" height="205px" viewBox="0 0 288 205" enable-background="new 0 0 288 205" xml:space="preserve">
<g>
	<path fill="#FFFFFF" d="M16.466,95.281c0-2.668-0.812-3.48-1.914-3.596l-1.856-0.348v-5.336H44.77l4.292,5.684v4.582l-1.798,0.29
		c-1.044,0.116-1.972,1.334-1.972,4.466v19.14l3.77,4.93v4.408H33.866l-1.218-1.334v1.334h-16.24l-3.712-4.872v-5.336l2.262-0.348
		c1.102-0.232,1.508-1.856,1.508-3.886V95.281z M24.006,95.281c0-2.726,0.696-4.408,1.914-4.64l1.798-0.29v-3.306H13.74v3.306
		l1.856,0.29c1.16,0.232,1.856,1.914,1.856,4.64v20.067c0,2.668-0.464,4.351-1.856,4.641l-1.856,0.29v3.306h14.036v-3.306
		l-1.856-0.29c-1.45-0.29-1.914-1.973-1.914-4.641v-7.945h9.512v7.945c0,2.668-0.464,4.351-1.972,4.641l-1.798,0.29v3.306h13.978
		v-3.306l-1.798-0.29c-1.45-0.29-1.914-1.973-1.914-4.641V95.281c0-2.726,0.696-4.408,1.914-4.64l1.798-0.29v-3.306H29.748v3.306
		l1.798,0.29c1.276,0.232,1.972,1.914,1.972,4.64v7.018h-9.512V95.281z M42.74,88.031v1.276l-1.508,0.232
		c-1.45,0.232-2.262,2.378-2.262,5.742v9.395c-0.464-0.463-1.276-0.463-2.088,0c0.232,0.754,0.928,1.973,1.74,2.843
		c-0.812,1.913-1.508,4.581-1.914,9.512c-0.348-4.931-1.044-7.599-1.856-9.512c0.812-0.87,1.508-2.089,1.798-2.843
		c-1.334-0.463-2.668-0.463-4.002,0c-1.276-0.463-2.61-0.463-3.886,0c-1.334-0.463-2.668-0.463-3.944,0
		c-1.334-0.463-2.61-0.463-4.002,0c0.348,0.754,0.986,1.973,1.798,2.843c-0.812,1.913-1.45,4.581-1.856,9.512
		c-0.406-4.931-1.044-7.599-1.914-9.512c0.87-0.87,1.508-2.089,1.798-2.843c-0.87-0.463-1.682-0.463-2.146,0v-9.395
		c0-3.364-0.812-5.51-2.262-5.742l-1.508-0.232v-1.276h12.005v1.276l-1.508,0.232c-1.45,0.232-2.262,2.378-2.262,5.742v8.061h11.542
		v-8.061c0-3.364-0.754-5.51-2.262-5.742l-1.45-0.232v-1.276H42.74z M20.816,104.619c0.348-2.031,0.986-3.19,1.798-4.061
		c-0.812-1.392-1.45-3.48-1.856-7.83c-0.406,4.35-1.044,6.438-1.914,7.83c0.87,0.87,1.508,2.03,1.798,4.061H20.816z M32.474,101.312
		v-5.046l-1.276,0.174c-1.392,0.174-1.914,1.45-1.914,4.292v0.58H32.474z M29.284,119.292l2.03-0.348
		c0.812-0.175,1.16-1.16,1.16-3.597v-2.088h-3.19V119.292z M36.882,104.619c0.232-2.031,0.928-3.19,1.74-4.061
		c-0.812-1.392-1.508-3.48-1.914-7.83c-0.348,4.35-1.044,6.438-1.856,7.83c0.812,0.87,1.508,2.03,1.798,4.061H36.882z"/>
	<path fill="#FFFFFF" d="M52.6,95.281c0-2.668-0.812-3.48-1.914-3.596l-1.856-0.348v-5.336h16.066l4.292,5.684v4.582l-1.798,0.29
		c-1.044,0.116-1.972,1.334-1.972,4.466v19.14l3.77,4.93v4.408H52.542l-3.712-4.872v-5.336l2.262-0.348
		c1.102-0.232,1.508-1.856,1.508-3.886V95.281z M53.585,115.348c0,2.668-0.464,4.351-1.856,4.641l-1.856,0.29v3.306h14.036v-3.306
		l-1.856-0.29c-1.45-0.29-1.914-1.973-1.914-4.641V95.281c0-2.726,0.696-4.408,1.856-4.64l1.856-0.29v-3.306H49.874v3.306
		l1.856,0.29c1.16,0.232,1.856,1.914,1.856,4.64V115.348z M59.096,104.676c-0.58-0.463-1.392-0.463-2.146,0
		c0.348,0.754,0.986,1.973,1.856,2.843c-0.87,1.913-1.508,4.581-1.914,9.512c-0.406-4.931-1.044-7.599-1.914-9.512
		c0.87-0.87,1.508-2.089,1.798-2.843c-0.812-0.463-1.566-0.463-2.146,0v-9.395c0-4.408-1.218-5.51-2.262-5.742l-1.508-0.232v-1.276
		h12.005v1.276l-1.508,0.232c-1.044,0.232-2.262,1.334-2.262,5.742V104.676z M56.95,104.619c0.348-2.031,0.986-3.19,1.856-4.061
		c-0.87-1.392-1.508-3.48-1.914-7.83c-0.406,4.35-1.044,6.438-1.914,7.83c0.87,0.87,1.508,2.03,1.798,4.061H56.95z"/>
	<path fill="#FFFFFF" d="M96.272,129.5c-0.464-0.638-1.044-1.218-1.798-1.218c-0.696,0-1.508,0.231-2.61,0.695
		c-1.45,0.58-3.306,0.87-4.872,0.87c-9.164,0-17.109-8.642-17.109-20.416v-9.685c0-8.178,5.8-14.094,12.702-14.094
		c2.146,0,3.654,0.348,5.046,0.928c0.928,0.464,1.856,1.044,2.32,1.044c0.348,0,0.464-0.87,0.464-1.74h5.278l4.872,5.51v16.414
		l2.9,3.189v6.438h-2.03c-0.986,0-1.74,0.58-1.74,1.914v10.15H96.272z M94.417,114.42c0-1.682,0.348-3.016,1.74-3.016h1.972v-4.408
		h-11.89v4.408h0.928c1.16,0,2.088,0.87,2.088,3.074c0,4.813-2.726,5.741-5.22,5.741c-3.712,0-5.278-4.698-5.278-7.945V96.847
		c0-3.248,0.696-6.438,4.176-6.438c4.524,0,6.322,7.946,6.38,13.688h5.974V86.871h-3.944c0,0.754-0.232,1.856-0.928,1.856
		c-0.87,0-1.856-0.58-2.784-0.986c-1.45-0.696-3.016-1.102-4.698-1.102c-7.598,0-12.005,6.554-12.005,13.108v9.685
		c0,7.076,3.48,14.5,12.18,14.5c1.856,0,3.654-0.174,4.582-0.58c0.928-0.405,1.74-0.812,2.378-0.812
		c0.638,0,1.044,0.521,1.276,1.044h3.074V114.42z M71.913,100.5c0-6.844,4.292-12.818,11.02-12.818c1.74,0,3.19,0.464,4.292,0.986
		c1.16,0.638,2.204,1.102,3.48,1.102c0.87,0,1.682-0.986,1.682-1.856h1.856v15.195h-3.886c-0.406-7.25-2.668-13.746-7.424-13.746
		c-4.408,0-5.22,3.77-5.22,7.482v7.829c-0.87-0.463-1.798-0.463-2.784,0c0.29,0.812,0.986,1.973,1.74,2.843
		c-0.522,2.378-0.87,5.567-1.044,9.512c-1.102-3.712-1.972-7.019-2.668-9.512c0.812-0.87,1.45-2.03,1.798-2.843
		c-1.102-0.463-2.03-0.463-2.842,0V100.5z M74.929,104.619c0.29-2.089,0.986-3.19,1.74-4.061c-0.986-2.32-0.986-4.698-0.522-7.83
		c-1.682,2.668-2.436,5.568-3.19,7.83c0.812,0.87,1.45,1.972,1.798,4.061H74.929z M88.327,104.502
		c-0.406-8.062-1.508-9.569-2.784-9.569c-1.45,0-1.508,1.624-1.508,4.234v16.181c0,1.508,0.812,2.9,2.204,2.9
		c1.45,0,2.03-1.566,2.03-3.77c0-1.45-1.102-2.088-2.088-2.088h-0.986v-6.381h4.408L88.327,104.502z"/>
	<path fill="#FFFFFF" d="M106.771,95.281c0-2.668-0.812-3.48-1.914-3.596l-1.856-0.348v-5.336h32.073l4.292,5.684v4.582l-1.798,0.29
		c-1.044,0.116-1.972,1.334-1.972,4.466v19.14l3.77,4.93v4.408h-15.195l-1.218-1.334v1.334h-16.24l-3.712-4.872v-5.336l2.262-0.348
		c1.102-0.232,1.508-1.856,1.508-3.886V95.281z M114.311,95.281c0-2.726,0.696-4.408,1.914-4.64l1.798-0.29v-3.306h-13.978v3.306
		l1.856,0.29c1.16,0.232,1.856,1.914,1.856,4.64v20.067c0,2.668-0.464,4.351-1.856,4.641l-1.856,0.29v3.306h14.036v-3.306
		l-1.856-0.29c-1.45-0.29-1.914-1.973-1.914-4.641v-7.945h9.512v7.945c0,2.668-0.464,4.351-1.972,4.641l-1.798,0.29v3.306h13.978
		v-3.306l-1.798-0.29c-1.45-0.29-1.914-1.973-1.914-4.641V95.281c0-2.726,0.696-4.408,1.914-4.64l1.798-0.29v-3.306h-13.978v3.306
		l1.798,0.29c1.276,0.232,1.972,1.914,1.972,4.64v7.018h-9.512V95.281z M133.044,88.031v1.276l-1.508,0.232
		c-1.45,0.232-2.262,2.378-2.262,5.742v9.395c-0.464-0.463-1.276-0.463-2.088,0c0.232,0.754,0.928,1.973,1.74,2.843
		c-0.812,1.913-1.508,4.581-1.914,9.512c-0.348-4.931-1.044-7.599-1.856-9.512c0.812-0.87,1.508-2.089,1.798-2.843
		c-1.334-0.463-2.668-0.463-4.002,0c-1.276-0.463-2.61-0.463-3.886,0c-1.334-0.463-2.668-0.463-3.944,0
		c-1.334-0.463-2.61-0.463-4.002,0c0.348,0.754,0.986,1.973,1.798,2.843c-0.812,1.913-1.45,4.581-1.856,9.512
		c-0.406-4.931-1.044-7.599-1.914-9.512c0.87-0.87,1.508-2.089,1.798-2.843c-0.87-0.463-1.682-0.463-2.146,0v-9.395
		c0-3.364-0.812-5.51-2.262-5.742l-1.508-0.232v-1.276h12.005v1.276l-1.508,0.232c-1.45,0.232-2.262,2.378-2.262,5.742v8.061h11.542
		v-8.061c0-3.364-0.754-5.51-2.262-5.742l-1.45-0.232v-1.276H133.044z M111.121,104.619c0.348-2.031,0.986-3.19,1.798-4.061
		c-0.812-1.392-1.45-3.48-1.856-7.83c-0.406,4.35-1.044,6.438-1.914,7.83c0.87,0.87,1.508,2.03,1.798,4.061H111.121z
		 M122.779,101.312v-5.046l-1.276,0.174c-1.392,0.174-1.914,1.45-1.914,4.292v0.58H122.779z M119.589,119.292l2.03-0.348
		c0.812-0.175,1.16-1.16,1.16-3.597v-2.088h-3.19V119.292z M127.187,104.619c0.232-2.031,0.928-3.19,1.74-4.061
		c-0.812-1.392-1.508-3.48-1.914-7.83c-0.348,4.35-1.044,6.438-1.856,7.83c0.812,0.87,1.508,2.03,1.798,4.061H127.187z"/>
	<path fill="#FFFFFF" d="M162.17,86.001l1.624,2.146l0.348-2.146h7.019l2.029,2.668v-2.668h13.224l4.292,5.684v4.582l-2.204,0.29
		c-1.334,0.232-2.668,1.45-3.073,3.828l-5.046,29.115h-6.438l-3.712-4.872l-0.928-4.118l-1.334,8.99h-6.67l-3.77-4.872
		l-6.729-29.985c-0.29-1.508-0.754-2.842-1.913-3.074l-2.146-0.232v-5.336H162.17z M174.233,87.045v3.306l1.798,0.29
		c1.683,0.232,1.74,1.45,1.219,4.118l-2.494,14.094l-4.582-21.808h-4.988l-3.248,21.691l-3.247-14.442
		c-0.58-2.494-0.639-3.479,0.579-3.654l1.856-0.29v-3.306h-13.34v3.306l1.798,0.29c1.218,0.174,1.972,1.856,2.437,3.828
		l6.554,29.115h4.697l3.307-21.866l4.64,21.866h4.698l4.697-26.563c0.696-3.944,1.334-6.148,2.958-6.38l1.798-0.29v-3.306H174.233z
		 M160.082,88.031v1.276l-1.392,0.232c-1.74,0.232-1.914,1.334-1.103,4.988l2.32,10.149c-0.754-0.463-1.45-0.463-2.204,0
		l2.436,2.843c-0.405,3.19-0.464,6.38-0.405,9.512c-1.044-3.132-2.03-6.321-3.538-9.512l1.334-2.843
		c-0.929-0.463-1.566-0.463-2.03,0l-2.146-9.511c-0.812-3.364-1.799-5.394-3.364-5.626l-1.218-0.232v-1.276H160.082z
		 M157.704,104.619c0-1.334,0.29-2.727,0.754-4.061c-1.392-2.61-2.552-5.22-3.422-7.83c0.174,2.61,0.116,5.22,0,7.83
		c0.986,1.334,1.855,2.727,2.494,4.061H157.704z M169.304,88.031l3.479,16.645c-0.754-0.463-1.508-0.463-2.262,0l2.437,2.843
		c-0.29,3.19-0.349,6.38-0.29,9.512c-1.219-3.132-2.146-6.321-3.597-9.512l1.219-2.843c-0.986-0.463-1.509-0.463-1.914,0
		c-0.349-1.797-1.16-4.639-1.798-4.639c-0.754,0-1.276,2.958-1.566,4.639c-0.29-0.463-0.928-0.463-1.334,0l2.437-16.645H169.304z
		 M170.521,104.444c0.059-1.334,0.232-2.726,0.754-4.06c-1.449-2.61-2.436-5.22-3.422-7.656c0.29,2.436,0.29,5.046,0.232,7.656
		c0.812,1.333,1.682,2.726,2.204,4.06H170.521z M184.384,88.031v1.276l-1.624,0.29c-1.103,0.174-2.146,1.218-2.842,5.568
		l-1.74,9.511c-0.464-0.463-1.103-0.463-1.624,0l1.74-9.511c0.638-3.828,0.115-5.22-1.509-5.51l-1.565-0.232v-1.392H184.384z"/>
	<path fill="#FFFFFF" d="M194.302,95.281c0-2.668-0.812-3.48-1.914-3.596l-1.855-0.348v-5.336h16.065l4.292,5.684v4.582l-1.798,0.29
		c-1.044,0.116-1.973,1.334-1.973,4.466v19.14l3.771,4.93v4.408h-16.646l-3.712-4.872v-5.336l2.262-0.348
		c1.102-0.232,1.508-1.856,1.508-3.886V95.281z M195.288,115.348c0,2.668-0.464,4.351-1.856,4.641l-1.855,0.29v3.306h14.035v-3.306
		l-1.855-0.29c-1.45-0.29-1.914-1.973-1.914-4.641V95.281c0-2.726,0.696-4.408,1.855-4.64l1.856-0.29v-3.306h-13.978v3.306
		l1.855,0.29c1.16,0.232,1.856,1.914,1.856,4.64V115.348z M200.798,104.676c-0.58-0.463-1.393-0.463-2.146,0
		c0.349,0.754,0.986,1.973,1.856,2.843c-0.87,1.913-1.508,4.581-1.914,9.512c-0.406-4.931-1.044-7.599-1.914-9.512
		c0.87-0.87,1.508-2.089,1.798-2.843c-0.812-0.463-1.565-0.463-2.146,0v-9.395c0-4.408-1.218-5.51-2.262-5.742l-1.509-0.232v-1.276
		h12.006v1.276l-1.508,0.232c-1.044,0.232-2.262,1.334-2.262,5.742V104.676z M198.651,104.619c0.349-2.031,0.986-3.19,1.856-4.061
		c-0.87-1.392-1.508-3.48-1.914-7.83c-0.406,4.35-1.044,6.438-1.914,7.83c0.87,0.87,1.508,2.03,1.798,4.061H198.651z"/>
	<path fill="#FFFFFF" d="M214.37,95.281c0-2.668-0.812-3.48-1.914-3.596l-1.855-0.348v-5.336h17.921
		c10.556,0,15.718,9.454,15.718,16.182c0,3.77-1.855,6.554-4.292,7.946h4.002l4.466,5.625v3.422c0,7.54-2.609,10.324-7.308,10.324
		c-3.248,0-6.786-2.146-8.874-6.612c-1.739-3.653-1.914-8.874-2.319-10.034h-2.727v6.786l4.002,4.931v4.93h-16.877l-3.712-4.872
		v-5.336l2.262-0.348c1.102-0.232,1.508-1.856,1.508-3.886V95.281z M227.362,107.692c2.668,0,3.596,3.653,3.943,7.018
		c0.812,7.076,2.494,9.28,6.67,9.28c3.422,0,5.626-2.088,5.626-10.15v-2.668h-3.364v2.668c0,1.276-0.231,3.19-1.102,3.19
		c-0.928,0-1.16-1.565-1.45-4.872c-0.29-3.189-1.044-5.395-3.016-6.844v-0.116c2.204-1.218,4.233-3.828,4.233-8.468
		c0-5.974-3.479-9.686-10.903-9.686h-16.355v3.306l1.855,0.29c1.16,0.232,1.856,1.914,1.856,4.64v20.067
		c0,2.668-0.464,4.351-1.856,4.641l-1.855,0.29v3.306h14.325v-3.306l-1.334-0.174c-2.088-0.232-2.726-2.089-2.726-4.757v-7.655
		H227.362z M227.941,88.031c6.032,0,9.977,2.146,9.977,8.7c0,4.176-1.74,6.67-4.176,7.945c-0.465-0.463-1.276-0.463-2.32,0
		c1.334,0.929,2.03,1.625,2.958,2.843c0.696,1.913,0.985,4.581,0.87,9.512c-0.754-5.046-2.727-7.83-4.641-9.512
		c0.522-0.929,0.755-1.856,0.58-2.843c-0.812-0.463-1.624-0.463-2.726,0c-1.044-0.463-2.146-0.463-3.19,0
		c-1.102-0.463-2.262-0.463-3.363,0c-1.103-0.463-2.146-0.463-3.248,0c0.29,0.754,1.044,1.973,1.855,2.843
		c-0.869,1.913-1.508,4.581-1.972,9.512c-0.406-4.931-1.044-7.599-1.798-9.512c0.754-0.87,1.392-2.089,1.682-2.843
		c-0.928-0.463-1.508-0.463-2.029,0v-9.395c0-4.408-1.218-5.51-2.262-5.742l-1.509-0.232v-1.276H227.941z M218.662,104.619
		c0.29-2.031,0.986-3.19,1.855-4.061c-0.869-1.392-1.565-3.48-1.972-7.83c-0.29,4.35-0.928,6.438-1.798,7.83
		c0.754,0.87,1.392,2.03,1.682,4.061H218.662z M223.94,91.104c-2.378,0-3.074,1.392-3.074,4.466v7.656h7.075
		c2.146,0,5.046-1.856,5.046-5.974c0-3.886-2.029-6.148-5.161-6.148H223.94z M228,92.091c1.914,0,3.943,1.508,3.943,5.162
		c0,3.132-2.029,4.93-3.943,4.93h-6.09v-6.612c0-2.784,0.754-3.48,1.972-3.48H228z M228.29,98.006c-0.638,0-1.103,0.638-1.103,1.798
		v1.45h0.986c0.986,0,2.378-1.102,2.378-2.204c0-0.58-0.464-1.044-0.928-1.044H228.29z M231.422,104.619
		c1.914-1.277,3.538-2.379,5.22-4.061c0-1.74-0.464-4.408-2.088-7.83c1.276,4.06-0.058,6.496-1.102,7.598
		c-0.175,1.508-1.16,3.248-2.263,4.292H231.422z"/>
	<path fill="#FFFFFF" d="M249.349,91.685l-1.855-0.348v-5.336h24.649l4.523,5.916v13.688h-6.09l-3.886-5.104v-2.03
		c0-1.218-0.29-1.914-1.218-1.914c-0.986,0-1.45,0.928-1.393,2.03l0.059,1.45l5.104,6.786v2.609h2.9l4.523,6.033V129.5h-25.461
		l-3.712-4.872v-5.336l2.262-0.348c1.102-0.232,1.508-1.856,1.508-3.886V95.281C251.263,92.613,250.451,91.801,249.349,91.685z
		 M264.545,106.358v-4.118h-5.742v-7.54c0-2.668,0.87-4.06,3.828-4.06c2.726,0,5.046,2.262,5.046,6.612v2.436h3.653V87.045h-22.793
		v3.306l1.855,0.29c1.16,0.232,1.856,1.914,1.856,4.64v20.067c0,2.668-0.464,4.408-1.856,4.641l-1.855,0.29v3.306h22.793v-13.107
		h-3.653v2.842c0,3.596-0.986,6.554-5.046,6.554c-2.958,0-3.828-1.683-3.828-4.002v-9.512H264.545z M270.345,88.031v10.672h-1.624
		v-1.45c0-6.032-3.48-7.598-6.09-7.598c-3.887,0-4.872,2.552-4.872,5.046v8.584h5.8v1.391c-1.334-0.463-2.842-0.405-4.002,0.059
		c-1.218-0.464-2.61-0.521-3.944-0.059c0.349,0.754,0.986,1.973,1.856,2.843c-0.87,1.913-1.508,4.581-1.914,9.512
		c-0.406-4.931-1.044-7.599-1.914-9.512c0.87-0.87,1.508-2.089,1.798-2.843c-0.812-0.463-1.624-0.463-2.146,0v-9.395
		c0-4.408-1.218-5.51-2.262-5.742l-1.509-0.232v-1.276H270.345z M255.612,104.619c0.349-2.031,0.986-3.19,1.798-4.061
		c-0.812-1.392-1.449-3.48-1.855-7.83c-0.406,4.35-1.044,6.438-1.914,7.83c0.87,0.87,1.508,2.03,1.798,4.061H255.612z
		 M264.08,116.219c0,0.928,0.232,1.797,0.812,1.797c0.696,0,1.798-1.392,1.798-4.813v-0.928h-2.61V116.219z"/>
</g>
</svg>
