<?xml version="1.0" encoding="utf-8"?>
<!-- Generator: Adobe Illustrator 15.0.0, SVG Export Plug-In . SVG Version: 6.00 Build 0)  -->
<!DOCTYPE svg PUBLIC "-//W3C//DTD SVG 1.1//EN" "http://www.w3.org/Graphics/SVG/1.1/DTD/svg11.dtd">
<svg version="1.1" id="Layer_1" xmlns="http://www.w3.org/2000/svg" xmlns:xlink="http://www.w3.org/1999/xlink" x="0px" y="0px"
	 width="288px" height="205px" viewBox="0 0 288 205" enable-background="new 0 0 288 205" xml:space="preserve">
<g>
	<path fill="#FFFFFF" d="M73.034,64.683h9.152v16.401l12.916-16.401h10.872L89.362,85.916l18.229,26.343H96.852L82.186,91.12v21.139
		h-9.152V64.683z"/>
	<path fill="#FFFFFF" d="M120.313,64.683h8.824l11.029,33.185l11.13-33.185h8.816l7.98,47.576h-8.756l-5.104-30.047l-10.107,30.047
		h-7.98l-10.018-30.047l-5.224,30.047h-8.829L120.313,64.683z"/>
	<path fill="#FFFFFF" d="M176.994,64.683h10.729c6.914,0,12.053,0.858,15.414,2.572c3.359,1.714,6.127,4.5,8.303,8.361
		c2.178,3.859,3.266,8.364,3.266,13.519c0,3.666-0.609,7.033-1.826,10.107c-1.217,3.072-2.896,5.621-5.041,7.648
		c-2.143,2.027-4.465,3.429-6.965,4.205c-2.498,0.776-6.828,1.164-12.988,1.164h-10.891V64.683L176.994,64.683z M185.984,73.416
		v30.013h4.205c4.139,0,7.143-0.474,9.008-1.424c1.865-0.949,3.391-2.547,4.576-4.792c1.188-2.245,1.779-5.007,1.779-8.289
		c0-5.05-1.412-8.967-4.236-11.752c-2.547-2.504-6.631-3.755-12.258-3.755L185.984,73.416L185.984,73.416z"/>
</g>
<g>
	<path fill="#FFFFFF" d="M89.033,136.855h-3.206l-0.314-0.22l-1.187-3.151h-6.151l-1.232,3.157l-0.314,0.214h-3.205l-0.314-0.461
		l6.25-16.369l0.313-0.219h3.128l0.314,0.219l6.232,16.369L89.033,136.855z M86.059,136.176h2.483l-5.975-15.689h-2.667
		l-5.988,15.689h2.486l1.233-3.156l0.314-0.215h6.612l0.314,0.219L86.059,136.176z M83.416,130.446H79.08l-0.313-0.463l2.175-5.621
		l0.628,0.002l2.161,5.619L83.416,130.446z M79.574,129.767h3.35l-1.671-4.343L79.574,129.767z"/>
	<path fill="#FFFFFF" d="M103.454,136.855h-3.372l-0.298-0.181l-3.291-6.262v6.103l-0.337,0.343h-3.085l-0.337-0.343v-16.368
		l0.337-0.341h3.268c1.853,0,3.146,0.167,3.954,0.511c0.822,0.349,1.49,0.936,1.987,1.741c0.495,0.802,0.745,1.757,0.745,2.84
		c0,1.143-0.278,2.116-0.828,2.896c-0.486,0.69-1.194,1.234-2.107,1.624l3.661,6.939L103.454,136.855z M100.284,136.176h2.608
		l-3.574-6.778l0.183-0.479c0.958-0.346,1.679-0.856,2.146-1.518c0.467-0.663,0.703-1.503,0.703-2.501
		c0-0.954-0.216-1.789-0.642-2.48c-0.424-0.684-0.987-1.18-1.678-1.474c-0.714-0.305-1.956-0.457-3.693-0.457h-2.932v15.688h2.411
		v-6.593l0.338-0.34h0.281l0.299,0.181L100.284,136.176z M97.122,126.886h-0.967l-0.338-0.34v-3.361l0.338-0.34H97
		c0.868,0,1.46,0.062,1.809,0.193c0.371,0.14,0.672,0.374,0.895,0.694c0.223,0.321,0.335,0.7,0.335,1.127
		c0,0.719-0.233,1.247-0.697,1.574C98.909,126.737,98.183,126.886,97.122,126.886z M96.492,126.206h0.63
		c1.129,0,1.621-0.18,1.834-0.33c0.276-0.193,0.409-0.527,0.409-1.017c0-0.287-0.069-0.528-0.213-0.736
		c-0.144-0.209-0.333-0.354-0.577-0.446c-0.185-0.069-0.607-0.152-1.573-0.152h-0.509L96.492,126.206L96.492,126.206z"/>
	<path fill="#FFFFFF" d="M115.181,137.269c-2.601,0-4.761-0.848-6.424-2.521c-1.663-1.672-2.506-3.84-2.506-6.445
		c0-1.685,0.385-3.206,1.142-4.522c0.758-1.315,1.856-2.387,3.266-3.186c1.407-0.797,2.943-1.201,4.566-1.201
		c1.379,0,2.726,0.299,4,0.889c1.277,0.587,2.393,1.437,3.316,2.521l-0.022,0.466l-2.158,2.079l-0.477-0.013
		c-1.396-1.489-2.979-2.244-4.708-2.244c-1.47,0-2.672,0.491-3.676,1.504c-1.003,1.014-1.491,2.227-1.491,3.716
		c0,1.025,0.223,1.949,0.662,2.739c0.437,0.787,1.063,1.414,1.861,1.863c0.805,0.451,1.712,0.682,2.699,0.682
		c0.842,0,1.622-0.16,2.315-0.479c0.7-0.318,1.49-0.915,2.345-1.774l0.48,0.007l2.091,2.205l-0.009,0.479
		c-1.221,1.203-2.397,2.054-3.496,2.523C117.857,137.03,116.585,137.269,115.181,137.269z M115.225,120.074
		c-1.506,0-2.932,0.375-4.236,1.115c-1.303,0.737-2.317,1.726-3.014,2.934c-0.697,1.21-1.051,2.616-1.051,4.18
		c0,2.418,0.777,4.423,2.309,5.963c1.532,1.542,3.532,2.321,5.947,2.321c1.313,0,2.497-0.22,3.516-0.658
		c0.95-0.407,1.975-1.131,3.049-2.15l-1.624-1.712c-0.82,0.788-1.592,1.35-2.297,1.673c-0.782,0.354-1.654,0.535-2.593,0.535
		c-1.103,0-2.12-0.258-3.025-0.767c-0.91-0.513-1.624-1.227-2.122-2.125c-0.497-0.895-0.748-1.929-0.748-3.073
		c0-1.653,0.569-3.065,1.689-4.195c1.12-1.131,2.518-1.704,4.151-1.704c1.823,0,3.491,0.745,4.961,2.213l1.681-1.62
		c-0.816-0.895-1.782-1.602-2.872-2.104C117.759,120.353,116.507,120.074,115.225,120.074z"/>
	<path fill="#FFFFFF" d="M138.075,136.855h-3.117l-0.338-0.34v-6.838h-4.735v6.838l-0.337,0.34h-3.129l-0.336-0.34v-16.369
		l0.336-0.34h3.129l0.337,0.34v5.836h4.735v-5.836l0.338-0.34h3.117l0.337,0.34v16.369L138.075,136.855z M135.293,136.176h2.444
		v-15.689h-2.444v5.836l-0.336,0.34h-5.41l-0.337-0.34v-5.836h-2.455v15.689h2.455v-6.836l0.337-0.34h5.41l0.336,0.34V136.176z"/>
	<path fill="#FFFFFF" d="M146.062,136.855H143l-0.337-0.34v-16.369l0.337-0.34h3.063l0.336,0.34v16.369L146.062,136.855z
		 M143.336,136.176h2.39v-15.689h-2.39V136.176z"/>
	<path fill="#FFFFFF" d="M155.383,136.855h-3.129l-0.336-0.34v-12.958h-2.541l-0.334-0.34v-3.071l0.334-0.34h8.959l0.336,0.34v3.071
		l-0.336,0.34h-2.617v12.958L155.383,136.855z M152.594,136.176h2.453v-12.957l0.338-0.341H158v-2.392h-8.283v2.392h2.537
		l0.34,0.341V136.176L152.594,136.176z"/>
	<path fill="#FFFFFF" d="M170.752,136.855h-8.848l-0.336-0.34v-16.369l0.336-0.34h8.848l0.338,0.34v3.05l-0.338,0.341h-5.447v2.278
		h5.447l0.338,0.34v2.994l-0.338,0.341h-5.447v3.625h5.447l0.338,0.34v3.061L170.752,136.855z M162.242,136.176h8.172v-2.38h-5.445
		l-0.336-0.341v-4.306l0.336-0.341h5.445v-2.313h-5.445l-0.336-0.34v-2.961l0.336-0.342h5.445v-2.367h-8.172V136.176z"/>
	<path fill="#FFFFFF" d="M182.859,137.269c-2.6,0-4.76-0.848-6.424-2.521c-1.662-1.672-2.506-3.84-2.506-6.445
		c0-1.685,0.385-3.206,1.143-4.522c0.758-1.315,1.857-2.387,3.266-3.186c1.406-0.797,2.943-1.201,4.566-1.201
		c1.379,0,2.725,0.299,4,0.889c1.277,0.587,2.391,1.437,3.316,2.521l-0.021,0.466l-2.158,2.079l-0.479-0.013
		c-1.395-1.489-2.979-2.244-4.707-2.244c-1.471,0-2.672,0.491-3.676,1.504c-1.004,1.014-1.492,2.227-1.492,3.716
		c0,1.025,0.225,1.949,0.662,2.739c0.436,0.787,1.062,1.414,1.863,1.863c0.803,0.451,1.711,0.682,2.699,0.682
		c0.842,0,1.621-0.16,2.314-0.479c0.699-0.318,1.49-0.915,2.346-1.774l0.479,0.007l2.092,2.205l-0.008,0.479
		c-1.223,1.203-2.398,2.054-3.498,2.523C185.537,137.03,184.262,137.269,182.859,137.269z M182.904,120.074
		c-1.506,0-2.932,0.375-4.236,1.115c-1.303,0.737-2.316,1.726-3.012,2.934c-0.699,1.21-1.053,2.617-1.053,4.18
		c0,2.418,0.777,4.423,2.309,5.963c1.531,1.542,3.533,2.321,5.947,2.321c1.312,0,2.496-0.22,3.514-0.658
		c0.951-0.407,1.977-1.131,3.051-2.15l-1.625-1.712c-0.82,0.788-1.592,1.35-2.297,1.673c-0.781,0.354-1.654,0.535-2.592,0.535
		c-1.104,0-2.121-0.258-3.025-0.767c-0.912-0.513-1.625-1.227-2.123-2.125c-0.496-0.895-0.746-1.929-0.746-3.073
		c0-1.653,0.568-3.065,1.686-4.195c1.125-1.131,2.52-1.704,4.154-1.704c1.822,0,3.49,0.745,4.959,2.213l1.682-1.62
		c-0.814-0.895-1.781-1.602-2.871-2.104C185.438,120.353,184.186,120.074,182.904,120.074z"/>
	<path fill="#FFFFFF" d="M198.516,136.855h-3.129l-0.338-0.34v-12.958h-2.537l-0.338-0.34v-3.071l0.338-0.34h8.955l0.338,0.34v3.071
		l-0.338,0.34h-2.615v12.958L198.516,136.855z M195.723,136.176h2.455v-12.957l0.338-0.341h2.615v-2.392h-8.281v2.392h2.537
		l0.336,0.341V136.176L195.723,136.176z"/>
	<path fill="#FFFFFF" d="M208.844,137.269c-1.215,0-2.293-0.309-3.201-0.915c-0.902-0.601-1.684-1.549-2.316-2.822l0.127-0.445
		l2.594-1.579l0.469,0.128c0.711,1.322,1.518,1.992,2.398,1.992c0.449,0,0.814-0.126,1.113-0.386
		c0.283-0.247,0.424-0.514,0.424-0.82c0-0.3-0.111-0.596-0.342-0.911c-0.256-0.346-0.842-0.898-1.74-1.643
		c-1.809-1.488-2.949-2.615-3.49-3.442c-0.549-0.843-0.828-1.702-0.828-2.551c0-1.228,0.469-2.293,1.391-3.171
		c0.916-0.869,2.062-1.31,3.402-1.31c0.859,0,1.688,0.204,2.463,0.605c0.77,0.396,1.602,1.119,2.482,2.151l-0.033,0.478
		l-2.285,2.035l-0.496-0.057c-0.732-1.029-1.465-1.551-2.178-1.551c-0.326,0-0.58,0.081-0.777,0.25
		c-0.178,0.149-0.266,0.309-0.266,0.479c0,0.201,0.068,0.388,0.207,0.572c0.158,0.207,0.674,0.733,2.213,2.051
		c1.193,1.009,1.902,1.632,2.164,1.901c0.648,0.663,1.117,1.312,1.395,1.927c0.281,0.625,0.424,1.315,0.424,2.049
		c0,1.434-0.5,2.638-1.486,3.576C211.691,136.796,210.404,137.269,208.844,137.269z M204.072,133.503
		c0.553,1.024,1.205,1.793,1.941,2.283c0.797,0.533,1.75,0.802,2.83,0.802c1.381,0,2.514-0.412,3.365-1.221
		c0.855-0.815,1.271-1.823,1.271-3.079c0-0.639-0.121-1.232-0.361-1.769c-0.244-0.542-0.666-1.125-1.264-1.73
		c-0.242-0.255-0.953-0.878-2.115-1.86c-1.289-1.103-2.047-1.808-2.312-2.155c-0.232-0.307-0.346-0.639-0.346-0.987
		c0-0.378,0.17-0.716,0.504-1.001c0.32-0.271,0.727-0.407,1.211-0.407c0.861,0,1.701,0.515,2.5,1.534l1.76-1.57
		c-0.738-0.827-1.428-1.41-2.055-1.734c-0.68-0.353-1.406-0.533-2.158-0.533c-1.18,0-2.141,0.369-2.941,1.127
		c-0.791,0.753-1.178,1.627-1.178,2.676c0,0.714,0.242,1.446,0.717,2.177c0.492,0.758,1.623,1.863,3.354,3.288
		c0.957,0.79,1.564,1.367,1.855,1.764c0.314,0.43,0.477,0.872,0.477,1.316c0,0.51-0.225,0.96-0.66,1.337
		c-0.422,0.364-0.943,0.549-1.553,0.549c-1.066,0-2.012-0.686-2.814-2.037L204.072,133.503z"/>
</g>
<rect x="72.609" y="116.133" fill="#FFFFFF" width="141.985" height="0.705"/>
</svg>
