<?xml version="1.0" encoding="utf-8"?>
<!-- Generator: Adobe Illustrator 15.0.0, SVG Export Plug-In . SVG Version: 6.00 Build 0)  -->
<!DOCTYPE svg PUBLIC "-//W3C//DTD SVG 1.1//EN" "http://www.w3.org/Graphics/SVG/1.1/DTD/svg11.dtd">
<svg version="1.1" id="Layer_1" xmlns="http://www.w3.org/2000/svg" xmlns:xlink="http://www.w3.org/1999/xlink" x="0px" y="0px"
	 width="288px" height="205px" viewBox="0 0 288 205" enable-background="new 0 0 288 205" xml:space="preserve">
<g>
	<path fill="#FFFFFF" d="M35.79,45.544H49.77v25.051l19.726-25.051h16.607l-25.374,32.43l27.843,40.235H72.17l-22.4-32.286v32.286
		H35.79V45.544z"/>
	<path fill="#FFFFFF" d="M108.003,45.544h13.477l16.845,50.683l16.998-50.683h13.468l12.189,72.665h-13.374l-7.793-45.892
		l-15.437,45.892h-12.189l-15.301-45.892l-7.978,45.892H95.423L108.003,45.544z"/>
	<path fill="#FFFFFF" d="M194.574,45.544h16.387c10.562,0,18.408,1.31,23.541,3.928s9.361,6.874,12.684,12.77
		c3.324,5.895,4.986,12.777,4.986,20.648c0,5.599-0.93,10.743-2.789,15.437c-1.858,4.692-4.425,8.587-7.699,11.683
		c-3.273,3.096-6.818,5.236-10.636,6.422s-10.43,1.778-19.84,1.778h-16.634V45.544z M208.307,58.882v45.841h6.422
		c6.323,0,10.908-0.724,13.757-2.176c2.849-1.45,5.179-3.89,6.991-7.318c1.811-3.429,2.716-7.648,2.716-12.66
		c0-7.714-2.156-13.697-6.471-17.95c-3.887-3.824-10.127-5.736-18.722-5.736H208.307z"/>
</g>
<g>
	<path fill="#FFFFFF" d="M60.226,155.778h-4.896l-0.48-0.336l-1.812-4.813h-9.395l-1.884,4.821l-0.479,0.328h-4.896l-0.48-0.706
		l9.545-25.002l0.479-0.333h4.778l0.48,0.333l9.52,25.002L60.226,155.778z M55.684,154.738h3.793l-9.124-23.962H46.28l-9.147,23.962
		h3.797l1.885-4.821l0.479-0.328h10.1l0.481,0.335L55.684,154.738z M51.648,145.988h-6.623l-0.479-0.708l3.322-8.584l0.958,0.001
		l3.301,8.583L51.648,145.988z M45.779,144.95h5.116l-2.551-6.634L45.779,144.95z"/>
	<path fill="#FFFFFF" d="M82.252,155.778h-5.15l-0.454-0.277l-5.028-9.564v9.322l-0.514,0.52h-4.712l-0.514-0.52v-25.001
		l0.514-0.521h4.991c2.83,0,4.806,0.255,6.04,0.781c1.254,0.531,2.275,1.427,3.035,2.658c0.755,1.225,1.137,2.684,1.137,4.338
		c0,1.745-0.425,3.233-1.265,4.423c-0.742,1.053-1.823,1.885-3.218,2.479l5.592,10.599L82.252,155.778z M77.41,154.738h3.985
		l-5.46-10.351l0.28-0.733c1.462-0.528,2.564-1.309,3.278-2.319c0.713-1.012,1.074-2.296,1.074-3.82c0-1.457-0.33-2.732-0.981-3.788
		c-0.646-1.046-1.507-1.803-2.561-2.251c-1.091-0.464-2.988-0.699-5.642-0.699h-4.477v23.962h3.682V144.67l0.516-0.52h0.43
		l0.456,0.276L77.41,154.738z M72.581,140.549h-1.476l-0.516-0.519v-5.134l0.516-0.519h1.291c1.326,0,2.23,0.096,2.763,0.297
		c0.566,0.212,1.026,0.569,1.366,1.059c0.34,0.491,0.512,1.069,0.512,1.722c0,1.096-0.358,1.904-1.066,2.405
		C75.311,140.323,74.202,140.549,72.581,140.549z M71.619,139.511h0.962c1.724,0,2.476-0.274,2.801-0.504
		c0.422-0.297,0.626-0.805,0.626-1.552c0-0.439-0.106-0.809-0.325-1.126c-0.221-0.318-0.509-0.54-0.882-0.68
		c-0.282-0.106-0.928-0.233-2.404-0.233h-0.777V139.511z"/>
	<path fill="#FFFFFF" d="M100.164,156.407c-3.971,0-7.271-1.294-9.811-3.849c-2.54-2.554-3.827-5.865-3.827-9.844
		c0-2.574,0.587-4.897,1.744-6.907c1.157-2.009,2.835-3.646,4.988-4.865c2.148-1.217,4.495-1.834,6.974-1.834
		c2.105,0,4.162,0.455,6.11,1.354c1.949,0.898,3.653,2.194,5.064,3.852l-0.034,0.713l-3.296,3.174l-0.729-0.02
		c-2.13-2.274-4.55-3.427-7.19-3.427c-2.244,0-4.08,0.751-5.614,2.297c-1.532,1.548-2.278,3.402-2.278,5.675
		c0,1.568,0.34,2.978,1.011,4.186c0.667,1.201,1.624,2.159,2.844,2.845c1.229,0.69,2.614,1.041,4.121,1.041
		c1.287,0,2.478-0.245,3.537-0.729c1.07-0.489,2.276-1.4,3.582-2.711l0.734,0.009l3.193,3.367l-0.013,0.732
		c-1.865,1.837-3.662,3.135-5.34,3.854C104.252,156.043,102.31,156.407,100.164,156.407z M100.232,130.146
		c-2.3,0-4.478,0.573-6.471,1.701c-1.99,1.128-3.539,2.638-4.603,4.483c-1.064,1.848-1.604,3.995-1.604,6.384
		c0,3.692,1.186,6.756,3.525,9.107c2.34,2.354,5.396,3.546,9.084,3.546c2.007,0,3.813-0.337,5.369-1.005
		c1.452-0.622,3.017-1.727,4.657-3.285l-2.48-2.615c-1.253,1.204-2.432,2.062-3.509,2.553c-1.193,0.544-2.525,0.819-3.96,0.819
		c-1.683,0-3.238-0.395-4.621-1.172c-1.39-0.781-2.48-1.872-3.241-3.245c-0.758-1.364-1.142-2.944-1.142-4.692
		c0-2.527,0.869-4.683,2.58-6.409c1.712-1.727,3.845-2.603,6.341-2.603c2.785,0,5.332,1.138,7.577,3.38l2.567-2.474
		c-1.247-1.365-2.722-2.446-4.387-3.213C104.103,130.572,102.19,130.146,100.232,130.146z"/>
	<path fill="#FFFFFF" d="M135.131,155.778h-4.762l-0.515-0.52v-10.444h-7.233v10.444l-0.514,0.52h-4.779l-0.514-0.52v-25.001
		l0.514-0.521h4.779l0.514,0.521v8.913h7.233v-8.913l0.515-0.521h4.762l0.514,0.521v25.001L135.131,155.778z M130.883,154.738h3.733
		v-23.962h-3.733v8.914l-0.514,0.519h-8.262l-0.515-0.519v-8.914h-3.749v23.962h3.749v-10.441l0.515-0.52h8.262l0.514,0.52V154.738z
		"/>
	<path fill="#FFFFFF" d="M147.331,155.778h-4.679l-0.514-0.52v-25.001l0.514-0.521h4.679l0.513,0.521v25.001L147.331,155.778z
		 M143.168,154.738h3.648v-23.962h-3.648V154.738z"/>
	<path fill="#FFFFFF" d="M161.567,155.778h-4.78l-0.513-0.52v-19.791h-3.879l-0.514-0.52v-4.69l0.514-0.521h13.682l0.514,0.521v4.69
		l-0.514,0.52h-3.997v19.791L161.567,155.778z M157.304,154.738h3.749v-19.79l0.515-0.52h3.995v-3.652h-12.651v3.652h3.876
		l0.517,0.52V154.738z"/>
	<path fill="#FFFFFF" d="M185.04,155.778h-13.512l-0.514-0.52v-25.001l0.514-0.521h13.512l0.515,0.521v4.656l-0.515,0.52h-8.319
		v3.482h8.319l0.515,0.519v4.572l-0.515,0.521h-8.319v5.537h8.319l0.515,0.52v4.675L185.04,155.778z M172.043,154.738h12.482v-3.634
		h-8.318l-0.514-0.521v-6.577l0.514-0.519h8.318v-3.534h-8.318l-0.514-0.52v-4.521l0.514-0.521h8.318v-3.617h-12.482V154.738z"/>
	<path fill="#FFFFFF" d="M203.533,156.407c-3.972,0-7.271-1.294-9.812-3.849c-2.539-2.554-3.826-5.865-3.826-9.844
		c0-2.573,0.587-4.897,1.744-6.907c1.157-2.009,2.835-3.646,4.988-4.865c2.149-1.217,4.496-1.834,6.974-1.834
		c2.106,0,4.162,0.455,6.11,1.354c1.95,0.898,3.653,2.194,5.065,3.852l-0.034,0.713l-3.297,3.174l-0.728-0.02
		c-2.131-2.274-4.551-3.427-7.191-3.427c-2.244,0-4.081,0.751-5.613,2.297c-1.534,1.548-2.278,3.402-2.278,5.675
		c0,1.568,0.34,2.978,1.01,4.186c0.666,1.201,1.625,2.159,2.847,2.845c1.226,0.69,2.612,1.041,4.119,1.041
		c1.287,0,2.477-0.245,3.537-0.729c1.07-0.489,2.276-1.4,3.582-2.711l0.733,0.009l3.194,3.367l-0.013,0.732
		c-1.867,1.837-3.662,3.135-5.342,3.854C207.621,156.043,205.677,156.407,203.533,156.407z M203.601,130.146
		c-2.299,0-4.476,0.573-6.47,1.701c-1.99,1.128-3.539,2.638-4.602,4.483c-1.066,1.848-1.606,3.997-1.606,6.384
		c0,3.692,1.187,6.756,3.525,9.107c2.341,2.354,5.396,3.546,9.085,3.546c2.005,0,3.812-0.337,5.367-1.005
		c1.452-0.622,3.018-1.727,4.657-3.285l-2.479-2.615c-1.254,1.204-2.432,2.062-3.509,2.553c-1.192,0.544-2.525,0.819-3.959,0.819
		c-1.684,0-3.238-0.395-4.622-1.172c-1.391-0.781-2.479-1.872-3.241-3.245c-0.758-1.364-1.14-2.944-1.14-4.692
		c0-2.527,0.867-4.683,2.577-6.409c1.714-1.727,3.846-2.603,6.342-2.603c2.784,0,5.331,1.138,7.577,3.38l2.567-2.474
		c-1.247-1.365-2.722-2.446-4.387-3.213C207.471,130.572,205.558,130.146,203.601,130.146z"/>
	<path fill="#FFFFFF" d="M227.445,155.778h-4.78l-0.515-0.52v-19.791h-3.876l-0.515-0.52v-4.69l0.515-0.521h13.679l0.515,0.521v4.69
		l-0.515,0.52h-3.995v19.791L227.445,155.778z M223.179,154.738h3.751v-19.79l0.516-0.52h3.993v-3.652h-12.649v3.652h3.876
		l0.514,0.52V154.738z"/>
	<path fill="#FFFFFF" d="M243.22,156.407c-1.855,0-3.501-0.469-4.889-1.396c-1.378-0.918-2.569-2.369-3.538-4.312l0.194-0.68
		l3.96-2.412l0.717,0.196c1.088,2.018,2.321,3.042,3.662,3.042c0.688,0,1.245-0.191,1.702-0.588
		c0.434-0.377,0.646-0.787,0.646-1.254c0-0.457-0.17-0.911-0.521-1.391c-0.389-0.529-1.284-1.373-2.658-2.508
		c-2.762-2.274-4.506-3.995-5.33-5.259c-0.839-1.287-1.264-2.598-1.264-3.896c0-1.874,0.714-3.503,2.124-4.841
		c1.399-1.329,3.148-2.002,5.195-2.002c1.312,0,2.578,0.312,3.763,0.925c1.174,0.605,2.447,1.71,3.788,3.285l-0.049,0.729
		l-3.491,3.109l-0.758-0.086c-1.118-1.572-2.235-2.368-3.325-2.368c-0.498,0-0.886,0.123-1.186,0.38
		c-0.271,0.231-0.406,0.473-0.406,0.733c0,0.307,0.102,0.592,0.316,0.875c0.242,0.317,1.029,1.121,3.378,3.131
		c1.825,1.542,2.908,2.494,3.307,2.906c0.989,1.011,1.707,2.001,2.13,2.942c0.429,0.954,0.645,2.008,0.645,3.131
		c0,2.188-0.764,4.026-2.267,5.46C247.569,155.685,245.603,156.407,243.22,156.407z M235.932,150.657
		c0.845,1.564,1.839,2.738,2.965,3.488c1.218,0.812,2.673,1.223,4.323,1.223c2.111,0,3.84-0.628,5.139-1.864
		c1.309-1.245,1.944-2.785,1.944-4.703c0-0.975-0.187-1.884-0.554-2.701c-0.371-0.828-1.019-1.719-1.928-2.645
		c-0.371-0.386-1.458-1.339-3.233-2.84c-1.969-1.684-3.125-2.761-3.531-3.293c-0.353-0.468-0.529-0.975-0.529-1.507
		c0-0.577,0.259-1.093,0.771-1.529c0.488-0.413,1.112-0.622,1.85-0.622c1.315,0,2.599,0.786,3.818,2.343l2.688-2.397
		c-1.127-1.265-2.182-2.155-3.14-2.651c-1.039-0.537-2.147-0.812-3.295-0.812c-1.801,0-3.27,0.563-4.491,1.721
		c-1.212,1.149-1.801,2.484-1.801,4.084c0,1.092,0.369,2.211,1.096,3.326c0.754,1.157,2.478,2.847,5.12,5.023
		c1.463,1.205,2.391,2.087,2.837,2.694c0.479,0.656,0.724,1.332,0.724,2.01c0,0.779-0.341,1.466-1.005,2.042
		c-0.646,0.557-1.443,0.839-2.373,0.839c-1.628,0-3.073-1.048-4.299-3.113L235.932,150.657z"/>
</g>
<rect x="35.141" y="124.126" fill="#FFFFFF" width="216.862" height="1.075"/>
</svg>
