<?xml version="1.0" encoding="utf-8"?>
<!-- Generator: Adobe Illustrator 15.0.0, SVG Export Plug-In . SVG Version: 6.00 Build 0)  -->
<!DOCTYPE svg PUBLIC "-//W3C//DTD SVG 1.1//EN" "http://www.w3.org/Graphics/SVG/1.1/DTD/svg11.dtd">
<svg version="1.1" id="Layer_1" xmlns="http://www.w3.org/2000/svg" xmlns:xlink="http://www.w3.org/1999/xlink" x="0px" y="0px"
	 width="288px" height="205px" viewBox="0 0 288 205" enable-background="new 0 0 288 205" xml:space="preserve">
<g>
	<path fill="#FFFFFF" d="M15.285,78.032h25.768c-0.001,8.59,0,17.179-0.001,25.769c-8.588,0-17.177,0-25.767,0V78.032L15.285,78.032
		z"/>
	<path fill="#FFFFFF" d="M43.684,78.032h25.768c0,8.59,0.002,17.179-0.001,25.769c-8.588-0.001-17.178,0-25.766,0
		C43.682,95.211,43.684,86.622,43.684,78.032L43.684,78.032z"/>
	<path fill="#FFFFFF" d="M247.652,87.852c2.377-1.547,5.445-1.691,8.123-0.954c0.023,1.591,0.002,3.184,0.01,4.776
		c-1.271-0.561-2.768-0.926-4.107-0.377c-1.061,0.422-1.691,1.512-1.857,2.601c-0.199,1.382-0.07,2.783-0.105,4.172
		c2.719,0.006,5.438,0.003,8.154,0.004c0.02-1.764-0.021-3.53,0.023-5.295c1.848-0.525,3.676-1.116,5.514-1.67
		c0.016,2.325-0.021,4.65,0.02,6.977c1.838-0.025,3.676-0.006,5.516-0.012v4.524c-1.846-0.075-3.691-0.02-5.537-0.025
		c0.008,2.602,0.002,5.203,0.004,7.806c0.029,1.441-0.078,2.89,0.092,4.326c0.102,0.847,0.408,1.784,1.203,2.222
		c1.328,0.745,3.016,0.42,4.238-0.397v4.569c-1.594,0.692-3.373,0.903-5.096,0.781c-1.635-0.121-3.328-0.716-4.395-2.016
		c-1.23-1.468-1.549-3.456-1.572-5.317c-0.014-3.992,0-7.985-0.008-11.979c-2.719-0.002-5.438-0.003-8.156,0.001
		c-0.002,6.267,0,12.533,0,18.8c-1.857,0-3.717,0-5.572,0c0-6.266-0.01-12.528,0.002-18.794c-1.291-0.024-2.586,0.007-3.879-0.02
		c0.006-1.488,0.012-2.977-0.002-4.466c1.285-0.028,2.572-0.016,3.863-0.007c0.092-1.979-0.209-4.014,0.383-5.94
		C245.01,90.401,246.121,88.832,247.652,87.852L247.652,87.852z"/>
	<path fill="#FFFFFF" d="M128.334,88.176c1.123-0.17,2.34,0.214,3.084,1.093c0.873,0.963,1.033,2.495,0.387,3.62
		c-0.715,1.269-2.315,1.858-3.709,1.554c-1.447-0.26-2.652-1.604-2.588-3.104C125.466,89.759,126.787,88.353,128.334,88.176
		L128.334,88.176z"/>
	<path fill="#FFFFFF" d="M85.625,88.867c2.702,0,5.402,0,8.104,0c2.522,6.404,5.064,12.805,7.59,19.209
		c0.646,1.603,1.249,3.224,1.925,4.812c3.246-8.005,6.537-15.988,9.758-24.003c2.6-0.042,5.199-0.01,7.799-0.017
		c-0.006,10.832-0.003,21.663-0.001,32.495c-1.876-0.005-3.75,0.017-5.624-0.01c0.02-7.993-0.002-15.987,0.009-23.982
		c0.003-0.358-0.009-0.718-0.034-1.076c-0.11,0.166-0.207,0.339-0.293,0.519c-3.22,8.183-6.502,16.342-9.705,24.531
		c-1.334,0.049-2.669,0.004-4.005,0.025c-3.323-8.183-6.604-16.384-9.909-24.572c-0.087-0.17-0.18-0.336-0.28-0.494
		c-0.068,3.502-0.011,7.008-0.029,10.51c0.001,4.851-0.003,9.701,0.001,14.55c-1.769,0.005-3.538,0-5.305,0.003
		C85.623,110.532,85.622,99.7,85.625,88.867L85.625,88.867z"/>
	<path fill="#FFFFFF" d="M143.671,98.051c2.69-0.766,5.588-0.733,8.278,0.024c0.555,0.156,1.092,0.37,1.59,0.663
		c-0.031,1.776,0,3.553-0.018,5.329c-1.797-1.373-4.076-2.243-6.359-1.955c-1.814,0.164-3.545,1.105-4.629,2.57
		c-1.396,1.817-1.717,4.23-1.477,6.453c0.179,1.739,0.898,3.478,2.251,4.63c1.405,1.249,3.375,1.692,5.214,1.553
		c1.816-0.21,3.531-0.979,5-2.053c0.016,1.683-0.008,3.364,0.012,5.047c-2.277,1.355-5.01,1.706-7.617,1.577
		c-2.667-0.142-5.328-1.151-7.259-3.027c-2.099-2.022-3.237-4.908-3.372-7.797c-0.136-3.004,0.476-6.139,2.203-8.646
		C138.937,100.279,141.203,98.763,143.671,98.051L143.671,98.051z"/>
	<path fill="#FFFFFF" d="M204.547,97.697c2.576-0.453,5.273-0.121,7.713,0.803c0.004,1.709,0,3.416,0.002,5.123
		c-1.703-1.172-3.785-1.801-5.854-1.729c-1.041,0.041-2.186,0.482-2.662,1.473c-0.377,0.979-0.115,2.264,0.809,2.852
		c1.58,1.056,3.465,1.505,5.102,2.452c1.289,0.724,2.541,1.671,3.193,3.037c1.227,2.556,0.707,5.935-1.449,7.841
		c-2.061,1.925-5.027,2.458-7.756,2.355c-1.938-0.126-3.885-0.508-5.666-1.3c0.008-1.798-0.012-3.592,0.01-5.388
		c1.498,1.089,3.227,1.867,5.055,2.183c1.275,0.207,2.66,0.216,3.848-0.353c1.135-0.565,1.34-2.18,0.664-3.167
		c-0.631-0.761-1.559-1.181-2.432-1.593c-1.643-0.737-3.369-1.355-4.811-2.462c-1.014-0.791-1.781-1.904-2.082-3.162
		c-0.445-1.853-0.307-3.939,0.771-5.56C200.232,99.217,202.369,98.085,204.547,97.697L204.547,97.697z"/>
	<path fill="#FFFFFF" d="M166,98.431c1.539-0.924,3.492-1.001,5.172-0.437c-0.008,1.859,0,3.717-0.004,5.576
		c-1.1-0.712-2.471-1.017-3.768-0.885c-1.582,0.179-2.834,1.394-3.484,2.787c-0.705,1.475-0.84,3.143-0.795,4.755
		c0,3.713,0.002,7.427,0,11.14c-1.832,0-3.662,0-5.492,0c-0.006-7.761,0.006-15.522-0.006-23.282
		c1.834-0.022,3.668-0.013,5.502-0.004c-0.008,1.332,0,2.665-0.006,3.999C163.715,100.629,164.604,99.222,166,98.431L166,98.431z"/>
	<path fill="#FFFFFF" d="M126.014,98.081c1.849-0.008,3.697-0.026,5.545,0.01c-0.021,7.758-0.001,15.517-0.009,23.276
		c-1.845,0-3.689,0-5.533,0C126.012,113.605,126.019,105.844,126.014,98.081L126.014,98.081z"/>
	<path fill="#FFFFFF" d="M194.273,103.512c-0.967-2.151-2.713-3.948-4.867-4.92c-2.482-1.131-5.303-1.282-7.979-0.94
		c-2.809,0.354-5.543,1.675-7.324,3.915c-1.629,2-2.422,4.568-2.572,7.117c-0.225,3.005,0.275,6.192,2.039,8.699
		c1.504,2.163,3.877,3.651,6.439,4.199c2.143,0.45,4.383,0.451,6.525,0.006c2.504-0.516,4.846-1.902,6.396-3.947
		c1.518-1.927,2.279-4.357,2.451-6.782C195.557,108.374,195.305,105.802,194.273,103.512z M188.891,114.202
		c-0.531,1.198-1.508,2.211-2.736,2.69c-1.441,0.552-3.059,0.585-4.543,0.199c-1.512-0.397-2.795-1.49-3.494-2.882
		c-0.896-1.791-1.031-3.864-0.846-5.83c0.17-1.787,0.791-3.626,2.152-4.859c0.988-0.923,2.334-1.373,3.666-1.447
		c1.676-0.109,3.459,0.364,4.662,1.582c1.287,1.266,1.787,3.104,1.924,4.855C189.775,110.428,189.695,112.426,188.891,114.202z"/>
	<path fill="#FFFFFF" d="M238.533,103.512c-0.967-2.151-2.711-3.948-4.865-4.92c-2.484-1.131-5.305-1.282-7.979-0.94
		c-2.811,0.354-5.545,1.675-7.326,3.915c-1.629,2-2.422,4.568-2.572,7.117c-0.225,3.005,0.277,6.192,2.041,8.699
		c1.502,2.163,3.875,3.651,6.438,4.199c2.143,0.45,4.383,0.451,6.525,0.006c2.506-0.516,4.846-1.902,6.396-3.947
		c1.518-1.927,2.279-4.357,2.451-6.782C239.816,108.374,239.566,105.802,238.533,103.512z M233.152,114.202
		c-0.533,1.198-1.508,2.211-2.738,2.69c-1.439,0.552-3.057,0.585-4.543,0.199c-1.512-0.397-2.795-1.49-3.492-2.882
		c-0.898-1.791-1.033-3.864-0.846-5.83c0.168-1.787,0.791-3.626,2.152-4.859c0.986-0.923,2.332-1.373,3.666-1.447
		c1.674-0.109,3.457,0.364,4.66,1.582c1.289,1.266,1.787,3.104,1.924,4.855C234.035,110.428,233.957,112.426,233.152,114.202z"/>
	<path fill="#FFFFFF" d="M15.285,106.431c8.59,0.003,17.179-0.002,25.768,0.003c0.002,8.589,0,17.178,0,25.767H15.285V106.431
		L15.285,106.431z"/>
	<path fill="#FFFFFF" d="M43.685,106.434c8.588-0.003,17.178-0.002,25.767-0.002c0,8.59,0,17.18,0,25.769H43.684
		C43.685,123.611,43.682,115.021,43.685,106.434L43.685,106.434z"/>
</g>
</svg>
