<?xml version="1.0" encoding="utf-8"?>
<!-- Generator: Adobe Illustrator 15.0.0, SVG Export Plug-In . SVG Version: 6.00 Build 0)  -->
<!DOCTYPE svg PUBLIC "-//W3C//DTD SVG 1.1//EN" "http://www.w3.org/Graphics/SVG/1.1/DTD/svg11.dtd">
<svg version="1.1" id="Layer_1" xmlns="http://www.w3.org/2000/svg" xmlns:xlink="http://www.w3.org/1999/xlink" x="0px" y="0px"
	 width="288px" height="205px" viewBox="0 0 288 205" enable-background="new 0 0 288 205" xml:space="preserve">
<g>
	<path fill="#FFFFFF" d="M53.347,86.16h18.035c-0.001,6.012,0,12.023-0.001,18.035c-6.011,0-12.022,0-18.034,0V86.16L53.347,86.16z"
		/>
	<path fill="#FFFFFF" d="M73.223,86.16h18.035c0,6.012,0.001,12.023-0.001,18.035c-6.011,0-12.023,0-18.034,0
		C73.222,98.184,73.223,92.172,73.223,86.16L73.223,86.16z"/>
	<path fill="#FFFFFF" d="M215.98,93.033c1.664-1.083,3.811-1.184,5.686-0.668c0.016,1.114,0.001,2.229,0.006,3.343
		c-0.889-0.393-1.937-0.648-2.874-0.264c-0.742,0.295-1.185,1.058-1.3,1.82c-0.139,0.968-0.049,1.948-0.073,2.92
		c1.903,0.004,3.806,0.002,5.707,0.003c0.015-1.234-0.015-2.471,0.016-3.706c1.294-0.367,2.573-0.781,3.86-1.169
		c0.01,1.627-0.016,3.254,0.014,4.883c1.287-0.017,2.572-0.004,3.86-0.008v3.166c-1.292-0.053-2.583-0.014-3.876-0.018
		c0.006,1.821,0.002,3.642,0.004,5.464c0.02,1.009-0.055,2.022,0.064,3.028c0.07,0.592,0.285,1.248,0.842,1.555
		c0.93,0.521,2.11,0.295,2.966-0.278v3.198c-1.115,0.484-2.36,0.632-3.566,0.547c-1.145-0.085-2.329-0.502-3.076-1.411
		c-0.86-1.027-1.085-2.419-1.101-3.722c-0.01-2.794,0-5.588-0.006-8.384c-1.902-0.001-3.807-0.003-5.708,0.001
		c-0.001,4.386,0,8.771,0,13.158c-1.3,0-2.602,0-3.899,0c0-4.386-0.008-8.77,0.002-13.154c-0.904-0.018-1.811,0.005-2.715-0.014
		c0.004-1.042,0.008-2.084-0.002-3.126c0.898-0.019,1.8-0.011,2.703-0.004c0.064-1.385-0.146-2.81,0.269-4.158
		C214.131,94.817,214.908,93.719,215.98,93.033L215.98,93.033z"/>
	<path fill="#FFFFFF" d="M132.47,93.26c0.786-0.119,1.638,0.15,2.158,0.765c0.611,0.674,0.723,1.747,0.271,2.534
		c-0.5,0.888-1.62,1.3-2.596,1.087c-1.013-0.182-1.856-1.123-1.812-2.172C130.462,94.368,131.387,93.384,132.47,93.26L132.47,93.26z
		"/>
	<path fill="#FFFFFF" d="M102.578,93.744c1.891,0,3.781,0,5.672,0c1.765,4.482,3.544,8.962,5.312,13.444
		c0.452,1.123,0.875,2.257,1.348,3.369c2.272-5.604,4.575-11.191,6.83-16.801c1.82-0.029,3.639-0.007,5.458-0.011
		c-0.004,7.581-0.002,15.162-0.001,22.744c-1.313-0.005-2.625,0.012-3.936-0.008c0.014-5.595-0.001-11.189,0.006-16.785
		c0.002-0.25-0.006-0.503-0.024-0.753c-0.077,0.116-0.145,0.237-0.205,0.363c-2.253,5.728-4.551,11.438-6.792,17.169
		c-0.934,0.035-1.868,0.004-2.803,0.018c-2.325-5.727-4.622-11.467-6.935-17.198c-0.061-0.119-0.126-0.235-0.196-0.346
		c-0.048,2.451-0.008,4.905-0.021,7.356c0.001,3.395-0.002,6.79,0.001,10.184c-1.238,0.004-2.477,0-3.713,0.002
		C102.576,108.907,102.576,101.326,102.578,93.744L102.578,93.744z"/>
	<path fill="#FFFFFF" d="M143.204,100.171c1.883-0.536,3.911-0.513,5.794,0.017c0.389,0.109,0.764,0.259,1.113,0.464
		c-0.022,1.243,0,2.486-0.014,3.729c-1.257-0.961-2.852-1.569-4.45-1.368c-1.27,0.115-2.481,0.773-3.24,1.799
		c-0.977,1.271-1.202,2.961-1.034,4.516c0.125,1.218,0.628,2.436,1.575,3.242c0.983,0.873,2.361,1.184,3.649,1.086
		c1.271-0.147,2.472-0.686,3.499-1.437c0.012,1.178-0.005,2.354,0.009,3.532c-1.594,0.948-3.507,1.193-5.331,1.104
		c-1.867-0.1-3.729-0.805-5.081-2.119c-1.469-1.414-2.266-3.434-2.36-5.457c-0.096-2.102,0.333-4.297,1.542-6.051
		C139.891,101.73,141.477,100.67,143.204,100.171L143.204,100.171z"/>
	<path fill="#FFFFFF" d="M185.811,99.924c1.803-0.317,3.691-0.084,5.398,0.562c0.003,1.196,0,2.391,0.002,3.585
		c-1.192-0.82-2.649-1.26-4.098-1.21c-0.729,0.029-1.529,0.338-1.863,1.031c-0.264,0.685-0.08,1.584,0.566,1.996
		c1.105,0.738,2.426,1.053,3.571,1.716c0.901,0.507,1.778,1.169,2.234,2.126c0.858,1.788,0.495,4.153-1.015,5.487
		c-1.441,1.348-3.518,1.72-5.428,1.648c-1.356-0.089-2.719-0.355-3.966-0.91c0.005-1.258-0.009-2.515,0.007-3.771
		c1.049,0.762,2.259,1.307,3.539,1.527c0.891,0.145,1.861,0.151,2.693-0.247c0.794-0.396,0.938-1.525,0.465-2.216
		c-0.443-0.533-1.092-0.827-1.703-1.115c-1.15-0.516-2.357-0.948-3.367-1.723c-0.71-0.555-1.246-1.334-1.457-2.214
		c-0.312-1.298-0.215-2.757,0.539-3.892C182.791,100.987,184.287,100.195,185.811,99.924L185.811,99.924z"/>
	<path fill="#FFFFFF" d="M158.832,100.438c1.077-0.647,2.444-0.701,3.619-0.306c-0.005,1.301,0,2.601-0.002,3.902
		c-0.77-0.499-1.729-0.712-2.637-0.619c-1.107,0.125-1.984,0.976-2.439,1.95c-0.493,1.033-0.588,2.2-0.557,3.328
		c0,2.599,0.002,5.198,0,7.797c-1.281,0-2.562,0-3.844,0c-0.004-5.432,0.004-10.863-0.004-16.295
		c1.283-0.016,2.567-0.009,3.852-0.003c-0.006,0.933,0,1.865-0.004,2.799C157.232,101.976,157.854,100.991,158.832,100.438
		L158.832,100.438z"/>
	<path fill="#FFFFFF" d="M130.846,100.192c1.293-0.005,2.587-0.018,3.881,0.007c-0.015,5.431-0.001,10.86-0.007,16.291
		c-1.291,0-2.582,0-3.872,0C130.845,111.059,130.85,105.625,130.846,100.192L130.846,100.192z"/>
	<path fill="#FFFFFF" d="M178.621,103.993c-0.678-1.505-1.899-2.763-3.407-3.443c-1.737-0.792-3.712-0.897-5.585-0.658
		c-1.965,0.248-3.879,1.172-5.125,2.74c-1.141,1.399-1.695,3.197-1.801,4.981c-0.157,2.104,0.193,4.334,1.428,6.088
		c1.053,1.515,2.713,2.557,4.506,2.939c1.5,0.315,3.068,0.316,4.567,0.004c1.753-0.36,3.392-1.331,4.476-2.762
		c1.062-1.35,1.596-3.05,1.716-4.746C179.519,107.396,179.342,105.596,178.621,103.993z M174.854,111.476
		c-0.372,0.839-1.056,1.548-1.916,1.884c-1.008,0.385-2.141,0.408-3.18,0.139c-1.058-0.279-1.955-1.043-2.444-2.018
		c-0.627-1.254-0.722-2.705-0.593-4.08c0.119-1.252,0.554-2.538,1.507-3.401c0.691-0.646,1.634-0.961,2.565-1.012
		c1.173-0.077,2.422,0.254,3.264,1.107c0.9,0.886,1.25,2.172,1.346,3.398C175.473,108.834,175.416,110.232,174.854,111.476z"/>
	<path fill="#FFFFFF" d="M209.598,103.993c-0.676-1.505-1.896-2.763-3.404-3.443c-1.739-0.792-3.713-0.897-5.585-0.658
		c-1.968,0.248-3.881,1.172-5.128,2.74c-1.14,1.399-1.694,3.197-1.8,4.981c-0.157,2.104,0.194,4.334,1.429,6.088
		c1.051,1.515,2.712,2.557,4.506,2.939c1.5,0.315,3.066,0.316,4.566,0.004c1.754-0.36,3.392-1.331,4.477-2.762
		c1.062-1.35,1.596-3.05,1.717-4.746C210.496,107.396,210.321,105.596,209.598,103.993z M205.832,111.476
		c-0.373,0.839-1.056,1.548-1.916,1.884c-1.008,0.385-2.141,0.408-3.18,0.139c-1.059-0.279-1.957-1.043-2.445-2.018
		c-0.629-1.254-0.723-2.705-0.592-4.08c0.118-1.252,0.555-2.538,1.507-3.401c0.689-0.646,1.632-0.961,2.565-1.012
		c1.172-0.077,2.42,0.254,3.262,1.107c0.902,0.886,1.25,2.172,1.347,3.398C206.449,108.834,206.395,110.232,205.832,111.476z"/>
	<path fill="#FFFFFF" d="M53.347,106.037c6.012,0.002,12.023-0.002,18.035,0.002c0.001,6.012,0,12.021,0,18.034H53.347V106.037
		L53.347,106.037z"/>
	<path fill="#FFFFFF" d="M73.224,106.039c6.011-0.002,12.023-0.002,18.035-0.002c0,6.012,0,12.023,0,18.036H73.223
		C73.224,118.061,73.222,112.049,73.224,106.039L73.224,106.039z"/>
</g>
</svg>
