<?xml version="1.0" encoding="utf-8"?>
<!-- Generator: Adobe Illustrator 15.0.0, SVG Export Plug-In . SVG Version: 6.00 Build 0)  -->
<!DOCTYPE svg PUBLIC "-//W3C//DTD SVG 1.1//EN" "http://www.w3.org/Graphics/SVG/1.1/DTD/svg11.dtd">
<svg version="1.1" id="Layer_1" xmlns="http://www.w3.org/2000/svg" xmlns:xlink="http://www.w3.org/1999/xlink" x="0px" y="0px"
	 width="288px" height="205px" viewBox="0 0 288 205" enable-background="new 0 0 288 205" xml:space="preserve">
<g>
	<path fill="#FFFFFF" d="M113.132,80.273c2.706,0,10.187,0.356,5.369,14.536c-5.07,14.862-16.295,11.81-16.295,11.81l8.258-26.348
		h2.668V80.273z M133.211,95.753c6.324-15.611-5.496-19.85-13.216-19.85l-25.529,0.02c2.126,1.455,1.774,3.39,1.357,4.567
		l-14.874,47.567c-0.591,1.88-2.82,3.854-4.005,4.167h20.661c-1.134-0.207-2.76-1.83-2.172-4.04l5.404-17.193
		C100.839,110.986,125.702,114.346,133.211,95.753"/>
	<path fill="#FFFFFF" d="M141.585,124.919c-0.824,0.499-4.044,2.143-7.073,2.425c-2.801,0.256-7.476-0.825-7.464-6.44
		c0-4.812,5.227-8.306,8.041-9.542C136.26,116.028,138.84,121.271,141.585,124.919 M149.733,94.625
		c-0.717,4.526-6.578,9.106-8.005,9.727c-0.25-2.547-0.144-6.569,1.993-9.854c1.398-2.183,3.271-3.135,4.783-2.608
		C149.706,92.308,149.856,93.425,149.733,94.625 M149.758,132.224h13.881c-4.452-1.448-11.024-5.634-13.638-8.635
		c2.122-2.318,4.739-5.213,5.21-11.14h-7.225c0,0,1.407,0.795,1.407,2.489c0,1.57-0.633,3.722-1.846,5.259
		c-2.112-3.131-4.381-6.703-5.156-11.947c2.816-1.414,6.794-2.939,9.968-5.696c2.984-2.632,3.676-5.095,3.728-6.722v-0.2
		c0-1.686-0.665-3.271-1.884-4.475c-2.077-2.087-5.381-2.924-8.824-2.275c-2.791,0.521-5.154,2.005-6.335,3.103
		c-4.214,3.925-4.754,10.42-4.754,13.356c0,0.701,0.028,1.259,0.054,1.573c-0.237,0.086-0.663,0.263-0.663,0.263
		c-3.061,1.117-11.255,3.311-14.184,10.046c-0.37,0.856-0.907,2.684-0.907,4.849c0,1.846,0.4,3.904,1.583,5.789
		c2.063,3.22,5.582,5.259,11.179,5.152c6.102-0.104,12.095-4.255,13.174-5.011C145.579,128.981,148.316,131.546,149.758,132.224"/>
	<path fill="#FFFFFF" d="M191.996,80.327c8.264-1.982,15.074,4.489,15.707,4.924l2.363-7.501
		c-3.285-0.975-26.993-9.007-43.732,10.137c-10.306,11.752-12.833,35.88,0.236,42.339c13.993,6.913,29.434-1.068,30.556-1.624
		l6.416-20.344c0.682-2.456,2.241-4.056,4.994-5.078h-22.209c3.252,1.365,3.012,3.806,2.739,4.796l-6.379,20.342
		c-0.842,0.173-18.694,4.604-8.695-26.617C176.14,94.993,182.166,82.69,191.996,80.327"/>
</g>
</svg>
