<?xml version="1.0" encoding="utf-8"?>
<!-- Generator: Adobe Illustrator 15.0.0, SVG Export Plug-In . SVG Version: 6.00 Build 0)  -->
<!DOCTYPE svg PUBLIC "-//W3C//DTD SVG 1.1//EN" "http://www.w3.org/Graphics/SVG/1.1/DTD/svg11.dtd">
<svg version="1.1" id="Layer_1" xmlns="http://www.w3.org/2000/svg" xmlns:xlink="http://www.w3.org/1999/xlink" x="0px" y="0px"
	 width="288px" height="205px" viewBox="0 0 288 205" enable-background="new 0 0 288 205" xml:space="preserve">
<g>
	<path fill="#FFFFFF" d="M110.043,77.846c2.98,0,11.222,0.394,5.915,16.015c-5.586,16.374-17.952,13.011-17.952,13.011l9.098-29.027
		h2.939V77.846z M132.164,94.899c6.968-17.198-6.055-21.868-14.56-21.868l-28.125,0.021c2.342,1.604,1.955,3.734,1.495,5.032
		l-16.387,52.404c-0.65,2.071-3.106,4.247-4.412,4.591h22.763c-1.249-0.228-3.041-2.016-2.393-4.45l5.953-18.942
		C96.5,111.683,123.892,115.383,132.164,94.899"/>
	<path fill="#FFFFFF" d="M141.389,127.031c-0.907,0.55-4.455,2.361-7.792,2.672c-3.086,0.282-8.236-0.909-8.223-7.096
		c0-5.302,5.758-9.15,8.858-10.512C135.523,117.237,138.366,123.013,141.389,127.031 M150.367,93.657
		c-0.791,4.986-7.248,10.032-8.82,10.716c-0.275-2.806-0.158-7.237,2.196-10.855c1.542-2.405,3.604-3.454,5.27-2.874
		C150.336,91.104,150.502,92.335,150.367,93.657 M150.395,135.079h15.291c-4.904-1.596-12.145-6.207-15.023-9.513
		c2.338-2.554,5.221-5.743,5.738-12.272h-7.959c0,0,1.551,0.876,1.551,2.742c0,1.73-0.697,4.101-2.033,5.794
		c-2.328-3.449-4.827-7.385-5.681-13.162c3.103-1.559,7.486-3.238,10.982-6.275c3.287-2.9,4.049-5.613,4.107-7.405v-0.221
		c0-1.857-0.734-3.604-2.076-4.93c-2.289-2.3-5.928-3.222-9.721-2.507c-3.076,0.573-5.679,2.209-6.98,3.418
		c-4.643,4.324-5.237,11.479-5.237,14.715c0,0.772,0.031,1.387,0.059,1.733c-0.261,0.095-0.73,0.289-0.73,0.289
		c-3.371,1.23-12.399,3.647-15.626,11.067c-0.407,0.943-0.999,2.956-0.999,5.342c0,2.033,0.441,4.302,1.744,6.378
		c2.273,3.547,6.149,5.793,12.315,5.676c6.722-0.115,13.324-4.688,14.513-5.52C145.789,131.508,148.805,134.333,150.395,135.079"/>
	<path fill="#FFFFFF" d="M196.928,77.905c9.104-2.184,16.607,4.945,17.305,5.425l2.604-8.264
		c-3.619-1.074-29.738-9.923-48.18,11.167c-11.355,12.947-14.139,39.528,0.26,46.645c15.416,7.616,32.426-1.177,33.662-1.789
		l7.068-22.412c0.752-2.706,2.471-4.469,5.502-5.595h-24.467c3.582,1.504,3.318,4.192,3.018,5.283l-7.027,22.41
		c-0.928,0.19-20.596,5.073-9.58-29.323C179.459,94.062,186.098,80.509,196.928,77.905"/>
</g>
</svg>
