<?xml version="1.0" encoding="utf-8"?>
<!-- Generator: Adobe Illustrator 15.0.0, SVG Export Plug-In . SVG Version: 6.00 Build 0)  -->
<!DOCTYPE svg PUBLIC "-//W3C//DTD SVG 1.1//EN" "http://www.w3.org/Graphics/SVG/1.1/DTD/svg11.dtd">
<svg version="1.1" id="Layer_1" xmlns="http://www.w3.org/2000/svg" xmlns:xlink="http://www.w3.org/1999/xlink" x="0px" y="0px"
	 width="288px" height="205px" viewBox="0 0 288 205" enable-background="new 0 0 288 205" xml:space="preserve">
<g>
	<path fill="#FFFFFF" d="M96.287,67.037c4.206,0,15.836,0.554,8.347,22.598c-7.883,23.104-25.332,18.359-25.332,18.359l12.837-40.96
		h4.148V67.037z M127.502,91.101c9.831-24.269-8.544-30.858-20.546-30.858l-39.688,0.03c3.306,2.262,2.759,5.27,2.111,7.101
		l-23.122,73.948c-0.919,2.921-4.385,5.992-6.227,6.478h32.12c-1.763-0.322-4.29-2.846-3.376-6.28l8.401-26.731
		C77.176,114.783,115.828,120.005,127.502,91.101"/>
	<path fill="#FFFFFF" d="M140.52,136.441c-1.281,0.779-6.287,3.332-10.996,3.771c-4.354,0.4-11.622-1.283-11.603-10.012
		c0-7.482,8.125-12.912,12.5-14.834C132.241,122.622,136.253,130.77,140.52,136.441 M153.188,89.348
		c-1.115,7.037-10.228,14.155-12.445,15.12c-0.389-3.959-0.224-10.211,3.099-15.318c2.173-3.393,5.084-4.873,7.436-4.054
		C153.145,85.746,153.379,87.482,153.188,89.348 M153.224,147.798h21.58c-6.921-2.251-17.14-8.758-21.201-13.422
		c3.299-3.606,7.368-8.105,8.099-17.317h-11.232c0,0,2.188,1.233,2.188,3.869c0,2.44-0.983,5.785-2.869,8.173
		c-3.283-4.864-6.81-10.42-8.015-18.572c4.378-2.199,10.562-4.57,15.495-8.854c4.639-4.093,5.713-7.921,5.796-10.451v-0.311
		c0-2.62-1.034-5.085-2.928-6.956c-3.23-3.244-8.365-4.546-13.721-3.537c-4.337,0.809-8.011,3.116-9.846,4.823
		c-6.551,6.101-7.391,16.198-7.391,20.765c0,1.087,0.044,1.956,0.084,2.444c-0.369,0.135-1.031,0.408-1.031,0.408
		c-4.758,1.737-17.496,5.148-22.051,15.617c-0.574,1.331-1.409,4.171-1.409,7.538c0,2.87,0.622,6.071,2.461,9.001
		c3.207,5.005,8.677,8.174,17.379,8.008c9.485-0.163,18.801-6.613,20.479-7.79C146.729,142.759,150.984,146.743,153.224,147.798"/>
	<path fill="#FFFFFF" d="M218.889,67.12c12.847-3.082,23.433,6.98,24.417,7.656l3.674-11.662
		c-5.107-1.515-41.962-14.001-67.986,15.759c-16.02,18.269-19.951,55.777,0.368,65.818c21.753,10.749,45.757-1.66,47.501-2.523
		l9.975-31.625c1.06-3.821,3.484-6.307,7.763-7.895h-34.526c5.055,2.122,4.684,5.915,4.259,7.456l-9.916,31.62
		c-1.308,0.27-29.063,7.16-13.519-41.377C194.238,89.921,203.607,70.794,218.889,67.12"/>
</g>
</svg>
