<?xml version="1.0" encoding="utf-8"?>
<!-- Generator: Adobe Illustrator 15.0.0, SVG Export Plug-In . SVG Version: 6.00 Build 0)  -->
<!DOCTYPE svg PUBLIC "-//W3C//DTD SVG 1.1//EN" "http://www.w3.org/Graphics/SVG/1.1/DTD/svg11.dtd">
<svg version="1.1" id="Layer_1" xmlns="http://www.w3.org/2000/svg" xmlns:xlink="http://www.w3.org/1999/xlink" x="0px" y="0px"
	 width="44.75px" height="45.625px" viewBox="0 0 44.75 45.625" enable-background="new 0 0 44.75 45.625" xml:space="preserve">
<g id="Layer_2">
	<g>
		<path fill="#FF4400" d="M26.119,27.266v7.982h4.963V21.815h-2.473C28.471,23.939,27.547,25.854,26.119,27.266z"/>
		<path fill="#FF4400" d="M34.267,9.845H9.981v5.339h4.327c1.523-1.475,3.593-2.388,5.876-2.388c2.282,0,4.353,0.913,5.875,2.388
			h8.208V9.845z"/>
		<path fill="#FF4400" d="M31.271,18.417c0-1.461-1.186-2.646-2.646-2.646c-0.6,0-1.146,0.207-1.591,0.542
			c0.972,1.343,1.558,2.979,1.597,4.75C30.089,21.06,31.271,19.877,31.271,18.417z"/>
	</g>
</g>
<g id="Layer_1_1_">
	<path fill="#F00042" d="M20.184,13.641c-4.203,0-7.61,3.407-7.61,7.61s3.407,7.609,7.61,7.609c4.204,0,7.609-3.406,7.609-7.609
		S24.388,13.641,20.184,13.641z M20.184,23.896c-1.461,0-2.646-1.184-2.646-2.646c0-1.461,1.185-2.646,2.646-2.646
		s2.646,1.185,2.646,2.646C22.831,22.713,21.646,23.896,20.184,23.896z"/>
	<rect x="12.574" y="21.25" fill="#F00042" width="4.963" height="13.998"/>
</g>
</svg>
