<?xml version="1.0" encoding="utf-8"?>
<!-- Generator: Adobe Illustrator 15.0.0, SVG Export Plug-In . SVG Version: 6.00 Build 0)  -->
<!DOCTYPE svg PUBLIC "-//W3C//DTD SVG 1.1//EN" "http://www.w3.org/Graphics/SVG/1.1/DTD/svg11.dtd">
<svg version="1.1" id="Layer_1" xmlns="http://www.w3.org/2000/svg" xmlns:xlink="http://www.w3.org/1999/xlink" x="0px" y="0px"
	 width="288px" height="205px" viewBox="0 0 288 205" enable-background="new 0 0 288 205" xml:space="preserve">
<g id="Layer_2">
	<g>
		<path fill="#FFFFFF" d="M154.199,116.822v23.646H168.9V100.68h-7.322C161.16,106.975,158.428,112.645,154.199,116.822z"/>
		<path fill="#FFFFFF" d="M178.332,65.228h-71.93v15.814h12.815c4.51-4.37,10.644-7.075,17.404-7.075
			c6.759,0,12.892,2.705,17.4,7.075h24.311V65.228z"/>
		<path fill="#FFFFFF" d="M169.458,90.617c0-4.329-3.511-7.837-7.839-7.837c-1.776,0-3.395,0.612-4.709,1.607
			c2.877,3.978,4.611,8.821,4.727,14.067C165.957,98.443,169.458,94.94,169.458,90.617z"/>
	</g>
</g>
<g id="Layer_1_1_">
	<path fill="#FFFFFF" d="M136.622,76.472c-12.448,0-22.538,10.09-22.538,22.538c0,12.447,10.089,22.537,22.538,22.537
		c12.45,0,22.538-10.09,22.538-22.537C159.16,86.562,149.072,76.472,136.622,76.472z M136.622,106.848
		c-4.331,0-7.839-3.51-7.839-7.837c0-4.327,3.509-7.837,7.839-7.837c4.329,0,7.838,3.51,7.838,7.837
		C144.46,103.34,140.95,106.848,136.622,106.848z"/>
	<rect x="114.084" y="99.01" fill="#FFFFFF" width="14.699" height="41.458"/>
</g>
</svg>
