<?xml version="1.0" encoding="utf-8"?>
<!-- Generator: Adobe Illustrator 15.0.0, SVG Export Plug-In . SVG Version: 6.00 Build 0)  -->
<!DOCTYPE svg PUBLIC "-//W3C//DTD SVG 1.1//EN" "http://www.w3.org/Graphics/SVG/1.1/DTD/svg11.dtd">
<svg version="1.1" xmlns="http://www.w3.org/2000/svg" xmlns:xlink="http://www.w3.org/1999/xlink" x="0px" y="0px" width="44.75px"
	 height="45.625px" viewBox="0 0 44.75 45.625" enable-background="new 0 0 44.75 45.625" xml:space="preserve">
<g id="Layer_2">
	<g>
		<path fill="#FF4400" d="M28.63,30.904v14.164h8.805V21.236H33.05C32.8,25.006,31.163,28.402,28.63,30.904z"/>
		<path fill="#FF4400" d="M43.085,0H0v9.472h7.677c2.701-2.617,6.375-4.237,10.424-4.237s7.722,1.62,10.423,4.237h14.561V0z"/>
		<path fill="#FF4400" d="M37.769,15.208c0-2.593-2.102-4.695-4.695-4.695c-1.063,0-2.033,0.367-2.82,0.963
			c1.723,2.383,2.762,5.284,2.831,8.426C35.673,19.896,37.769,17.798,37.769,15.208z"/>
	</g>
</g>
<g id="Layer_1">
	<path fill="#F00042" d="M18.101,6.735c-7.456,0-13.5,6.044-13.5,13.5s6.044,13.499,13.5,13.499c7.457,0,13.5-6.043,13.5-13.499
		S25.558,6.735,18.101,6.735z M18.101,24.93c-2.593,0-4.695-2.102-4.695-4.694s2.102-4.695,4.695-4.695
		c2.593,0,4.695,2.102,4.695,4.695S20.694,24.93,18.101,24.93z"/>
	<rect x="4.601" y="20.235" fill="#F00042" width="8.805" height="24.833"/>
</g>
</svg>
