<?xml version="1.0" encoding="utf-8"?>
<!-- Generator: Adobe Illustrator 15.0.0, SVG Export Plug-In . SVG Version: 6.00 Build 0)  -->
<!DOCTYPE svg PUBLIC "-//W3C//DTD SVG 1.1//EN" "http://www.w3.org/Graphics/SVG/1.1/DTD/svg11.dtd">
<svg version="1.1" id="Layer_1" xmlns="http://www.w3.org/2000/svg" xmlns:xlink="http://www.w3.org/1999/xlink" x="0px" y="0px"
	 width="288px" height="205px" viewBox="0 0 288 205" enable-background="new 0 0 288 205" xml:space="preserve">
<g id="Layer_2">
	<g>
		<path fill="#FFFFFF" d="M161.66,125.633v38.555h23.969V99.314h-11.938C173.01,109.576,168.555,118.822,161.66,125.633z"/>
		<path fill="#FFFFFF" d="M201.008,41.508H83.726v25.785h20.896c7.354-7.125,17.354-11.535,28.377-11.535
			c11.02,0,21.02,4.41,28.37,11.535h39.639V41.508z"/>
		<path fill="#FFFFFF" d="M186.539,82.906c0-7.059-5.725-12.779-12.781-12.779c-2.896,0-5.535,0.998-7.678,2.621
			c4.689,6.486,7.518,14.383,7.707,22.936C180.83,95.666,186.539,89.955,186.539,82.906z"/>
	</g>
</g>
<g id="Layer_1_1_">
	<path fill="#FFFFFF" d="M133,59.842c-20.297,0-36.748,16.451-36.748,36.748s16.451,36.746,36.748,36.746
		c20.299,0,36.749-16.449,36.749-36.746S153.299,59.842,133,59.842z M133,109.369c-7.061,0-12.781-5.721-12.781-12.777
		c0-7.055,5.721-12.779,12.781-12.779c7.057,0,12.78,5.723,12.78,12.779C145.779,103.65,140.056,109.369,133,109.369z"/>
	<rect x="96.251" y="96.59" fill="#FFFFFF" width="23.967" height="67.598"/>
</g>
</svg>
