<?xml version="1.0" encoding="utf-8"?>
<!-- Generator: Adobe Illustrator 15.0.0, SVG Export Plug-In . SVG Version: 6.00 Build 0)  -->
<!DOCTYPE svg PUBLIC "-//W3C//DTD SVG 1.1//EN" "http://www.w3.org/Graphics/SVG/1.1/DTD/svg11.dtd">
<svg version="1.1" id="Layer_1" xmlns="http://www.w3.org/2000/svg" xmlns:xlink="http://www.w3.org/1999/xlink" x="0px" y="0px"
	 width="288px" height="205px" viewBox="0 0 288 205" enable-background="new 0 0 288 205" xml:space="preserve">
<g>
	<path fill="#FFFFFF" d="M17.39,95.209c1.306,0,3.111,0.511,3.993,1.635l0.354,0.449l4.863-5.317l-0.373-0.325
		c-2.241-1.982-5.177-2.987-8.718-2.987c-5.268,0-10.937,2.939-10.937,9.39c0,5.601,4.536,7.035,8.19,8.19
		c2.5,0.795,4.659,1.481,4.659,3.268c0,1.562-1.86,2.383-3.695,2.383c-1.881,0-3.749-0.922-4.879-2.41l-0.353-0.457l-5.011,5.508
		l0.353,0.324c2.599,2.404,5.72,3.574,9.542,3.574c6.713,0,11.051-3.73,11.051-9.502c0-5.941-4.533-7.273-8.179-8.346
		c-2.479-0.731-4.438-1.307-4.438-3.035C13.812,95.832,15.95,95.209,17.39,95.209z"/>
	<path fill="#FFFFFF" d="M42.713,98.986c-0.685-0.565-1.417-1.018-2.18-1.346c-1.076-0.462-2.243-0.696-3.464-0.696
		c-2.658,0-4.945,1.017-6.8,3.024c-1.844,1.997-2.779,4.585-2.779,7.691c0,3.004,0.965,5.551,2.871,7.577
		c1.914,2.034,4.219,3.067,6.848,3.067c1.172,0,2.28-0.214,3.294-0.635c0.735-0.306,1.478-0.76,2.209-1.35v1.486h5.812V97.444
		h-5.812V98.986z M41.544,103.81c0.917,0.952,1.38,2.222,1.38,3.78c0,1.59-0.464,2.889-1.384,3.861
		c-0.91,0.961-2.076,1.451-3.463,1.451c-1.342,0-2.486-0.5-3.4-1.479c-0.924-0.986-1.393-2.271-1.393-3.817
		c0-1.534,0.461-2.805,1.367-3.773c0.899-0.96,2.045-1.447,3.408-1.447C39.461,102.385,40.633,102.862,41.544,103.81z"/>
	<path fill="#FFFFFF" d="M59.994,96.298c0-1.478,1.234-1.551,1.276-1.555h4.089v-5.585h-4.952c-2.207,0-3.874,0.658-4.956,1.956
		c-1.899,2.274-1.311,5.661-1.289,5.761v1.094h-3.805v5.062h3.803v14.775h5.815v-14.777h4.585v-5.062h-4.581L59.994,96.298z"/>
	<path fill="#FFFFFF" d="M79.869,98.986c-0.685-0.563-1.415-1.016-2.179-1.346c-1.076-0.462-2.243-0.696-3.464-0.696
		c-2.657,0-4.945,1.017-6.799,3.024c-1.845,1.995-2.78,4.583-2.78,7.691c0,3.004,0.965,5.551,2.871,7.577
		c1.915,2.034,4.219,3.067,6.848,3.067c1.172,0,2.28-0.214,3.294-0.635c0.733-0.306,1.474-0.76,2.209-1.352v1.488h5.813V89.947
		h-5.813V98.986z M78.7,103.81c0.916,0.952,1.38,2.222,1.38,3.78c0,1.59-0.464,2.889-1.384,3.861
		c-0.91,0.961-2.076,1.451-3.463,1.451c-1.341,0-2.486-0.5-3.399-1.479c-0.925-0.986-1.393-2.271-1.393-3.817
		c0-1.537,0.461-2.807,1.368-3.773c0.899-0.96,2.045-1.447,3.408-1.447C76.619,102.385,77.79,102.862,78.7,103.81z"/>
	<path fill="#FFFFFF" d="M92.141,89.448c-0.98,0-1.829,0.353-2.521,1.05c-0.694,0.694-1.046,1.543-1.046,2.526
		c0,1.016,0.354,1.894,1.051,2.607c0.7,0.718,1.559,1.08,2.551,1.08c0.965,0,1.809-0.354,2.506-1.06
		c0.691-0.702,1.042-1.562,1.042-2.553c0-1.007-0.355-1.875-1.051-2.579C93.973,89.807,93.122,89.448,92.141,89.448z"/>
	<rect x="89.236" y="98.212" fill="#FFFFFF" width="5.812" height="19.591"/>
	<path fill="#FFFFFF" d="M118.284,108.106c0-3.323-1.011-6.042-3.007-8.083c-1.999-2.042-4.623-3.077-7.797-3.077
		c-2.995,0-5.528,1.035-7.523,3.077c-1.988,2.042-2.996,4.633-2.996,7.709c0,3.006,1.012,5.551,3.009,7.551
		c1.999,2.005,4.618,3.023,7.778,3.023c2.023,0,3.803-0.367,5.292-1.094c1.493-0.725,2.791-1.86,3.858-3.372l0.319-0.461
		l-4.905-2.303l-0.232,0.228c-1.215,1.18-2.685,1.777-4.367,1.777c-1.404,0-2.567-0.375-3.454-1.115
		c-0.756-0.625-1.27-1.451-1.533-2.459h15.536L118.284,108.106z M103.115,104.728c0.419-0.774,0.858-1.337,1.312-1.669
		c0.935-0.697,2.042-1.051,3.294-1.051c1.144,0,2.161,0.311,3.026,0.929c0.668,0.479,1.172,1.079,1.498,1.791H103.115z"/>
</g>
<g>
	<path fill="#FFFFFF" d="M130.52,89.901h2.583l11.324,26.906h-2.809l-2.928-7.145h-14.247l-3.039,7.145h-2.622L130.52,89.901z
		 M131.699,92.638l-6.27,14.744h12.348L131.699,92.638z"/>
	<path fill="#FFFFFF" d="M147.909,104.189c0-1.292-0.192-4.029-0.192-4.94h2.282c0.039,1.291,0.074,2.736,0.15,3.077
		c1.141-2.05,2.964-3.533,5.587-3.533c0.456,0,0.876,0.075,1.329,0.189l-0.266,2.245c-0.342-0.114-0.648-0.153-0.875-0.153
		c-3.953,0-5.736,2.736-5.736,6.157v9.576h-2.28L147.909,104.189L147.909,104.189z"/>
	<path fill="#FFFFFF" d="M174.261,114.219c-1.713,2.055-3.953,3.041-6.462,3.041c-5.396,0-9.234-3.876-9.234-9.234
		s3.839-9.234,9.234-9.234c2.546,0,4.826,1.102,6.537,3.041l-1.825,1.366c-1.33-1.443-2.887-2.355-4.712-2.355
		c-4.294,0-6.954,3.232-6.954,7.182c0,3.95,2.66,7.182,6.954,7.182c1.899,0,3.534-0.99,4.712-2.432L174.261,114.219z"/>
	<path fill="#FFFFFF" d="M178.061,90.38h2.277v11.944h0.08c0.91-1.937,3.151-3.533,6.002-3.533c5.472,0,6.688,3.724,6.688,7.561
		v10.451h-2.277v-10.336c0-2.851-0.802-5.625-4.411-5.625c-3.382,0-6.082,2.355-6.082,7.182v8.779h-2.277V90.38z"/>
	<path fill="#FFFFFF" d="M199.005,90.586c0.953,0,1.712,0.759,1.712,1.71c0,0.951-0.759,1.71-1.712,1.71
		c-0.947,0-1.706-0.76-1.706-1.71C197.299,91.345,198.058,90.586,199.005,90.586z M197.866,99.249h2.279v17.554h-2.279V99.249z"/>
	<path fill="#FFFFFF" d="M234.313,113.499c-1.785,2.657-4.486,3.761-7.6,3.761c-5.359,0-8.893-3.836-8.893-9.27
		c0-5.246,3.648-9.197,8.779-9.197c5.396,0,8.246,4.143,8.246,8.207v1.598h-14.744c0,1.898,1.332,6.611,6.65,6.611
		c2.317,0,4.749-1.217,5.89-3.115L234.313,113.499z M232.567,106.543c0-3.113-2.701-5.7-6.08-5.7c-4.98,0-6.385,4.79-6.385,5.7
		H232.567z"/>
	<path fill="#FFFFFF" d="M252.856,114.219c-1.706,2.055-3.95,3.041-6.457,3.041c-5.396,0-9.236-3.876-9.236-9.234
		s3.84-9.234,9.236-9.234c2.546,0,4.824,1.102,6.535,3.041l-1.822,1.366c-1.332-1.443-2.891-2.355-4.713-2.355
		c-4.297,0-6.953,3.232-6.953,7.182c0,3.95,2.656,7.182,6.953,7.182c1.898,0,3.532-0.99,4.713-2.432L252.856,114.219z"/>
	<path fill="#FFFFFF" d="M258.36,113.661v-12.36h-3.801v-2.052h3.801v-5.053h2.281v5.053h5.014v2.052h-5.014v12.36
		c0,0,0.162,1.007,0.943,1.007c0.785,0,4.072,0,4.072,0v2.091h-4.146C261.511,116.759,258.36,116.759,258.36,113.661z"/>
	<path fill="#FFFFFF" d="M207.626,113.661v-12.36h-3.8v-2.052h3.8v-5.053h2.278v5.053h5.019v2.052h-5.019v12.36
		c0,0,0.161,1.007,0.95,1.007c0.787,0,4.07,0,4.07,0v2.091h-4.146C210.779,116.759,207.626,116.759,207.626,113.661z"/>
	<path fill="#FFFFFF" d="M270.556,112.322c0.951,1.861,3.039,2.887,5.092,2.887c1.975,0,4.03-1.217,4.03-3.231
		c0-4.826-10.413-1.444-10.413-8.133c0-3.416,3.115-5.052,6.004-5.052c2.85,0,5.055,1.063,6.193,3.307l-2.051,1.215
		c-0.874-1.595-2.091-2.471-4.143-2.471c-1.633,0-3.723,0.99-3.723,2.812c0,4.75,10.411,1.063,10.411,8.171
		c0,3.609-3.003,5.434-6.346,5.434c-3.001,0-5.7-1.141-7.063-3.57L270.556,112.322z"/>
</g>
</svg>
