<?xml version="1.0" encoding="utf-8"?>
<!-- Generator: Adobe Illustrator 15.0.0, SVG Export Plug-In . SVG Version: 6.00 Build 0)  -->
<!DOCTYPE svg PUBLIC "-//W3C//DTD SVG 1.1//EN" "http://www.w3.org/Graphics/SVG/1.1/DTD/svg11.dtd">
<svg version="1.1" id="Layer_1" xmlns="http://www.w3.org/2000/svg" xmlns:xlink="http://www.w3.org/1999/xlink" x="0px" y="0px"
	 width="152.333px" height="18.667px" viewBox="0 0 152.333 18.667" enable-background="new 0 0 152.333 18.667"
	 xml:space="preserve">
<g>
	<path fill="#FFFFFF" d="M7.393,4.729c0.709,0,1.689,0.277,2.167,0.887L9.752,5.86l2.639-2.886l-0.202-0.176
		c-1.217-1.076-2.81-1.621-4.732-1.621c-2.859,0-5.936,1.595-5.936,5.096c0,3.04,2.462,3.818,4.446,4.445
		c1.356,0.432,2.528,0.804,2.528,1.773c0,0.849-1.009,1.293-2.005,1.293c-1.021,0-2.035-0.5-2.648-1.307L3.65,12.229l-2.72,2.989
		l0.192,0.176c1.41,1.305,3.104,1.939,5.179,1.939c3.644,0,5.998-2.024,5.998-5.156c0-3.225-2.46-3.948-4.439-4.53
		C6.514,7.25,5.451,6.938,5.451,6C5.451,5.067,6.612,4.729,7.393,4.729z"/>
	<path fill="#FFFFFF" d="M21.137,6.779c-0.372-0.307-0.769-0.552-1.183-0.73c-0.584-0.251-1.217-0.378-1.88-0.378
		c-1.442,0-2.684,0.552-3.69,1.641c-1.001,1.084-1.509,2.489-1.509,4.175c0,1.629,0.524,3.012,1.558,4.112
		c1.039,1.104,2.29,1.665,3.717,1.665c0.636,0,1.237-0.116,1.788-0.345c0.399-0.166,0.802-0.412,1.199-0.732v0.806h3.155V5.942
		h-3.155V6.779z M20.503,9.397c0.497,0.516,0.749,1.206,0.749,2.051c0,0.863-0.252,1.568-0.751,2.096
		c-0.494,0.522-1.127,0.787-1.88,0.787c-0.728,0-1.349-0.27-1.845-0.802c-0.502-0.535-0.756-1.232-0.756-2.072
		c0-0.833,0.25-1.522,0.742-2.048c0.488-0.521,1.11-0.786,1.85-0.786C19.372,8.623,20.008,8.883,20.503,9.397z"/>
	<path fill="#FFFFFF" d="M30.516,5.32c0-0.802,0.67-0.842,0.693-0.844h2.219V1.445H30.74c-1.197,0-2.102,0.357-2.689,1.061
		c-1.031,1.234-0.712,3.072-0.7,3.127v0.594h-2.065v2.747h2.064v8.019h3.156V8.973h2.488V6.226h-2.486L30.516,5.32z"/>
	<path fill="#FFFFFF" d="M41.303,6.779c-0.372-0.306-0.768-0.551-1.183-0.73c-0.584-0.251-1.217-0.378-1.88-0.378
		c-1.442,0-2.684,0.552-3.69,1.641c-1.001,1.083-1.509,2.488-1.509,4.175c0,1.629,0.524,3.012,1.558,4.112
		c1.039,1.104,2.29,1.665,3.717,1.665c0.636,0,1.237-0.116,1.788-0.345c0.398-0.166,0.8-0.412,1.199-0.733v0.807h3.155V1.873h-3.155
		V6.779z M40.669,9.397c0.497,0.516,0.749,1.206,0.749,2.051c0,0.863-0.252,1.568-0.751,2.096c-0.494,0.522-1.127,0.787-1.88,0.787
		c-0.728,0-1.349-0.27-1.845-0.802c-0.502-0.535-0.756-1.232-0.756-2.072c0-0.834,0.25-1.523,0.742-2.048
		c0.488-0.521,1.11-0.786,1.85-0.786C39.539,8.623,40.175,8.883,40.669,9.397z"/>
	<path fill="#FFFFFF" d="M47.964,1.602c-0.532,0-0.993,0.192-1.369,0.57c-0.376,0.377-0.567,0.838-0.567,1.371
		c0,0.552,0.192,1.028,0.57,1.415c0.38,0.389,0.846,0.586,1.385,0.586c0.524,0,0.982-0.193,1.36-0.575
		c0.375-0.381,0.565-0.848,0.565-1.386c0-0.547-0.192-1.018-0.57-1.4C48.958,1.797,48.496,1.602,47.964,1.602z"/>
	<rect x="46.387" y="6.359" fill="#FFFFFF" width="3.155" height="10.633"/>
	<path fill="#FFFFFF" d="M62.153,11.729c0-1.804-0.549-3.28-1.632-4.387c-1.085-1.108-2.509-1.67-4.232-1.67
		c-1.626,0-3,0.562-4.083,1.67c-1.079,1.107-1.626,2.515-1.626,4.184c0,1.632,0.549,3.012,1.633,4.099
		c1.085,1.088,2.506,1.64,4.221,1.64c1.098,0,2.064-0.199,2.872-0.593c0.81-0.394,1.515-1.01,2.094-1.831l0.173-0.249l-2.662-1.25
		l-0.126,0.122c-0.659,0.641-1.457,0.965-2.37,0.965c-0.762,0-1.393-0.203-1.875-0.605c-0.41-0.339-0.689-0.787-0.832-1.335h8.432
		L62.153,11.729z M53.92,9.895c0.227-0.42,0.466-0.725,0.712-0.906c0.507-0.378,1.108-0.57,1.788-0.57
		c0.621,0,1.173,0.169,1.642,0.504c0.363,0.26,0.636,0.586,0.813,0.972H53.92z"/>
</g>
<g>
	<path fill="#FFFFFF" d="M68.794,1.848h1.402l6.146,14.602h-1.525l-1.589-3.877h-7.733l-1.649,3.877h-1.423L68.794,1.848z
		 M69.434,3.333l-3.403,8.002h6.702L69.434,3.333z"/>
	<path fill="#FFFFFF" d="M78.232,9.603c0-0.701-0.104-2.187-0.104-2.681h1.238c0.021,0.7,0.041,1.484,0.082,1.67
		c0.619-1.113,1.608-1.918,3.032-1.918c0.247,0,0.475,0.041,0.722,0.103l-0.145,1.218c-0.186-0.062-0.351-0.083-0.475-0.083
		c-2.145,0-3.113,1.485-3.113,3.342v5.196h-1.238V9.603z"/>
	<path fill="#FFFFFF" d="M92.533,15.047c-0.929,1.114-2.145,1.65-3.506,1.65c-2.929,0-5.012-2.104-5.012-5.012
		c0-2.908,2.083-5.012,5.012-5.012c1.381,0,2.619,0.598,3.548,1.65l-0.991,0.742c-0.722-0.784-1.567-1.279-2.557-1.279
		c-2.331,0-3.774,1.754-3.774,3.898s1.443,3.897,3.774,3.897c1.03,0,1.918-0.536,2.557-1.319L92.533,15.047z"/>
	<path fill="#FFFFFF" d="M94.596,2.108h1.237v6.483h0.042c0.495-1.052,1.711-1.918,3.258-1.918c2.97,0,3.63,2.021,3.63,4.104v5.671
		h-1.236v-5.608c0-1.548-0.434-3.054-2.394-3.054c-1.836,0-3.3,1.279-3.3,3.898v4.764h-1.237V2.108z"/>
	<path fill="#FFFFFF" d="M105.964,2.22c0.517,0,0.929,0.412,0.929,0.928s-0.412,0.928-0.929,0.928c-0.515,0-0.927-0.412-0.927-0.928
		S105.45,2.22,105.964,2.22z M105.346,6.922h1.237v9.527h-1.237V6.922z"/>
	<path fill="#FFFFFF" d="M125.127,14.655c-0.969,1.443-2.434,2.042-4.124,2.042c-2.909,0-4.826-2.083-4.826-5.032
		c0-2.846,1.979-4.991,4.764-4.991c2.929,0,4.476,2.248,4.476,4.455v0.866h-8.002c0,1.031,0.722,3.588,3.609,3.588
		c1.258,0,2.577-0.659,3.196-1.69L125.127,14.655z M124.179,10.881c0-1.69-1.465-3.094-3.3-3.094c-2.702,0-3.465,2.599-3.465,3.094
		H124.179z"/>
	<path fill="#FFFFFF" d="M135.192,15.047c-0.927,1.114-2.145,1.65-3.505,1.65c-2.929,0-5.012-2.104-5.012-5.012
		c0-2.908,2.083-5.012,5.012-5.012c1.382,0,2.618,0.598,3.547,1.65l-0.989,0.742c-0.723-0.784-1.568-1.279-2.558-1.279
		c-2.332,0-3.774,1.754-3.774,3.898s1.442,3.897,3.774,3.897c1.03,0,1.917-0.536,2.558-1.319L135.192,15.047z"/>
	<path fill="#FFFFFF" d="M138.178,14.744V8.035h-2.062V6.922h2.062V4.179h1.238v2.743h2.722v1.113h-2.722v6.709
		c0,0,0.088,0.547,0.513,0.547c0.426,0,2.21,0,2.21,0v1.135h-2.251C139.888,16.426,138.178,16.426,138.178,14.744z"/>
	<path fill="#FFFFFF" d="M110.643,14.744V8.035h-2.062V6.922h2.062V4.179h1.237v2.743h2.723v1.113h-2.723v6.709
		c0,0,0.088,0.547,0.515,0.547s2.209,0,2.209,0v1.135h-2.25C112.354,16.426,110.643,16.426,110.643,14.744z"/>
	<path fill="#FFFFFF" d="M144.797,14.017c0.517,1.01,1.65,1.566,2.764,1.566c1.073,0,2.187-0.659,2.187-1.753
		c0-2.619-5.651-0.783-5.651-4.414c0-1.854,1.691-2.742,3.259-2.742c1.546,0,2.743,0.577,3.362,1.795l-1.114,0.659
		c-0.474-0.866-1.135-1.341-2.248-1.341c-0.887,0-2.021,0.537-2.021,1.526c0,2.578,5.651,0.577,5.651,4.435
		c0,1.959-1.63,2.949-3.444,2.949c-1.63,0-3.094-0.619-3.835-1.938L144.797,14.017z"/>
</g>
</svg>
