<?xml version="1.0" encoding="utf-8"?>
<!-- Generator: Adobe Illustrator 15.0.0, SVG Export Plug-In . SVG Version: 6.00 Build 0)  -->
<!DOCTYPE svg PUBLIC "-//W3C//DTD SVG 1.1//EN" "http://www.w3.org/Graphics/SVG/1.1/DTD/svg11.dtd">
<svg version="1.1" id="Layer_1" xmlns="http://www.w3.org/2000/svg" xmlns:xlink="http://www.w3.org/1999/xlink" x="0px" y="0px"
	 width="288px" height="205px" viewBox="0 0 288 205" enable-background="new 0 0 288 205" xml:space="preserve">
<g>
	<path fill="#FFFFFF" d="M55.283,154.88h6.733v-8.25h2.362v7.758c0,1.911-0.61,2.403-2.521,2.403h-6.419
		c-1.91,0-2.521-0.492-2.521-2.403v-7.758h2.364V154.88z"/>
	<path fill="#FFFFFF" d="M73.853,153.738c0.396,0,0.473,0.237,0.473,0.729v1.596c0,0.729-0.157,0.729-0.828,0.729h-1.396
		c-0.06,0-0.177,0-0.354,0c-0.394,0-0.473-0.237-0.473-0.729v-1.596c0-0.729,0.157-0.729,0.827-0.729h1.396
		C73.676,153.738,73.794,153.738,73.853,153.738z"/>
	<path fill="#FFFFFF" d="M86.645,148.402v2.187h6.34c1.91,0,2.541,0.491,2.541,2.4v1.398c0,1.911-0.631,2.403-2.541,2.403h-6.28
		c-1.91,0-2.541-0.492-2.541-2.403v-0.275l2.088-0.434v1.201h7.186v-2.322h-6.339c-1.909,0-2.521-0.493-2.521-2.404v-1.122
		c0-1.908,0.611-2.401,2.521-2.401h5.77c1.811,0,2.521,0.472,2.521,2.225v0.217l-2.088,0.492v-1.161H86.645z"/>
	<path fill="#FFFFFF" d="M104.705,153.738c0.393,0,0.472,0.237,0.472,0.729v1.596c0,0.729-0.157,0.729-0.827,0.729h-1.397
		c-0.059,0-0.177,0-0.354,0c-0.395,0-0.474-0.237-0.474-0.729v-1.596c0-0.729,0.159-0.729,0.827-0.729h1.397
		C104.526,153.738,104.646,153.738,104.705,153.738z"/>
	<path fill="#FFFFFF" d="M147.476,146.63h10.398v1.732h-8.035v2.267h4.688v1.731h-4.688v2.52h8.129v1.911h-10.492V146.63z"/>
	<path fill="#FFFFFF" d="M179.487,156.791h-2.363v-8.35h-4.668v-1.812h11.717v1.812h-4.686V156.791z"/>
	<path fill="#FFFFFF" d="M201.632,148.402v2.187h6.34c1.908,0,2.539,0.491,2.539,2.4v1.398c0,1.911-0.631,2.403-2.539,2.403h-6.283
		c-1.91,0-2.539-0.492-2.539-2.403v-0.275l2.088-0.434v1.201h7.188v-2.322h-6.34c-1.912,0-2.521-0.493-2.521-2.404v-1.122
		c0-1.908,0.609-2.401,2.521-2.401h5.768c1.812,0,2.52,0.472,2.52,2.225v0.217l-2.086,0.492v-1.161H201.632z"/>
</g>
<path fill="#FFFFFF" d="M126.045,139.897c-6.603,0-11.959,5.355-11.959,11.96s5.356,11.959,11.959,11.959
	c6.605,0,11.961-5.354,11.961-11.959S132.651,139.897,126.045,139.897z M130.271,154.388c0,1.911-0.608,2.403-2.521,2.403h-4.35
	c-1.91,0-2.521-0.492-2.521-2.403v-2.106l2.383-0.454v3.053h4.647v-8.25h2.361V154.388z"/>
<path fill="#FFFFFF" d="M33.976,95.275c0,0,68.132-5.336,93.167,32.012c0,0,5.473-62.931,141.741-97.407
	c0,0-141.33,10.396-177.887,97.407C90.997,127.287,85.416,106.767,33.976,95.275z"/>
</svg>
