<?xml version="1.0" encoding="utf-8"?>
<!-- Generator: Adobe Illustrator 15.0.0, SVG Export Plug-In . SVG Version: 6.00 Build 0)  -->
<!DOCTYPE svg PUBLIC "-//W3C//DTD SVG 1.1//EN" "http://www.w3.org/Graphics/SVG/1.1/DTD/svg11.dtd">
<svg version="1.1" id="Layer_1" xmlns="http://www.w3.org/2000/svg" xmlns:xlink="http://www.w3.org/1999/xlink" x="0px" y="0px"
	 width="288px" height="205px" viewBox="0 0 288 205" enable-background="new 0 0 288 205" xml:space="preserve">
<g>
	<path fill="#FFFFFF" d="M92.462,132.439h4.129v-5.061h1.448v4.76c0,1.171-0.374,1.473-1.546,1.473h-3.937
		c-1.171,0-1.546-0.302-1.546-1.473v-4.76h1.45L92.462,132.439L92.462,132.439z"/>
	<path fill="#FFFFFF" d="M103.852,131.739c0.243,0,0.29,0.146,0.29,0.446v0.979c0,0.448-0.096,0.448-0.508,0.448h-0.856
		c-0.037,0-0.108,0-0.217,0c-0.242,0-0.291-0.146-0.291-0.448v-0.979c0-0.446,0.097-0.446,0.507-0.446h0.856
		C103.743,131.739,103.815,131.739,103.852,131.739z"/>
	<path fill="#FFFFFF" d="M111.697,128.467v1.341h3.888c1.172,0,1.559,0.302,1.559,1.472v0.857c0,1.172-0.387,1.475-1.559,1.475
		h-3.851c-1.172,0-1.559-0.303-1.559-1.475v-0.169l1.28-0.266v0.737h4.407v-1.425h-3.888c-1.171,0-1.546-0.302-1.546-1.475v-0.688
		c0-1.171,0.375-1.474,1.546-1.474h3.539c1.111,0,1.546,0.29,1.546,1.365v0.133l-1.281,0.303v-0.713H111.697L111.697,128.467z"/>
	<path fill="#FFFFFF" d="M122.773,131.739c0.241,0,0.29,0.146,0.29,0.446v0.979c0,0.448-0.096,0.448-0.507,0.448h-0.857
		c-0.036,0-0.109,0-0.217,0c-0.242,0-0.291-0.146-0.291-0.448v-0.979c0-0.446,0.098-0.446,0.507-0.446h0.856
		C122.663,131.739,122.737,131.739,122.773,131.739z"/>
	<path fill="#FFFFFF" d="M149.006,127.379h6.376v1.062h-4.928v1.391h2.876v1.062h-2.876v1.546h4.985v1.172h-6.434V127.379
		L149.006,127.379z"/>
	<path fill="#FFFFFF" d="M168.637,133.611h-1.449v-5.121h-2.862v-1.111h7.187v1.111h-2.875V133.611z"/>
	<path fill="#FFFFFF" d="M182.219,128.467v1.341h3.889c1.17,0,1.557,0.302,1.557,1.472v0.857c0,1.172-0.387,1.475-1.557,1.475
		h-3.854c-1.171,0-1.557-0.303-1.557-1.475v-0.169l1.28-0.266v0.737h4.408v-1.425h-3.888c-1.174,0-1.547-0.302-1.547-1.475v-0.688
		c0-1.171,0.373-1.474,1.547-1.474h3.537c1.111,0,1.545,0.29,1.545,1.365v0.133l-1.279,0.303v-0.713H182.219L182.219,128.467z"/>
</g>
<path fill="#FFFFFF" d="M135.861,123.25c-4.049,0-7.334,3.285-7.334,7.336s3.285,7.334,7.334,7.334c4.051,0,7.336-3.283,7.336-7.334
	S139.913,123.25,135.861,123.25z M138.453,132.139c0,1.171-0.373,1.473-1.546,1.473h-2.668c-1.171,0-1.546-0.302-1.546-1.473v-1.293
	l1.461-0.277v1.871h2.85v-5.059h1.448L138.453,132.139L138.453,132.139z"/>
<path fill="#FFFFFF" d="M79.395,95.883c0,0,41.786-3.272,57.14,19.633c0,0,3.356-38.596,86.93-59.741
	c0,0-86.678,6.376-109.099,59.741C114.366,115.517,110.943,102.932,79.395,95.883z"/>
</svg>
