<?xml version="1.0" encoding="utf-8"?>
<!-- Generator: Adobe Illustrator 15.0.0, SVG Export Plug-In . SVG Version: 6.00 Build 0)  -->
<!DOCTYPE svg PUBLIC "-//W3C//DTD SVG 1.1//EN" "http://www.w3.org/Graphics/SVG/1.1/DTD/svg11.dtd">
<svg version="1.1" xmlns="http://www.w3.org/2000/svg" xmlns:xlink="http://www.w3.org/1999/xlink" x="0px" y="0px" width="464px"
	 height="640px" viewBox="0 0 464 640" enable-background="new 0 0 464 640" xml:space="preserve">
<symbol  id="shape_14" viewBox="15.5 -301.9 124 330.519">
	<g id="Layer_1_5_">
		<path fill-rule="evenodd" clip-rule="evenodd" fill="#FFFFFF" d="M65.2-10.6l-0.1-0.3l-0.9,0.4
			C58.667-7.467,53.067,1.183,47.4,15.45L60,25.1c5.767-6.067,17.367-11.4,34.8-16L65.2-10.6z"/>
		<path fill-rule="evenodd" clip-rule="evenodd" fill="none" stroke="#666666" stroke-width="5.25" stroke-miterlimit="3" d="
			M65.2-10.6L94.8,9.1c-17.433,4.6-29.033,9.933-34.8,16l-12.6-9.65 M95.5,9.6l-0.7-0.5"/>
		<path fill-rule="evenodd" clip-rule="evenodd" fill="none" stroke="#666666" stroke-width="5.25" stroke-miterlimit="3" d="
			M47.4,15.45C53.067,1.183,58.667-7.467,64.2-10.5l0.9-0.4l0.6-0.25"/>
	</g>
	<g id="Layer_2_2_">
		<polygon fill-rule="evenodd" clip-rule="evenodd" fill="#FFFFFF" points="103.5,8.75 103.75,8.75 105.35,-24.2 49.65,-24.2 
			51.2,8.75 103.2,8.75 		"/>
		
			<polyline fill-rule="evenodd" clip-rule="evenodd" fill="none" stroke="#666666" stroke-width="5.25" stroke-miterlimit="3" points="
			103.5,8.75 103.75,8.75 105.35,-24.2 49.65,-24.2 51.2,8.75 103.2,8.75 		"/>
		
			<line fill-rule="evenodd" clip-rule="evenodd" fill="none" stroke="#666666" stroke-width="5.25" stroke-miterlimit="3" x1="103.2" y1="8.75" x2="103.5" y2="8.75"/>
	</g>
	<g id="Layer_3_1_">
		<path fill-rule="evenodd" clip-rule="evenodd" fill="#FFFFFF" d="M92.5-5.4c0-1.934-0.683-3.583-2.05-4.95s-3.017-2.05-4.95-2.05
			s-3.583,0.683-4.95,2.05S78.5-7.333,78.5-5.4c0,1.933,0.683,3.583,2.05,4.95S83.567,1.6,85.5,1.6s3.583-0.684,4.95-2.05
			S92.5-3.467,92.5-5.4z"/>
		<path fill-rule="evenodd" clip-rule="evenodd" fill="none" stroke="#666666" stroke-width="2" stroke-miterlimit="3" d="M92.5-5.4
			c0-1.934-0.683-3.583-2.05-4.95s-3.017-2.05-4.95-2.05s-3.583,0.683-4.95,2.05S78.5-7.333,78.5-5.4c0,1.933,0.683,3.583,2.05,4.95
			S83.567,1.6,85.5,1.6s3.583-0.684,4.95-2.05S92.5-3.467,92.5-5.4z"/>
	</g>
	<g id="Layer_4_1_">
		<path fill-rule="evenodd" clip-rule="evenodd" fill="#FFFFFF" d="M138.5-211.85h-122v4.95h122V-211.85z M16.5-295.9h122v-5h-122
			V-295.9z"/>
		<polygon fill-rule="evenodd" clip-rule="evenodd" fill="#CC0000" points="16.5,-211.85 138.5,-211.85 138.5,-295.9 16.5,-295.9 		
			"/>
		<polygon fill-rule="evenodd" clip-rule="evenodd" fill="none" stroke="#666666" stroke-width="2" stroke-miterlimit="3" points="
			16.5,-211.85 16.5,-206.9 138.5,-206.9 138.5,-211.85 138.5,-295.9 138.5,-300.9 16.5,-300.9 16.5,-295.9 		"/>
	</g>
</symbol>
<symbol  id="shape_15" viewBox="-60.05 -197.4 132.4 309.3">
	<g id="Layer_1_6_">
		<path fill-rule="evenodd" clip-rule="evenodd" fill="#FFFFFF" d="M0.9,26.4c-6.3,7.934-10.867,13.85-13.7,17.75
			c-10.434,14.333-17.067,24-19.9,29c-4.233,7.367-13.35,20.283-27.35,38.75h32.25v-6.25c0.066-15.6,4.183-30.6,12.35-45
			c2.967-5.167,9.034-14.383,18.2-27.65C12.783,18.533,20.567,6.717,26.1-2.45c9.5-15.667,16.267-27.8,20.3-36.4
			C51.8-50.517,57.183-65.5,62.55-83.8c3.5-11.9,6.017-23.383,7.55-34.45c1.066-7.733,1.816-16.7,2.25-26.9l-1.15-29.5
			c-0.867-9.7-1.817-17.283-2.85-22.75h-41.7c6.733,18.4,11.383,37.917,13.95,58.55c2.367,19.667,2.833,38.367,1.4,56.1
			c-1.867,22.9-5,40.95-9.4,54.15c-3.367,9.934-10.667,23.817-21.9,41.65C8.9,15.917,5.633,20.367,0.9,26.4z"/>
	</g>
</symbol>
<symbol  id="shape_17" viewBox="0.05 -82.15 134.3 82.15">
	<g id="Layer_1_7_">
		<linearGradient id="SVGID_1_" gradientUnits="userSpaceOnUse" x1="67.9272" y1="-140.3447" x2="68.3068" y2="-15.2947">
			<stop  offset="0" style="stop-color:#BEBEBE;stop-opacity:0"/>
			<stop  offset="1" style="stop-color:#000000;stop-opacity:0.2627"/>
		</linearGradient>
		<path fill-rule="evenodd" clip-rule="evenodd" fill="url(#SVGID_1_)" d="M132.8-31.05l0.05-0.05l0.1-0.2L132.8-31.05z
			 M133.95-37.6l0.15,0.5v0.05l0.25-0.05l-0.05-0.05v-0.1L133.95-37.6z M109.7-50.25l-0.05-0.3l-0.3-0.05l0.05,0.3L109.7-50.25z
			 M112.65-43.55l-0.4-0.1l0.2,0.3l0.4,0.15L112.65-43.55z M96.45-58.5l0.2,0.1l0.15-0.2l-0.25-0.1L96.45-58.5z M56.1-55.1v-0.1
			l-0.05-0.35L55.9-55.7l-0.1,0.25L56.1-55.1z M67.25-74l-0.15-0.05h0.05L67.25-74z M75.65-51.6l0.1,0.3l0.15-0.35l-0.1-0.3
			L75.65-51.6z M64.8-45.55l-0.3-0.05l0.15,0.3l0.3,0.1L64.8-45.55z M65.85-37.25L65.8-37.3l-0.2-0.15v0.1l0.05,0.25l0.05,0.05
			l0.25,0.15L65.85-37.25z M46.85-63.9l0.1,0.05l-0.2-0.45l-0.15-0.05L46.85-63.9z M30.15-47.2l-0.2-0.45v-0.1L29.9-47.8l-0.2,0.05
			v0.1c0.066,0.167,0.183,0.283,0.35,0.35L30.15-47.2z M48.05-25.8l-0.5-0.25l0.05,0.15l0.3,0.35L48-25.5L48.05-25.8z M59.55-23.75
			l0.15,0.1L60-23.6h0.15l0.25-0.1l-0.2,0.05h-0.05l-0.1-0.25L59.55-23.75z M54.45-23.45l-0.5-0.15H53.9l-0.15,0.25h0.15l0.35-0.05
			L54.45-23.45z M51.2-24.3l-0.45-0.2H50.7l-0.15,0.2l0.15,0.05h0.35L51.2-24.3z M78.15-17.9l0.4,0.2l-0.2-0.35l-0.4-0.25
			L78.15-17.9z M74.5-18.85l0.55-0.2L74.8-19.1l-0.4,0.05L74.25-19L74.5-18.85z M92.5-3.65L92.45-3.7L92-3.85l0.05,0.1l0.4,0.35
			h0.05V-3.65z M89.95-25.4l-0.35-0.15l0.2,0.35l0.3,0.1L89.95-25.4z M104.65-26.85l-0.35,0.35h0.05l0.45-0.15l0.1-0.05v-0.05
			L104.65-26.85z M106.35-33.6l0.15,0.45v0.05l0.25-0.05v-0.05L106.35-33.6z M106.15-34.75l-0.45-0.35l0.25,0.5l0.45,0.4
			L106.15-34.75z M121.9-36.1l-0.1,0.05l-0.05,0.15L121.9-36.1z M122-36.45v-0.1l-0.15-0.4l-0.05,0.05l-0.05,0.45v0.05l0.05,0.05
			L122-36.45z M98.65-7.95V-8L98.5-8.25L98.65-7.95z M82.7-39.6l-0.35-0.1l0.2,0.3l0.4,0.1L82.7-39.6z M93.55-32.35v-0.1l-0.2-0.45
			c-0.067,0.167-0.083,0.333-0.05,0.5l0.05,0.1L93.55-32.35z M93.3-32l0.15-0.2l-0.1,0.1L93.3-32z M89.65-32.75l0.3,0.05l-0.1-0.05
			H89.65z M88.45-44.3l0.25,0.05l0.05-0.15l-0.1-0.4l-0.2-0.05L88.3-44.6l0.25,0.05L88.45-44.3z M117.55-41.1l0.1,0.05l-0.25-0.25
			L117.55-41.1z M105.85-64.6h-0.05l0.25-0.15L105.85-64.6z M2.5-57.2l0.05-0.35l0.25,0.3c0.034-2.4,0.45-4.683,1.25-6.85v-0.05
			c1.534-4.233,4.333-7.7,8.4-10.4h0.1c2.967-2.1,7-3.417,12.1-3.95c3.3-0.333,7.483-0.333,12.55,0l0.15-0.1l0.35-0.1h0.1
			l-0.05,0.25L64.5-74.1h0.25l2.3,0.3h0.1l2.45,0.35c3.267,0.167,6.217,0.15,8.85-0.05c6.833-0.933,11.7-3.15,14.6-6.65H93
			c0.267-0.333,0.6-0.533,1-0.6l0.2-0.05l0.95,0.05c3.9,1.433,7.934,2.133,12.1,2.1l14.65-1.25h0.1l9.4-1.75l1,0.1l0.7,0.6h0.05
			L133.4-80v0.3c0,0.4-0.133,0.75-0.4,1.05c-3.367,4.133-9.483,7.867-18.35,11.2c-1.733,0.633-4.683,1.5-8.85,2.6h-0.05l-0.1,0.05
			c-3.667,0.733-7.5,1.183-11.5,1.35h-0.1c-2,0.167-4.283,0.217-6.85,0.15l-11.05-0.75l-0.1-0.05l-7.75-1.3h-0.05l-23.9-4.75H44.3
			l-5.6-0.3c-3.167-0.133-6.133,0.333-8.9,1.4c-2.767,1.033-4.816,2.5-6.15,4.4l-0.05,0.1l-0.05,0.05
			c-1.3,1.767-1.95,3.95-1.95,6.55c0,2.267,0.45,4.65,1.35,7.15v0.05c3.066,8.2,7.833,15.717,14.3,22.55h0.1
			c5.933,6.4,11.9,11.184,17.9,14.35h0.05l0.05-0.25l0.3,0.3v0.15l0.8,0.35L56-13.8l0.1,0.05v-0.15l0.05,0.15l0.4,0.2l-0.2-0.2
			v-0.05H56.3c-1-1.1-1.617-2.233-1.85-3.4v-0.1c-0.333-1.5-0.034-2.817,0.9-3.95l0.05-0.25l0.1-0.2l0.1-0.1l0.1,0.25v-0.05
			c1.333-1.033,2.683-1.467,4.05-1.3c2.2,0.267,4.133,1.167,5.8,2.7c1.267,1.2,2.233,2.6,2.9,4.2l0.15,0.1l0.2,0.25l-0.25,0.05v0.05
			c1.3,4.233,0.5,7.167-2.4,8.8c-2.3,1.867-5.9,2.45-10.8,1.75H55.3c-11-1.767-21.633-7.067-31.9-15.9l-0.1-0.05V-21
			C17.2-26.733,12.433-32.35,9-37.85L8.45-37.8c3.5,5.566,8.333,11.283,14.5,17.15v0.05l0.15,0.1c10.333,8.9,21.033,14.233,32.1,16
			h0.2c4.967,0.7,8.65,0.1,11.05-1.8c3.1-1.767,3.966-4.883,2.6-9.35v-0.15c-0.667-1.867-1.716-3.45-3.15-4.75
			c-1.733-1.633-3.767-2.583-6.1-2.85l-0.5-0.05l-2,0.35c-0.633,0.233-1.267,0.617-1.9,1.15l-0.15,0.1L55.2-21.8
			c-1.233,1.3-1.65,2.816-1.25,4.55v0.2c0.2,0.867,0.6,1.716,1.2,2.55c-5.867-3.133-11.683-7.8-17.45-14l-0.15-0.15
			c-6.367-6.7-11.066-14.1-14.1-22.2l-0.05-0.1c-0.867-2.433-1.3-4.767-1.3-7c0.033-2.466,0.667-4.55,1.9-6.25l0.05-0.1v-0.05
			c1.3-1.833,3.267-3.25,5.9-4.25c2.733-1.033,5.65-1.483,8.75-1.35l5.65,0.3l23.75,4.7l0.05,0.05h0.05l7.75,1.3H76l0.05,0.05
			L87.2-62.8c2.533,0.066,4.8,0.017,6.8-0.15h0.15c4.033-0.167,7.9-0.617,11.6-1.35h0.1l0.15-0.05c4.133-1.1,7.083-1.983,8.85-2.65
			c8.967-3.367,15.15-7.133,18.55-11.3c0.333-0.434,0.5-0.9,0.5-1.4V-80l-0.35-1.2l-1-0.8l-1.25-0.15l-4.65,0.9h-0.1l-4.6,0.85h-0.1
			l-13.6,1.2h-1.05c-4.1,0.034-8.067-0.633-11.9-2v-0.05l-1.2-0.05l-0.2,0.05l-1.3,0.8c-2.8,3.367-7.533,5.517-14.2,6.45
			c-2.633,0.167-5.533,0.167-8.7,0l-2.5-0.3h-0.1l-2.25-0.3H64.6L37.75-79H37.6c-5.267-0.367-9.6-0.367-13,0
			c-5.2,0.533-9.317,1.867-12.35,4l-0.05,0.05c-4.167,2.767-7.034,6.317-8.6,10.65H3.55v0.05c-0.7,1.967-1.117,4.017-1.25,6.15
			C1.933-58.433,2-58.133,2.5-57.2z M95.35-51.15l0.15,0.2l0.25,0.1l-0.5-0.65L95.35-51.15z M93.15-50.9l-0.1,0.1v0.05L93.15-50.9z
			 M82.05-60.85l0.15-0.1h-0.05L82.05-60.85z M90.85-61.5H90.7l0.2,0.05L90.85-61.5z M124.1-60.15h-0.025H124.1z M124.1-60.1
			l0.5,0.15l0.1,0.05l-0.15-0.1l-0.1-0.05l-0.3-0.05H124.1z M129-58.4c0.867,0,1.567-0.283,2.1-0.85c0.566-0.6,0.85-1.283,0.85-2.05
			c0-0.767-0.284-1.45-0.85-2.05c-0.567-0.566-1.25-0.85-2.05-0.85c-0.8,0.034-1.466,0.317-2,0.85H127
			c-0.567,0.567-0.85,1.25-0.85,2.05c0,0.566,0.15,1.083,0.45,1.55c0.3,0.5,0.683,0.85,1.15,1.05L129-58.4z M127.85-58.95
			c-0.4-0.167-0.733-0.483-1-0.95c-0.3-0.434-0.45-0.9-0.45-1.4c0-0.733,0.267-1.35,0.8-1.85c0.5-0.5,1.117-0.767,1.85-0.8
			c0.733,0,1.35,0.25,1.85,0.75l0.05,0.05c0.5,0.533,0.75,1.15,0.75,1.85c0,0.7-0.25,1.316-0.75,1.85c-0.5,0.534-1.15,0.8-1.95,0.8
			L127.85-58.95z M73.55-13.25l0.25,0.05l-0.35-0.1L73.55-13.25z M56.85-31.3l-0.15-0.3l0.05-0.2l0.15-0.25h0.05L57-32.1l-0.05-0.25
			l-0.1,0.05l-0.1-0.05l0.05,0.05h0.05l-0.05,0.05h-0.05l-0.25,0.4l-0.05,0.2l0.05,0.25v0.05h0.05L56.85-31.3z M58.15-35.1H57.9
			L57.75-35h-0.1l-0.25,0.3c-0.066,0.167-0.083,0.333-0.05,0.5v0.05l0.25-0.1l-0.05-0.05l0.1-0.3l0.2-0.2l0.1-0.05h0.2l0.1,0.05
			L58.15-35.1z M56.9-36.9l0.05,0.05l0.3,0.1l0.25-0.05l0.25-0.1l-0.05-0.25l-0.25,0.1H57.2l-0.2-0.1h-0.1l-0.1,0.05h0.05l0.35,0.15
			L56.9-36.9z M55.2-33.1l-0.15-0.15l0.3,0.65L55.2-33.1z M56.85-37.35v-0.05H56.7L56.85-37.35z M48.35-42.5l0.1,0.2l0.25-0.1
			l-0.15-0.25L48.35-42.5z M47.2-44.4l0.2,0.5l0.25-0.05L47.6-44.1h-0.05L47.2-44.4z M53.1-44.55l0.25-0.05l-0.15-0.25l-0.25,0.1
			L53.1-44.55z M71.15-32.1v0.1l0.1,0.05L71.15-32.1z M62.45-45.95L62.15-46l0.05,0.1l0.05,0.05l0.3,0.1l0.05,0.05h0.05l-0.05-0.05
			L62.45-45.95z M23.3-20.7h-0.05l-0.05-0.05L23.3-20.7z M8.2-38L9-37.85L8.15-38.1L8.2-38z M8.2-38.2l0.55-0.05L7.7-40v0.05
			l0.4,1.5L8.2-38.2z M28.2-52.55v0.05l0.05,0.1L28.2-52.55z M23.75-64.35l0.05-0.1l0.1-0.3v0.05l-0.1,0.25v0.05L23.75-64.35z
			 M34.25-67h-0.2l-0.15,0.1L34.25-67z M12.35-74.75l0.05-0.05h0.1L12.35-74.75z M44.7-51.25l0.05,0.15v-0.05L44.7-51.25z
			 M44.6-53.5h0.2l0.15-0.15L44.6-53.5z M46.1-64.55l0.35,0.1L46.4-64.5L46.1-64.55z M58.45-65.7l0.15,0.05l-0.1-0.05H58.45z"/>
		<linearGradient id="SVGID_2_" gradientUnits="userSpaceOnUse" x1="68.1328" y1="-140.3452" x2="68.5124" y2="-15.2952">
			<stop  offset="0" style="stop-color:#BEBEBE;stop-opacity:0"/>
			<stop  offset="1" style="stop-color:#000000;stop-opacity:0.5294"/>
		</linearGradient>
		<path fill-rule="evenodd" clip-rule="evenodd" fill="url(#SVGID_2_)" d="M65.85-37.25l2.65,2.2l2.85,2.85l7,14.15l0.2,0.35
			l-0.4-0.2l-1.7-0.95L75.4-19.1l-0.35,0.05l-0.55,0.2l-0.1,0.05L73.75-18l-0.95,2.05c-0.2,0.434-0.233,0.883-0.1,1.35
			s0.417,0.833,0.85,1.1h0.05l15.85,8.45L92-3.85l0.45,0.15l0.05,0.05h0.05C93.417-3.317,94.233-3.167,95-3.2h0.05
			c1.4-0.066,2.367-0.583,2.9-1.55c0.6-0.767,0.767-1.783,0.5-3.05v-0.1L89.8-25.2l-0.2-0.35l0.35,0.15l0.95,0.35
			c2.3,0.733,4.6,1,6.9,0.8c2.833-0.267,5-1.017,6.5-2.25l0.35-0.35l0.05-0.05c1.767-1.6,2.383-3.6,1.85-6l-0.05-0.2v-0.05
			l-0.15-0.45l-0.4-1l-0.25-0.5l0.45,0.35c2.8,2.233,5.817,3.9,9.05,5h0.05c3.667,1.267,7.283,1.667,10.85,1.2h0.1
			c3.066-0.467,5.2-1.35,6.4-2.65l0.05-0.1c1.5-1.367,2-3.25,1.5-5.65L134.1-37v-0.05v-0.05l-0.15-0.5
			c-0.633-2-1.817-3.783-3.55-5.35c-1.767-1.633-4.117-2.933-7.05-3.9l-7.9-2.3h-0.15l-5.6-1.1l-0.3-0.05l-0.05-0.3
			c-0.2-1.267-0.083-2.267,0.35-3c0.667-0.733,1.883-1.217,3.65-1.45l5.9,0.5c2.4,0.566,4.733,1.417,7,2.55l1.3,0.15h0.05l1.05-0.75
			l1.2-1.65l0.4-0.95l-0.2-1.05l-0.7-0.75l-2.15-1.35l-0.1-0.05l-0.05-0.05l-2.8-1.4l-0.05-0.05c-3.667-1.633-6.883-2.75-9.65-3.35
			l-8.65-0.45c-2.833,0.333-5.1,1.167-6.8,2.5c-0.967,0.733-1.733,1.6-2.3,2.6l-0.15,0.2l-0.2-0.1l-0.7-0.4
			c-1.933-1.1-3.55-1.867-4.85-2.3l-0.1-0.05l-4.15-0.7h-0.1c-1.633,0.067-3.033,0.45-4.2,1.15h0.05l-0.15,0.1
			c-1.1,0.667-2.1,1.667-3,3l-0.1,0.1c-0.7,1.033-1.566,2.583-2.6,4.65H76.5v0.05l-0.6,1.25l-0.15,0.35l-0.1-0.3l-4.8-10.7
			l-0.55-0.75l-0.85-0.35l-5.35-0.95L64-64.4h-0.05l-5.35-1h-0.05l-1.4,0.2c-0.433,0.233-0.717,0.6-0.85,1.1
			c-0.133,0.467-0.1,0.934,0.1,1.4v0.05l8.4,17.1l0.15,0.35l-0.3-0.1l-1.15-0.3h-0.15l-0.4-0.05l-0.3-0.05H62.6l0.1,0.1l0.05,0.1
			v0.1l0.75,0.05l1.95,0.6l-8.8-18.05c-0.2-0.4-0.233-0.817-0.1-1.25c0.133-0.4,0.383-0.717,0.75-0.95l1.15-0.2h0.05l5.45,1.05H64
			l5.4,1l0.75,0.35l0.45,0.6l5.2,11.5l0.95-2.1l0.05-0.05c1-2.066,1.867-3.6,2.6-4.6h-0.05l0.05-0.05
			c0.934-1.367,1.95-2.383,3.05-3.05l0.05-0.05c1.133-0.667,2.483-1.033,4.05-1.1h0.05l4.1,0.7l0.1,0.05h0.05
			c1.267,0.434,2.867,1.184,4.8,2.25l0.05,0.05L96.75-58c0.567-1.167,1.4-2.167,2.5-3c1.667-1.3,3.9-2.117,6.7-2.45H106l8.5,0.45
			c2.767,0.6,5.967,1.717,9.6,3.35l0.05,0.05h0.1l2.7,1.4H127l0.1,0.05l2.1,1.35l0.6,0.7l0.15,0.9l-0.3,0.8l-1.2,1.65
			c-0.233,0.333-0.55,0.55-0.95,0.65l-1.15-0.15c-2.267-1.133-4.617-1.983-7.05-2.55l-5.95-0.5h-0.05
			c-1.8,0.233-3.066,0.75-3.8,1.55c-0.533,0.833-0.633,2.05-0.3,3.65l6.05,1.2h0.15l7.9,2.3c2.867,0.934,5.184,2.217,6.95,3.85
			c1.8,1.633,3,3.533,3.6,5.7v0.1l0.05,0.05c0.5,2.333,0.017,4.167-1.45,5.5c-1.2,1.267-3.3,2.133-6.3,2.6h-0.05
			c-3.533,0.466-7.133,0.066-10.8-1.2c-3.4-1.133-6.55-2.9-9.45-5.3l-1.25-1.05l-2.25-2.4l-0.05-0.05v0.05l-0.05-0.1l-0.1-0.1v0.05
			h-0.05l2.5,2.55c0.767,1.033,1.316,2.133,1.65,3.3L106.3-33v0.15c0.534,2.3-0.05,4.233-1.75,5.8L104.5-27
			c-1.467,1.4-3.717,2.233-6.75,2.5c-2.267,0.2-4.517-0.067-6.75-0.8l-1.95-0.75l9.15,18.2v0.1c0.267,1.2,0.117,2.15-0.45,2.85
			L97.7-4.85c-0.5,0.867-1.383,1.333-2.65,1.4H95L92.6-3.9h-0.05l-10.6-5.3l-8.2-4.5l-0.1-0.05c-0.367-0.2-0.6-0.5-0.7-0.9
			c-0.133-0.4-0.117-0.8,0.05-1.2l0.95-2l0.6-0.75l0.1-0.05l0.75-0.2l0.9,0.2l2.85,1.6l0.05,0.1v-0.1h-0.05l-7.5-15.25l-5.75-5.25
			l-0.65-0.3l0.1,0.5v0.1l0.55,3v0.1c0.333,5.1-1.55,8.417-5.65,9.95l-0.2,0.05h-0.1L57.1-23.6h-0.05L54-23.85h-0.1l-3.05-0.9h-0.1
			v-0.05H50.7L48.15-26H48.1L48-26.1c-7.667-4.6-13.6-11.816-17.8-21.65v-0.05l-0.05-0.05l-1.4-4.6v0.05l-0.05-0.15
			c-0.367-1.7-0.534-3.317-0.5-4.85v-0.1c0.167-2.133,0.566-3.817,1.2-5.05v0.05l0.05-0.1c0.933-1.833,2.5-3.133,4.7-3.9h0.1
			c1.8-0.6,3.95-0.583,6.45,0.05c1.8,0.5,3.617,1.3,5.45,2.4h0.1l0.15,0.15c3.4,2.4,6.45,5.233,9.15,8.5l0.05,0.1
			c1.9,2.333,3.95,5.383,6.15,9.15v-0.05L62-45.75l0.25-0.1L62.2-45.9L62.15-46l-0.05-0.05l-0.1-0.2l-0.05-0.05
			c-2.067-3.567-4.017-6.5-5.85-8.8l-0.3-0.35l-0.05-0.1c-2.6-3.167-5.533-5.934-8.8-8.3l-0.1-0.05l-0.35-0.25l-0.05-0.05l-0.2-0.1
			c-1.833-1.067-3.667-1.867-5.5-2.4c-2.533-0.667-4.733-0.683-6.6-0.05l-0.1,0.05c-2.233,0.767-3.85,2.1-4.85,4h0.05l-0.05,0.05
			c-0.667,1.267-1.083,2.967-1.25,5.1v0.15c-0.034,1.566,0.133,3.2,0.5,4.9l0.05,0.1c0.3,1.267,0.767,2.8,1.4,4.6l0.05,0.05v0.1
			l0.2,0.45c4.167,9.534,9.967,16.583,17.4,21.15l0.5,0.25v0.05l2.55,1.2h0.05l0.05,0.05h0.05l0.45,0.2l2.7,0.7h0.05l0.5,0.15
			l2.65,0.1l2.45-0.4l0.5-0.15h0.05l0.25-0.05c4.2-1.6,6.133-5,5.8-10.2v-0.1l-0.5-2.85l-0.05-0.25v-0.1l0.2,0.15L65.85-37.25z
			 M112.65-43.55c1.867,0.6,3.55,1.35,5.05,2.25l0.1,0.1h0.05c2,1.267,3.333,2.684,4,4.25l0.15,0.4v0.1l0.05,0.55l-0.5,0.15
			c-0.767,0.067-1.617-0.15-2.55-0.65c-1.133-0.6-2.25-1.5-3.35-2.7l-3.2-4.25l-0.2-0.3L112.65-43.55z M67.25-74l-0.1-0.05H67.1
			L67.25-74z M101.2-39.9l-0.6-0.45l0.45,0.65l0.8,0.55L101.2-39.9z M122.25-35.75v-0.8c-0.567-1.8-2-3.417-4.3-4.85l-0.1-0.1
			c-1.767-1.067-3.817-1.933-6.15-2.6c1,1.733,2.25,3.45,3.75,5.15l0.05,0.05c1.067,1.2,2.2,2.117,3.4,2.75
			c0.967,0.5,1.867,0.717,2.7,0.65L122.25-35.75z M93.8-31.8v-0.65c-0.6-1.833-2.2-3.466-4.8-4.9c-2.067-1.167-4.483-2.1-7.25-2.8
			c1.1,1.733,2.5,3.45,4.2,5.15c1.2,1.2,2.45,2.117,3.75,2.75l0.05,0.05c1.167,0.567,2.233,0.8,3.2,0.7L93.8-31.8z M82.55-39.4
			l-0.2-0.3l0.35,0.1c2.333,0.633,4.4,1.45,6.2,2.45c2.233,1.3,3.717,2.717,4.45,4.25l0.2,0.45v0.1v0.4l-0.6,0.2H92.9
			c-0.9,0.067-1.9-0.167-3-0.7h-0.15c-1.233-0.633-2.433-1.55-3.6-2.75C84.75-36.567,83.55-37.967,82.55-39.4z M95.85-51.15
			l-0.3-0.3L95.5-51.5l0.05,0.3l0.3,0.1V-51.15z M88.45-44.3l0.1-0.25L88.3-44.6l-0.1,0.2v0.05L88.45-44.3z M90.65-48.15l0.05-0.05
			v-0.05L90.65-48.15z M68.45-16l0.1,0.35v0.05l0.25-0.05l-0.2-0.25L68.45-16z M55.35-21.25l0.25-0.2l0.1-0.1l-0.1-0.25l-0.1,0.1
			l-0.1,0.2L55.35-21.25z M56.45-13.3L57.2-13l-0.65-0.55l-0.4-0.2L56.1-13.9v0.15L56-13.8L56.45-13.3z M55.3-13.85v0.05l0.35,0.15
			v-0.15l-0.3-0.3L55.3-13.85z M37.2-78.5l0.35,0.05h0.2l0.05-0.25h-0.1l-0.35,0.1L37.2-78.5z M2.5-57.2v0.05l0.25,0.25l0.05-0.15
			v-0.2l-0.25-0.3L2.5-57.2z M105.85-64.6l0.2-0.15l-0.25,0.15H105.85z M92.95-51.05l-0.05,0.1L92.95-51V-51.05z M127.95-59.15
			c-0.367-0.167-0.667-0.45-0.9-0.85c-0.233-0.4-0.35-0.833-0.35-1.3c0-0.667,0.233-1.233,0.7-1.7c0.434-0.433,0.983-0.667,1.65-0.7
			c0.667,0.034,1.233,0.267,1.7,0.7c0.433,0.5,0.667,1.067,0.7,1.7c-0.034,0.633-0.267,1.183-0.7,1.65
			c-0.433,0.5-1.017,0.75-1.75,0.75L127.95-59.15z M127.85-58.95l1.15,0.3c0.8,0,1.45-0.267,1.95-0.8c0.5-0.533,0.75-1.15,0.75-1.85
			c0-0.7-0.25-1.317-0.75-1.85l-0.05-0.05c-0.5-0.5-1.117-0.75-1.85-0.75c-0.733,0.034-1.35,0.3-1.85,0.8
			c-0.534,0.5-0.8,1.117-0.8,1.85c0,0.5,0.15,0.966,0.45,1.4C127.117-59.433,127.45-59.117,127.85-58.95z M57-32.1l-0.05,0.05H56.9
			l-0.15,0.25l-0.05,0.2l0.15,0.3l0.35-0.05v-0.05l-0.15-0.05L57-31.55v-0.15l0.05-0.15h0.05l-0.05-0.25H57z M58.2-34.55l0.1-0.05
			l-0.05-0.2l-0.1-0.05h-0.2l-0.1,0.05l-0.2,0.2l-0.1,0.3l0.05,0.05v0.05l0.2-0.1h0.05l-0.05-0.05l0.05-0.1L58-34.6h0.1L58.2-34.55z
			 M57.05-37.45l-0.2,0.05v0.05v0.05L57-37.15l0.2,0.1h0.25l0.25-0.1l-0.1-0.4v0.05l-0.05,0.15l-0.15,0.1l-0.15-0.05l-0.15-0.1
			v-0.05H57.05z M54.95-33l0.15,0.4L55-32.95L54.95-33z M55.8-32.4h-0.1l0.15,0.05L55.8-32.4z M48.1-42.45l0.25,0.55
			c1.5-0.967,3.3-1.833,5.4-2.6l-1.05-1.7h-0.05L50.8-49v-0.05c-1.466-1.934-3.117-3.5-4.95-4.7h-0.1L45-54h-0.45
			c-0.4,0.367-0.583,0.833-0.55,1.4v0.1l0.2,1.3l0.05,0.1v0.05l0.3,1.3l2.6,5.9L48.1-42.45z M53.2-44.85l0.15,0.25l-0.25,0.05
			c-1.667,0.667-3.133,1.383-4.4,2.15l-0.25,0.1l-0.1-0.2l-0.05-0.1l-0.9-1.3l-0.2-0.5l-2.35-5.45l-0.4-1.45v0.05l-0.2-1.25v-0.1
			c-0.033-0.467,0.1-0.85,0.4-1.15H45l0.7,0.2h-0.05c1.833,1.167,3.483,2.716,4.95,4.65l1.85,2.8l0.05,0.05L53.2-44.85z M62.4-45.55
			l-0.1-0.2h-0.25l0.2,0.15L62.4-45.55l0.05,0.1v-0.05L62.4-45.55z M23.3-20.7l-0.1-0.05l0.05,0.05H23.3z M4.2-46.9l-0.1-0.2v0.1
			L4.2-46.9z M23.75-64.35l0.05-0.05v-0.05l0.1-0.25v-0.05l-0.1,0.3L23.75-64.35z M12.35-74.75l0.15-0.05h-0.1L12.35-74.75z"/>
		<linearGradient id="SVGID_3_" gradientUnits="userSpaceOnUse" x1="66.7764" y1="-140.3413" x2="67.1559" y2="-15.2913">
			<stop  offset="0" style="stop-color:#BEBEBE;stop-opacity:0"/>
			<stop  offset="1" style="stop-color:#000000;stop-opacity:0.8"/>
		</linearGradient>
		<path fill-rule="evenodd" clip-rule="evenodd" fill="url(#SVGID_3_)" d="M62.75-45.4l-0.3-0.05l0.05,0.05v0.2l-0.15,0.15h-0.2
			l-0.1-0.15v0.05L62-45.3v-0.05l0.05-0.15l0.05-0.05l-0.1-0.2l-0.25-0.45v0.05c-2.2-3.767-4.25-6.817-6.15-9.15l-0.05-0.1
			c-2.7-3.267-5.75-6.1-9.15-8.5l-0.15-0.15h-0.1c-1.833-1.1-3.65-1.9-5.45-2.4c-2.5-0.633-4.65-0.65-6.45-0.05h-0.1
			c-2.2,0.767-3.767,2.067-4.7,3.9l-0.05,0.1v-0.05c-0.633,1.233-1.033,2.917-1.2,5.05v0.1c-0.034,1.533,0.133,3.15,0.5,4.85
			l0.05,0.15v-0.05l1.4,4.6l0.05,0.05v0.05C34.4-37.917,40.333-30.7,48-26.1l0.1,0.1h0.05l2.55,1.2h0.05v0.05h0.1l3.05,0.9H54
			l3.05,0.25h0.05l2.85-0.55h0.1l0.2-0.05c4.1-1.533,5.983-4.85,5.65-9.95v-0.1l-0.55-3v-0.1l-0.1-0.5l0.65,0.3l5.75,5.25l7.5,15.25
			h0.05v0.1l-0.05-0.1l-2.85-1.6l-0.9-0.2l-0.75,0.2l-0.1,0.05l-0.6,0.75l-0.95,2c-0.167,0.4-0.183,0.8-0.05,1.2
			c0.1,0.4,0.333,0.7,0.7,0.9l0.1,0.05l8.2,4.5l10.6,5.3h0.05L95-3.45h0.05c1.267-0.066,2.15-0.533,2.65-1.4l0.05-0.05
			c0.567-0.7,0.717-1.65,0.45-2.85v-0.1l-9.15-18.2L91-25.3c2.233,0.733,4.483,1,6.75,0.8c3.033-0.267,5.283-1.1,6.75-2.5l0.05-0.05
			c1.7-1.567,2.284-3.5,1.75-5.8V-33l-0.05-0.05c-0.333-1.167-0.883-2.267-1.65-3.3l-2.5-2.55l-0.15,0.05h-0.1l-0.05-0.05h-0.05
			l-3.2-1.95l-3.8-1.5l-0.1-0.05l-6.3-1.7H88.3l-0.15-0.05h-0.1v0.05L88-44.15l-0.15-0.3h0.1v-0.05L88-44.55l0.05-0.1v-0.05
			l1.85-3.2l0.4-0.55v-0.05l0.05-0.05L90.6-49l1.8-2.2h0.05v-0.05h0.05l0.8-0.5l0.75-0.2h0.05l1.75,0.3h0.05l0.1,0.1l0.05,0.1
			l0.1,0.65L96.9-48l1.95,4.2l0.1,0.15v0.05l0.2,0.35l0.15,0.2l1.25,1.85l0.3,0.4l1.25,1.5l-0.9-0.6l0.65,0.75h0.05l0.25,0.2
			l0.1,0.1l0.05,0.1v-0.05l0.05,0.05l2.25,2.4l1.25,1.05c2.9,2.4,6.05,4.167,9.45,5.3c3.667,1.267,7.267,1.667,10.8,1.2h0.05
			c3-0.467,5.1-1.333,6.3-2.6c1.466-1.333,1.95-3.167,1.45-5.5l-0.05-0.05v-0.1c-0.6-2.167-1.8-4.067-3.6-5.7
			c-1.767-1.633-4.083-2.917-6.95-3.85l-7.9-2.3h-0.15l-6.05-1.2c-0.333-1.6-0.233-2.816,0.3-3.65c0.733-0.8,2-1.317,3.8-1.55h0.05
			l5.95,0.5c2.434,0.566,4.784,1.417,7.05,2.55l1.15,0.15c0.4-0.1,0.717-0.316,0.95-0.65l1.2-1.65l0.3-0.8l-0.15-0.9l-0.6-0.7
			l-2.1-1.35L127-58.2h-0.05l-2.7-1.4h-0.1l-0.05-0.05c-3.633-1.633-6.833-2.75-9.6-3.35l-8.5-0.45h-0.05
			c-2.8,0.333-5.034,1.15-6.7,2.45c-1.1,0.833-1.933,1.833-2.5,3l-1.05-0.65l-0.05-0.05c-1.933-1.066-3.533-1.816-4.8-2.25H90.8
			L90.7-61l-4.1-0.7h-0.05c-1.566,0.067-2.917,0.434-4.05,1.1l-0.05,0.05c-1.1,0.667-2.117,1.683-3.05,3.05l-0.05,0.05h0.05
			c-0.733,1-1.6,2.534-2.6,4.6l-0.05,0.05l-0.95,2.1l-5.2-11.5l-0.45-0.6l-0.75-0.35l-5.4-1h-0.05L58.5-65.2h-0.05L57.3-65
			c-0.367,0.233-0.617,0.55-0.75,0.95c-0.133,0.433-0.1,0.85,0.1,1.25l8.8,18.05l-1.95-0.6L62.75-45.4z M122.25-35.75l-0.65,0.25
			c-0.833,0.067-1.733-0.15-2.7-0.65c-1.2-0.633-2.333-1.55-3.4-2.75l-0.05-0.05c-1.5-1.7-2.75-3.417-3.75-5.15
			c2.333,0.667,4.383,1.533,6.15,2.6l0.1,0.1c2.3,1.433,3.733,3.05,4.3,4.85V-35.75z M93.8-31.8l-0.85,0.3
			c-0.967,0.1-2.034-0.133-3.2-0.7l-0.05-0.05c-1.3-0.633-2.55-1.55-3.75-2.75c-1.7-1.7-3.1-3.417-4.2-5.15
			c2.767,0.7,5.183,1.633,7.25,2.8c2.6,1.434,4.2,3.067,4.8,4.9V-31.8z M92.75-51.2l-0.05,0.1l0.05-0.05V-51.2z M37.75-78.45h-0.2
			L37.2-78.5c-5.067-0.333-9.25-0.333-12.55,0c-5.1,0.533-9.133,1.85-12.1,3.95h-0.1c-4.067,2.7-6.867,6.167-8.4,10.4v0.05
			c-0.8,2.167-1.216,4.45-1.25,6.85v0.2l2.1,1.1c-0.833-0.267-1.217,0.1-1.15,1.1L4-53.6l1.15-0.5L4-53.45l0.3,0.9
			c0.233,0.833,0.583,1.767,1.05,2.8l0.1,0.35l0.75,1.7l0.5,1.05l0.4,0.9l0.05,0.1L7.1-45.7l-0.55,1.6l1.05,3.85l2.65-1.6L7.7-40
			l1.05,1.75L8.2-38.2H8.15v0.1L9-37.85L8.2-38l0.05,0.25l0.2-0.05L9-37.85c3.433,5.5,8.2,11.117,14.3,16.85v0.05l0.1,0.05
			C33.667-12.067,44.3-6.767,55.3-5h0.05c4.9,0.7,8.5,0.117,10.8-1.75c2.9-1.633,3.7-4.567,2.4-8.8v-0.05v-0.05L68.45-16
			c-0.667-1.6-1.633-3-2.9-4.2c-1.667-1.533-3.6-2.433-5.8-2.7c-1.367-0.167-2.717,0.267-4.05,1.3v0.05l-0.1,0.1l-0.25,0.2
			c-0.934,1.133-1.233,2.45-0.9,3.95v0.1c0.233,1.167,0.85,2.3,1.85,3.4h0.05v0.05l0.2,0.2L57.2-13l-0.75-0.3l-0.8-0.35L55.3-13.8
			v-0.05h-0.05c-6-3.167-11.967-7.95-17.9-14.35h-0.1c-6.467-6.833-11.233-14.35-14.3-22.55v-0.05c-0.9-2.5-1.35-4.883-1.35-7.15
			c0-2.6,0.65-4.783,1.95-6.55l0.05-0.05l0.05-0.1c1.333-1.9,3.383-3.367,6.15-4.4c2.767-1.067,5.733-1.534,8.9-1.4l5.6,0.3h0.05
			l23.9,4.75h0.05l7.75,1.3l0.1,0.05L87.2-63.3c2.566,0.066,4.85,0.017,6.85-0.15h0.1c4-0.167,7.833-0.617,11.5-1.35l0.1-0.05h0.05
			c4.167-1.1,7.117-1.967,8.85-2.6c8.867-3.333,14.983-7.066,18.35-11.2c0.267-0.3,0.4-0.65,0.4-1.05V-80l-0.25-0.95h-0.05l-0.7-0.6
			l-1-0.1L122-79.9h-0.1l-14.65,1.25c-4.167,0.033-8.2-0.667-12.1-2.1L94.2-80.8L94-80.75c-0.4,0.067-0.733,0.267-1,0.6h0.05
			c-2.9,3.5-7.767,5.717-14.6,6.65c-2.633,0.2-5.583,0.217-8.85,0.05l-2.45-0.35h-0.1l-2.3-0.3H64.5L37.75-78.45z M95.8-51.4
			l0.15,0.05l-0.2-0.2L95.8-51.4z M127.95-59.15L129-58.9c0.733,0,1.317-0.25,1.75-0.75c0.433-0.467,0.667-1.017,0.7-1.65
			c-0.034-0.633-0.267-1.2-0.7-1.7c-0.467-0.433-1.033-0.667-1.7-0.7c-0.667,0.034-1.216,0.267-1.65,0.7
			c-0.467,0.467-0.7,1.033-0.7,1.7c0,0.466,0.117,0.9,0.35,1.3C127.283-59.6,127.583-59.317,127.95-59.15z M54.4-32.5v-0.05
			c-0.6-0.7-0.95-1.4-1.05-2.1v-0.05c-0.1-0.433-0.05-0.85,0.15-1.25l0.35-0.55l0.05-0.05v-0.05c0.833-0.767,1.833-1.3,3-1.6
			l0.2-0.05h0.2l0.1,0.15l0.15,0.4l0.05,0.05v0.05v0.05l0.1,0.4l0.05,0.25l0.4,1.8l0.1,0.3l0.05,0.2l0.05,0.25v0.1v0.35l0.05,0.25
			v0.45l-0.45,1.25l-0.2,0.2l-0.3,0.25l-0.05,0.05l-0.05,0.05H57.3l-0.1,0.05l-0.35,0.05l-0.3-0.05H56.5l-1.05-0.35l-0.1-0.05
			l-0.85-0.6l-0.05-0.05L54.4-32.5z M54.8-32.8h-0.05l0.1,0.2L54.8-32.8z M57.1-31.85h-0.05L57-31.7v0.15l0.05,0.1l0.15,0.05h0.05
			l-0.1-0.45H57.1z M57.85-34.3v0.05l0.4-0.25l-0.05-0.05l-0.1-0.05H58l-0.15,0.15l-0.05,0.1L57.85-34.3z M48.1-42.45l-0.95-1.4
			l-2.6-5.9l-0.3-1.3v-0.05l-0.05-0.1L44-52.5v-0.1c-0.033-0.566,0.15-1.033,0.55-1.4H45l0.75,0.25h0.1
			c1.833,1.2,3.483,2.767,4.95,4.7V-49l1.85,2.8h0.05l1.05,1.7c-2.1,0.767-3.9,1.633-5.4,2.6L48.1-42.45z M57.6-37.55l-0.5,0.05
			v0.05v0.05l0.15,0.1l0.15,0.05l0.15-0.1l0.05-0.15V-37.55z M57.15-37.75l-0.2-0.1L57-37.7h0.15l0.05-0.05H57.15z M62.15-45.5h-0.1
			l0.2,0.2v-0.05l-0.1-0.1V-45.5z M0.4-51.35l0.05-0.05l-0.4-0.35L0.3-51.5v0.05L0.4-51.35z"/>
		<linearGradient id="SVGID_4_" gradientUnits="userSpaceOnUse" x1="77.1748" y1="-120.7251" x2="77.1748" y2="35.6249">
			<stop  offset="0" style="stop-color:#FFFFFF;stop-opacity:0"/>
			<stop  offset="1" style="stop-color:#000000;stop-opacity:0.1725"/>
		</linearGradient>
		<path fill-rule="evenodd" clip-rule="evenodd" fill="url(#SVGID_4_)" d="M99.15-43.25l-0.2-0.35L99-43.5l-0.1,0.15l-0.05,0.05
			l-0.15,0.05l-0.15-0.1l-0.2,0.15l0.05,0.05L98.7-43h0.05L99-43.1h0.05L99.15-43.25z M98.3-43.3l-0.05-0.05v-0.15l0.1-0.15h0.05
			l0.1-0.05l0.15,0.1l0.05-0.05l-0.2-0.3l-0.25,0.1H98.2l-0.2,0.3v0.3l0.1,0.1L98.3-43.3z M62.25-45.85L62-45.75l0.1,0.2l-0.05,0.05
			h0.1l-0.05-0.05l0.15-0.05l-0.2-0.15h0.25l0.1,0.2l0.05,0.05v0.05l0.3,0.05v-0.1l-0.05-0.1l-0.1-0.1l-0.05-0.05L62.25-45.85z
			 M89.05-44.45l0.25-0.4L88.85-45H88.8l-0.15-0.05l0.15,0.3l0.15,0.05l-0.1,0.1L89-44.3l0.05-0.1V-44.45z M100.35-40.2l-0.7-0.95
			l1,0.6l0.2-0.2l-0.05-0.05l-1.9-1.05l0.95,1.35L100.35-40.2z M95.1-50.8l0.3,0.05l-0.35-0.4L95.1-50.8z M93.35-50.75l0.1-0.15
			L93.2-51l-0.05,0.1L93.35-50.75z M57.95-31.95L57.8-32.2l-0.05-0.05l-0.2-0.1l-0.3-0.05l0.1,0.25l0.05,0.05l0.15,0.05L57.6-32
			l0.15,0.25L57.95-31.95z M56.95-32.55L56.8-32.6l-0.15,0.15l0.15-0.1H56.95z M57.8-33.9l-0.25,0.1L58-33.55h0.15l0.25-0.1
			l-0.05-0.25l-0.05,0.05l-0.15,0.05H58l-0.15-0.05L57.8-33.9z M56.9-38.2l-0.15,0.1l-0.1,0.25L56.6-37.6v0.1l0.2-0.05l-0.05-0.05
			l0.1,0.05v-0.15l0.1-0.15v-0.05L57-37.95l0.3-0.15h0.1l-0.1-0.15h-0.2L56.9-38.2z M55.25-33.4l0.15,0.15l-0.05-0.1L55.25-33.4z
			 M53.5-35.95l0.2,0.25l0.05,0.1l0.15,0.1l0.4,0.1l0.45-0.2l0.1-0.1l-0.2-0.15L54.6-35.8l-0.35,0.15H54.2l-0.2-0.1l-0.2-0.2
			l-0.05-0.15l0.1-0.35v-0.05L53.5-35.95z M56.05-32.85l-0.1-0.05l0.15,0.1L56.05-32.85z M56.9-36.9l0.3-0.05l-0.35-0.15H56.8h-0.1
			L56.9-36.9z M56.6-37.3l-0.3-0.1l0.05,0.1L56.4-37l0.25-0.05v-0.2H56.6V-37.3z"/>
		<linearGradient id="SVGID_5_" gradientUnits="userSpaceOnUse" x1="81.4751" y1="-120.7251" x2="81.4751" y2="35.6249">
			<stop  offset="0" style="stop-color:#FFFFFF;stop-opacity:0"/>
			<stop  offset="1" style="stop-color:#000000;stop-opacity:0.0863"/>
		</linearGradient>
		<path fill-rule="evenodd" clip-rule="evenodd" fill="url(#SVGID_5_)" d="M62.1-46.05L62.15-46l0.3,0.05l0.15,0.2l0.05,0.05
			l0.3,0.05l-0.25-0.3h-0.25l-0.05-0.1l-0.15-0.05L62.1-46.05z M99.85-40.5l-0.95-1.35l1.9,1.05h0.05l-0.3-0.4l-2.3-1.2L99-41.15
			l0.3,0.4L99.85-40.5z M98.5-43.95l-0.15-0.2l-0.2,0.05L98-44l-0.1,0.1l-0.15,0.35l0.05,0.4L97.85-43l0.25-0.15l-0.1-0.1v-0.3
			l0.2-0.3h0.05L98.5-43.95z M99.15-43.25l-0.1,0.15H99L98.75-43H98.7l-0.3-0.15L98.2-43c0.1,0.133,0.233,0.2,0.4,0.2l0.1,0.05
			l0.2-0.05l0.3-0.15l0.1-0.1L99.15-43.25z M88.7-45.3l0.15,0.3l0.45,0.15l-0.25,0.4l0.05,0.05l0.15,0.2l0.1-0.15l0.1-0.25
			l0.25-0.45L88.7-45.3z M95.1-50.8l-0.25-0.3l0.05,0.5l0.45,0.1L95.1-50.8z M93.45-50.9l-0.1,0.15l0.2,0.15l0.1-0.2L93.45-50.9z"/>
		<linearGradient id="SVGID_6_" gradientUnits="userSpaceOnUse" x1="82.0752" y1="-120.7251" x2="82.0752" y2="35.6249">
			<stop  offset="0" style="stop-color:#FFFFFF;stop-opacity:0"/>
			<stop  offset="1" style="stop-color:#000000;stop-opacity:0.2627"/>
		</linearGradient>
		<path fill-rule="evenodd" clip-rule="evenodd" fill="url(#SVGID_6_)" d="M88.7-45.3l1.75-3l0.05-0.05l0.3-0.55l1.8-2.15l0.1-0.1
			v0.05l0.05-0.1h0.05l0.65-0.35l0.65-0.15l1.4,0.2l0.05,0.05l0.25,0.05l-0.05-0.15l0.2,0.2L95.8-51.4l0.05,0.25v0.05
			c0.333,2.233,1.167,4.55,2.5,6.95l0.15,0.2l0.2,0.3l0.05,0.1l-0.2,0.15v0.05l0.15,0.1l0.15-0.05l0.05-0.05L99-43.5l-0.05-0.1
			v-0.05l-0.1-0.15L96.9-48l-0.75-2.8l-0.1-0.65L96-51.55l-0.1-0.1h-0.05l-1.75-0.3h-0.05l-0.75,0.2l-0.8,0.5h-0.05v0.05H92.4
			L90.6-49l-0.25,0.45L90.3-48.5v0.05l-0.4,0.55l-1.85,3.2v0.05L88-44.55l-0.05,0.05v0.05v0.1L88-44.2l0.05,0.05h0.1l0.15,0.05h0.05
			l6.3,1.7l0.1,0.05l3.8,1.5l3.2,1.95h0.05l0.05,0.05h0.1l0.15-0.05h0.05v-0.05l-0.25-0.2h-0.05l-0.8-0.55l-0.7-0.5l-0.5-0.3
			l-0.55-0.25c-0.066-0.067-0.15-0.117-0.25-0.15l-4.35-1.7l-6-1.65l-0.25-0.05l-0.25-0.05v-0.05l0.1-0.2l0.15-0.25L88.7-45.3z
			 M98.65-43.6l-0.15-0.1l-0.1,0.05h-0.05l-0.1,0.15v0.15l0.05,0.05v0.05l0.4-0.35H98.65z M100.35-40.2h0.05l0.3-0.35h-0.05l-1-0.6
			L100.35-40.2z M62.45-45.45l-0.05-0.1l-0.15-0.05l-0.15,0.05l0.05,0.05v0.05l0.1,0.1v0.05l-0.2-0.2L62-45.35v0.05l0.05,0.15v-0.05
			l0.1,0.15h0.2l0.15-0.15v-0.2L62.45-45.45z M88.65-44.8l0.1,0.4l0.1-0.2l0.1-0.1l-0.15-0.05h-0.15V-44.8z M95.5-50.95l-0.15-0.2
			H95.3L95.35-51L95.5-50.95z M93.15-50.9L93.2-51l-0.3-0.1l0.05,0.05L93-51L93.15-50.9z"/>
		<linearGradient id="SVGID_7_" gradientUnits="userSpaceOnUse" x1="56.1748" y1="-120.7251" x2="56.1748" y2="35.6249">
			<stop  offset="0" style="stop-color:#FFFFFF;stop-opacity:0"/>
			<stop  offset="1" style="stop-color:#000000;stop-opacity:0.5294"/>
		</linearGradient>
		<path fill-rule="evenodd" clip-rule="evenodd" fill="url(#SVGID_7_)" d="M57.35-31.9h-0.1l0.15,0.45l0.05-0.05l0.05-0.05v-0.15
			l-0.05-0.1L57.35-31.9z M57.1-37.55v0.05l0.5-0.1v-0.05l-0.05-0.05l-0.05-0.05l-0.15-0.05h-0.1l-0.1,0.05h0.05l-0.05,0.05
			L57.1-37.55z M55-32.95V-33h-0.05L55-32.95z M54.05-36.35L54-36.15L54.1-36v0.05l0.15,0.05l0.2-0.1v-0.05L54.3-36.2h-0.05
			L54.05-36.35z M58.35-34.25l-0.05-0.1l-0.4,0.2l0.05,0.05l0.1,0.05h0.05l0.1-0.05L58.35-34.25z M57.05-37.45l-0.15-0.1h-0.05
			l-0.1-0.05l0.05,0.05l0.05,0.15L57.05-37.45z"/>
		<linearGradient id="SVGID_8_" gradientUnits="userSpaceOnUse" x1="56.0498" y1="-120.7251" x2="56.0498" y2="35.6249">
			<stop  offset="0" style="stop-color:#FFFFFF;stop-opacity:0"/>
			<stop  offset="1" style="stop-color:#000000;stop-opacity:0.349"/>
		</linearGradient>
		<path fill-rule="evenodd" clip-rule="evenodd" fill="url(#SVGID_8_)" d="M57.75-31.75L57.6-32l-0.05-0.05L57.4-32.1l-0.05-0.05
			h-0.1l0.1,0.25l0.1,0.1l0.05,0.1v0.15l-0.05,0.05L57.75-31.75z M58.35-34.25L58.2-34.1l-0.1,0.05h-0.05l-0.1-0.05l-0.25,0.15h0.05
			l0.05,0.05l0.05,0.05L58-33.8h0.15l0.15-0.05l0.05-0.05V-34.25z M56.95-37.85l0.2,0.1l0.1-0.05h0.1l0.15,0.05l0.05,0.05l-0.15-0.4
			h-0.1L57-37.95l-0.05,0.05V-37.85l-0.1,0.15v0.15h0.05h0.2l0.05-0.15H57L56.95-37.85z M54.45-36.05V-36l-0.2,0.1l-0.15-0.05V-36
			L54-36.15l0.05-0.2l-0.2-0.15v0.05l-0.1,0.35l0.05,0.15l0.2,0.2l0.2,0.1h0.05l0.35-0.15l0.05-0.05v-0.05L54.45-36.05z M55.95-32.6
			h-0.1l0.1,0.05V-32.6z M57-37.15l-0.15-0.15v-0.05L56.7-37.4l-0.15-0.1l0.05,0.2v0.05h0.05v0.2l0.05-0.05h0.1l0.1-0.05H57z"/>
	</g>
	<g id="Layer_2_3_">
		<path fill-rule="evenodd" clip-rule="evenodd" fill="#FC0019" d="M46.85-38.15l-0.5-0.6l-1.1-1.7L45.2-40.5
			c-0.667-1.133-1.517-3.067-2.55-5.8l-0.6-2.8c0.067-0.566,0.333-1.033,0.8-1.4l0.75-0.05l0.95,0.3c1.934,1.2,3.65,2.817,5.15,4.85
			v-0.05l2.9,4.55C50.333-40.067,48.417-39.15,46.85-38.15z M56.85-29.7c-0.133,0.567-0.45,1.034-0.95,1.4l-0.8,0.1h-0.05l-1.1-0.35
			L53-29.3l-0.05-0.05c-0.567-0.7-0.917-1.417-1.05-2.15v-0.05c0.067-0.367,0.25-0.717,0.55-1.05c0.933-0.867,2.066-1.433,3.4-1.7
			l0.25,0.65l0.75,3.25V-29.7z M104.15-61.4c4.167-1.067,7.117-1.934,8.85-2.6c8.767-3.267,14.817-6.933,18.15-11l0.25-0.75v-1.1
			l-0.15-0.65l-0.55-0.45L130.05-78l-4.75,0.9h-0.05l-4.7,0.85h-0.05L105.85-75c-4.267,0.033-8.383-0.683-12.35-2.15h-0.7
			l-0.25,0.05l-0.6,0.4c-2.9,3.6-7.85,5.883-14.85,6.85c-2.667,0.2-5.633,0.217-8.9,0.05l-2.6-0.35h-0.05l-2.4-0.3h-0.1
			c-3.667-0.433-8.133-1.183-13.4-2.25l-13.5-2.1H36.1c-5.233-0.367-9.517-0.383-12.85-0.05c-5.067,0.533-9.067,1.833-12,3.9h0.05
			c-4,2.633-6.75,6.017-8.25,10.15c-0.9,2.433-1.316,5.033-1.25,7.8v0.05c-0.033,1.633,0.117,3.3,0.45,5
			c0.367,2.167,0.8,3.917,1.3,5.25v0.1l0.8,1.7c3.333,7.566,9.283,15.4,17.85,23.5l0.05,0.05c10.167,8.767,20.733,14.033,31.7,15.8
			l1.4,0.2c4.033,0.333,7.05-0.283,9.05-1.85c1.9-1.167,2.817-2.966,2.75-5.4v-0.15c0.033-1.033-0.15-2.2-0.55-3.5v-0.05
			c-0.6-1.7-1.55-3.167-2.85-4.4c-1.6-1.466-3.433-2.316-5.5-2.55H58.2c-1.167-0.133-2.3,0.2-3.4,1l-0.3,0.3h-0.05
			c-0.867,0.9-1.233,1.95-1.1,3.15c-0.067,0.5-0.017,1,0.15,1.5c0.167,0.733,0.5,1.466,1,2.2l0.75,0.9l0.05,0.05l1.4,1.2l-3.15-1.3
			c-6.066-3.2-12.083-8.017-18.05-14.45c-6.567-6.9-11.417-14.5-14.55-22.8H21c-0.867-2.333-1.333-4.583-1.4-6.75v-0.15
			c0.1-2.533,0.783-4.684,2.05-6.45l0.05-0.05c1.4-2.033,3.55-3.6,6.45-4.7c2.867-1.1,5.9-1.566,9.1-1.4h0.05l5.6,0.3h0.05l24,4.75
			H66.9l7.75,1.3l0.05,0.05l11.05,0.75c2.567,0.067,4.85,0.017,6.85-0.15h0.05c3.967-0.167,7.783-0.617,11.45-1.35L104.15-61.4z
			 M121.3-32.65v0.15l-0.1,0.2c-0.233,0.267-0.567,0.417-1,0.45c-0.934,0.1-1.934-0.133-3-0.7c-1.233-0.667-2.417-1.633-3.55-2.9
			h-0.05c-1.567-1.767-2.85-3.55-3.85-5.35c2.667,0.7,5,1.667,7,2.9C119.217-36.333,120.733-34.583,121.3-32.65z M92.85-28.65v0.05
			l-0.1,0.25c-0.267,0.267-0.667,0.434-1.2,0.5H91.5c-1.033,0.1-2.183-0.15-3.45-0.75c-1.367-0.667-2.667-1.633-3.9-2.9
			c-1.767-1.733-3.217-3.517-4.35-5.35c3.067,0.733,5.733,1.733,8,3C90.5-32.317,92.183-30.583,92.85-28.65z M132.05-31.65l-0.15-2
			v-0.05c-0.533-2.1-1.683-3.95-3.45-5.55c-1.733-1.567-4-2.817-6.8-3.75l-7.85-2.25l-6.45-1.2l-0.1-0.25l0.05,0.1l-0.3-1.7v-0.05
			c0.067-0.7,0.267-1.267,0.6-1.7v-0.05c0.767-0.9,2.167-1.483,4.2-1.75l6.2,0.55c2.433,0.566,4.817,1.417,7.15,2.55l0.75,0.1
			l0.7-0.45l1.15-1.65L128-51.3l-0.1-0.5l0.1-0.3l-0.1-0.65l-0.45-0.45l-2.1-1.35l-2.8-1.45h-0.05
			c-3.633-1.633-6.817-2.75-9.55-3.35l-8.35-0.45h-0.05c-2.7,0.3-4.85,1.083-6.45,2.35c-1.167,0.9-2.033,2-2.6,3.3l-1.5-0.9
			l-0.1-0.05c-1.9-1.066-3.467-1.816-4.7-2.25l-4.05-0.7H85.1c-1.467,0.033-2.733,0.383-3.8,1.05h-0.05
			c-1.067,0.633-2.05,1.617-2.95,2.95h0.05c-0.7,1-1.567,2.533-2.6,4.6L74.3-46.2l-0.25-0.7L68.7-58.85l-0.35-0.4l-0.5-0.25
			l-10.9-2.05L56.1-61.4l-0.55,0.7L55.6-60l-0.05,0.05c-0.1,0.3-0.066,0.6,0.1,0.9l8.9,18.2L61.9-41.7h-0.1l-1.45-0.15v-0.1
			l-0.05-0.1l-0.45-0.75v0.05c-2.2-3.767-4.25-6.817-6.15-9.15c-2.667-3.267-5.717-6.1-9.15-8.5l-0.05-0.05
			c-1.8-1.066-3.6-1.85-5.4-2.35c-2.4-0.633-4.483-0.65-6.25-0.05c-2.067,0.7-3.55,1.917-4.45,3.65h0.05
			c-0.633,1.167-1.034,2.784-1.2,4.85v1c-0.033,1.5,0.133,3.083,0.5,4.75c0.3,1.233,0.783,2.75,1.45,4.55V-44
			c4.167,9.733,10.033,16.883,17.6,21.45l0.15,0.05l2.5,1.2h0.05c1.033,0.433,2.033,0.733,3,0.9h0.05l3,0.25h0.05l2.85-0.55h0.15
			c2.6-1.033,4.25-2.816,4.95-5.35c0.3-1.034,0.434-2.184,0.4-3.45l-0.05-1.55l-0.55-3.1v0.05l-0.1-0.5l1.55,0.65l5.75,5.3
			l7.65,15.5v0.05l0.05,0.1H78.2l-3.6-2.05l-0.65-0.15L73.4-15l-0.45,0.5l-0.95,2l-0.05,0.85L72-11.6l-0.05,0.7l0.5,0.7l18.9,9.8
			L93.5,0h0.05c1.1-0.067,1.867-0.483,2.3-1.25c0.4-0.5,0.55-1.167,0.45-2l-0.05-1.2l-0.05-0.1L94.7-8L87-22.9l2.7,1.1v-0.05
			c2.167,0.733,4.35,1,6.55,0.8c2.9-0.267,5.05-1.067,6.45-2.4l0.05-0.05c0.8-0.767,1.333-1.617,1.6-2.55v-0.05l0.15-1.6v-0.15
			l-0.15-1.75l-0.05-0.1c-0.6-2.1-1.867-3.966-3.8-5.6h-0.05c-1.867-1.5-4.317-2.733-7.35-3.7l-6.8-1.8l2.35-3.95
			c0.733-1.233,1.45-2.133,2.15-2.7l0.05-0.05c0.533-0.467,1.117-0.717,1.75-0.75h0.05l2.15,0.45c0.267,2.533,1.233,5.183,2.9,7.95
			c1.767,3.067,4.1,5.767,7,8.1c2.867,2.367,5.983,4.117,9.35,5.25H114c2.233,0.767,4.45,1.2,6.65,1.3l3.9-0.15h0.05
			c2.867-0.433,4.867-1.25,6-2.45C131.667-28.8,132.15-30.083,132.05-31.65z"/>
	</g>
	<g id="Layer_3_2_">
		<path fill-rule="evenodd" clip-rule="evenodd" d="M85.5-61.25c2.567,0.067,4.833,0.017,6.8-0.15c3.934-0.167,7.7-0.617,11.3-1.35
			c4.133-1.067,7.05-1.917,8.75-2.55c8.5-3.2,14.383-6.767,17.65-10.7v-0.25l-9.55,1.75l-13.95,1.2h-0.95
			c-4.367,0.066-8.617-0.65-12.75-2.15l-0.2,0.1c-3.067,3.833-8.317,6.25-15.75,7.25c-2.667,0.167-5.7,0.167-9.1,0l-5.15-0.6
			L49.15-71l-13.4-2.05c-5.133-0.367-9.35-0.383-12.65-0.05c-4.8,0.467-8.617,1.7-11.45,3.7c-3.733,2.467-6.316,5.65-7.75,9.55
			C2.633-56.317,2.367-52.5,3.1-48.4c0.367,2.1,0.8,3.816,1.3,5.15l0.7,1.65c3.333,7.434,9.217,15.133,17.65,23.1
			c10,8.633,20.367,13.833,31.1,15.6c4.367,0.6,7.566,0.083,9.6-1.55c2.2-1.3,2.8-3.6,1.8-6.9c-0.567-1.5-1.433-2.8-2.6-3.9
			c-1.367-1.267-2.983-2.033-4.85-2.3c-0.933-0.067-1.85,0.267-2.75,1c-0.733,0.767-0.966,1.683-0.7,2.75
			c0.233,0.867,0.717,1.733,1.45,2.6c1.567,1.434,3.167,2.25,4.8,2.45l0.65,0.1c0.233,0.033,0.317,0.167,0.25,0.4
			C61.4-7.717,60.95-7.3,60.15-7L56.3-7.2l-3.45-1.4c-6.2-3.267-12.367-8.167-18.5-14.7c-6.667-7-11.583-14.733-14.75-23.2
			c-0.967-2.7-1.434-5.267-1.4-7.7c0-3.033,0.767-5.566,2.3-7.6c1.5-2.2,3.833-3.9,7-5.1c3-1.167,6.183-1.667,9.55-1.5l5.8,0.35
			l31.65,6L85.5-61.25z"/>
	</g>
	<g id="Layer_4_2_">
		<path fill-rule="evenodd" clip-rule="evenodd" fill="#FFFFFF" d="M121.9-31.1c-0.367,0.533-0.967,0.883-1.8,1.05
			c-1.133,0.1-2.383-0.217-3.75-0.95c-1.333-0.667-2.617-1.683-3.85-3.05c-2.567-2.867-4.417-5.767-5.55-8.7
			c4.033,0.733,7.433,1.95,10.2,3.65c2.767,1.733,4.434,3.717,5,5.95C122.35-32.283,122.267-31.6,121.9-31.1z M127.35-37.8
			c-1.567-1.467-3.667-2.633-6.3-3.5l-7.75-2.25l-7.1-1.25l-0.35-0.95c-0.533-2.3-0.35-4.05,0.55-5.25
			c0.867-1.167,2.533-1.917,5-2.25l6.6,0.6c2.533,0.566,5,1.45,7.4,2.65l1.15-1.6l-4.8-2.75c-3.533-1.633-6.65-2.733-9.35-3.3
			l-8-0.4c-2.433,0.267-4.383,0.983-5.85,2.15c-1.367,1-2.25,2.367-2.65,4.1l-2.8-1.7l-4.55-2.15c-1.2-0.434-2.433-0.633-3.7-0.6
			c-1.233,0-2.317,0.283-3.25,0.85c-0.934,0.566-1.8,1.433-2.6,2.6l-2.45,4.45c-1,2.033-1.816,4-2.45,5.9L67.35-57.8l-10.95-2
			l11.5,23.4l-3.35-2.45c-1.033-0.533-2.066-0.9-3.1-1.1L59.6-40.2L59-40.85l-0.45-0.75c-2.133-3.7-4.15-6.7-6.05-9
			c-2.6-3.2-5.55-5.95-8.85-8.25c-1.7-1.033-3.4-1.767-5.1-2.2c-2.133-0.567-4-0.6-5.6-0.1c-1.733,0.566-2.967,1.6-3.7,3.1
			c-0.567,1.033-0.933,2.483-1.1,4.35c-0.033,1.5,0.133,3.034,0.5,4.6L30-44.65c4.067,9.467,9.783,16.433,17.15,20.9l2.5,1.15
			l2.8,0.85l2.8,0.15l2.65-0.45c3.333-1.333,4.867-4.1,4.6-8.3l-1.15-5.8l1.35,0.1l2.45,0.85l2.95,2.45l3.15,3.25L79-13.85l1,2.6
			c0.133,0.533,0,0.8-0.4,0.8l-5.85-3l-0.9,2c1.267,0.8,4,2.284,8.2,4.45l10.4,5.25L93.2-1.4c0.667-0.033,1.133-0.267,1.4-0.7
			c0.3-0.4,0.383-0.917,0.25-1.55l-11.6-22.9c2.333,1.6,4.5,2.733,6.5,3.4c2.067,0.633,4.117,0.867,6.15,0.7
			c2.6-0.233,4.533-0.933,5.8-2.1c1.233-1.133,1.633-2.55,1.2-4.25c-0.5-1.867-1.65-3.534-3.45-5c-1.767-1.434-4.1-2.6-7-3.5
			l-8.7-2.25h0.3l0.15-0.35l3.15-5.7c0.867-1.367,1.683-2.367,2.45-3c0.833-0.667,1.684-1.017,2.55-1.05
			c0.967,0,2.066,0.267,3.3,0.8c0.133,2.6,1.067,5.333,2.8,8.2c1.733,2.933,3.983,5.533,6.75,7.8c2.733,2.267,5.716,3.95,8.95,5.05
			c3.4,1.133,6.733,1.483,10,1.05c2.567-0.4,4.35-1.1,5.35-2.1c1.067-0.967,1.417-2.283,1.05-3.95
			C130.05-34.7,128.983-36.367,127.35-37.8z M91.4-26.05c-1.233,0.1-2.6-0.2-4.1-0.9c-1.466-0.7-2.883-1.733-4.25-3.1
			c-2.833-2.867-4.9-5.767-6.2-8.7c4.467,0.7,8.233,1.917,11.3,3.65c3.067,1.733,4.917,3.717,5.55,5.95c0.2,0.867,0.1,1.566-0.3,2.1
			C93-26.55,92.333-26.217,91.4-26.05z M112.35-65.3c8.5-3.2,14.383-6.767,17.65-10.7v-0.25l-9.55,1.75l-13.95,1.2h-0.95
			c-4.367,0.066-8.617-0.65-12.75-2.15l-0.2,0.1c-3.067,3.833-8.317,6.25-15.75,7.25c-2.667,0.167-5.7,0.167-9.1,0l-5.15-0.6
			L49.15-71l-13.4-2.05c-5.133-0.367-9.35-0.383-12.65-0.05c-4.8,0.467-8.617,1.7-11.45,3.7c-3.733,2.467-6.316,5.65-7.75,9.55
			C2.633-56.317,2.367-52.5,3.1-48.4c0.367,2.1,0.8,3.816,1.3,5.15l0.7,1.65c3.333,7.434,9.217,15.133,17.65,23.1
			c10,8.633,20.367,13.833,31.1,15.6c4.367,0.6,7.566,0.083,9.6-1.55c2.2-1.3,2.8-3.6,1.8-6.9c-0.567-1.5-1.433-2.8-2.6-3.9
			c-1.367-1.267-2.983-2.033-4.85-2.3c-0.933-0.067-1.85,0.267-2.75,1c-0.733,0.767-0.966,1.683-0.7,2.75
			c0.233,0.867,0.717,1.733,1.45,2.6c1.567,1.434,3.167,2.25,4.8,2.45l0.65,0.1c0.233,0.033,0.317,0.167,0.25,0.4
			C61.4-7.717,60.95-7.3,60.15-7L56.3-7.2l-3.45-1.4c-6.2-3.233-12.367-8.133-18.5-14.7c-6.667-7-11.583-14.733-14.75-23.2
			c-0.967-2.7-1.434-5.267-1.4-7.7c0-3.033,0.767-5.566,2.3-7.6c1.5-2.2,3.833-3.9,7-5.1c3-1.167,6.183-1.667,9.55-1.5l5.8,0.35
			l31.65,6l11,0.8c2.567,0.067,4.833,0.017,6.8-0.15c3.934-0.167,7.7-0.617,11.3-1.35C107.733-63.817,110.65-64.667,112.35-65.3z
			 M56.15-35.8L57-34.15l0.7,3.25l0.1,1.5c-0.033,1.1-0.55,2-1.55,2.7l-1.65,0.25L53.1-27l-1.3-1c-0.733-0.933-1.183-1.85-1.35-2.75
			c-0.167-1.067,0.117-2,0.85-2.8C52.567-34.85,54.183-35.6,56.15-35.8z M40.6-48.75c-0.033-1.3,0.433-2.317,1.4-3.05l1.4-0.15
			l1.45,0.45c2.066,1.267,3.917,3,5.55,5.2l3.8,6l0.1,0.55c-3.3,1.033-5.95,2.3-7.95,3.8l-2.4-3.35c-0.633-1-1.534-3.05-2.7-6.15
			L40.6-48.75z"/>
	</g>
	<g id="Layer_5_1_">
		<path fill-rule="evenodd" clip-rule="evenodd" fill="#990000" d="M126.5-56.6h0.95l0.5-0.15l0.15-0.4l-0.15-0.35l-0.4-0.2
			l0.2-0.15l0.45-0.7h-0.5l-0.4,0.7l-0.3,0.1h-0.1v-0.8h-0.4V-56.6z M126.25-58.65c0.3-0.3,0.65-0.45,1.05-0.45
			c0.434,0,0.784,0.15,1.05,0.45l0.45,1.1l-0.2,0.75l-0.6,0.55l-0.65,0.2c-0.467,0-0.833-0.15-1.1-0.45
			c-0.3-0.333-0.45-0.683-0.45-1.05C125.8-57.983,125.95-58.35,126.25-58.65z M125.45-57.55l0.25,0.95l0.75,0.7l0.8,0.2
			c0.567,0,1.033-0.183,1.4-0.55s0.55-0.8,0.55-1.3c0-0.534-0.184-0.983-0.55-1.35s-0.816-0.55-1.35-0.55
			c-0.5,0-0.933,0.184-1.3,0.55S125.45-58.083,125.45-57.55z M127.25-56.9h-0.35v-0.55h0.3l0.35,0.05l0.1,0.25l-0.1,0.2L127.25-56.9
			z"/>
	</g>
</symbol>
<symbol  id="shape_6" viewBox="-7.316 -474.784 76.716 477.409">
	<g id="Layer_1_2_">
		<path fill-rule="evenodd" clip-rule="evenodd" fill="none" stroke="#666666" stroke-width="5.25" stroke-miterlimit="3" d="
			M67.65-449.95c-3.867,0.467-6.717-0.883-8.55-4.05l-0.05-0.05c-1.4-2.6-5.483-7.184-12.25-13.75
			c-3.466-3.367-7.917-4.784-13.35-4.25c-17,3.867-29.167,13.033-36.5,27.5c-1.467,2.933-1.95,6.017-1.45,9.25l0.35,2l1.85,5.1
			l5.45,15.7c2.967,7.633,4.45,17.817,4.45,30.55c0,12.767-0.367,23.633-1.1,32.6l-1.15,15c-0.467,5.133-1.717,10.717-3.75,16.75
			c-2.367,6.967-2.25,12.15,0.35,15.55c1.633,2.167,2.917,4.483,3.85,6.95l0.9,3.1l-0.6,83.35c-1.667,1.1-2.483,6.983-2.45,17.65
			c0,10.667,3.684,24.367,11.05,41.1c7.333,16.767,13.417,33.967,18.25,51.6c4.833,17.667,7.783,33.066,8.85,46.2
			c0.5,6.6,0.383,11.35-0.35,14.25c-1.667,0.067-2.784,0.983-3.35,2.75c-0.6,1.867,0.017,3.533,1.85,5c3.333,2.7,5.466,7.1,6.4,13.2
			c0.5,3.633,0.066,5.45-1.3,5.45c-2.3,0.567-3.667,1.25-4.1,2.05c-0.167,0.267-0.233,1.283-0.2,3.05C40.717-3.317,42.6-1.2,46.4,0
			h23"/>
	</g>
</symbol>
<symbol  id="shape_8" viewBox="21.292 -443.536 112.716 419.836">
	<g id="Layer_1_3_">
		<path fill-rule="evenodd" clip-rule="evenodd" fill="#990000" d="M65.25-24.7h20.4C84.883-49.2,86.967-73.3,91.9-97
			c2.567-12.6,6.434-24.75,11.6-36.45c5.867-13.367,10.483-27.2,13.85-41.5c2.667-11.466,3.55-23,2.65-34.6l5.9-178.5
			c0.233-7.633-0.183-15.217-1.25-22.75c-1.066-7.2-4.1-13-9.1-17.4c-4.9-4.233-10.6-5.883-17.1-4.95l-2.85,0.3l-27.4,4.15
			l-21.05,4.2c-5.3,1.033-9.683,3.817-13.15,8.35c-1.867,2.433-2.9,5.167-3.1,8.2l-0.1,2.4c-0.633,13.633,0.083,27.066,2.15,40.3
			v158.35c-3.5,16.433-1.883,31.767,4.85,46c6.567,14,11.733,28.683,15.5,44.05c3.7,15.1,6.467,30.467,8.3,46.1
			C63.333-55.583,64.55-40.233,65.25-24.7z M86.2-24.2v-0.45H65.8l0.05,0.45H86.2z"/>
		<path fill-rule="evenodd" clip-rule="evenodd" fill="#FFFFFF" d="M65.25-24.7c-0.7-15.533-1.917-30.883-3.65-46.05
			c-1.833-15.633-4.6-31-8.3-46.1c-3.767-15.367-8.933-30.05-15.5-44.05c-6.733-14.233-8.35-29.567-4.85-46v-158.35
			c-2.067-13.233-2.784-26.667-2.15-40.3l0.1-2.4c0.2-3.033,1.233-5.767,3.1-8.2c3.467-4.533,7.85-7.317,13.15-8.35l21.05-4.2
			l27.4-4.15l2.85-0.3c6.5-0.934,12.2,0.717,17.1,4.95c5,4.4,8.034,10.2,9.1,17.4c1.067,7.533,1.483,15.117,1.25,22.75l-5.9,178.5
			c0.9,11.6,0.017,23.133-2.65,34.6c-3.367,14.3-7.983,28.133-13.85,41.5c-5.167,11.7-9.033,23.85-11.6,36.45
			c-4.933,23.7-7.017,47.8-6.25,72.3h7.9c-1.6-38.2,2.733-72.85,13-103.95c1.967-5.9,4.867-11.25,8.7-16.05
			c10.933-13.5,15.55-30.083,13.85-49.75c-2.667-30.367-3.517-61.183-2.55-92.45c0.934-31.067,2.2-56.817,3.8-77.25
			c1.566-20.367,2.45-35.517,2.65-45.45c0.133-9.9-1.517-17.417-4.95-22.55c-1.633-2.867-4.233-5.684-7.8-8.45
			c-6.333-1.467-11.05-2.1-14.15-1.9c-1.167,0.067-2.1,0.267-2.8,0.6c-11.833,0.667-23.533,2.133-35.1,4.4
			c-14.967,3-29.784,7.367-44.45,13.1c-1.167,6.5-1.633,12.967-1.4,19.4l0.15,3.35c0.433,6.933,2.05,13.267,4.85,19
			c2.367,60.833,1.316,122.083-3.15,183.75c0.533,9.4,1.9,19.55,4.1,30.45c0.833,4.133,4.917,14.067,12.25,29.8
			c7.367,15.9,12.684,34.55,15.95,55.95c3.233,21.4,4.517,40.733,3.85,58H65.25z"/>
		<path fill-rule="evenodd" clip-rule="evenodd" fill="none" stroke="#666666" stroke-width="2" stroke-miterlimit="3" d="
			M65.25-24.7h-4.9c0.667-17.267-0.617-36.6-3.85-58c-3.267-21.4-8.583-40.05-15.95-55.95c-7.333-15.733-11.417-25.667-12.25-29.8
			c-2.2-10.9-3.566-21.05-4.1-30.45c4.466-61.667,5.517-122.917,3.15-183.75c-2.8-5.733-4.417-12.067-4.85-19L22.35-405
			c-0.233-6.433,0.233-12.9,1.4-19.4c14.667-5.733,29.483-10.1,44.45-13.1c11.566-2.267,23.267-3.733,35.1-4.4
			c0.7-0.333,1.633-0.533,2.8-0.6c3.1-0.2,7.816,0.433,14.15,1.9c3.567,2.767,6.167,5.583,7.8,8.45
			c3.434,5.133,5.083,12.65,4.95,22.55c-0.2,9.934-1.083,25.083-2.65,45.45c-1.6,20.433-2.867,46.183-3.8,77.25
			c-0.966,31.267-0.117,62.083,2.55,92.45c1.7,19.667-2.917,36.25-13.85,49.75c-3.833,4.8-6.733,10.15-8.7,16.05
			c-10.267,31.1-14.6,65.75-13,103.95h-7.9 M65.25-24.7h20.4"/>
	</g>
</symbol>
<symbol  id="shape_9" viewBox="-0.05 -6.75 6.45 6.8">
	<g id="Layer_1_4_">
		<path fill-rule="evenodd" clip-rule="evenodd" fill="#FFFFFF" d="M5.4-5.7c-0.6-0.667-1.333-1-2.2-1c-0.9,0-1.65,0.333-2.25,1
			C0.317-5.033,0-4.25,0-3.35S0.317-1.667,0.95-1C1.55-0.333,2.3,0,3.2,0c0.867,0,1.6-0.333,2.2-1c0.633-0.667,0.95-1.45,0.95-2.35
			S6.033-5.033,5.4-5.7z"/>
		<path fill-rule="evenodd" clip-rule="evenodd" fill="none" stroke="#000000" stroke-width="0.1" stroke-miterlimit="3" d="
			M5.4-5.7c-0.6-0.667-1.333-1-2.2-1c-0.9,0-1.65,0.333-2.25,1C0.317-5.033,0-4.25,0-3.35S0.317-1.667,0.95-1
			C1.55-0.333,2.3,0,3.2,0c0.867,0,1.6-0.333,2.2-1c0.633-0.667,0.95-1.45,0.95-2.35S6.033-5.033,5.4-5.7z"/>
	</g>
</symbol>
<symbol  id="sprite_10" viewBox="-0.05 -6.75 6.45 6.8">
	<g id="Layer_1_9_">
		<use xlink:href="#shape_9"  width="6.45" height="6.8" x="-0.05" y="-6.75" overflow="visible"/>
	</g>
</symbol>
<symbol  id="sprite_11" viewBox="0.39 -6.902 6.166 6.459">
	<g id="Dummy_Layer_1_">
	</g>
	<g id="Layer_1_10_">
		
			<use xlink:href="#sprite_10"  width="6.45" height="6.8" x="-0.05" y="-6.75" transform="matrix(0.1463 -0.9863 0.8936 0.1615 6.0005 0)" overflow="visible"/>
	</g>
</symbol>
<symbol  id="sprite_12" viewBox="-0.05 -26.65 28.1 26.7">
	<g id="Layer_1_11_">
		
			<use xlink:href="#sprite_10"  width="6.45" height="6.8" x="-0.05" y="-6.75" transform="matrix(1 0 0 1 0 -16.75)" overflow="visible"/>
	</g>
	<g id="Layer_3_3_">
		
			<use xlink:href="#sprite_10"  width="6.45" height="6.8" x="-0.05" y="-6.75" transform="matrix(1 0 0 1 21.6499 -19.8999)" overflow="visible"/>
	</g>
	<g id="Layer_5_2_">
		
			<use xlink:href="#sprite_10"  width="6.45" height="6.8" x="-0.05" y="-6.75" transform="matrix(1 0 0 1 3.1499 0)" overflow="visible"/>
	</g>
</symbol>
<symbol  id="sprite_13" viewBox="1.213 -35.049 18.449 33.732">
	<g id="Layer_1_12_">
		
			<use xlink:href="#sprite_10"  width="6.45" height="6.8" x="-0.05" y="-6.75" transform="matrix(0.6547 -0.6889 0.6241 0.7226 4.2002 -9.9502)" overflow="visible"/>
	</g>
	<g id="Layer_3_4_">
		
			<use xlink:href="#sprite_10"  width="6.45" height="6.8" x="-0.05" y="-6.75" transform="matrix(0.6547 -0.6889 0.6241 0.7226 16.3999 -27.1494)" overflow="visible"/>
	</g>
	<g id="Layer_5_3_">
		
			<use xlink:href="#sprite_10"  width="6.45" height="6.8" x="-0.05" y="-6.75" transform="matrix(0.6547 -0.6889 0.6241 0.7226 16.7002 0)" overflow="visible"/>
	</g>
</symbol>
<symbol  id="sprite_16" viewBox="-60.05 -197.4 132.4 309.3">
	<g id="Layer_1_13_">
		<use xlink:href="#shape_15"  width="132.4" height="309.3" x="-60.05" y="-197.4" overflow="visible"/>
	</g>
</symbol>
<symbol  id="sprite_18" viewBox="0.05 -82.15 134.3 82.15">
	<g id="Layer_5_4_">
		<use xlink:href="#shape_17"  width="134.3" height="82.15" x="0.05" y="-82.15" overflow="visible"/>
	</g>
</symbol>
<symbol  id="sprite_7" viewBox="-7.316 -474.784 76.716 477.409">
	<g id="Layer_1_8_">
		<use xlink:href="#shape_6"  width="76.716" height="477.409" x="-7.316" y="-474.784" overflow="visible"/>
	</g>
</symbol>
<g id="Layer_1">
</g>
<g id="Layer_4">
	
		<use xlink:href="#sprite_7"  width="76.716" height="477.409" x="-7.316" y="-474.784" transform="matrix(0.5904 0 0 -0.5904 20.7998 26.6499)" overflow="visible"/>
	
		<use xlink:href="#sprite_7"  width="76.716" height="477.409" x="-7.316" y="-474.784" transform="matrix(-0.5904 0 0 -0.5904 99.8999 26.6499)" overflow="visible"/>
	
		<use xlink:href="#shape_8"  width="112.716" height="419.836" x="21.292" y="-443.536" transform="matrix(0.5904 0 0 -0.5904 14.2998 26.6499)" overflow="visible"/>
	
		<use xlink:href="#sprite_10"  width="6.45" height="6.8" x="-0.05" y="-6.75" transform="matrix(0.0864 0.5823 0.5276 -0.0953 50.6001 117.6499)" overflow="visible"/>
	
		<use xlink:href="#sprite_10"  width="6.45" height="6.8" x="-0.05" y="-6.75" transform="matrix(0.0864 0.5823 0.5276 -0.0953 50.75 130.5498)" overflow="visible"/>
	
		<use xlink:href="#sprite_10"  width="6.45" height="6.8" x="-0.05" y="-6.75" transform="matrix(0.0864 0.5823 0.5276 -0.0953 58.5 80.9502)" overflow="visible"/>
	
		<use xlink:href="#sprite_10"  width="6.45" height="6.8" x="-0.05" y="-6.75" transform="matrix(0.0864 0.5823 0.5276 -0.0953 56.0498 103.1499)" overflow="visible"/>
	
		<use xlink:href="#sprite_10"  width="6.45" height="6.8" x="-0.05" y="-6.75" transform="matrix(0.0864 0.5823 0.5276 -0.0953 58.4502 64.1499)" overflow="visible"/>
	
		<use xlink:href="#sprite_10"  width="6.45" height="6.8" x="-0.05" y="-6.75" transform="matrix(0.0864 0.5823 0.5276 -0.0953 58 46.3501)" overflow="visible"/>
	
		<use xlink:href="#sprite_11"  width="6.166" height="6.459" x="0.39" y="-6.902" transform="matrix(0.5904 0 0 -0.5904 56.1499 117.8999)" overflow="visible"/>
	
		<use xlink:href="#sprite_12"  width="28.1" height="26.7" x="-0.05" y="-26.65" transform="matrix(0.5349 0 0 -0.5904 48.0498 243)" overflow="visible"/>
	
		<use xlink:href="#sprite_13"  width="18.449" height="33.732" x="1.213" y="-35.049" transform="matrix(0.5904 0 0 -0.5904 46.3501 229.2998)" overflow="visible"/>
	
		<use xlink:href="#sprite_10"  width="6.45" height="6.8" x="-0.05" y="-6.75" transform="matrix(0.3865 0.4067 0.3685 -0.4266 48.8501 235.1499)" overflow="visible"/>
	
		<use xlink:href="#sprite_10"  width="6.45" height="6.8" x="-0.05" y="-6.75" transform="matrix(0.3865 0.4067 0.3685 -0.4266 56.0498 245.3501)" overflow="visible"/>
	
		<use xlink:href="#sprite_10"  width="6.45" height="6.8" x="-0.05" y="-6.75" transform="matrix(0.3865 0.4067 0.3685 -0.4266 56.2002 229.2998)" overflow="visible"/>
	
		<use xlink:href="#sprite_10"  width="6.45" height="6.8" x="-0.05" y="-6.75" transform="matrix(0.5349 0 0 -0.5904 48.0498 252.8999)" overflow="visible"/>
	
		<use xlink:href="#sprite_10"  width="6.45" height="6.8" x="-0.05" y="-6.75" transform="matrix(0.5349 0 0 -0.5904 59.6499 254.75)" overflow="visible"/>
	
		<use xlink:href="#sprite_10"  width="6.45" height="6.8" x="-0.05" y="-6.75" transform="matrix(0.5349 0 0 -0.5904 49.75 243)" overflow="visible"/>
	
		<use xlink:href="#shape_14"  width="124" height="330.519" x="15.5" y="-301.9" transform="matrix(0.5904 0 0 -0.5904 14.2998 26.6499)" overflow="visible"/>
	
		<use xlink:href="#sprite_16"  width="132.4" height="309.3" x="-60.05" y="-197.4" transform="matrix(0.1614 0 0 -0.1614 56.1499 169.4502)" overflow="visible"/>
	
		<use xlink:href="#sprite_18"  width="134.3" height="82.15" x="0.05" y="-82.15" transform="matrix(0.3645 -0.0977 -0.0977 -0.3645 32.1499 168.2002)" overflow="visible"/>
</g>
</svg>
